<svg width="148" height="172" viewBox="0 0 148 172" fill="none" xmlns="http://www.w3.org/2000/svg">
<path d="M30.352 14.224C28.6667 14.224 27.2747 13.664 26.176 12.544C25.0773 11.424 24.528 10.0427 24.528 8.4C24.528 6.74667 25.0773 5.36533 26.176 4.256C27.2747 3.136 28.6667 2.576 30.352 2.576C31.3653 2.576 32.2987 2.816 33.152 3.296C34.016 3.76533 34.688 4.40533 35.168 5.216L33.264 6.32C32.9867 5.81867 32.592 5.42933 32.08 5.152C31.568 4.864 30.992 4.72 30.352 4.72C29.264 4.72 28.384 5.06133 27.712 5.744C27.0507 6.42667 26.72 7.312 26.72 8.4C26.72 9.47733 27.0507 10.3573 27.712 11.04C28.384 11.7227 29.264 12.064 30.352 12.064C30.992 12.064 31.568 11.9253 32.08 11.648C32.6027 11.36 32.9973 10.9707 33.264 10.48L35.168 11.584C34.688 12.3947 34.0213 13.04 33.168 13.52C32.3147 13.9893 31.376 14.224 30.352 14.224ZM43.2913 13.008C42.4699 13.8187 41.4673 14.224 40.2833 14.224C39.0993 14.224 38.0966 13.8187 37.2753 13.008C36.4646 12.1867 36.0592 11.184 36.0592 10C36.0592 8.816 36.4646 7.81867 37.2753 7.008C38.0966 6.18667 39.0993 5.776 40.2833 5.776C41.4673 5.776 42.4699 6.18667 43.2913 7.008C44.1126 7.81867 44.5233 8.816 44.5233 10C44.5233 11.184 44.1126 12.1867 43.2913 13.008ZM38.7313 11.584C39.1473 12 39.6646 12.208 40.2833 12.208C40.9019 12.208 41.4193 12 41.8353 11.584C42.2513 11.168 42.4593 10.64 42.4593 10C42.4593 9.36 42.2513 8.832 41.8353 8.416C41.4193 8 40.9019 7.792 40.2833 7.792C39.6646 7.792 39.1473 8 38.7313 8.416C38.3259 8.832 38.1233 9.36 38.1233 10C38.1233 10.64 38.3259 11.168 38.7313 11.584ZM54.8233 5.776C55.7406 5.776 56.4713 6.07467 57.0153 6.672C57.5699 7.26933 57.8473 8.06933 57.8473 9.072V14H55.7833V9.216C55.7833 8.736 55.6659 8.36267 55.4313 8.096C55.1966 7.82933 54.8659 7.696 54.4392 7.696C53.9699 7.696 53.6019 7.85067 53.3353 8.16C53.0793 8.46933 52.9513 8.91733 52.9513 9.504V14H50.8873V9.216C50.8873 8.736 50.7699 8.36267 50.5353 8.096C50.3006 7.82933 49.9699 7.696 49.5433 7.696C49.0846 7.696 48.7166 7.85067 48.4393 8.16C48.1726 8.46933 48.0393 8.91733 48.0393 9.504V14H45.9753V6H48.0393V6.848C48.5193 6.13333 49.2606 5.776 50.2633 5.776C51.2446 5.776 51.9699 6.16 52.4393 6.928C52.9726 6.16 53.7673 5.776 54.8233 5.776ZM64.2563 5.776C65.3336 5.776 66.2509 6.18667 67.0083 7.008C67.7763 7.81867 68.1603 8.816 68.1603 10C68.1603 11.184 67.7763 12.1867 67.0083 13.008C66.2509 13.8187 65.3336 14.224 64.2563 14.224C63.1363 14.224 62.2723 13.8347 61.6643 13.056V17.2H59.6003V6H61.6643V6.944C62.2723 6.16533 63.1363 5.776 64.2563 5.776ZM62.2883 11.632C62.7043 12.048 63.2323 12.256 63.8723 12.256C64.5123 12.256 65.0403 12.048 65.4563 11.632C65.8829 11.2053 66.0963 10.6613 66.0963 10C66.0963 9.33867 65.8829 8.8 65.4563 8.384C65.0403 7.95733 64.5123 7.744 63.8723 7.744C63.2323 7.744 62.7043 7.95733 62.2883 8.384C61.8723 8.8 61.6643 9.33867 61.6643 10C61.6643 10.6613 61.8723 11.2053 62.2883 11.632ZM75.6959 6H77.7599V14H75.6959V13.056C75.0772 13.8347 74.2079 14.224 73.0879 14.224C72.0212 14.224 71.1039 13.8187 70.3359 13.008C69.5785 12.1867 69.1999 11.184 69.1999 10C69.1999 8.816 69.5785 7.81867 70.3359 7.008C71.1039 6.18667 72.0212 5.776 73.0879 5.776C74.2079 5.776 75.0772 6.16533 75.6959 6.944V6ZM71.8879 11.632C72.3039 12.048 72.8319 12.256 73.4719 12.256C74.1119 12.256 74.6399 12.048 75.0559 11.632C75.4825 11.2053 75.6959 10.6613 75.6959 10C75.6959 9.33867 75.4825 8.8 75.0559 8.384C74.6399 7.95733 74.1119 7.744 73.4719 7.744C72.8319 7.744 72.3039 7.95733 71.8879 8.384C71.4719 8.8 71.2639 9.33867 71.2639 10C71.2639 10.6613 71.4719 11.2053 71.8879 11.632ZM84.0795 5.776C84.9542 5.776 85.6742 6.06933 86.2395 6.656C86.8155 7.24267 87.1035 8.05333 87.1035 9.088V14H85.0395V9.344C85.0395 8.81067 84.8955 8.40533 84.6075 8.128C84.3195 7.84 83.9355 7.696 83.4555 7.696C82.9222 7.696 82.4955 7.86133 82.1755 8.192C81.8555 8.52267 81.6955 9.01867 81.6955 9.68V14H79.6315V6H81.6955V6.896C82.1968 6.14933 82.9915 5.776 84.0795 5.776ZM93.91 6H96.118L93.206 14C92.79 15.152 92.2353 15.984 91.542 16.496C90.8593 17.0187 90.006 17.2533 88.982 17.2V15.28C89.5367 15.2907 89.974 15.1733 90.294 14.928C90.6247 14.6827 90.886 14.288 91.078 13.744L87.798 6H90.054L92.134 11.376L93.91 6Z" fill="#071827"/>
<path d="M32.576 44L31.664 41.488H26.624L25.712 44H24.128L28.304 32.8H29.984L34.16 44H32.576ZM27.136 40.096H31.152L29.136 34.576L27.136 40.096ZM39.7533 35.792C40.8733 35.792 41.8279 36.2027 42.6173 37.024C43.4066 37.8347 43.8013 38.8267 43.8013 40C43.8013 41.1733 43.4066 42.1707 42.6173 42.992C41.8279 43.8027 40.8733 44.208 39.7533 44.208C38.4306 44.208 37.4226 43.68 36.7293 42.624V44H35.3372V32.8H36.7293V37.376C37.4226 36.32 38.4306 35.792 39.7533 35.792ZM39.5773 42.864C40.3773 42.864 41.0493 42.592 41.5933 42.048C42.1373 41.4933 42.4093 40.8107 42.4093 40C42.4093 39.1893 42.1373 38.512 41.5933 37.968C41.0493 37.4133 40.3773 37.136 39.5773 37.136C38.7666 37.136 38.0893 37.4133 37.5453 37.968C37.0013 38.512 36.7293 39.1893 36.7293 40C36.7293 40.8107 37.0013 41.4933 37.5453 42.048C38.0893 42.592 38.7666 42.864 39.5773 42.864ZM52.2143 42.992C51.3929 43.8027 50.3956 44.208 49.2223 44.208C48.0489 44.208 47.0516 43.8027 46.2303 42.992C45.4196 42.1813 45.0143 41.184 45.0143 40C45.0143 38.816 45.4196 37.8187 46.2303 37.008C47.0516 36.1973 48.0489 35.792 49.2223 35.792C50.3956 35.792 51.3929 36.1973 52.2143 37.008C53.0356 37.8187 53.4462 38.816 53.4462 40C53.4462 41.184 53.0356 42.1813 52.2143 42.992ZM49.2223 42.848C50.0223 42.848 50.6943 42.576 51.2383 42.032C51.7823 41.488 52.0543 40.8107 52.0543 40C52.0543 39.1893 51.7823 38.512 51.2383 37.968C50.6943 37.424 50.0223 37.152 49.2223 37.152C48.4329 37.152 47.7663 37.424 47.2223 37.968C46.6783 38.512 46.4062 39.1893 46.4062 40C46.4062 40.8107 46.6783 41.488 47.2223 42.032C47.7663 42.576 48.4329 42.848 49.2223 42.848ZM60.6073 36H61.9993V44H60.6073V42.848C60.0419 43.7547 59.1779 44.208 58.0153 44.208C57.0766 44.208 56.3246 43.9147 55.7593 43.328C55.1939 42.7307 54.9113 41.9253 54.9113 40.912V36H56.3033V40.832C56.3033 41.4827 56.4793 41.9893 56.8313 42.352C57.1833 42.704 57.6686 42.88 58.2873 42.88C58.9806 42.88 59.5406 42.6667 59.9673 42.24C60.3939 41.8027 60.6073 41.136 60.6073 40.24V36ZM68.4705 37.344H66.3425V41.68C66.3425 42.0747 66.4172 42.3573 66.5665 42.528C66.7265 42.688 66.9665 42.7733 67.2865 42.784C67.6065 42.784 68.0012 42.7733 68.4705 42.752V44C67.2545 44.16 66.3638 44.064 65.7985 43.712C65.2332 43.3493 64.9505 42.672 64.9505 41.68V37.344H63.3665V36H64.9505V34.176L66.3425 33.76V36H68.4705V37.344ZM77.9254 44.208C76.88 44.208 75.984 43.9627 75.2374 43.472C74.5014 42.9813 73.984 42.3093 73.6854 41.456L74.9654 40.72C75.4027 42.0747 76.4 42.752 77.9574 42.752C78.7254 42.752 79.312 42.5973 79.7174 42.288C80.1227 41.968 80.3254 41.5467 80.3254 41.024C80.3254 40.4907 80.1227 40.0907 79.7174 39.824C79.312 39.5573 78.6347 39.2747 77.6854 38.976C77.216 38.8267 76.8587 38.7093 76.6134 38.624C76.368 38.528 76.0587 38.3893 75.6854 38.208C75.3227 38.016 75.0507 37.824 74.8694 37.632C74.688 37.4293 74.5227 37.168 74.3734 36.848C74.2347 36.528 74.1654 36.1653 74.1654 35.76C74.1654 34.7893 74.5067 34.0213 75.1894 33.456C75.872 32.88 76.704 32.592 77.6854 32.592C78.5707 32.592 79.3387 32.816 79.9894 33.264C80.6507 33.712 81.1467 34.304 81.4774 35.04L80.2294 35.76C79.7494 34.608 78.9014 34.032 77.6854 34.032C77.0774 34.032 76.5867 34.1813 76.2134 34.48C75.84 34.7787 75.6534 35.184 75.6534 35.696C75.6534 36.1867 75.8294 36.56 76.1814 36.816C76.5334 37.072 77.1414 37.3387 78.0054 37.616C78.3147 37.712 78.5334 37.7813 78.6614 37.824C78.7894 37.8667 78.9867 37.9413 79.2534 38.048C79.5307 38.1547 79.7334 38.24 79.8614 38.304C79.9894 38.368 80.16 38.4587 80.3734 38.576C80.5974 38.6933 80.7627 38.8053 80.8694 38.912C80.976 39.0187 81.0987 39.152 81.2374 39.312C81.3867 39.4613 81.4934 39.616 81.5574 39.776C81.6214 39.936 81.6747 40.1227 81.7174 40.336C81.7707 40.5387 81.7974 40.7573 81.7974 40.992C81.7974 41.9733 81.44 42.7573 80.7254 43.344C80.0107 43.92 79.0774 44.208 77.9254 44.208ZM87.3629 44.208C86.1575 44.208 85.1549 43.808 84.3549 43.008C83.5549 42.1973 83.1549 41.1947 83.1549 40C83.1549 38.8053 83.5549 37.808 84.3549 37.008C85.1549 36.1973 86.1575 35.792 87.3629 35.792C88.1522 35.792 88.8615 35.984 89.4909 36.368C90.1202 36.7413 90.5895 37.248 90.8989 37.888L89.7309 38.56C89.5282 38.1333 89.2135 37.792 88.7869 37.536C88.3709 37.28 87.8962 37.152 87.3629 37.152C86.5629 37.152 85.8909 37.424 85.3469 37.968C84.8135 38.512 84.5469 39.1893 84.5469 40C84.5469 40.8 84.8135 41.472 85.3469 42.016C85.8909 42.56 86.5629 42.832 87.3629 42.832C87.8962 42.832 88.3762 42.7093 88.8029 42.464C89.2295 42.208 89.5549 41.8667 89.7789 41.44L90.9629 42.128C90.6215 42.7573 90.1309 43.264 89.4909 43.648C88.8509 44.0213 88.1415 44.208 87.3629 44.208ZM93.0413 34.544C92.7746 34.544 92.5506 34.4533 92.3693 34.272C92.1879 34.0907 92.0973 33.872 92.0973 33.616C92.0973 33.36 92.1879 33.1413 92.3693 32.96C92.5506 32.768 92.7746 32.672 93.0413 32.672C93.2973 32.672 93.5159 32.768 93.6973 32.96C93.8786 33.1413 93.9693 33.36 93.9693 33.616C93.9693 33.872 93.8786 34.0907 93.6973 34.272C93.5159 34.4533 93.2973 34.544 93.0413 34.544ZM92.3372 44V36H93.7293V44H92.3372ZM97.0373 38.16C97.0373 38.4693 97.1919 38.72 97.5013 38.912C97.8106 39.0933 98.1839 39.2427 98.6213 39.36C99.0586 39.4667 99.4959 39.5947 99.9333 39.744C100.371 39.8827 100.744 40.128 101.053 40.48C101.363 40.8213 101.517 41.264 101.517 41.808C101.517 42.5333 101.235 43.1147 100.669 43.552C100.115 43.9893 99.3999 44.208 98.5253 44.208C97.7466 44.208 97.0799 44.0373 96.5253 43.696C95.9706 43.3547 95.5759 42.9013 95.3413 42.336L96.5413 41.648C96.6693 42.032 96.9093 42.336 97.2613 42.56C97.6133 42.784 98.0346 42.896 98.5253 42.896C98.9839 42.896 99.3626 42.8107 99.6613 42.64C99.9599 42.4587 100.109 42.1813 100.109 41.808C100.109 41.4987 99.9546 41.2533 99.6453 41.072C99.3359 40.88 98.9626 40.7307 98.5253 40.624C98.0879 40.5067 97.6506 40.3733 97.2133 40.224C96.7759 40.0747 96.4026 39.8293 96.0933 39.488C95.7839 39.1467 95.6293 38.7093 95.6293 38.176C95.6293 37.4827 95.8959 36.912 96.4293 36.464C96.9733 36.016 97.6506 35.792 98.4613 35.792C99.1119 35.792 99.6879 35.9413 100.189 36.24C100.701 36.528 101.085 36.9333 101.341 37.456L100.173 38.112C99.8853 37.4293 99.3146 37.088 98.4613 37.088C98.0666 37.088 97.7306 37.184 97.4533 37.376C97.1759 37.5573 97.0373 37.8187 97.0373 38.16ZM103.865 38.16C103.865 38.4693 104.02 38.72 104.329 38.912C104.639 39.0933 105.012 39.2427 105.449 39.36C105.887 39.4667 106.324 39.5947 106.761 39.744C107.199 39.8827 107.572 40.128 107.881 40.48C108.191 40.8213 108.345 41.264 108.345 41.808C108.345 42.5333 108.063 43.1147 107.497 43.552C106.943 43.9893 106.228 44.208 105.353 44.208C104.575 44.208 103.908 44.0373 103.353 43.696C102.799 43.3547 102.404 42.9013 102.169 42.336L103.369 41.648C103.497 42.032 103.737 42.336 104.089 42.56C104.441 42.784 104.863 42.896 105.353 42.896C105.812 42.896 106.191 42.8107 106.489 42.64C106.788 42.4587 106.937 42.1813 106.937 41.808C106.937 41.4987 106.783 41.2533 106.473 41.072C106.164 40.88 105.791 40.7307 105.353 40.624C104.916 40.5067 104.479 40.3733 104.041 40.224C103.604 40.0747 103.231 39.8293 102.921 39.488C102.612 39.1467 102.457 38.7093 102.457 38.176C102.457 37.4827 102.724 36.912 103.257 36.464C103.801 36.016 104.479 35.792 105.289 35.792C105.94 35.792 106.516 35.9413 107.017 36.24C107.529 36.528 107.913 36.9333 108.169 37.456L107.001 38.112C106.713 37.4293 106.143 37.088 105.289 37.088C104.895 37.088 104.559 37.184 104.281 37.376C104.004 37.5573 103.865 37.8187 103.865 38.16ZM116.527 42.992C115.705 43.8027 114.708 44.208 113.535 44.208C112.361 44.208 111.364 43.8027 110.543 42.992C109.732 42.1813 109.327 41.184 109.327 40C109.327 38.816 109.732 37.8187 110.543 37.008C111.364 36.1973 112.361 35.792 113.535 35.792C114.708 35.792 115.705 36.1973 116.527 37.008C117.348 37.8187 117.759 38.816 117.759 40C117.759 41.184 117.348 42.1813 116.527 42.992ZM113.535 42.848C114.335 42.848 115.007 42.576 115.551 42.032C116.095 41.488 116.367 40.8107 116.367 40C116.367 39.1893 116.095 38.512 115.551 37.968C115.007 37.424 114.335 37.152 113.535 37.152C112.745 37.152 112.079 37.424 111.535 37.968C110.991 38.512 110.719 39.1893 110.719 40C110.719 40.8107 110.991 41.488 111.535 42.032C112.079 42.576 112.745 42.848 113.535 42.848ZM120.792 37.344C121.25 36.352 122.082 35.856 123.288 35.856V37.312C122.605 37.28 122.018 37.4613 121.528 37.856C121.037 38.2507 120.792 38.8853 120.792 39.76V44H119.4V36H120.792V37.344ZM30.464 68.208C28.768 68.208 27.3653 67.648 26.256 66.528C25.1573 65.408 24.608 64.032 24.608 62.4C24.608 60.768 25.1573 59.392 26.256 58.272C27.3653 57.152 28.768 56.592 30.464 56.592C31.488 56.592 32.4267 56.8373 33.28 57.328C34.144 57.8187 34.816 58.48 35.296 59.312L34 60.064C33.68 59.4453 33.2 58.9547 32.56 58.592C31.9307 58.2187 31.232 58.032 30.464 58.032C29.1733 58.032 28.1173 58.448 27.296 59.28C26.4853 60.112 26.08 61.152 26.08 62.4C26.08 63.6373 26.4853 64.672 27.296 65.504C28.1173 66.336 29.1733 66.752 30.464 66.752C31.232 66.752 31.9307 66.5707 32.56 66.208C33.2 65.8347 33.68 65.344 34 64.736L35.296 65.472C34.8267 66.304 34.16 66.9707 33.296 67.472C32.432 67.9627 31.488 68.208 30.464 68.208ZM43.43 60H44.822V68H43.43V66.624C42.7367 67.68 41.7287 68.208 40.406 68.208C39.286 68.208 38.3313 67.8027 37.542 66.992C36.7527 66.1707 36.358 65.1733 36.358 64C36.358 62.8267 36.7527 61.8347 37.542 61.024C38.3313 60.2027 39.286 59.792 40.406 59.792C41.7287 59.792 42.7367 60.32 43.43 61.376V60ZM40.582 66.864C41.3927 66.864 42.07 66.592 42.614 66.048C43.158 65.4933 43.43 64.8107 43.43 64C43.43 63.1893 43.158 62.512 42.614 61.968C42.07 61.4133 41.3927 61.136 40.582 61.136C39.782 61.136 39.11 61.4133 38.566 61.968C38.022 62.512 37.75 63.1893 37.75 64C37.75 64.8107 38.022 65.4933 38.566 66.048C39.11 66.592 39.782 66.864 40.582 66.864ZM48.323 61.344C48.7817 60.352 49.6137 59.856 50.819 59.856V61.312C50.1363 61.28 49.5497 61.4613 49.059 61.856C48.5683 62.2507 48.323 62.8853 48.323 63.76V68H46.931V60H48.323V61.344ZM52.7195 64.64C52.8582 65.3547 53.1835 65.9093 53.6955 66.304C54.2182 66.6987 54.8582 66.896 55.6155 66.896C56.6715 66.896 57.4395 66.5067 57.9195 65.728L59.1035 66.4C58.3248 67.6053 57.1515 68.208 55.5835 68.208C54.3142 68.208 53.2795 67.8133 52.4795 67.024C51.6902 66.224 51.2955 65.216 51.2955 64C51.2955 62.7947 51.6848 61.792 52.4635 60.992C53.2422 60.192 54.2502 59.792 55.4875 59.792C56.6608 59.792 57.6155 60.208 58.3515 61.04C59.0982 61.8613 59.4715 62.8533 59.4715 64.016C59.4715 64.2187 59.4555 64.4267 59.4235 64.64H52.7195ZM55.4875 61.104C54.7408 61.104 54.1222 61.3173 53.6315 61.744C53.1408 62.16 52.8368 62.72 52.7195 63.424H58.0635C57.9462 62.6667 57.6475 62.0907 57.1675 61.696C56.6875 61.3013 56.1275 61.104 55.4875 61.104ZM62.032 64.64C62.1707 65.3547 62.496 65.9093 63.008 66.304C63.5307 66.6987 64.1707 66.896 64.928 66.896C65.984 66.896 66.752 66.5067 67.232 65.728L68.416 66.4C67.6373 67.6053 66.464 68.208 64.896 68.208C63.6267 68.208 62.592 67.8133 61.792 67.024C61.0027 66.224 60.608 65.216 60.608 64C60.608 62.7947 60.9973 61.792 61.776 60.992C62.5547 60.192 63.5627 59.792 64.8 59.792C65.9733 59.792 66.928 60.208 67.664 61.04C68.4107 61.8613 68.784 62.8533 68.784 64.016C68.784 64.2187 68.768 64.4267 68.736 64.64H62.032ZM64.8 61.104C64.0533 61.104 63.4347 61.3173 62.944 61.744C62.4533 62.16 62.1493 62.72 62.032 63.424H67.376C67.2587 62.6667 66.96 62.0907 66.48 61.696C66 61.3013 65.44 61.104 64.8 61.104ZM71.7761 61.344C72.2348 60.352 73.0668 59.856 74.2721 59.856V61.312C73.5895 61.28 73.0028 61.4613 72.5121 61.856C72.0215 62.2507 71.7761 62.8853 71.7761 63.76V68H70.3841V60H71.7761V61.344ZM76.5373 62.16C76.5373 62.4693 76.6919 62.72 77.0013 62.912C77.3106 63.0933 77.6839 63.2427 78.1213 63.36C78.5586 63.4667 78.9959 63.5947 79.4333 63.744C79.8706 63.8827 80.2439 64.128 80.5533 64.48C80.8626 64.8213 81.0173 65.264 81.0173 65.808C81.0173 66.5333 80.7346 67.1147 80.1693 67.552C79.6146 67.9893 78.8999 68.208 78.0253 68.208C77.2466 68.208 76.5799 68.0373 76.0253 67.696C75.4706 67.3547 75.0759 66.9013 74.8413 66.336L76.0413 65.648C76.1693 66.032 76.4093 66.336 76.7613 66.56C77.1133 66.784 77.5346 66.896 78.0253 66.896C78.4839 66.896 78.8626 66.8107 79.1613 66.64C79.4599 66.4587 79.6093 66.1813 79.6093 65.808C79.6093 65.4987 79.4546 65.2533 79.1453 65.072C78.8359 64.88 78.4626 64.7307 78.0253 64.624C77.5879 64.5067 77.1506 64.3733 76.7133 64.224C76.2759 64.0747 75.9026 63.8293 75.5933 63.488C75.2839 63.1467 75.1293 62.7093 75.1293 62.176C75.1293 61.4827 75.3959 60.912 75.9293 60.464C76.4733 60.016 77.1506 59.792 77.9613 59.792C78.6119 59.792 79.1879 59.9413 79.6893 60.24C80.2013 60.528 80.5853 60.9333 80.8413 61.456L79.6733 62.112C79.3853 61.4293 78.8146 61.088 77.9613 61.088C77.5666 61.088 77.2306 61.184 76.9533 61.376C76.6759 61.5573 76.5373 61.8187 76.5373 62.16ZM29.264 80.8C30.2987 80.8 31.1573 81.1467 31.84 81.84C32.5333 82.5227 32.88 83.376 32.88 84.4C32.88 85.4133 32.5333 86.2667 31.84 86.96C31.1573 87.6533 30.2987 88 29.264 88H26.688V92H25.2V80.8H29.264ZM29.264 86.608C29.8827 86.608 30.3947 86.4 30.8 85.984C31.2053 85.5573 31.408 85.0293 31.408 84.4C31.408 83.76 31.2053 83.232 30.8 82.816C30.3947 82.4 29.8827 82.192 29.264 82.192H26.688V86.608H29.264ZM40.5081 84H41.9001V92H40.5081V90.624C39.8148 91.68 38.8068 92.208 37.4841 92.208C36.3641 92.208 35.4095 91.8027 34.6201 90.992C33.8308 90.1707 33.4361 89.1733 33.4361 88C33.4361 86.8267 33.8308 85.8347 34.6201 85.024C35.4095 84.2027 36.3641 83.792 37.4841 83.792C38.8068 83.792 39.8148 84.32 40.5081 85.376V84ZM37.6601 90.864C38.4708 90.864 39.1481 90.592 39.6921 90.048C40.2361 89.4933 40.5081 88.8107 40.5081 88C40.5081 87.1893 40.2361 86.512 39.6921 85.968C39.1481 85.4133 38.4708 85.136 37.6601 85.136C36.8601 85.136 36.1881 85.4133 35.6441 85.968C35.1001 86.512 34.8281 87.1893 34.8281 88C34.8281 88.8107 35.1001 89.4933 35.6441 90.048C36.1881 90.592 36.8601 90.864 37.6601 90.864ZM45.4011 85.344C45.8598 84.352 46.6918 83.856 47.8971 83.856V85.312C47.2145 85.28 46.6278 85.4613 46.1371 85.856C45.6465 86.2507 45.4011 86.8853 45.4011 87.76V92H44.0091V84H45.4011V85.344ZM53.7986 85.344H51.6706V89.68C51.6706 90.0747 51.7453 90.3573 51.8946 90.528C52.0546 90.688 52.2946 90.7733 52.6146 90.784C52.9346 90.784 53.3293 90.7733 53.7986 90.752V92C52.5826 92.16 51.692 92.064 51.1266 91.712C50.5613 91.3493 50.2786 90.672 50.2786 89.68V85.344H48.6946V84H50.2786V82.176L51.6706 81.76V84H53.7986V85.344ZM59.4775 83.792C60.4162 83.792 61.1682 84.0907 61.7335 84.688C62.2988 85.2747 62.5815 86.0747 62.5815 87.088V92H61.1895V87.168C61.1895 86.5173 61.0135 86.016 60.6615 85.664C60.3095 85.3013 59.8242 85.12 59.2055 85.12C58.5122 85.12 57.9522 85.3387 57.5255 85.776C57.0988 86.2027 56.8855 86.864 56.8855 87.76V92H55.4935V84H56.8855V85.152C57.4508 84.2453 58.3148 83.792 59.4775 83.792ZM65.5008 88.64C65.6394 89.3547 65.9648 89.9093 66.4768 90.304C66.9994 90.6987 67.6394 90.896 68.3968 90.896C69.4528 90.896 70.2208 90.5067 70.7008 89.728L71.8848 90.4C71.1061 91.6053 69.9328 92.208 68.3648 92.208C67.0954 92.208 66.0608 91.8133 65.2608 91.024C64.4714 90.224 64.0768 89.216 64.0768 88C64.0768 86.7947 64.4661 85.792 65.2448 84.992C66.0234 84.192 67.0314 83.792 68.2688 83.792C69.4421 83.792 70.3968 84.208 71.1328 85.04C71.8794 85.8613 72.2528 86.8533 72.2528 88.016C72.2528 88.2187 72.2368 88.4267 72.2048 88.64H65.5008ZM68.2688 85.104C67.5221 85.104 66.9034 85.3173 66.4128 85.744C65.9221 86.16 65.6181 86.72 65.5008 87.424H70.8448C70.7274 86.6667 70.4288 86.0907 69.9488 85.696C69.4688 85.3013 68.9088 85.104 68.2688 85.104ZM75.2449 85.344C75.7035 84.352 76.5355 83.856 77.7409 83.856V85.312C77.0582 85.28 76.4715 85.4613 75.9809 85.856C75.4902 86.2507 75.2449 86.8853 75.2449 87.76V92H73.8529V84H75.2449V85.344ZM80.006 86.16C80.006 86.4693 80.1607 86.72 80.47 86.912C80.7793 87.0933 81.1527 87.2427 81.59 87.36C82.0273 87.4667 82.4647 87.5947 82.902 87.744C83.3393 87.8827 83.7127 88.128 84.022 88.48C84.3313 88.8213 84.486 89.264 84.486 89.808C84.486 90.5333 84.2033 91.1147 83.638 91.552C83.0833 91.9893 82.3687 92.208 81.494 92.208C80.7153 92.208 80.0487 92.0373 79.494 91.696C78.9393 91.3547 78.5447 90.9013 78.31 90.336L79.51 89.648C79.638 90.032 79.878 90.336 80.23 90.56C80.582 90.784 81.0033 90.896 81.494 90.896C81.9527 90.896 82.3313 90.8107 82.63 90.64C82.9287 90.4587 83.078 90.1813 83.078 89.808C83.078 89.4987 82.9233 89.2533 82.614 89.072C82.3047 88.88 81.9313 88.7307 81.494 88.624C81.0567 88.5067 80.6193 88.3733 80.182 88.224C79.7447 88.0747 79.3713 87.8293 79.062 87.488C78.7527 87.1467 78.598 86.7093 78.598 86.176C78.598 85.4827 78.8647 84.912 79.398 84.464C79.942 84.016 80.6193 83.792 81.43 83.792C82.0807 83.792 82.6567 83.9413 83.158 84.24C83.67 84.528 84.054 84.9333 84.31 85.456L83.142 86.112C82.854 85.4293 82.2833 85.088 81.43 85.088C81.0353 85.088 80.6993 85.184 80.422 85.376C80.1447 85.5573 80.006 85.8187 80.006 86.16ZM29.264 104.8C30.2987 104.8 31.1573 105.147 31.84 105.84C32.5333 106.523 32.88 107.376 32.88 108.4C32.88 109.413 32.5333 110.267 31.84 110.96C31.1573 111.653 30.2987 112 29.264 112H26.688V116H25.2V104.8H29.264ZM29.264 110.608C29.8827 110.608 30.3947 110.4 30.8 109.984C31.2053 109.557 31.408 109.029 31.408 108.4C31.408 107.76 31.2053 107.232 30.8 106.816C30.3947 106.4 29.8827 106.192 29.264 106.192H26.688V110.608H29.264ZM35.7136 109.344C36.1723 108.352 37.0043 107.856 38.2096 107.856V109.312C37.527 109.28 36.9403 109.461 36.4496 109.856C35.959 110.251 35.7136 110.885 35.7136 111.76V116H34.3216V108H35.7136V109.344ZM40.1101 112.64C40.2488 113.355 40.5741 113.909 41.0861 114.304C41.6088 114.699 42.2488 114.896 43.0061 114.896C44.0621 114.896 44.8301 114.507 45.3101 113.728L46.4941 114.4C45.7155 115.605 44.5421 116.208 42.9741 116.208C41.7048 116.208 40.6701 115.813 39.8701 115.024C39.0808 114.224 38.6861 113.216 38.6861 112C38.6861 110.795 39.0755 109.792 39.8541 108.992C40.6328 108.192 41.6408 107.792 42.8781 107.792C44.0515 107.792 45.0061 108.208 45.7421 109.04C46.4888 109.861 46.8621 110.853 46.8621 112.016C46.8621 112.219 46.8461 112.427 46.8141 112.64H40.1101ZM42.8781 109.104C42.1315 109.104 41.5128 109.317 41.0221 109.744C40.5315 110.16 40.2275 110.72 40.1101 111.424H45.4541C45.3368 110.667 45.0381 110.091 44.5581 109.696C44.0781 109.301 43.5181 109.104 42.8781 109.104ZM49.3498 110.16C49.3498 110.469 49.5044 110.72 49.8138 110.912C50.1231 111.093 50.4964 111.243 50.9338 111.36C51.3711 111.467 51.8084 111.595 52.2458 111.744C52.6831 111.883 53.0564 112.128 53.3658 112.48C53.6751 112.821 53.8298 113.264 53.8298 113.808C53.8298 114.533 53.5471 115.115 52.9818 115.552C52.4271 115.989 51.7124 116.208 50.8378 116.208C50.0591 116.208 49.3924 116.037 48.8378 115.696C48.2831 115.355 47.8884 114.901 47.6538 114.336L48.8538 113.648C48.9818 114.032 49.2218 114.336 49.5738 114.56C49.9258 114.784 50.3471 114.896 50.8378 114.896C51.2964 114.896 51.6751 114.811 51.9738 114.64C52.2724 114.459 52.4218 114.181 52.4218 113.808C52.4218 113.499 52.2671 113.253 51.9578 113.072C51.6484 112.88 51.2751 112.731 50.8378 112.624C50.4004 112.507 49.9631 112.373 49.5258 112.224C49.0884 112.075 48.7151 111.829 48.4058 111.488C48.0964 111.147 47.9418 110.709 47.9418 110.176C47.9418 109.483 48.2084 108.912 48.7418 108.464C49.2858 108.016 49.9631 107.792 50.7738 107.792C51.4244 107.792 52.0004 107.941 52.5018 108.24C53.0138 108.528 53.3978 108.933 53.6538 109.456L52.4858 110.112C52.1978 109.429 51.6271 109.088 50.7738 109.088C50.3791 109.088 50.0431 109.184 49.7658 109.376C49.4884 109.557 49.3498 109.819 49.3498 110.16ZM56.1779 110.16C56.1779 110.469 56.3325 110.72 56.6419 110.912C56.9512 111.093 57.3245 111.243 57.7619 111.36C58.1992 111.467 58.6365 111.595 59.0739 111.744C59.5112 111.883 59.8845 112.128 60.1939 112.48C60.5032 112.821 60.6579 113.264 60.6579 113.808C60.6579 114.533 60.3752 115.115 59.8099 115.552C59.2552 115.989 58.5405 116.208 57.6659 116.208C56.8872 116.208 56.2205 116.037 55.6659 115.696C55.1112 115.355 54.7165 114.901 54.4819 114.336L55.6819 113.648C55.8099 114.032 56.0499 114.336 56.4019 114.56C56.7539 114.784 57.1752 114.896 57.6659 114.896C58.1245 114.896 58.5032 114.811 58.8019 114.64C59.1005 114.459 59.2499 114.181 59.2499 113.808C59.2499 113.499 59.0952 113.253 58.7859 113.072C58.4765 112.88 58.1032 112.731 57.6659 112.624C57.2285 112.507 56.7912 112.373 56.3539 112.224C55.9165 112.075 55.5432 111.829 55.2339 111.488C54.9245 111.147 54.7699 110.709 54.7699 110.176C54.7699 109.483 55.0365 108.912 55.5699 108.464C56.1139 108.016 56.7912 107.792 57.6019 107.792C58.2525 107.792 58.8285 107.941 59.3299 108.24C59.8419 108.528 60.2259 108.933 60.4819 109.456L59.3139 110.112C59.0259 109.429 58.4552 109.088 57.6019 109.088C57.2072 109.088 56.8712 109.184 56.5939 109.376C56.3165 109.557 56.1779 109.819 56.1779 110.16ZM30.464 140.208C28.768 140.208 27.3653 139.648 26.256 138.528C25.1573 137.408 24.608 136.032 24.608 134.4C24.608 132.768 25.1573 131.392 26.256 130.272C27.3653 129.152 28.768 128.592 30.464 128.592C31.488 128.592 32.4267 128.837 33.28 129.328C34.144 129.819 34.816 130.48 35.296 131.312L34 132.064C33.68 131.445 33.2 130.955 32.56 130.592C31.9307 130.219 31.232 130.032 30.464 130.032C29.1733 130.032 28.1173 130.448 27.296 131.28C26.4853 132.112 26.08 133.152 26.08 134.4C26.08 135.637 26.4853 136.672 27.296 137.504C28.1173 138.336 29.1733 138.752 30.464 138.752C31.232 138.752 31.9307 138.571 32.56 138.208C33.2 137.835 33.68 137.344 34 136.736L35.296 137.472C34.8267 138.304 34.16 138.971 33.296 139.472C32.432 139.963 31.488 140.208 30.464 140.208ZM43.558 138.992C42.7367 139.803 41.7393 140.208 40.566 140.208C39.3927 140.208 38.3953 139.803 37.574 138.992C36.7633 138.181 36.358 137.184 36.358 136C36.358 134.816 36.7633 133.819 37.574 133.008C38.3953 132.197 39.3927 131.792 40.566 131.792C41.7393 131.792 42.7367 132.197 43.558 133.008C44.3793 133.819 44.79 134.816 44.79 136C44.79 137.184 44.3793 138.181 43.558 138.992ZM40.566 138.848C41.366 138.848 42.038 138.576 42.582 138.032C43.126 137.488 43.398 136.811 43.398 136C43.398 135.189 43.126 134.512 42.582 133.968C42.038 133.424 41.366 133.152 40.566 133.152C39.7767 133.152 39.11 133.424 38.566 133.968C38.022 134.512 37.75 135.189 37.75 136C37.75 136.811 38.022 137.488 38.566 138.032C39.11 138.576 39.7767 138.848 40.566 138.848ZM50.415 131.792C51.3537 131.792 52.1057 132.091 52.671 132.688C53.2363 133.275 53.519 134.075 53.519 135.088V140H52.127V135.168C52.127 134.517 51.951 134.016 51.599 133.664C51.247 133.301 50.7617 133.12 50.143 133.12C49.4497 133.12 48.8897 133.339 48.463 133.776C48.0363 134.203 47.823 134.864 47.823 135.76V140H46.431V132H47.823V133.152C48.3883 132.245 49.2523 131.792 50.415 131.792ZM59.8143 133.344H57.6863V137.68C57.6863 138.075 57.7609 138.357 57.9103 138.528C58.0703 138.688 58.3103 138.773 58.6302 138.784C58.9502 138.784 59.3449 138.773 59.8143 138.752V140C58.5983 140.16 57.7076 140.064 57.1423 139.712C56.5769 139.349 56.2943 138.672 56.2943 137.68V133.344H54.7103V132H56.2943V130.176L57.6863 129.76V132H59.8143V133.344ZM67.68 132H69.072V140H67.68V138.624C66.9867 139.68 65.9787 140.208 64.656 140.208C63.536 140.208 62.5813 139.803 61.792 138.992C61.0027 138.171 60.608 137.173 60.608 136C60.608 134.827 61.0027 133.835 61.792 133.024C62.5813 132.203 63.536 131.792 64.656 131.792C65.9787 131.792 66.9867 132.32 67.68 133.376V132ZM64.832 138.864C65.6427 138.864 66.32 138.592 66.864 138.048C67.408 137.493 67.68 136.811 67.68 136C67.68 135.189 67.408 134.512 66.864 133.968C66.32 133.413 65.6427 133.136 64.832 133.136C64.032 133.136 63.36 133.413 62.816 133.968C62.272 134.512 62 135.189 62 136C62 136.811 62.272 137.493 62.816 138.048C63.36 138.592 64.032 138.864 64.832 138.864ZM74.941 140.208C73.7357 140.208 72.733 139.808 71.933 139.008C71.133 138.197 70.733 137.195 70.733 136C70.733 134.805 71.133 133.808 71.933 133.008C72.733 132.197 73.7357 131.792 74.941 131.792C75.7303 131.792 76.4397 131.984 77.069 132.368C77.6983 132.741 78.1677 133.248 78.477 133.888L77.309 134.56C77.1063 134.133 76.7917 133.792 76.365 133.536C75.949 133.28 75.4743 133.152 74.941 133.152C74.141 133.152 73.469 133.424 72.925 133.968C72.3917 134.512 72.125 135.189 72.125 136C72.125 136.8 72.3917 137.472 72.925 138.016C73.469 138.56 74.141 138.832 74.941 138.832C75.4743 138.832 75.9543 138.709 76.381 138.464C76.8077 138.208 77.133 137.867 77.357 137.44L78.541 138.128C78.1997 138.757 77.709 139.264 77.069 139.648C76.429 140.021 75.7197 140.208 74.941 140.208ZM84.2674 133.344H82.1394V137.68C82.1394 138.075 82.214 138.357 82.3634 138.528C82.5234 138.688 82.7634 138.773 83.0834 138.784C83.4034 138.784 83.798 138.773 84.2674 138.752V140C83.0514 140.16 82.1607 140.064 81.5954 139.712C81.03 139.349 80.7474 138.672 80.7474 137.68V133.344H79.1634V132H80.7474V130.176L82.1394 129.76V132H84.2674V133.344ZM31.84 164L29.328 159.712H26.688V164H25.2V152.8H29.68C30.64 152.8 31.4613 153.141 32.144 153.824C32.8267 154.496 33.168 155.312 33.168 156.272C33.168 156.997 32.9493 157.659 32.512 158.256C32.0853 158.853 31.5307 159.275 30.848 159.52L33.488 164H31.84ZM26.688 154.192V158.368H29.68C30.2347 158.368 30.704 158.165 31.088 157.76C31.4827 157.344 31.68 156.848 31.68 156.272C31.68 155.696 31.4827 155.205 31.088 154.8C30.704 154.395 30.2347 154.192 29.68 154.192H26.688ZM35.407 160.64C35.5457 161.355 35.871 161.909 36.383 162.304C36.9057 162.699 37.5457 162.896 38.303 162.896C39.359 162.896 40.127 162.507 40.607 161.728L41.791 162.4C41.0123 163.605 39.839 164.208 38.271 164.208C37.0017 164.208 35.967 163.813 35.167 163.024C34.3777 162.224 33.983 161.216 33.983 160C33.983 158.795 34.3723 157.792 35.151 156.992C35.9297 156.192 36.9377 155.792 38.175 155.792C39.3483 155.792 40.303 156.208 41.039 157.04C41.7857 157.861 42.159 158.853 42.159 160.016C42.159 160.219 42.143 160.427 42.111 160.64H35.407ZM38.175 157.104C37.4283 157.104 36.8097 157.317 36.319 157.744C35.8283 158.16 35.5243 158.72 35.407 159.424H40.751C40.6337 158.667 40.335 158.091 39.855 157.696C39.375 157.301 38.815 157.104 38.175 157.104ZM49.0466 156H50.5506L47.3506 164H45.7186L42.5186 156H44.0226L46.5346 162.512L49.0466 156ZM52.4319 154.544C52.1652 154.544 51.9412 154.453 51.7599 154.272C51.5785 154.091 51.4879 153.872 51.4879 153.616C51.4879 153.36 51.5785 153.141 51.7599 152.96C51.9412 152.768 52.1652 152.672 52.4319 152.672C52.6879 152.672 52.9065 152.768 53.0879 152.96C53.2692 153.141 53.3599 153.36 53.3599 153.616C53.3599 153.872 53.2692 154.091 53.0879 154.272C52.9065 154.453 52.6879 154.544 52.4319 154.544ZM51.7279 164V156H53.1199V164H51.7279ZM56.2195 160.64C56.3582 161.355 56.6835 161.909 57.1955 162.304C57.7182 162.699 58.3582 162.896 59.1155 162.896C60.1715 162.896 60.9395 162.507 61.4195 161.728L62.6035 162.4C61.8248 163.605 60.6515 164.208 59.0835 164.208C57.8142 164.208 56.7795 163.813 55.9795 163.024C55.1902 162.224 54.7955 161.216 54.7955 160C54.7955 158.795 55.1848 157.792 55.9635 156.992C56.7422 156.192 57.7502 155.792 58.9875 155.792C60.1608 155.792 61.1155 156.208 61.8515 157.04C62.5982 157.861 62.9715 158.853 62.9715 160.016C62.9715 160.219 62.9555 160.427 62.9235 160.64H56.2195ZM58.9875 157.104C58.2408 157.104 57.6222 157.317 57.1315 157.744C56.6408 158.16 56.3368 158.72 56.2195 159.424H61.5635C61.4462 158.667 61.1475 158.091 60.6675 157.696C60.1875 157.301 59.6275 157.104 58.9875 157.104ZM73.6831 156H75.1391L72.6591 164H71.2351L69.3631 158.08L67.4911 164H66.0671L63.5871 156H65.0431L66.8031 162.08L68.6911 156H70.0351L71.9231 162.096L73.6831 156ZM77.2716 158.16C77.2716 158.469 77.4263 158.72 77.7356 158.912C78.045 159.093 78.4183 159.243 78.8556 159.36C79.293 159.467 79.7303 159.595 80.1676 159.744C80.605 159.883 80.9783 160.128 81.2876 160.48C81.597 160.821 81.7516 161.264 81.7516 161.808C81.7516 162.533 81.469 163.115 80.9036 163.552C80.349 163.989 79.6343 164.208 78.7596 164.208C77.981 164.208 77.3143 164.037 76.7596 163.696C76.205 163.355 75.8103 162.901 75.5756 162.336L76.7756 161.648C76.9036 162.032 77.1436 162.336 77.4956 162.56C77.8476 162.784 78.269 162.896 78.7596 162.896C79.2183 162.896 79.597 162.811 79.8956 162.64C80.1943 162.459 80.3436 162.181 80.3436 161.808C80.3436 161.499 80.189 161.253 79.8796 161.072C79.5703 160.88 79.197 160.731 78.7596 160.624C78.3223 160.507 77.885 160.373 77.4476 160.224C77.0103 160.075 76.637 159.829 76.3276 159.488C76.0183 159.147 75.8636 158.709 75.8636 158.176C75.8636 157.483 76.1303 156.912 76.6636 156.464C77.2076 156.016 77.885 155.792 78.6956 155.792C79.3463 155.792 79.9223 155.941 80.4236 156.24C80.9356 156.528 81.3196 156.933 81.5756 157.456L80.4076 158.112C80.1196 157.429 79.549 157.088 78.6956 157.088C78.301 157.088 77.965 157.184 77.6876 157.376C77.4103 157.557 77.2716 157.819 77.2716 158.16Z" fill="#112232"/>
</svg>
