<svg width="201" height="176" viewBox="0 0 201 176" fill="none" xmlns="http://www.w3.org/2000/svg">
<path d="M31.728 6.912H27.248V9.568H31.6V11.68H27.248V16H25.04V4.8H31.728V6.912ZM34.9849 12.848C35.2622 13.8507 36.0142 14.352 37.2409 14.352C38.0302 14.352 38.6275 14.0853 39.0329 13.552L40.6969 14.512C39.9075 15.6533 38.7449 16.224 37.2089 16.224C35.8862 16.224 34.8249 15.824 34.0249 15.024C33.2249 14.224 32.8249 13.216 32.8249 12C32.8249 10.7947 33.2195 9.792 34.0089 8.992C34.7982 8.18133 35.8115 7.776 37.0489 7.776C38.2222 7.776 39.1875 8.18133 39.9449 8.992C40.7129 9.80267 41.0969 10.8053 41.0969 12C41.0969 12.2667 41.0702 12.5493 41.0169 12.848H34.9849ZM34.9529 11.248H39.0329C38.9155 10.704 38.6702 10.2987 38.2969 10.032C37.9342 9.76533 37.5182 9.632 37.0489 9.632C36.4942 9.632 36.0355 9.776 35.6729 10.064C35.3102 10.3413 35.0702 10.736 34.9529 11.248ZM48.5553 8H50.6193V16H48.5553V15.056C47.9366 15.8347 47.0673 16.224 45.9473 16.224C44.8806 16.224 43.9633 15.8187 43.1953 15.008C42.4379 14.1867 42.0592 13.184 42.0592 12C42.0592 10.816 42.4379 9.81867 43.1953 9.008C43.9633 8.18667 44.8806 7.776 45.9473 7.776C47.0673 7.776 47.9366 8.16533 48.5553 8.944V8ZM44.7473 13.632C45.1633 14.048 45.6913 14.256 46.3313 14.256C46.9713 14.256 47.4993 14.048 47.9153 13.632C48.3419 13.2053 48.5553 12.6613 48.5553 12C48.5553 11.3387 48.3419 10.8 47.9153 10.384C47.4993 9.95733 46.9713 9.744 46.3313 9.744C45.6913 9.744 45.1633 9.95733 44.7473 10.384C44.3313 10.8 44.1233 11.3387 44.1233 12C44.1233 12.6613 44.3313 13.2053 44.7473 13.632ZM57.0669 9.984H55.2589V13.312C55.2589 13.5893 55.3282 13.792 55.4669 13.92C55.6055 14.048 55.8082 14.1227 56.0749 14.144C56.3415 14.1547 56.6722 14.1493 57.0669 14.128V16C55.6482 16.16 54.6455 16.0267 54.0589 15.6C53.4829 15.1733 53.1949 14.4107 53.1949 13.312V9.984H51.8029V8H53.1949V6.384L55.2589 5.76V8H57.0669V9.984ZM63.9271 8H65.9911V16H63.9271V15.104C63.4258 15.8507 62.6311 16.224 61.5431 16.224C60.6685 16.224 59.9431 15.9307 59.3671 15.344C58.8018 14.7573 58.5191 13.9467 58.5191 12.912V8H60.5831V12.656C60.5831 13.1893 60.7271 13.6 61.0151 13.888C61.3031 14.1653 61.6871 14.304 62.1671 14.304C62.7005 14.304 63.1271 14.1387 63.4471 13.808C63.7671 13.4773 63.9271 12.9813 63.9271 12.32V8ZM69.9455 9.376C70.1375 8.864 70.4522 8.48 70.8895 8.224C71.3375 7.968 71.8335 7.84 72.3775 7.84V10.144C71.7482 10.0693 71.1828 10.1973 70.6815 10.528C70.1908 10.8587 69.9455 11.408 69.9455 12.176V16H67.8815V8H69.9455V9.376ZM75.0318 12.848C75.3091 13.8507 76.0611 14.352 77.2878 14.352C78.0771 14.352 78.6744 14.0853 79.0798 13.552L80.7438 14.512C79.9544 15.6533 78.7918 16.224 77.2558 16.224C75.9331 16.224 74.8718 15.824 74.0718 15.024C73.2718 14.224 72.8717 13.216 72.8717 12C72.8717 10.7947 73.2664 9.792 74.0558 8.992C74.8451 8.18133 75.8584 7.776 77.0958 7.776C78.2691 7.776 79.2344 8.18133 79.9918 8.992C80.7598 9.80267 81.1438 10.8053 81.1438 12C81.1438 12.2667 81.1171 12.5493 81.0638 12.848H75.0318ZM74.9998 11.248H79.0798C78.9624 10.704 78.7171 10.2987 78.3438 10.032C77.9811 9.76533 77.5651 9.632 77.0958 9.632C76.5411 9.632 76.0824 9.776 75.7198 10.064C75.3571 10.3413 75.1171 10.736 74.9998 11.248ZM84.1761 10.272C84.1761 10.4853 84.3148 10.6613 84.5921 10.8C84.8801 10.928 85.2268 11.0453 85.6321 11.152C86.0375 11.248 86.4428 11.376 86.8481 11.536C87.2535 11.6853 87.5948 11.9413 87.8721 12.304C88.1601 12.6667 88.3041 13.12 88.3041 13.664C88.3041 14.4853 87.9948 15.12 87.3761 15.568C86.7681 16.0053 86.0055 16.224 85.0881 16.224C83.4455 16.224 82.3255 15.5893 81.7281 14.32L83.5201 13.312C83.7548 14.0053 84.2775 14.352 85.0881 14.352C85.8241 14.352 86.1921 14.1227 86.1921 13.664C86.1921 13.4507 86.0481 13.28 85.7601 13.152C85.4828 13.0133 85.1415 12.8907 84.7361 12.784C84.3308 12.6773 83.9255 12.544 83.5201 12.384C83.1148 12.224 82.7681 11.9733 82.4801 11.632C82.2028 11.28 82.0641 10.8427 82.0641 10.32C82.0641 9.53067 82.3521 8.912 82.9281 8.464C83.5148 8.00533 84.2401 7.776 85.1041 7.776C85.7548 7.776 86.3468 7.92533 86.8801 8.224C87.4135 8.512 87.8348 8.928 88.1441 9.472L86.3841 10.432C86.1281 9.888 85.7015 9.616 85.1041 9.616C84.8375 9.616 84.6135 9.67467 84.4321 9.792C84.2615 9.90933 84.1761 10.0693 84.1761 10.272Z" fill="#071827"/>
<path d="M31.6 42.192C32.112 42.4373 32.5173 42.7893 32.816 43.248C33.1253 43.7067 33.28 44.2347 33.28 44.832C33.28 45.728 32.9653 46.48 32.336 47.088C31.7067 47.696 30.9387 48 30.032 48H25.2V36.8H29.68C30.5547 36.8 31.296 37.0933 31.904 37.68C32.512 38.2667 32.816 38.992 32.816 39.856C32.816 40.848 32.4107 41.6267 31.6 42.192ZM29.68 38.192H26.688V41.616H29.68C30.1493 41.616 30.544 41.4507 30.864 41.12C31.184 40.7893 31.344 40.384 31.344 39.904C31.344 39.4347 31.1787 39.0347 30.848 38.704C30.528 38.3627 30.1387 38.192 29.68 38.192ZM30.032 46.608C30.5333 46.608 30.9547 46.432 31.296 46.08C31.6373 45.728 31.808 45.296 31.808 44.784C31.808 44.2827 31.632 43.856 31.28 43.504C30.9387 43.152 30.5227 42.976 30.032 42.976H26.688V46.608H30.032ZM36.2918 41.344C36.7504 40.352 37.5824 39.856 38.7878 39.856V41.312C38.1051 41.28 37.5184 41.4613 37.0278 41.856C36.5371 42.2507 36.2918 42.8853 36.2918 43.76V48H34.8997V40H36.2918V41.344ZM46.3363 40H47.7283V48H46.3363V46.624C45.6429 47.68 44.6349 48.208 43.3123 48.208C42.1923 48.208 41.2376 47.8027 40.4483 46.992C39.6589 46.1707 39.2643 45.1733 39.2643 44C39.2643 42.8267 39.6589 41.8347 40.4483 41.024C41.2376 40.2027 42.1923 39.792 43.3123 39.792C44.6349 39.792 45.6429 40.32 46.3363 41.376V40ZM43.4883 46.864C44.2989 46.864 44.9763 46.592 45.5203 46.048C46.0643 45.4933 46.3363 44.8107 46.3363 44C46.3363 43.1893 46.0643 42.512 45.5203 41.968C44.9763 41.4133 44.2989 41.136 43.4883 41.136C42.6883 41.136 42.0163 41.4133 41.4723 41.968C40.9283 42.512 40.6562 43.1893 40.6562 44C40.6562 44.8107 40.9283 45.4933 41.4723 46.048C42.0163 46.592 42.6883 46.864 43.4883 46.864ZM53.8213 39.792C54.7599 39.792 55.5119 40.0907 56.0773 40.688C56.6426 41.2747 56.9253 42.0747 56.9253 43.088V48H55.5333V43.168C55.5333 42.5173 55.3573 42.016 55.0053 41.664C54.6533 41.3013 54.1679 41.12 53.5493 41.12C52.8559 41.12 52.2959 41.3387 51.8693 41.776C51.4426 42.2027 51.2293 42.864 51.2293 43.76V48H49.8372V40H51.2293V41.152C51.7946 40.2453 52.6586 39.792 53.8213 39.792ZM65.4925 36.8H66.8845V48H65.4925V46.624C64.7992 47.68 63.7912 48.208 62.4685 48.208C61.3485 48.208 60.3938 47.8027 59.6045 46.992C58.8152 46.1707 58.4205 45.1733 58.4205 44C58.4205 42.8267 58.8152 41.8347 59.6045 41.024C60.3938 40.2027 61.3485 39.792 62.4685 39.792C63.7912 39.792 64.7992 40.32 65.4925 41.376V36.8ZM62.6445 46.864C63.4552 46.864 64.1325 46.592 64.6765 46.048C65.2205 45.4933 65.4925 44.8107 65.4925 44C65.4925 43.1893 65.2205 42.512 64.6765 41.968C64.1325 41.4133 63.4552 41.136 62.6445 41.136C61.8445 41.136 61.1725 41.4133 60.6285 41.968C60.0845 42.512 59.8125 43.1893 59.8125 44C59.8125 44.8107 60.0845 45.4933 60.6285 46.048C61.1725 46.592 61.8445 46.864 62.6445 46.864ZM69.9695 44.64C70.1082 45.3547 70.4335 45.9093 70.9455 46.304C71.4682 46.6987 72.1082 46.896 72.8655 46.896C73.9215 46.896 74.6895 46.5067 75.1695 45.728L76.3535 46.4C75.5748 47.6053 74.4015 48.208 72.8335 48.208C71.5642 48.208 70.5295 47.8133 69.7295 47.024C68.9402 46.224 68.5455 45.216 68.5455 44C68.5455 42.7947 68.9348 41.792 69.7135 40.992C70.4922 40.192 71.5002 39.792 72.7375 39.792C73.9108 39.792 74.8655 40.208 75.6015 41.04C76.3482 41.8613 76.7215 42.8533 76.7215 44.016C76.7215 44.2187 76.7055 44.4267 76.6735 44.64H69.9695ZM72.7375 41.104C71.9908 41.104 71.3722 41.3173 70.8815 41.744C70.3908 42.16 70.0868 42.72 69.9695 43.424H75.3135C75.1962 42.6667 74.8975 42.0907 74.4175 41.696C73.9375 41.3013 73.3775 41.104 72.7375 41.104ZM84.93 36.8H86.322V48H84.93V46.624C84.2367 47.68 83.2287 48.208 81.906 48.208C80.786 48.208 79.8313 47.8027 79.042 46.992C78.2527 46.1707 77.858 45.1733 77.858 44C77.858 42.8267 78.2527 41.8347 79.042 41.024C79.8313 40.2027 80.786 39.792 81.906 39.792C83.2287 39.792 84.2367 40.32 84.93 41.376V36.8ZM82.082 46.864C82.8927 46.864 83.57 46.592 84.114 46.048C84.658 45.4933 84.93 44.8107 84.93 44C84.93 43.1893 84.658 42.512 84.114 41.968C83.57 41.4133 82.8927 41.136 82.082 41.136C81.282 41.136 80.61 41.4133 80.066 41.968C79.522 42.512 79.25 43.1893 79.25 44C79.25 44.8107 79.522 45.4933 80.066 46.048C80.61 46.592 81.282 46.864 82.082 46.864ZM94.063 46.592H98.895V48H92.575V36.8H94.063V46.592ZM100.948 38.544C100.681 38.544 100.457 38.4533 100.276 38.272C100.094 38.0907 100.004 37.872 100.004 37.616C100.004 37.36 100.094 37.1413 100.276 36.96C100.457 36.768 100.681 36.672 100.948 36.672C101.204 36.672 101.422 36.768 101.604 36.96C101.785 37.1413 101.876 37.36 101.876 37.616C101.876 37.872 101.785 38.0907 101.604 38.272C101.422 38.4533 101.204 38.544 100.948 38.544ZM100.243 48V40H101.636V48H100.243ZM107.743 39.792C108.682 39.792 109.434 40.0907 109.999 40.688C110.564 41.2747 110.847 42.0747 110.847 43.088V48H109.455V43.168C109.455 42.5173 109.279 42.016 108.927 41.664C108.575 41.3013 108.09 41.12 107.471 41.12C106.778 41.12 106.218 41.3387 105.791 41.776C105.364 42.2027 105.151 42.864 105.151 43.76V48H103.759V40H105.151V41.152C105.716 40.2453 106.58 39.792 107.743 39.792ZM119.558 48H117.83L114.182 44.208V48H112.79V36.8H114.182V43.536L117.638 40H119.43L115.606 43.872L119.558 48ZM121.444 42.16C121.444 42.4693 121.598 42.72 121.908 42.912C122.217 43.0933 122.59 43.2427 123.028 43.36C123.465 43.4667 123.902 43.5947 124.34 43.744C124.777 43.8827 125.15 44.128 125.46 44.48C125.769 44.8213 125.924 45.264 125.924 45.808C125.924 46.5333 125.641 47.1147 125.076 47.552C124.521 47.9893 123.806 48.208 122.932 48.208C122.153 48.208 121.486 48.0373 120.932 47.696C120.377 47.3547 119.982 46.9013 119.748 46.336L120.948 45.648C121.076 46.032 121.316 46.336 121.668 46.56C122.02 46.784 122.441 46.896 122.932 46.896C123.39 46.896 123.769 46.8107 124.068 46.64C124.366 46.4587 124.516 46.1813 124.516 45.808C124.516 45.4987 124.361 45.2533 124.052 45.072C123.742 44.88 123.369 44.7307 122.932 44.624C122.494 44.5067 122.057 44.3733 121.62 44.224C121.182 44.0747 120.809 43.8293 120.5 43.488C120.19 43.1467 120.036 42.7093 120.036 42.176C120.036 41.4827 120.302 40.912 120.836 40.464C121.38 40.016 122.057 39.792 122.868 39.792C123.518 39.792 124.094 39.9413 124.596 40.24C125.108 40.528 125.492 40.9333 125.748 41.456L124.58 42.112C124.292 41.4293 123.721 41.088 122.868 41.088C122.473 41.088 122.137 41.184 121.86 41.376C121.582 41.5573 121.444 41.8187 121.444 42.16ZM35.68 60.8V72H34.208V63.248L30.544 69.344H30.352L26.688 63.264V72H25.2V60.8H26.88L30.448 66.72L34 60.8H35.68ZM44.683 70.992C43.8617 71.8027 42.8643 72.208 41.691 72.208C40.5177 72.208 39.5203 71.8027 38.699 70.992C37.8883 70.1813 37.483 69.184 37.483 68C37.483 66.816 37.8883 65.8187 38.699 65.008C39.5203 64.1973 40.5177 63.792 41.691 63.792C42.8643 63.792 43.8617 64.1973 44.683 65.008C45.5043 65.8187 45.915 66.816 45.915 68C45.915 69.184 45.5043 70.1813 44.683 70.992ZM41.691 70.848C42.491 70.848 43.163 70.576 43.707 70.032C44.251 69.488 44.523 68.8107 44.523 68C44.523 67.1893 44.251 66.512 43.707 65.968C43.163 65.424 42.491 65.152 41.691 65.152C40.9017 65.152 40.235 65.424 39.691 65.968C39.147 66.512 38.875 67.1893 38.875 68C38.875 68.8107 39.147 69.488 39.691 70.032C40.235 70.576 40.9017 70.848 41.691 70.848ZM51.972 63.792C53.092 63.792 54.0467 64.2027 54.836 65.024C55.6253 65.8347 56.02 66.8267 56.02 68C56.02 69.1733 55.6253 70.1707 54.836 70.992C54.0467 71.8027 53.092 72.208 51.972 72.208C50.6493 72.208 49.6413 71.68 48.948 70.624V72H47.556V60.8H48.948V65.376C49.6413 64.32 50.6493 63.792 51.972 63.792ZM51.796 70.864C52.596 70.864 53.268 70.592 53.812 70.048C54.356 69.4933 54.628 68.8107 54.628 68C54.628 67.1893 54.356 66.512 53.812 65.968C53.268 65.4133 52.596 65.136 51.796 65.136C50.9853 65.136 50.308 65.4133 49.764 65.968C49.22 66.512 48.948 67.1893 48.948 68C48.948 68.8107 49.22 69.4933 49.764 70.048C50.308 70.592 50.9853 70.864 51.796 70.864ZM58.385 62.544C58.1183 62.544 57.8943 62.4533 57.713 62.272C57.5317 62.0907 57.441 61.872 57.441 61.616C57.441 61.36 57.5317 61.1413 57.713 60.96C57.8943 60.768 58.1183 60.672 58.385 60.672C58.641 60.672 58.8597 60.768 59.041 60.96C59.2223 61.1413 59.313 61.36 59.313 61.616C59.313 61.872 59.2223 62.0907 59.041 62.272C58.8597 62.4533 58.641 62.544 58.385 62.544ZM57.681 72V64H59.073V72H57.681ZM61.1966 72V60.32H62.5886V72H61.1966ZM65.6883 68.64C65.8269 69.3547 66.1523 69.9093 66.6643 70.304C67.1869 70.6987 67.8269 70.896 68.5843 70.896C69.6403 70.896 70.4083 70.5067 70.8883 69.728L72.0723 70.4C71.2936 71.6053 70.1203 72.208 68.5523 72.208C67.2829 72.208 66.2483 71.8133 65.4483 71.024C64.6589 70.224 64.2643 69.216 64.2643 68C64.2643 66.7947 64.6536 65.792 65.4323 64.992C66.2109 64.192 67.2189 63.792 68.4563 63.792C69.6296 63.792 70.5843 64.208 71.3203 65.04C72.0669 65.8613 72.4403 66.8533 72.4403 68.016C72.4403 68.2187 72.4243 68.4267 72.3923 68.64H65.6883ZM68.4563 65.104C67.7096 65.104 67.0909 65.3173 66.6003 65.744C66.1096 66.16 65.8056 66.72 65.6883 67.424H71.0323C70.9149 66.6667 70.6163 66.0907 70.1363 65.696C69.6563 65.3013 69.0963 65.104 68.4563 65.104ZM79.6724 70.592H84.5044V72H78.1844V60.8H79.6724V70.592ZM86.5569 62.544C86.2902 62.544 86.0662 62.4533 85.8849 62.272C85.7035 62.0907 85.6129 61.872 85.6129 61.616C85.6129 61.36 85.7035 61.1413 85.8849 60.96C86.0662 60.768 86.2902 60.672 86.5569 60.672C86.8129 60.672 87.0315 60.768 87.2129 60.96C87.3942 61.1413 87.4849 61.36 87.4849 61.616C87.4849 61.872 87.3942 62.0907 87.2129 62.272C87.0315 62.4533 86.8129 62.544 86.5569 62.544ZM85.8529 72V64H87.2449V72H85.8529ZM93.3525 63.792C94.2912 63.792 95.0432 64.0907 95.6085 64.688C96.1738 65.2747 96.4565 66.0747 96.4565 67.088V72H95.0645V67.168C95.0645 66.5173 94.8885 66.016 94.5365 65.664C94.1845 65.3013 93.6992 65.12 93.0805 65.12C92.3872 65.12 91.8272 65.3387 91.4005 65.776C90.9738 66.2027 90.7605 66.864 90.7605 67.76V72H89.3685V64H90.7605V65.152C91.3258 64.2453 92.1898 63.792 93.3525 63.792ZM105.168 72H103.44L99.7918 68.208V72H98.3997V60.8H99.7918V67.536L103.248 64H105.04L101.216 67.872L105.168 72ZM107.053 66.16C107.053 66.4693 107.208 66.72 107.517 66.912C107.826 67.0933 108.2 67.2427 108.637 67.36C109.074 67.4667 109.512 67.5947 109.949 67.744C110.386 67.8827 110.76 68.128 111.069 68.48C111.378 68.8213 111.533 69.264 111.533 69.808C111.533 70.5333 111.25 71.1147 110.685 71.552C110.13 71.9893 109.416 72.208 108.541 72.208C107.762 72.208 107.096 72.0373 106.541 71.696C105.986 71.3547 105.592 70.9013 105.357 70.336L106.557 69.648C106.685 70.032 106.925 70.336 107.277 70.56C107.629 70.784 108.05 70.896 108.541 70.896C109 70.896 109.378 70.8107 109.677 70.64C109.976 70.4587 110.125 70.1813 110.125 69.808C110.125 69.4987 109.97 69.2533 109.661 69.072C109.352 68.88 108.978 68.7307 108.541 68.624C108.104 68.5067 107.666 68.3733 107.229 68.224C106.792 68.0747 106.418 67.8293 106.109 67.488C105.8 67.1467 105.645 66.7093 105.645 66.176C105.645 65.4827 105.912 64.912 106.445 64.464C106.989 64.016 107.666 63.792 108.477 63.792C109.128 63.792 109.704 63.9413 110.205 64.24C110.717 64.528 111.101 64.9333 111.357 65.456L110.189 66.112C109.901 65.4293 109.33 65.088 108.477 65.088C108.082 65.088 107.746 65.184 107.469 65.376C107.192 65.5573 107.053 65.8187 107.053 66.16ZM30.464 96.208C28.768 96.208 27.3653 95.648 26.256 94.528C25.1573 93.408 24.608 92.032 24.608 90.4C24.608 88.768 25.1573 87.392 26.256 86.272C27.3653 85.152 28.768 84.592 30.464 84.592C31.488 84.592 32.4267 84.8373 33.28 85.328C34.144 85.8187 34.816 86.48 35.296 87.312L34 88.064C33.68 87.4453 33.2 86.9547 32.56 86.592C31.9307 86.2187 31.232 86.032 30.464 86.032C29.1733 86.032 28.1173 86.448 27.296 87.28C26.4853 88.112 26.08 89.152 26.08 90.4C26.08 91.6373 26.4853 92.672 27.296 93.504C28.1173 94.336 29.1733 94.752 30.464 94.752C31.232 94.752 31.9307 94.5707 32.56 94.208C33.2 93.8347 33.68 93.344 34 92.736L35.296 93.472C34.8267 94.304 34.16 94.9707 33.296 95.472C32.432 95.9627 31.488 96.208 30.464 96.208ZM43.43 88H44.822V96H43.43V94.624C42.7367 95.68 41.7287 96.208 40.406 96.208C39.286 96.208 38.3313 95.8027 37.542 94.992C36.7527 94.1707 36.358 93.1733 36.358 92C36.358 90.8267 36.7527 89.8347 37.542 89.024C38.3313 88.2027 39.286 87.792 40.406 87.792C41.7287 87.792 42.7367 88.32 43.43 89.376V88ZM40.582 94.864C41.3927 94.864 42.07 94.592 42.614 94.048C43.158 93.4933 43.43 92.8107 43.43 92C43.43 91.1893 43.158 90.512 42.614 89.968C42.07 89.4133 41.3927 89.136 40.582 89.136C39.782 89.136 39.11 89.4133 38.566 89.968C38.022 90.512 37.75 91.1893 37.75 92C37.75 92.8107 38.022 93.4933 38.566 94.048C39.11 94.592 39.782 94.864 40.582 94.864ZM55.571 87.792C56.467 87.792 57.1923 88.0853 57.747 88.672C58.3017 89.248 58.579 90.032 58.579 91.024V96H57.187V91.072C57.187 90.4533 57.027 89.9733 56.707 89.632C56.387 89.2907 55.9603 89.12 55.427 89.12C54.8297 89.12 54.3497 89.3227 53.987 89.728C53.635 90.1227 53.459 90.7307 53.459 91.552V96H52.067V91.072C52.067 90.4533 51.9123 89.9733 51.603 89.632C51.3043 89.2907 50.8937 89.12 50.371 89.12C49.7843 89.12 49.2937 89.3227 48.899 89.728C48.515 90.1333 48.323 90.7413 48.323 91.552V96H46.931V88H48.323V89.072C48.867 88.2187 49.6617 87.792 50.707 87.792C51.7843 87.792 52.5683 88.2453 53.059 89.152C53.6137 88.2453 54.451 87.792 55.571 87.792ZM64.9251 87.792C66.0451 87.792 66.9998 88.2027 67.7891 89.024C68.5785 89.8347 68.9731 90.8267 68.9731 92C68.9731 93.1733 68.5785 94.1707 67.7891 94.992C66.9998 95.8027 66.0451 96.208 64.9251 96.208C63.6025 96.208 62.5945 95.68 61.9011 94.624V99.2H60.5091V88H61.9011V89.376C62.5945 88.32 63.6025 87.792 64.9251 87.792ZM64.7491 94.864C65.5491 94.864 66.2211 94.592 66.7651 94.048C67.3091 93.4933 67.5811 92.8107 67.5811 92C67.5811 91.1893 67.3091 90.512 66.7651 89.968C66.2211 89.4133 65.5491 89.136 64.7491 89.136C63.9385 89.136 63.2611 89.4133 62.7171 89.968C62.1731 90.512 61.9011 91.1893 61.9011 92C61.9011 92.8107 62.1731 93.4933 62.7171 94.048C63.2611 94.592 63.9385 94.864 64.7491 94.864ZM77.2581 88H78.6501V96H77.2581V94.624C76.5648 95.68 75.5568 96.208 74.2341 96.208C73.1141 96.208 72.1595 95.8027 71.3701 94.992C70.5808 94.1707 70.1861 93.1733 70.1861 92C70.1861 90.8267 70.5808 89.8347 71.3701 89.024C72.1595 88.2027 73.1141 87.792 74.2341 87.792C75.5568 87.792 76.5648 88.32 77.2581 89.376V88ZM74.4101 94.864C75.2208 94.864 75.8981 94.592 76.4421 94.048C76.9861 93.4933 77.2581 92.8107 77.2581 92C77.2581 91.1893 76.9861 90.512 76.4421 89.968C75.8981 89.4133 75.2208 89.136 74.4101 89.136C73.6101 89.136 72.9381 89.4133 72.3941 89.968C71.8501 90.512 71.5781 91.1893 71.5781 92C71.5781 92.8107 71.8501 93.4933 72.3941 94.048C72.9381 94.592 73.6101 94.864 74.4101 94.864ZM81.4631 86.544C81.1965 86.544 80.9725 86.4533 80.7911 86.272C80.6098 86.0907 80.5191 85.872 80.5191 85.616C80.5191 85.36 80.6098 85.1413 80.7911 84.96C80.9725 84.768 81.1965 84.672 81.4631 84.672C81.7191 84.672 81.9378 84.768 82.1191 84.96C82.3005 85.1413 82.3911 85.36 82.3911 85.616C82.3911 85.872 82.3005 86.0907 82.1191 86.272C81.9378 86.4533 81.7191 86.544 81.4631 86.544ZM80.7591 96V88H82.1511V96H80.7591ZM90.9148 88H92.2908V95.664C92.2908 96.848 91.8908 97.7653 91.0908 98.416C90.2908 99.0773 89.3308 99.408 88.2108 99.408C87.3148 99.408 86.5414 99.2373 85.8908 98.896C85.2401 98.5653 84.7494 98.0853 84.4188 97.456L85.6348 96.768C86.0721 97.664 86.9414 98.112 88.2428 98.112C89.0748 98.112 89.7254 97.8933 90.1948 97.456C90.6748 97.0187 90.9148 96.4213 90.9148 95.664V94.528C90.2108 95.5947 89.2081 96.128 87.9068 96.128C86.7654 96.128 85.8001 95.7227 85.0108 94.912C84.2214 94.1013 83.8268 93.1147 83.8268 91.952C83.8268 90.7893 84.2214 89.808 85.0108 89.008C85.8001 88.1973 86.7654 87.792 87.9068 87.792C89.2188 87.792 90.2214 88.32 90.9148 89.376V88ZM86.0348 93.984C86.5788 94.528 87.2561 94.8 88.0668 94.8C88.8774 94.8 89.5548 94.528 90.0988 93.984C90.6428 93.44 90.9148 92.7627 90.9148 91.952C90.9148 91.152 90.6428 90.48 90.0988 89.936C89.5548 89.392 88.8774 89.12 88.0668 89.12C87.2561 89.12 86.5788 89.392 86.0348 89.936C85.4908 90.48 85.2188 91.152 85.2188 91.952C85.2188 92.7627 85.4908 93.44 86.0348 93.984ZM98.3838 87.792C99.3224 87.792 100.074 88.0907 100.64 88.688C101.205 89.2747 101.488 90.0747 101.488 91.088V96H100.096V91.168C100.096 90.5173 99.9198 90.016 99.5678 89.664C99.2158 89.3013 98.7304 89.12 98.1118 89.12C97.4184 89.12 96.8584 89.3387 96.4318 89.776C96.0051 90.2027 95.7918 90.864 95.7918 91.76V96H94.3997V88H95.7918V89.152C96.3571 88.2453 97.2211 87.792 98.3838 87.792ZM35.68 108.8V120H34.208V111.248L30.544 117.344H30.352L26.688 111.264V120H25.2V108.8H26.88L30.448 114.72L34 108.8H35.68ZM44.555 112H45.947V120H44.555V118.624C43.8617 119.68 42.8537 120.208 41.531 120.208C40.411 120.208 39.4563 119.803 38.667 118.992C37.8777 118.171 37.483 117.173 37.483 116C37.483 114.827 37.8777 113.835 38.667 113.024C39.4563 112.203 40.411 111.792 41.531 111.792C42.8537 111.792 43.8617 112.32 44.555 113.376V112ZM41.707 118.864C42.5177 118.864 43.195 118.592 43.739 118.048C44.283 117.493 44.555 116.811 44.555 116C44.555 115.189 44.283 114.512 43.739 113.968C43.195 113.413 42.5177 113.136 41.707 113.136C40.907 113.136 40.235 113.413 39.691 113.968C39.147 114.512 38.875 115.189 38.875 116C38.875 116.811 39.147 117.493 39.691 118.048C40.235 118.592 40.907 118.864 41.707 118.864ZM52.04 111.792C52.9787 111.792 53.7307 112.091 54.296 112.688C54.8613 113.275 55.144 114.075 55.144 115.088V120H53.752V115.168C53.752 114.517 53.576 114.016 53.224 113.664C52.872 113.301 52.3867 113.12 51.768 113.12C51.0747 113.12 50.5147 113.339 50.088 113.776C49.6613 114.203 49.448 114.864 49.448 115.76V120H48.056V112H49.448V113.152C50.0133 112.245 50.8773 111.792 52.04 111.792ZM63.7113 112H65.1033V120H63.7113V118.624C63.0179 119.68 62.0099 120.208 60.6873 120.208C59.5673 120.208 58.6126 119.803 57.8233 118.992C57.0339 118.171 56.6393 117.173 56.6393 116C56.6393 114.827 57.0339 113.835 57.8233 113.024C58.6126 112.203 59.5673 111.792 60.6873 111.792C62.0099 111.792 63.0179 112.32 63.7113 113.376V112ZM60.8633 118.864C61.6739 118.864 62.3513 118.592 62.8953 118.048C63.4393 117.493 63.7113 116.811 63.7113 116C63.7113 115.189 63.4393 114.512 62.8953 113.968C62.3513 113.413 61.6739 113.136 60.8633 113.136C60.0633 113.136 59.3913 113.413 58.8473 113.968C58.3033 114.512 58.0312 115.189 58.0312 116C58.0312 116.811 58.3033 117.493 58.8473 118.048C59.3913 118.592 60.0633 118.864 60.8633 118.864ZM73.8523 112H75.2283V119.664C75.2283 120.848 74.8283 121.765 74.0283 122.416C73.2283 123.077 72.2683 123.408 71.1483 123.408C70.2523 123.408 69.4789 123.237 68.8283 122.896C68.1776 122.565 67.6869 122.085 67.3563 121.456L68.5723 120.768C69.0096 121.664 69.8789 122.112 71.1803 122.112C72.0123 122.112 72.6629 121.893 73.1323 121.456C73.6123 121.019 73.8523 120.421 73.8523 119.664V118.528C73.1483 119.595 72.1456 120.128 70.8443 120.128C69.7029 120.128 68.7376 119.723 67.9483 118.912C67.1589 118.101 66.7643 117.115 66.7643 115.952C66.7643 114.789 67.1589 113.808 67.9483 113.008C68.7376 112.197 69.7029 111.792 70.8443 111.792C72.1563 111.792 73.1589 112.32 73.8523 113.376V112ZM68.9723 117.984C69.5163 118.528 70.1936 118.8 71.0043 118.8C71.8149 118.8 72.4923 118.528 73.0363 117.984C73.5803 117.44 73.8523 116.763 73.8523 115.952C73.8523 115.152 73.5803 114.48 73.0363 113.936C72.4923 113.392 71.8149 113.12 71.0043 113.12C70.1936 113.12 69.5163 113.392 68.9723 113.936C68.4283 114.48 68.1562 115.152 68.1562 115.952C68.1562 116.763 68.4283 117.44 68.9723 117.984ZM78.3133 116.64C78.4519 117.355 78.7773 117.909 79.2893 118.304C79.8119 118.699 80.4519 118.896 81.2093 118.896C82.2653 118.896 83.0333 118.507 83.5133 117.728L84.6973 118.4C83.9186 119.605 82.7453 120.208 81.1773 120.208C79.9079 120.208 78.8733 119.813 78.0733 119.024C77.2839 118.224 76.8893 117.216 76.8893 116C76.8893 114.795 77.2786 113.792 78.0573 112.992C78.8359 112.192 79.8439 111.792 81.0813 111.792C82.2546 111.792 83.2093 112.208 83.9453 113.04C84.6919 113.861 85.0653 114.853 85.0653 116.016C85.0653 116.219 85.0493 116.427 85.0173 116.64H78.3133ZM81.0813 113.104C80.3346 113.104 79.7159 113.317 79.2253 113.744C78.7346 114.16 78.4306 114.72 78.3133 115.424H83.6573C83.5399 114.667 83.2413 114.091 82.7613 113.696C82.2813 113.301 81.7213 113.104 81.0813 113.104ZM95.3054 111.792C96.2014 111.792 96.9267 112.085 97.4814 112.672C98.036 113.248 98.3134 114.032 98.3134 115.024V120H96.9214V115.072C96.9214 114.453 96.7614 113.973 96.4414 113.632C96.1214 113.291 95.6947 113.12 95.1614 113.12C94.564 113.12 94.084 113.323 93.7214 113.728C93.3694 114.123 93.1934 114.731 93.1934 115.552V120H91.8014V115.072C91.8014 114.453 91.6467 113.973 91.3374 113.632C91.0387 113.291 90.628 113.12 90.1054 113.12C89.5187 113.12 89.028 113.323 88.6334 113.728C88.2494 114.133 88.0574 114.741 88.0574 115.552V120H86.6654V112H88.0574V113.072C88.6014 112.219 89.396 111.792 90.4414 111.792C91.5187 111.792 92.3027 112.245 92.7934 113.152C93.348 112.245 94.1854 111.792 95.3054 111.792ZM101.22 116.64C101.358 117.355 101.684 117.909 102.196 118.304C102.718 118.699 103.358 118.896 104.116 118.896C105.172 118.896 105.94 118.507 106.42 117.728L107.604 118.4C106.825 119.605 105.652 120.208 104.084 120.208C102.814 120.208 101.78 119.813 100.98 119.024C100.19 118.224 99.7955 117.216 99.7955 116C99.7955 114.795 100.185 113.792 100.964 112.992C101.742 112.192 102.75 111.792 103.988 111.792C105.161 111.792 106.116 112.208 106.852 113.04C107.598 113.861 107.972 114.853 107.972 116.016C107.972 116.219 107.956 116.427 107.924 116.64H101.22ZM103.988 113.104C103.241 113.104 102.622 113.317 102.132 113.744C101.641 114.16 101.337 114.72 101.22 115.424H106.564C106.446 114.667 106.148 114.091 105.668 113.696C105.188 113.301 104.628 113.104 103.988 113.104ZM113.556 111.792C114.494 111.792 115.246 112.091 115.812 112.688C116.377 113.275 116.66 114.075 116.66 115.088V120H115.268V115.168C115.268 114.517 115.092 114.016 114.74 113.664C114.388 113.301 113.902 113.12 113.284 113.12C112.59 113.12 112.03 113.339 111.604 113.776C111.177 114.203 110.964 114.864 110.964 115.76V120H109.572V112H110.964V113.152C111.529 112.245 112.393 111.792 113.556 111.792ZM122.955 113.344H120.827V117.68C120.827 118.075 120.902 118.357 121.051 118.528C121.211 118.688 121.451 118.773 121.771 118.784C122.091 118.784 122.486 118.773 122.955 118.752V120C121.739 120.16 120.848 120.064 120.283 119.712C119.718 119.349 119.435 118.672 119.435 117.68V113.344H117.851V112H119.435V110.176L120.827 109.76V112H122.955V113.344ZM137.818 119.536L136.57 120.256L135.434 119.04C134.602 119.819 133.535 120.208 132.234 120.208C131.114 120.208 130.207 119.92 129.514 119.344C128.82 118.757 128.474 117.968 128.474 116.976C128.474 116.293 128.644 115.669 128.986 115.104C129.338 114.528 129.85 114.075 130.522 113.744C130.042 113.136 129.802 112.459 129.802 111.712C129.802 110.784 130.122 110.032 130.762 109.456C131.412 108.88 132.191 108.592 133.098 108.592C133.844 108.592 134.522 108.795 135.13 109.2C135.738 109.605 136.175 110.165 136.442 110.88L135.194 111.6C135.034 111.109 134.767 110.725 134.394 110.448C134.031 110.171 133.61 110.032 133.13 110.032C132.618 110.032 132.18 110.187 131.818 110.496C131.466 110.805 131.29 111.205 131.29 111.696C131.29 112.048 131.37 112.368 131.53 112.656C131.7 112.933 131.951 113.248 132.282 113.6L135.338 116.864C135.604 116.309 135.796 115.632 135.914 114.832L137.194 115.568C137.044 116.453 136.756 117.248 136.33 117.952L137.818 119.536ZM132.266 118.8C133.151 118.8 133.887 118.539 134.474 118.016L131.45 114.768C130.938 114.981 130.559 115.28 130.314 115.664C130.079 116.048 129.962 116.453 129.962 116.88C129.962 117.477 130.164 117.947 130.57 118.288C130.975 118.629 131.54 118.8 132.266 118.8ZM32.576 144L31.664 141.488H26.624L25.712 144H24.128L28.304 132.8H29.984L34.16 144H32.576ZM27.136 140.096H31.152L29.136 134.576L27.136 140.096ZM39.3213 135.792C40.2599 135.792 41.0119 136.091 41.5773 136.688C42.1426 137.275 42.4253 138.075 42.4253 139.088V144H41.0333V139.168C41.0333 138.517 40.8573 138.016 40.5053 137.664C40.1533 137.301 39.6679 137.12 39.0493 137.12C38.3559 137.12 37.7959 137.339 37.3693 137.776C36.9426 138.203 36.7293 138.864 36.7293 139.76V144H35.3372V136H36.7293V137.152C37.2946 136.245 38.1586 135.792 39.3213 135.792ZM50.9925 136H52.3845V144H50.9925V142.624C50.2992 143.68 49.2912 144.208 47.9685 144.208C46.8485 144.208 45.8938 143.803 45.1045 142.992C44.3152 142.171 43.9205 141.173 43.9205 140C43.9205 138.827 44.3152 137.835 45.1045 137.024C45.8938 136.203 46.8485 135.792 47.9685 135.792C49.2912 135.792 50.2992 136.32 50.9925 137.376V136ZM48.1445 142.864C48.9552 142.864 49.6325 142.592 50.1765 142.048C50.7205 141.493 50.9925 140.811 50.9925 140C50.9925 139.189 50.7205 138.512 50.1765 137.968C49.6325 137.413 48.9552 137.136 48.1445 137.136C47.3445 137.136 46.6725 137.413 46.1285 137.968C45.5845 138.512 45.3125 139.189 45.3125 140C45.3125 140.811 45.5845 141.493 46.1285 142.048C46.6725 142.592 47.3445 142.864 48.1445 142.864ZM54.4935 144V132.32H55.8855V144H54.4935ZM63.5931 136H65.0811L61.8171 144.496C61.4758 145.403 60.9958 146.091 60.3771 146.56C59.7691 147.04 59.0651 147.253 58.2651 147.2V145.904C59.2465 145.979 59.9665 145.435 60.4251 144.272L60.5691 143.968L57.0811 136H58.5691L61.2891 142.272L63.5931 136ZM70.5955 137.344H68.4675V141.68C68.4675 142.075 68.5422 142.357 68.6915 142.528C68.8515 142.688 69.0915 142.773 69.4115 142.784C69.7315 142.784 70.1262 142.773 70.5955 142.752V144C69.3795 144.16 68.4888 144.064 67.9235 143.712C67.3582 143.349 67.0755 142.672 67.0755 141.68V137.344H65.4915V136H67.0755V134.176L68.4675 133.76V136H70.5955V137.344ZM72.9475 134.544C72.6808 134.544 72.4568 134.453 72.2755 134.272C72.0942 134.091 72.0035 133.872 72.0035 133.616C72.0035 133.36 72.0942 133.141 72.2755 132.96C72.4568 132.768 72.6808 132.672 72.9475 132.672C73.2035 132.672 73.4222 132.768 73.6035 132.96C73.7848 133.141 73.8755 133.36 73.8755 133.616C73.8755 133.872 73.7848 134.091 73.6035 134.272C73.4222 134.453 73.2035 134.544 72.9475 134.544ZM72.2435 144V136H73.6355V144H72.2435ZM79.5191 144.208C78.3138 144.208 77.3111 143.808 76.5111 143.008C75.7111 142.197 75.3111 141.195 75.3111 140C75.3111 138.805 75.7111 137.808 76.5111 137.008C77.3111 136.197 78.3138 135.792 79.5191 135.792C80.3085 135.792 81.0178 135.984 81.6471 136.368C82.2765 136.741 82.7458 137.248 83.0551 137.888L81.8871 138.56C81.6845 138.133 81.3698 137.792 80.9431 137.536C80.5271 137.28 80.0525 137.152 79.5191 137.152C78.7191 137.152 78.0471 137.424 77.5031 137.968C76.9698 138.512 76.7031 139.189 76.7031 140C76.7031 140.8 76.9698 141.472 77.5031 142.016C78.0471 142.56 78.7191 142.832 79.5191 142.832C80.0525 142.832 80.5325 142.709 80.9591 142.464C81.3858 142.208 81.7111 141.867 81.9351 141.44L83.1191 142.128C82.7778 142.757 82.2871 143.264 81.6471 143.648C81.0071 144.021 80.2978 144.208 79.5191 144.208ZM85.631 138.16C85.631 138.469 85.7857 138.72 86.095 138.912C86.4043 139.093 86.7777 139.243 87.215 139.36C87.6523 139.467 88.0897 139.595 88.527 139.744C88.9643 139.883 89.3377 140.128 89.647 140.48C89.9563 140.821 90.111 141.264 90.111 141.808C90.111 142.533 89.8283 143.115 89.263 143.552C88.7083 143.989 87.9937 144.208 87.119 144.208C86.3403 144.208 85.6737 144.037 85.119 143.696C84.5643 143.355 84.1697 142.901 83.935 142.336L85.135 141.648C85.263 142.032 85.503 142.336 85.855 142.56C86.207 142.784 86.6283 142.896 87.119 142.896C87.5777 142.896 87.9563 142.811 88.255 142.64C88.5537 142.459 88.703 142.181 88.703 141.808C88.703 141.499 88.5483 141.253 88.239 141.072C87.9297 140.88 87.5563 140.731 87.119 140.624C86.6817 140.507 86.2443 140.373 85.807 140.224C85.3697 140.075 84.9963 139.829 84.687 139.488C84.3777 139.147 84.223 138.709 84.223 138.176C84.223 137.483 84.4897 136.912 85.023 136.464C85.567 136.016 86.2443 135.792 87.055 135.792C87.7057 135.792 88.2817 135.941 88.783 136.24C89.295 136.528 89.679 136.933 89.935 137.456L88.767 138.112C88.479 137.429 87.9083 137.088 87.055 137.088C86.6603 137.088 86.3243 137.184 86.047 137.376C85.7697 137.557 85.631 137.819 85.631 138.16ZM36.208 162.4C36.208 163.936 35.68 165.264 34.624 166.384L35.856 167.616L34.832 168.544L33.568 167.264C32.5973 167.893 31.5413 168.208 30.4 168.208C28.8 168.208 27.4347 167.643 26.304 166.512C25.1733 165.381 24.608 164.011 24.608 162.4C24.608 160.789 25.1733 159.419 26.304 158.288C27.4347 157.157 28.8 156.592 30.4 156.592C32 156.592 33.3653 157.157 34.496 158.288C35.6373 159.419 36.208 160.789 36.208 162.4ZM30.4 166.752C31.168 166.752 31.872 166.571 32.512 166.208L30.272 163.952L31.296 163.04L33.6 165.344C34.3467 164.533 34.72 163.552 34.72 162.4C34.72 161.173 34.2987 160.139 33.456 159.296C32.624 158.453 31.6053 158.032 30.4 158.032C29.1947 158.032 28.1707 158.453 27.328 159.296C26.496 160.139 26.08 161.173 26.08 162.4C26.08 163.616 26.496 164.645 27.328 165.488C28.1707 166.331 29.1947 166.752 30.4 166.752ZM44.715 168L42.203 163.712H39.563V168H38.075V156.8H42.555C43.515 156.8 44.3363 157.141 45.019 157.824C45.7017 158.496 46.043 159.312 46.043 160.272C46.043 160.997 45.8243 161.659 45.387 162.256C44.9603 162.853 44.4057 163.275 43.723 163.52L46.363 168H44.715ZM39.563 158.192V162.368H42.555C43.1097 162.368 43.579 162.165 43.963 161.76C44.3577 161.344 44.555 160.848 44.555 160.272C44.555 159.696 44.3577 159.205 43.963 158.8C43.579 158.395 43.1097 158.192 42.555 158.192H39.563ZM57.1203 168.208C55.4243 168.208 54.0216 167.648 52.9123 166.528C51.8136 165.408 51.2643 164.032 51.2643 162.4C51.2643 160.768 51.8136 159.392 52.9123 158.272C54.0216 157.152 55.4243 156.592 57.1203 156.592C58.1443 156.592 59.0829 156.837 59.9363 157.328C60.8003 157.819 61.4723 158.48 61.9523 159.312L60.6562 160.064C60.3363 159.445 59.8563 158.955 59.2163 158.592C58.5869 158.219 57.8883 158.032 57.1203 158.032C55.8296 158.032 54.7736 158.448 53.9523 159.28C53.1416 160.112 52.7363 161.152 52.7363 162.4C52.7363 163.637 53.1416 164.672 53.9523 165.504C54.7736 166.336 55.8296 166.752 57.1203 166.752C57.8883 166.752 58.5869 166.571 59.2163 166.208C59.8563 165.835 60.3363 165.344 60.6562 164.736L61.9523 165.472C61.4829 166.304 60.8163 166.971 59.9523 167.472C59.0883 167.963 58.1443 168.208 57.1203 168.208ZM70.2143 166.992C69.3929 167.803 68.3956 168.208 67.2223 168.208C66.0489 168.208 65.0516 167.803 64.2303 166.992C63.4196 166.181 63.0143 165.184 63.0143 164C63.0143 162.816 63.4196 161.819 64.2303 161.008C65.0516 160.197 66.0489 159.792 67.2223 159.792C68.3956 159.792 69.3929 160.197 70.2143 161.008C71.0356 161.819 71.4462 162.816 71.4462 164C71.4462 165.184 71.0356 166.181 70.2143 166.992ZM67.2223 166.848C68.0223 166.848 68.6943 166.576 69.2383 166.032C69.7823 165.488 70.0543 164.811 70.0543 164C70.0543 163.189 69.7823 162.512 69.2383 161.968C68.6943 161.424 68.0223 161.152 67.2223 161.152C66.4329 161.152 65.7663 161.424 65.2223 161.968C64.6783 162.512 64.4062 163.189 64.4062 164C64.4062 164.811 64.6783 165.488 65.2223 166.032C65.7663 166.576 66.4329 166.848 67.2223 166.848ZM79.7113 156.8H81.1033V168H79.7113V166.624C79.0179 167.68 78.0099 168.208 76.6873 168.208C75.5673 168.208 74.6126 167.803 73.8233 166.992C73.0339 166.171 72.6393 165.173 72.6393 164C72.6393 162.827 73.0339 161.835 73.8233 161.024C74.6126 160.203 75.5673 159.792 76.6873 159.792C78.0099 159.792 79.0179 160.32 79.7113 161.376V156.8ZM76.8633 166.864C77.6739 166.864 78.3513 166.592 78.8953 166.048C79.4393 165.493 79.7113 164.811 79.7113 164C79.7113 163.189 79.4393 162.512 78.8953 161.968C78.3513 161.413 77.6739 161.136 76.8633 161.136C76.0633 161.136 75.3913 161.413 74.8473 161.968C74.3033 162.512 74.0312 163.189 74.0312 164C74.0312 164.811 74.3033 165.493 74.8473 166.048C75.3913 166.592 76.0633 166.864 76.8633 166.864ZM84.1883 164.64C84.3269 165.355 84.6523 165.909 85.1643 166.304C85.6869 166.699 86.3269 166.896 87.0843 166.896C88.1403 166.896 88.9083 166.507 89.3883 165.728L90.5723 166.4C89.7936 167.605 88.6203 168.208 87.0523 168.208C85.7829 168.208 84.7483 167.813 83.9483 167.024C83.1589 166.224 82.7643 165.216 82.7643 164C82.7643 162.795 83.1536 161.792 83.9323 160.992C84.7109 160.192 85.7189 159.792 86.9563 159.792C88.1296 159.792 89.0843 160.208 89.8203 161.04C90.5669 161.861 90.9403 162.853 90.9403 164.016C90.9403 164.219 90.9243 164.427 90.8923 164.64H84.1883ZM86.9563 161.104C86.2096 161.104 85.5909 161.317 85.1003 161.744C84.6096 162.16 84.3056 162.72 84.1883 163.424H89.5323C89.4149 162.667 89.1163 162.091 88.6363 161.696C88.1563 161.301 87.5963 161.104 86.9563 161.104ZM103.18 160H104.556V167.664C104.556 168.848 104.156 169.765 103.356 170.416C102.556 171.077 101.596 171.408 100.476 171.408C99.5804 171.408 98.807 171.237 98.1564 170.896C97.5057 170.565 97.015 170.085 96.6844 169.456L97.9004 168.768C98.3377 169.664 99.207 170.112 100.508 170.112C101.34 170.112 101.991 169.893 102.46 169.456C102.94 169.019 103.18 168.421 103.18 167.664V166.528C102.476 167.595 101.474 168.128 100.172 168.128C99.031 168.128 98.0657 167.723 97.2764 166.912C96.487 166.101 96.0924 165.115 96.0924 163.952C96.0924 162.789 96.487 161.808 97.2764 161.008C98.0657 160.197 99.031 159.792 100.172 159.792C101.484 159.792 102.487 160.32 103.18 161.376V160ZM98.3004 165.984C98.8444 166.528 99.5217 166.8 100.332 166.8C101.143 166.8 101.82 166.528 102.364 165.984C102.908 165.44 103.18 164.763 103.18 163.952C103.18 163.152 102.908 162.48 102.364 161.936C101.82 161.392 101.143 161.12 100.332 161.12C99.5217 161.12 98.8444 161.392 98.3004 161.936C97.7564 162.48 97.4844 163.152 97.4844 163.952C97.4844 164.763 97.7564 165.44 98.3004 165.984ZM107.641 164.64C107.78 165.355 108.105 165.909 108.617 166.304C109.14 166.699 109.78 166.896 110.537 166.896C111.593 166.896 112.361 166.507 112.841 165.728L114.025 166.4C113.247 167.605 112.073 168.208 110.505 168.208C109.236 168.208 108.201 167.813 107.401 167.024C106.612 166.224 106.217 165.216 106.217 164C106.217 162.795 106.607 161.792 107.385 160.992C108.164 160.192 109.172 159.792 110.409 159.792C111.583 159.792 112.537 160.208 113.273 161.04C114.02 161.861 114.393 162.853 114.393 164.016C114.393 164.219 114.377 164.427 114.345 164.64H107.641ZM110.409 161.104C109.663 161.104 109.044 161.317 108.553 161.744C108.063 162.16 107.759 162.72 107.641 163.424H112.985C112.868 162.667 112.569 162.091 112.089 161.696C111.609 161.301 111.049 161.104 110.409 161.104ZM119.978 159.792C120.916 159.792 121.668 160.091 122.234 160.688C122.799 161.275 123.082 162.075 123.082 163.088V168H121.69V163.168C121.69 162.517 121.514 162.016 121.162 161.664C120.81 161.301 120.324 161.12 119.706 161.12C119.012 161.12 118.452 161.339 118.026 161.776C117.599 162.203 117.386 162.864 117.386 163.76V168H115.993V160H117.386V161.152C117.951 160.245 118.815 159.792 119.978 159.792ZM126.001 164.64C126.139 165.355 126.465 165.909 126.977 166.304C127.499 166.699 128.139 166.896 128.897 166.896C129.953 166.896 130.721 166.507 131.201 165.728L132.385 166.4C131.606 167.605 130.433 168.208 128.865 168.208C127.595 168.208 126.561 167.813 125.761 167.024C124.971 166.224 124.577 165.216 124.577 164C124.577 162.795 124.966 161.792 125.745 160.992C126.523 160.192 127.531 159.792 128.769 159.792C129.942 159.792 130.897 160.208 131.633 161.04C132.379 161.861 132.753 162.853 132.753 164.016C132.753 164.219 132.737 164.427 132.705 164.64H126.001ZM128.769 161.104C128.022 161.104 127.403 161.317 126.913 161.744C126.422 162.16 126.118 162.72 126.001 163.424H131.345C131.227 162.667 130.929 162.091 130.449 161.696C129.969 161.301 129.409 161.104 128.769 161.104ZM135.745 161.344C136.204 160.352 137.036 159.856 138.241 159.856V161.312C137.558 161.28 136.972 161.461 136.481 161.856C135.99 162.251 135.745 162.885 135.745 163.76V168H134.353V160H135.745V161.344ZM145.789 160H147.181V168H145.789V166.624C145.096 167.68 144.088 168.208 142.765 168.208C141.645 168.208 140.691 167.803 139.901 166.992C139.112 166.171 138.717 165.173 138.717 164C138.717 162.827 139.112 161.835 139.901 161.024C140.691 160.203 141.645 159.792 142.765 159.792C144.088 159.792 145.096 160.32 145.789 161.376V160ZM142.941 166.864C143.752 166.864 144.429 166.592 144.973 166.048C145.517 165.493 145.789 164.811 145.789 164C145.789 163.189 145.517 162.512 144.973 161.968C144.429 161.413 143.752 161.136 142.941 161.136C142.141 161.136 141.469 161.413 140.925 161.968C140.381 162.512 140.109 163.189 140.109 164C140.109 164.811 140.381 165.493 140.925 166.048C141.469 166.592 142.141 166.864 142.941 166.864ZM153.642 161.344H151.514V165.68C151.514 166.075 151.589 166.357 151.738 166.528C151.898 166.688 152.138 166.773 152.458 166.784C152.778 166.784 153.173 166.773 153.642 166.752V168C152.426 168.16 151.536 168.064 150.97 167.712C150.405 167.349 150.122 166.672 150.122 165.68V161.344H148.538V160H150.122V158.176L151.514 157.76V160H153.642V161.344ZM155.994 158.544C155.728 158.544 155.504 158.453 155.322 158.272C155.141 158.091 155.05 157.872 155.05 157.616C155.05 157.36 155.141 157.141 155.322 156.96C155.504 156.768 155.728 156.672 155.994 156.672C156.25 156.672 156.469 156.768 156.65 156.96C156.832 157.141 156.922 157.36 156.922 157.616C156.922 157.872 156.832 158.091 156.65 158.272C156.469 158.453 156.25 158.544 155.994 158.544ZM155.29 168V160H156.682V168H155.29ZM165.558 166.992C164.737 167.803 163.739 168.208 162.566 168.208C161.393 168.208 160.395 167.803 159.574 166.992C158.763 166.181 158.358 165.184 158.358 164C158.358 162.816 158.763 161.819 159.574 161.008C160.395 160.197 161.393 159.792 162.566 159.792C163.739 159.792 164.737 160.197 165.558 161.008C166.379 161.819 166.79 162.816 166.79 164C166.79 165.184 166.379 166.181 165.558 166.992ZM162.566 166.848C163.366 166.848 164.038 166.576 164.582 166.032C165.126 165.488 165.398 164.811 165.398 164C165.398 163.189 165.126 162.512 164.582 161.968C164.038 161.424 163.366 161.152 162.566 161.152C161.777 161.152 161.11 161.424 160.566 161.968C160.022 162.512 159.75 163.189 159.75 164C159.75 164.811 160.022 165.488 160.566 166.032C161.11 166.576 161.777 166.848 162.566 166.848ZM172.415 159.792C173.354 159.792 174.106 160.091 174.671 160.688C175.236 161.275 175.519 162.075 175.519 163.088V168H174.127V163.168C174.127 162.517 173.951 162.016 173.599 161.664C173.247 161.301 172.762 161.12 172.143 161.12C171.45 161.12 170.89 161.339 170.463 161.776C170.036 162.203 169.823 162.864 169.823 163.76V168H168.431V160H169.823V161.152C170.388 160.245 171.252 159.792 172.415 159.792Z" fill="#112232"/>
</svg>
