<svg width="180" height="384" viewBox="0 0 180 384" fill="none" xmlns="http://www.w3.org/2000/svg">
<path d="M27.376 16L24.24 4.8H26.56L28.704 13.104L31.04 4.8H32.928L35.28 13.104L37.424 4.8H39.744L36.608 16H34.096L31.984 8.608L29.888 16H27.376ZM45.0639 7.776C45.9385 7.776 46.6585 8.06933 47.2239 8.656C47.7999 9.24267 48.0879 10.0533 48.0879 11.088V16H46.0239V11.344C46.0239 10.8107 45.8799 10.4053 45.5919 10.128C45.3039 9.84 44.9199 9.696 44.4399 9.696C43.9065 9.696 43.4799 9.86133 43.1599 10.192C42.8399 10.5227 42.6799 11.0187 42.6799 11.68V16H40.6159V4.8H42.6799V8.896C43.1812 8.14933 43.9759 7.776 45.0639 7.776ZM54.8944 8H57.1024L54.1904 16C53.7744 17.152 53.2197 17.984 52.5264 18.496C51.8437 19.0187 50.9904 19.2533 49.9664 19.2V17.28C50.521 17.2907 50.9584 17.1733 51.2784 16.928C51.609 16.6827 51.8704 16.288 52.0624 15.744L48.7824 8H51.0384L53.1184 13.376L54.8944 8ZM66.0046 16.224C64.8953 16.224 63.962 15.9787 63.2046 15.488C62.4473 14.9867 61.914 14.3093 61.6046 13.456L63.4926 12.352C63.93 13.4933 64.7886 14.064 66.0686 14.064C66.6873 14.064 67.1406 13.952 67.4286 13.728C67.7166 13.504 67.8606 13.2213 67.8606 12.88C67.8606 12.4853 67.6846 12.1813 67.3326 11.968C66.9806 11.744 66.3513 11.504 65.4446 11.248C64.9433 11.0987 64.5166 10.9493 64.1646 10.8C63.8233 10.6507 63.4766 10.4533 63.1246 10.208C62.7833 9.952 62.522 9.632 62.3406 9.248C62.1593 8.864 62.0686 8.416 62.0686 7.904C62.0686 6.89067 62.426 6.08533 63.1406 5.488C63.866 4.88 64.7353 4.576 65.7486 4.576C66.6553 4.576 67.45 4.8 68.1326 5.248C68.826 5.68533 69.3646 6.29867 69.7486 7.088L67.8926 8.16C67.4446 7.2 66.73 6.72 65.7486 6.72C65.29 6.72 64.9273 6.82667 64.6606 7.04C64.4046 7.24267 64.2766 7.50933 64.2766 7.84C64.2766 8.192 64.4206 8.48 64.7086 8.704C65.0073 8.91733 65.5726 9.152 66.4046 9.408C66.746 9.51467 67.002 9.6 67.1726 9.664C67.354 9.71733 67.594 9.808 67.8926 9.936C68.202 10.0533 68.4366 10.1653 68.5966 10.272C68.7673 10.3787 68.9593 10.5227 69.1726 10.704C69.386 10.8853 69.546 11.072 69.6526 11.264C69.77 11.456 69.866 11.6907 69.9406 11.968C70.026 12.2347 70.0686 12.528 70.0686 12.848C70.0686 13.8827 69.69 14.704 68.9326 15.312C68.186 15.92 67.21 16.224 66.0046 16.224ZM75.4395 16.224C74.2342 16.224 73.2262 15.8187 72.4155 15.008C71.6155 14.1973 71.2155 13.1947 71.2155 12C71.2155 10.8053 71.6155 9.80267 72.4155 8.992C73.2262 8.18133 74.2342 7.776 75.4395 7.776C76.2182 7.776 76.9275 7.96267 77.5675 8.336C78.2075 8.70933 78.6928 9.21067 79.0235 9.84L77.2475 10.88C77.0875 10.5493 76.8422 10.288 76.5115 10.096C76.1915 9.904 75.8288 9.808 75.4235 9.808C74.8048 9.808 74.2928 10.016 73.8875 10.432C73.4822 10.8373 73.2795 11.36 73.2795 12C73.2795 12.6293 73.4822 13.152 73.8875 13.568C74.2928 13.9733 74.8048 14.176 75.4235 14.176C75.8395 14.176 76.2075 14.0853 76.5275 13.904C76.8582 13.712 77.1035 13.4507 77.2635 13.12L79.0555 14.144C78.7035 14.7733 78.2075 15.28 77.5675 15.664C76.9275 16.0373 76.2182 16.224 75.4395 16.224ZM81.1711 7.04C80.8298 7.04 80.5311 6.91733 80.2751 6.672C80.0298 6.416 79.9071 6.11733 79.9071 5.776C79.9071 5.43467 80.0298 5.136 80.2751 4.88C80.5311 4.624 80.8298 4.496 81.1711 4.496C81.5231 4.496 81.8218 4.624 82.0671 4.88C82.3231 5.136 82.4511 5.43467 82.4511 5.776C82.4511 6.11733 82.3231 6.416 82.0671 6.672C81.8218 6.91733 81.5231 7.04 81.1711 7.04ZM80.1471 16V8H82.2111V16H80.1471ZM85.9418 10.272C85.9418 10.4853 86.0804 10.6613 86.3578 10.8C86.6458 10.928 86.9924 11.0453 87.3978 11.152C87.8031 11.248 88.2084 11.376 88.6138 11.536C89.0191 11.6853 89.3604 11.9413 89.6378 12.304C89.9258 12.6667 90.0698 13.12 90.0698 13.664C90.0698 14.4853 89.7604 15.12 89.1418 15.568C88.5338 16.0053 87.7711 16.224 86.8538 16.224C85.2111 16.224 84.0911 15.5893 83.4938 14.32L85.2858 13.312C85.5204 14.0053 86.0431 14.352 86.8538 14.352C87.5898 14.352 87.9578 14.1227 87.9578 13.664C87.9578 13.4507 87.8138 13.28 87.5258 13.152C87.2484 13.0133 86.9071 12.8907 86.5018 12.784C86.0964 12.6773 85.6911 12.544 85.2858 12.384C84.8804 12.224 84.5338 11.9733 84.2458 11.632C83.9684 11.28 83.8298 10.8427 83.8298 10.32C83.8298 9.53067 84.1178 8.912 84.6938 8.464C85.2804 8.00533 86.0058 7.776 86.8698 7.776C87.5204 7.776 88.1124 7.92533 88.6458 8.224C89.1791 8.512 89.6004 8.928 89.9098 9.472L88.1498 10.432C87.8938 9.888 87.4671 9.616 86.8698 9.616C86.6031 9.616 86.3791 9.67467 86.1978 9.792C86.0271 9.90933 85.9418 10.0693 85.9418 10.272ZM92.8793 10.272C92.8793 10.4853 93.0179 10.6613 93.2953 10.8C93.5833 10.928 93.9299 11.0453 94.3353 11.152C94.7406 11.248 95.1459 11.376 95.5513 11.536C95.9566 11.6853 96.2979 11.9413 96.5753 12.304C96.8633 12.6667 97.0073 13.12 97.0073 13.664C97.0073 14.4853 96.6979 15.12 96.0793 15.568C95.4713 16.0053 94.7086 16.224 93.7913 16.224C92.1486 16.224 91.0286 15.5893 90.4313 14.32L92.2233 13.312C92.4579 14.0053 92.9806 14.352 93.7913 14.352C94.5273 14.352 94.8953 14.1227 94.8953 13.664C94.8953 13.4507 94.7513 13.28 94.4633 13.152C94.1859 13.0133 93.8446 12.8907 93.4393 12.784C93.0339 12.6773 92.6286 12.544 92.2233 12.384C91.8179 12.224 91.4713 11.9733 91.1833 11.632C90.9059 11.28 90.7673 10.8427 90.7673 10.32C90.7673 9.53067 91.0553 8.912 91.6313 8.464C92.2179 8.00533 92.9433 7.776 93.8073 7.776C94.4579 7.776 95.0499 7.92533 95.5833 8.224C96.1166 8.512 96.5379 8.928 96.8473 9.472L95.0873 10.432C94.8313 9.888 94.4046 9.616 93.8073 9.616C93.5406 9.616 93.3166 9.67467 93.1353 9.792C92.9646 9.90933 92.8793 10.0693 92.8793 10.272ZM105.041 15.008C104.22 15.8187 103.217 16.224 102.033 16.224C100.849 16.224 99.8466 15.8187 99.0253 15.008C98.2146 14.1867 97.8092 13.184 97.8092 12C97.8092 10.816 98.2146 9.81867 99.0253 9.008C99.8466 8.18667 100.849 7.776 102.033 7.776C103.217 7.776 104.22 8.18667 105.041 9.008C105.863 9.81867 106.273 10.816 106.273 12C106.273 13.184 105.863 14.1867 105.041 15.008ZM100.481 13.584C100.897 14 101.415 14.208 102.033 14.208C102.652 14.208 103.169 14 103.585 13.584C104.001 13.168 104.209 12.64 104.209 12C104.209 11.36 104.001 10.832 103.585 10.416C103.169 10 102.652 9.792 102.033 9.792C101.415 9.792 100.897 10 100.481 10.416C100.076 10.832 99.8733 11.36 99.8733 12C99.8733 12.64 100.076 13.168 100.481 13.584ZM109.789 9.376C109.981 8.864 110.296 8.48 110.733 8.224C111.181 7.968 111.677 7.84 112.221 7.84V10.144C111.592 10.0693 111.027 10.1973 110.525 10.528C110.035 10.8587 109.789 11.408 109.789 12.176V16H107.725V8H109.789V9.376ZM119.604 12.24C119.604 11.7707 119.743 11.3227 120.02 10.896C120.308 10.4693 120.618 10.128 120.948 9.872C121.279 9.60533 121.583 9.296 121.86 8.944C122.148 8.592 122.292 8.24 122.292 7.888C122.292 7.51467 122.164 7.22667 121.908 7.024C121.652 6.82133 121.295 6.72 120.836 6.72C119.94 6.72 119.306 7.19467 118.932 8.144L117.044 7.056C117.364 6.26667 117.871 5.65867 118.564 5.232C119.268 4.79467 120.052 4.576 120.916 4.576C121.887 4.576 122.724 4.85867 123.428 5.424C124.143 5.97867 124.5 6.74667 124.5 7.728C124.5 8.176 124.404 8.592 124.212 8.976C124.031 9.36 123.807 9.69067 123.54 9.968C123.284 10.2347 123.023 10.4907 122.756 10.736C122.5 10.9707 122.276 11.216 122.084 11.472C121.903 11.728 121.812 11.984 121.812 12.24H119.604ZM121.668 15.808C121.402 16.0747 121.082 16.208 120.708 16.208C120.335 16.208 120.015 16.0747 119.748 15.808C119.482 15.5413 119.348 15.2213 119.348 14.848C119.348 14.4747 119.482 14.1547 119.748 13.888C120.015 13.6213 120.335 13.488 120.708 13.488C121.082 13.488 121.402 13.6213 121.668 13.888C121.935 14.1547 122.068 14.4747 122.068 14.848C122.068 15.2213 121.935 15.5413 121.668 15.808Z" fill="#071827"/>
<path d="M28.816 48.208C27.7707 48.208 26.8747 47.9627 26.128 47.472C25.392 46.9813 24.8747 46.3093 24.576 45.456L25.856 44.72C26.2933 46.0747 27.2907 46.752 28.848 46.752C29.616 46.752 30.2027 46.5973 30.608 46.288C31.0133 45.968 31.216 45.5467 31.216 45.024C31.216 44.4907 31.0133 44.0907 30.608 43.824C30.2027 43.5573 29.5253 43.2747 28.576 42.976C28.1067 42.8267 27.7493 42.7093 27.504 42.624C27.2587 42.528 26.9493 42.3893 26.576 42.208C26.2133 42.016 25.9413 41.824 25.76 41.632C25.5787 41.4293 25.4133 41.168 25.264 40.848C25.1253 40.528 25.056 40.1653 25.056 39.76C25.056 38.7893 25.3973 38.0213 26.08 37.456C26.7627 36.88 27.5947 36.592 28.576 36.592C29.4613 36.592 30.2293 36.816 30.88 37.264C31.5413 37.712 32.0373 38.304 32.368 39.04L31.12 39.76C30.64 38.608 29.792 38.032 28.576 38.032C27.968 38.032 27.4773 38.1813 27.104 38.48C26.7307 38.7787 26.544 39.184 26.544 39.696C26.544 40.1867 26.72 40.56 27.072 40.816C27.424 41.072 28.032 41.3387 28.896 41.616C29.2053 41.712 29.424 41.7813 29.552 41.824C29.68 41.8667 29.8773 41.9413 30.144 42.048C30.4213 42.1547 30.624 42.24 30.752 42.304C30.88 42.368 31.0507 42.4587 31.264 42.576C31.488 42.6933 31.6533 42.8053 31.76 42.912C31.8667 43.0187 31.9893 43.152 32.128 43.312C32.2773 43.4613 32.384 43.616 32.448 43.776C32.512 43.936 32.5653 44.1227 32.608 44.336C32.6613 44.5387 32.688 44.7573 32.688 44.992C32.688 45.9733 32.3307 46.7573 31.616 47.344C30.9013 47.92 29.968 48.208 28.816 48.208ZM38.2535 48.208C37.0482 48.208 36.0455 47.808 35.2455 47.008C34.4455 46.1973 34.0455 45.1947 34.0455 44C34.0455 42.8053 34.4455 41.808 35.2455 41.008C36.0455 40.1973 37.0482 39.792 38.2535 39.792C39.0428 39.792 39.7522 39.984 40.3815 40.368C41.0108 40.7413 41.4802 41.248 41.7895 41.888L40.6215 42.56C40.4188 42.1333 40.1042 41.792 39.6775 41.536C39.2615 41.28 38.7868 41.152 38.2535 41.152C37.4535 41.152 36.7815 41.424 36.2375 41.968C35.7042 42.512 35.4375 43.1893 35.4375 44C35.4375 44.8 35.7042 45.472 36.2375 46.016C36.7815 46.56 37.4535 46.832 38.2535 46.832C38.7868 46.832 39.2668 46.7093 39.6935 46.464C40.1202 46.208 40.4455 45.8667 40.6695 45.44L41.8535 46.128C41.5122 46.7573 41.0215 47.264 40.3815 47.648C39.7415 48.0213 39.0322 48.208 38.2535 48.208ZM43.9319 38.544C43.6652 38.544 43.4412 38.4533 43.2599 38.272C43.0785 38.0907 42.9879 37.872 42.9879 37.616C42.9879 37.36 43.0785 37.1413 43.2599 36.96C43.4412 36.768 43.6652 36.672 43.9319 36.672C44.1879 36.672 44.4065 36.768 44.5879 36.96C44.7692 37.1413 44.8599 37.36 44.8599 37.616C44.8599 37.872 44.7692 38.0907 44.5879 38.272C44.4065 38.4533 44.1879 38.544 43.9319 38.544ZM43.2279 48V40H44.6199V48H43.2279ZM47.9279 42.16C47.9279 42.4693 48.0825 42.72 48.3919 42.912C48.7012 43.0933 49.0745 43.2427 49.5119 43.36C49.9492 43.4667 50.3865 43.5947 50.8239 43.744C51.2612 43.8827 51.6345 44.128 51.9439 44.48C52.2532 44.8213 52.4079 45.264 52.4079 45.808C52.4079 46.5333 52.1252 47.1147 51.5599 47.552C51.0052 47.9893 50.2905 48.208 49.4159 48.208C48.6372 48.208 47.9705 48.0373 47.4159 47.696C46.8612 47.3547 46.4665 46.9013 46.2319 46.336L47.4319 45.648C47.5599 46.032 47.7999 46.336 48.1519 46.56C48.5039 46.784 48.9252 46.896 49.4159 46.896C49.8745 46.896 50.2532 46.8107 50.5519 46.64C50.8505 46.4587 50.9999 46.1813 50.9999 45.808C50.9999 45.4987 50.8452 45.2533 50.5359 45.072C50.2265 44.88 49.8532 44.7307 49.4159 44.624C48.9785 44.5067 48.5412 44.3733 48.1039 44.224C47.6665 44.0747 47.2932 43.8293 46.9839 43.488C46.6745 43.1467 46.5199 42.7093 46.5199 42.176C46.5199 41.4827 46.7865 40.912 47.3199 40.464C47.8639 40.016 48.5412 39.792 49.3519 39.792C50.0025 39.792 50.5785 39.9413 51.0799 40.24C51.5919 40.528 51.9759 40.9333 52.2319 41.456L51.0639 42.112C50.7759 41.4293 50.2052 41.088 49.3519 41.088C48.9572 41.088 48.6212 41.184 48.3439 41.376C48.0665 41.5573 47.9279 41.8187 47.9279 42.16ZM54.756 42.16C54.756 42.4693 54.9107 42.72 55.22 42.912C55.5293 43.0933 55.9027 43.2427 56.34 43.36C56.7773 43.4667 57.2147 43.5947 57.652 43.744C58.0893 43.8827 58.4627 44.128 58.772 44.48C59.0813 44.8213 59.236 45.264 59.236 45.808C59.236 46.5333 58.9533 47.1147 58.388 47.552C57.8333 47.9893 57.1187 48.208 56.244 48.208C55.4653 48.208 54.7987 48.0373 54.244 47.696C53.6893 47.3547 53.2947 46.9013 53.06 46.336L54.26 45.648C54.388 46.032 54.628 46.336 54.98 46.56C55.332 46.784 55.7533 46.896 56.244 46.896C56.7027 46.896 57.0813 46.8107 57.38 46.64C57.6787 46.4587 57.828 46.1813 57.828 45.808C57.828 45.4987 57.6733 45.2533 57.364 45.072C57.0547 44.88 56.6813 44.7307 56.244 44.624C55.8067 44.5067 55.3693 44.3733 54.932 44.224C54.4947 44.0747 54.1213 43.8293 53.812 43.488C53.5027 43.1467 53.348 42.7093 53.348 42.176C53.348 41.4827 53.6147 40.912 54.148 40.464C54.692 40.016 55.3693 39.792 56.18 39.792C56.8307 39.792 57.4067 39.9413 57.908 40.24C58.42 40.528 58.804 40.9333 59.06 41.456L57.892 42.112C57.604 41.4293 57.0333 41.088 56.18 41.088C55.7853 41.088 55.4493 41.184 55.172 41.376C54.8947 41.5573 54.756 41.8187 54.756 42.16ZM67.4174 46.992C66.596 47.8027 65.5987 48.208 64.4254 48.208C63.252 48.208 62.2547 47.8027 61.4334 46.992C60.6227 46.1813 60.2174 45.184 60.2174 44C60.2174 42.816 60.6227 41.8187 61.4334 41.008C62.2547 40.1973 63.252 39.792 64.4254 39.792C65.5987 39.792 66.596 40.1973 67.4174 41.008C68.2387 41.8187 68.6494 42.816 68.6494 44C68.6494 45.184 68.2387 46.1813 67.4174 46.992ZM64.4254 46.848C65.2254 46.848 65.8974 46.576 66.4414 46.032C66.9854 45.488 67.2574 44.8107 67.2574 44C67.2574 43.1893 66.9854 42.512 66.4414 41.968C65.8974 41.424 65.2254 41.152 64.4254 41.152C63.636 41.152 62.9694 41.424 62.4254 41.968C61.8814 42.512 61.6094 43.1893 61.6094 44C61.6094 44.8107 61.8814 45.488 62.4254 46.032C62.9694 46.576 63.636 46.848 64.4254 46.848ZM71.6824 41.344C72.141 40.352 72.973 39.856 74.1784 39.856V41.312C73.4957 41.28 72.909 41.4613 72.4184 41.856C71.9277 42.2507 71.6824 42.8853 71.6824 43.76V48H70.2904V40H71.6824V41.344ZM81.6524 36.8H82.9324V48H81.4604V38.4L79.0764 39.104L78.7084 37.824L81.6524 36.8ZM92.4115 46.624C91.6542 47.68 90.5928 48.208 89.2275 48.208C87.8622 48.208 86.8008 47.68 86.0435 46.624C85.2862 45.568 84.9075 44.16 84.9075 42.4C84.9075 40.64 85.2862 39.232 86.0435 38.176C86.8008 37.12 87.8622 36.592 89.2275 36.592C90.5928 36.592 91.6542 37.12 92.4115 38.176C93.1688 39.232 93.5475 40.64 93.5475 42.4C93.5475 44.16 93.1688 45.568 92.4115 46.624ZM87.1315 45.616C87.6222 46.3733 88.3208 46.752 89.2275 46.752C90.1342 46.752 90.8328 46.3733 91.3235 45.616C91.8248 44.8587 92.0755 43.7867 92.0755 42.4C92.0755 41.0133 91.8248 39.9413 91.3235 39.184C90.8328 38.416 90.1342 38.032 89.2275 38.032C88.3208 38.032 87.6222 38.4107 87.1315 39.168C86.6408 39.9253 86.3955 41.0027 86.3955 42.4C86.3955 43.7867 86.6408 44.8587 87.1315 45.616ZM97.1211 36.8H98.4011V48H96.9291V38.4L94.5451 39.104L94.1771 37.824L97.1211 36.8ZM25.2 60.8H26.688V72H25.2V60.8ZM32.9306 63.792C33.8693 63.792 34.6213 64.0907 35.1866 64.688C35.752 65.2747 36.0346 66.0747 36.0346 67.088V72H34.6426V67.168C34.6426 66.5173 34.4666 66.016 34.1146 65.664C33.7626 65.3013 33.2773 65.12 32.6586 65.12C31.9653 65.12 31.4053 65.3387 30.9786 65.776C30.552 66.2027 30.3386 66.864 30.3386 67.76V72H28.9466V64H30.3386V65.152C30.904 64.2453 31.768 63.792 32.9306 63.792ZM42.3299 65.344H40.2019V69.68C40.2019 70.0747 40.2765 70.3573 40.4259 70.528C40.5859 70.688 40.8259 70.7733 41.1459 70.784C41.4659 70.784 41.8605 70.7733 42.3299 70.752V72C41.1139 72.16 40.2232 72.064 39.6579 71.712C39.0925 71.3493 38.8099 70.672 38.8099 69.68V65.344H37.2259V64H38.8099V62.176L40.2019 61.76V64H42.3299V65.344ZM44.5476 68.64C44.6863 69.3547 45.0116 69.9093 45.5236 70.304C46.0463 70.6987 46.6863 70.896 47.4436 70.896C48.4996 70.896 49.2676 70.5067 49.7476 69.728L50.9316 70.4C50.153 71.6053 48.9796 72.208 47.4116 72.208C46.1423 72.208 45.1076 71.8133 44.3076 71.024C43.5183 70.224 43.1236 69.216 43.1236 68C43.1236 66.7947 43.513 65.792 44.2916 64.992C45.0703 64.192 46.0783 63.792 47.3156 63.792C48.489 63.792 49.4436 64.208 50.1796 65.04C50.9263 65.8613 51.2996 66.8533 51.2996 68.016C51.2996 68.2187 51.2836 68.4267 51.2516 68.64H44.5476ZM47.3156 65.104C46.569 65.104 45.9503 65.3173 45.4596 65.744C44.969 66.16 44.665 66.72 44.5476 67.424H49.8916C49.7743 66.6667 49.4756 66.0907 48.9956 65.696C48.5156 65.3013 47.9556 65.104 47.3156 65.104ZM59.5241 64H60.9001V71.664C60.9001 72.848 60.5001 73.7653 59.7001 74.416C58.9001 75.0773 57.9401 75.408 56.8201 75.408C55.9241 75.408 55.1508 75.2373 54.5001 74.896C53.8495 74.5653 53.3588 74.0853 53.0281 73.456L54.2441 72.768C54.6815 73.664 55.5508 74.112 56.8521 74.112C57.6841 74.112 58.3348 73.8933 58.8041 73.456C59.2841 73.0187 59.5241 72.4213 59.5241 71.664V70.528C58.8201 71.5947 57.8175 72.128 56.5161 72.128C55.3748 72.128 54.4095 71.7227 53.6201 70.912C52.8308 70.1013 52.4361 69.1147 52.4361 67.952C52.4361 66.7893 52.8308 65.808 53.6201 65.008C54.4095 64.1973 55.3748 63.792 56.5161 63.792C57.8281 63.792 58.8308 64.32 59.5241 65.376V64ZM54.6441 69.984C55.1881 70.528 55.8655 70.8 56.6761 70.8C57.4868 70.8 58.1641 70.528 58.7081 69.984C59.2521 69.44 59.5241 68.7627 59.5241 67.952C59.5241 67.152 59.2521 66.48 58.7081 65.936C58.1641 65.392 57.4868 65.12 56.6761 65.12C55.8655 65.12 55.1881 65.392 54.6441 65.936C54.1001 66.48 53.8281 67.152 53.8281 67.952C53.8281 68.7627 54.1001 69.44 54.6441 69.984ZM64.4011 65.344C64.8598 64.352 65.6918 63.856 66.8971 63.856V65.312C66.2145 65.28 65.6278 65.4613 65.1371 65.856C64.6465 66.2507 64.4011 66.8853 64.4011 67.76V72H63.0091V64H64.4011V65.344ZM74.4456 64H75.8376V72H74.4456V70.624C73.7523 71.68 72.7443 72.208 71.4216 72.208C70.3016 72.208 69.347 71.8027 68.5576 70.992C67.7683 70.1707 67.3736 69.1733 67.3736 68C67.3736 66.8267 67.7683 65.8347 68.5576 65.024C69.347 64.2027 70.3016 63.792 71.4216 63.792C72.7443 63.792 73.7523 64.32 74.4456 65.376V64ZM71.5976 70.864C72.4083 70.864 73.0856 70.592 73.6296 70.048C74.1736 69.4933 74.4456 68.8107 74.4456 68C74.4456 67.1893 74.1736 66.512 73.6296 65.968C73.0856 65.4133 72.4083 65.136 71.5976 65.136C70.7976 65.136 70.1256 65.4133 69.5816 65.968C69.0376 66.512 68.7656 67.1893 68.7656 68C68.7656 68.8107 69.0376 69.4933 69.5816 70.048C70.1256 70.592 70.7976 70.864 71.5976 70.864ZM82.2986 65.344H80.1706V69.68C80.1706 70.0747 80.2453 70.3573 80.3946 70.528C80.5546 70.688 80.7946 70.7733 81.1146 70.784C81.4346 70.784 81.8293 70.7733 82.2986 70.752V72C81.0826 72.16 80.192 72.064 79.6266 71.712C79.0613 71.3493 78.7786 70.672 78.7786 69.68V65.344H77.1946V64H78.7786V62.176L80.1706 61.76V64H82.2986V65.344ZM84.6506 62.544C84.384 62.544 84.16 62.4533 83.9786 62.272C83.7973 62.0907 83.7066 61.872 83.7066 61.616C83.7066 61.36 83.7973 61.1413 83.9786 60.96C84.16 60.768 84.384 60.672 84.6506 60.672C84.9066 60.672 85.1253 60.768 85.3066 60.96C85.488 61.1413 85.5786 61.36 85.5786 61.616C85.5786 61.872 85.488 62.0907 85.3066 62.272C85.1253 62.4533 84.9066 62.544 84.6506 62.544ZM83.9466 72V64H85.3386V72H83.9466ZM94.2143 70.992C93.3929 71.8027 92.3956 72.208 91.2223 72.208C90.0489 72.208 89.0516 71.8027 88.2303 70.992C87.4196 70.1813 87.0143 69.184 87.0143 68C87.0143 66.816 87.4196 65.8187 88.2303 65.008C89.0516 64.1973 90.0489 63.792 91.2223 63.792C92.3956 63.792 93.3929 64.1973 94.2143 65.008C95.0356 65.8187 95.4462 66.816 95.4462 68C95.4462 69.184 95.0356 70.1813 94.2143 70.992ZM91.2223 70.848C92.0223 70.848 92.6943 70.576 93.2383 70.032C93.7823 69.488 94.0543 68.8107 94.0543 68C94.0543 67.1893 93.7823 66.512 93.2383 65.968C92.6943 65.424 92.0223 65.152 91.2223 65.152C90.4329 65.152 89.7663 65.424 89.2223 65.968C88.6783 66.512 88.4062 67.1893 88.4062 68C88.4062 68.8107 88.6783 69.488 89.2223 70.032C89.7663 70.576 90.4329 70.848 91.2223 70.848ZM101.071 63.792C102.01 63.792 102.762 64.0907 103.327 64.688C103.893 65.2747 104.175 66.0747 104.175 67.088V72H102.783V67.168C102.783 66.5173 102.607 66.016 102.255 65.664C101.903 65.3013 101.418 65.12 100.799 65.12C100.106 65.12 99.5459 65.3387 99.1193 65.776C98.6926 66.2027 98.4793 66.864 98.4793 67.76V72H97.0872V64H98.4793V65.152C99.0446 64.2453 99.9086 63.792 101.071 63.792ZM107.319 66.16C107.319 66.4693 107.473 66.72 107.783 66.912C108.092 67.0933 108.465 67.2427 108.903 67.36C109.34 67.4667 109.777 67.5947 110.215 67.744C110.652 67.8827 111.025 68.128 111.335 68.48C111.644 68.8213 111.799 69.264 111.799 69.808C111.799 70.5333 111.516 71.1147 110.951 71.552C110.396 71.9893 109.681 72.208 108.807 72.208C108.028 72.208 107.361 72.0373 106.807 71.696C106.252 71.3547 105.857 70.9013 105.623 70.336L106.823 69.648C106.951 70.032 107.191 70.336 107.543 70.56C107.895 70.784 108.316 70.896 108.807 70.896C109.265 70.896 109.644 70.8107 109.943 70.64C110.241 70.4587 110.391 70.1813 110.391 69.808C110.391 69.4987 110.236 69.2533 109.927 69.072C109.617 68.88 109.244 68.7307 108.807 68.624C108.369 68.5067 107.932 68.3733 107.495 68.224C107.057 68.0747 106.684 67.8293 106.375 67.488C106.065 67.1467 105.911 66.7093 105.911 66.176C105.911 65.4827 106.177 64.912 106.711 64.464C107.255 64.016 107.932 63.792 108.743 63.792C109.393 63.792 109.969 63.9413 110.471 64.24C110.983 64.528 111.367 64.9333 111.623 65.456L110.455 66.112C110.167 65.4293 109.596 65.088 108.743 65.088C108.348 65.088 108.012 65.184 107.735 65.376C107.457 65.5573 107.319 65.8187 107.319 66.16ZM126.615 71.536L125.367 72.256L124.231 71.04C123.399 71.8187 122.332 72.208 121.031 72.208C119.911 72.208 119.004 71.92 118.311 71.344C117.617 70.7573 117.271 69.968 117.271 68.976C117.271 68.2933 117.441 67.6693 117.783 67.104C118.135 66.528 118.647 66.0747 119.319 65.744C118.839 65.136 118.599 64.4587 118.599 63.712C118.599 62.784 118.919 62.032 119.559 61.456C120.209 60.88 120.988 60.592 121.895 60.592C122.641 60.592 123.319 60.7947 123.927 61.2C124.535 61.6053 124.972 62.1653 125.239 62.88L123.991 63.6C123.831 63.1093 123.564 62.7253 123.191 62.448C122.828 62.1707 122.407 62.032 121.927 62.032C121.415 62.032 120.977 62.1867 120.615 62.496C120.263 62.8053 120.087 63.2053 120.087 63.696C120.087 64.048 120.167 64.368 120.327 64.656C120.497 64.9333 120.748 65.248 121.079 65.6L124.135 68.864C124.401 68.3093 124.593 67.632 124.711 66.832L125.991 67.568C125.841 68.4533 125.553 69.248 125.127 69.952L126.615 71.536ZM121.063 70.8C121.948 70.8 122.684 70.5387 123.271 70.016L120.247 66.768C119.735 66.9813 119.356 67.28 119.111 67.664C118.876 68.048 118.759 68.4533 118.759 68.88C118.759 69.4773 118.961 69.9467 119.367 70.288C119.772 70.6293 120.337 70.8 121.063 70.8ZM139.56 72L138.648 69.488H133.608L132.696 72H131.112L135.288 60.8H136.968L141.144 72H139.56ZM134.12 68.096H138.136L136.12 62.576L134.12 68.096ZM146.53 60.8C147.564 60.8 148.423 61.1467 149.106 61.84C149.799 62.5227 150.146 63.376 150.146 64.4C150.146 65.4133 149.799 66.2667 149.106 66.96C148.423 67.6533 147.564 68 146.53 68H143.954V72H142.466V60.8H146.53ZM146.53 66.608C147.148 66.608 147.66 66.4 148.066 65.984C148.471 65.5573 148.674 65.0293 148.674 64.4C148.674 63.76 148.471 63.232 148.066 62.816C147.66 62.4 147.148 62.192 146.53 62.192H143.954V66.608H146.53ZM151.903 60.8H153.391V72H151.903V60.8ZM29.264 84.8C30.2987 84.8 31.1573 85.1467 31.84 85.84C32.5333 86.5227 32.88 87.376 32.88 88.4C32.88 89.4133 32.5333 90.2667 31.84 90.96C31.1573 91.6533 30.2987 92 29.264 92H26.688V96H25.2V84.8H29.264ZM29.264 90.608C29.8827 90.608 30.3947 90.4 30.8 89.984C31.2053 89.5573 31.408 89.0293 31.408 88.4C31.408 87.76 31.2053 87.232 30.8 86.816C30.3947 86.4 29.8827 86.192 29.264 86.192H26.688V90.608H29.264ZM35.7136 89.344C36.1723 88.352 37.0043 87.856 38.2096 87.856V89.312C37.527 89.28 36.9403 89.4613 36.4496 89.856C35.959 90.2507 35.7136 90.8853 35.7136 91.76V96H34.3216V88H35.7136V89.344ZM40.2756 86.544C40.009 86.544 39.785 86.4533 39.6036 86.272C39.4223 86.0907 39.3316 85.872 39.3316 85.616C39.3316 85.36 39.4223 85.1413 39.6036 84.96C39.785 84.768 40.009 84.672 40.2756 84.672C40.5316 84.672 40.7503 84.768 40.9316 84.96C41.113 85.1413 41.2036 85.36 41.2036 85.616C41.2036 85.872 41.113 86.0907 40.9316 86.272C40.7503 86.4533 40.5316 86.544 40.2756 86.544ZM39.5716 96V88H40.9636V96H39.5716ZM46.8473 96.208C45.6419 96.208 44.6393 95.808 43.8393 95.008C43.0393 94.1973 42.6393 93.1947 42.6393 92C42.6393 90.8053 43.0393 89.808 43.8393 89.008C44.6393 88.1973 45.6419 87.792 46.8473 87.792C47.6366 87.792 48.3459 87.984 48.9753 88.368C49.6046 88.7413 50.0739 89.248 50.3833 89.888L49.2153 90.56C49.0126 90.1333 48.6979 89.792 48.2713 89.536C47.8553 89.28 47.3806 89.152 46.8473 89.152C46.0473 89.152 45.3753 89.424 44.8313 89.968C44.2979 90.512 44.0312 91.1893 44.0312 92C44.0312 92.8 44.2979 93.472 44.8313 94.016C45.3753 94.56 46.0473 94.832 46.8473 94.832C47.3806 94.832 47.8606 94.7093 48.2873 94.464C48.7139 94.208 49.0393 93.8667 49.2633 93.44L50.4473 94.128C50.1059 94.7573 49.6153 95.264 48.9753 95.648C48.3353 96.0213 47.6259 96.208 46.8473 96.208ZM52.5256 86.544C52.259 86.544 52.035 86.4533 51.8536 86.272C51.6723 86.0907 51.5816 85.872 51.5816 85.616C51.5816 85.36 51.6723 85.1413 51.8536 84.96C52.035 84.768 52.259 84.672 52.5256 84.672C52.7816 84.672 53.0003 84.768 53.1816 84.96C53.363 85.1413 53.4536 85.36 53.4536 85.616C53.4536 85.872 53.363 86.0907 53.1816 86.272C53.0003 86.4533 52.7816 86.544 52.5256 86.544ZM51.8216 96V88H53.2136V96H51.8216ZM59.3213 87.792C60.2599 87.792 61.0119 88.0907 61.5773 88.688C62.1426 89.2747 62.4253 90.0747 62.4253 91.088V96H61.0333V91.168C61.0333 90.5173 60.8573 90.016 60.5053 89.664C60.1533 89.3013 59.6679 89.12 59.0493 89.12C58.3559 89.12 57.7959 89.3387 57.3693 89.776C56.9426 90.2027 56.7293 90.864 56.7293 91.76V96H55.3372V88H56.7293V89.152C57.2946 88.2453 58.1586 87.792 59.3213 87.792ZM71.0085 88H72.3845V95.664C72.3845 96.848 71.9845 97.7653 71.1845 98.416C70.3845 99.0773 69.4245 99.408 68.3045 99.408C67.4085 99.408 66.6352 99.2373 65.9845 98.896C65.3338 98.5653 64.8432 98.0853 64.5125 97.456L65.7285 96.768C66.1658 97.664 67.0352 98.112 68.3365 98.112C69.1685 98.112 69.8192 97.8933 70.2885 97.456C70.7685 97.0187 71.0085 96.4213 71.0085 95.664V94.528C70.3045 95.5947 69.3018 96.128 68.0005 96.128C66.8592 96.128 65.8938 95.7227 65.1045 94.912C64.3152 94.1013 63.9205 93.1147 63.9205 91.952C63.9205 90.7893 64.3152 89.808 65.1045 89.008C65.8938 88.1973 66.8592 87.792 68.0005 87.792C69.3125 87.792 70.3152 88.32 71.0085 89.376V88ZM66.1285 93.984C66.6725 94.528 67.3498 94.8 68.1605 94.8C68.9712 94.8 69.6485 94.528 70.1925 93.984C70.7365 93.44 71.0085 92.7627 71.0085 91.952C71.0085 91.152 70.7365 90.48 70.1925 89.936C69.6485 89.392 68.9712 89.12 68.1605 89.12C67.3498 89.12 66.6725 89.392 66.1285 89.936C65.5845 90.48 65.3125 91.152 65.3125 91.952C65.3125 92.7627 65.5845 93.44 66.1285 93.984Z" fill="#112232"/>
<path d="M31.184 176L28.928 172.112H27.248V176H25.04V164.8H29.52C30.5547 164.8 31.4347 165.163 32.16 165.888C32.8853 166.613 33.248 167.488 33.248 168.512C33.248 169.205 33.0507 169.851 32.656 170.448C32.2613 171.035 31.7387 171.477 31.088 171.776L33.568 176H31.184ZM27.248 166.864V170.176H29.52C29.936 170.176 30.2933 170.016 30.592 169.696C30.8907 169.365 31.04 168.971 31.04 168.512C31.04 168.053 30.8907 167.664 30.592 167.344C30.2933 167.024 29.936 166.864 29.52 166.864H27.248ZM36.1099 172.848C36.3872 173.851 37.1392 174.352 38.3659 174.352C39.1552 174.352 39.7525 174.085 40.1579 173.552L41.8219 174.512C41.0325 175.653 39.8699 176.224 38.3339 176.224C37.0112 176.224 35.9499 175.824 35.1499 175.024C34.3499 174.224 33.9499 173.216 33.9499 172C33.9499 170.795 34.3445 169.792 35.1339 168.992C35.9232 168.181 36.9365 167.776 38.1739 167.776C39.3472 167.776 40.3125 168.181 41.0699 168.992C41.8379 169.803 42.2219 170.805 42.2219 172C42.2219 172.267 42.1952 172.549 42.1419 172.848H36.1099ZM36.0779 171.248H40.1579C40.0405 170.704 39.7952 170.299 39.4219 170.032C39.0592 169.765 38.6432 169.632 38.1739 169.632C37.6192 169.632 37.1605 169.776 36.7979 170.064C36.4352 170.341 36.1952 170.736 36.0779 171.248ZM45.2543 170.272C45.2543 170.485 45.3929 170.661 45.6703 170.8C45.9583 170.928 46.3049 171.045 46.7103 171.152C47.1156 171.248 47.5209 171.376 47.9263 171.536C48.3316 171.685 48.6729 171.941 48.9503 172.304C49.2383 172.667 49.3823 173.12 49.3823 173.664C49.3823 174.485 49.0729 175.12 48.4543 175.568C47.8463 176.005 47.0836 176.224 46.1663 176.224C44.5236 176.224 43.4036 175.589 42.8063 174.32L44.5983 173.312C44.8329 174.005 45.3556 174.352 46.1663 174.352C46.9023 174.352 47.2703 174.123 47.2703 173.664C47.2703 173.451 47.1263 173.28 46.8383 173.152C46.5609 173.013 46.2196 172.891 45.8143 172.784C45.4089 172.677 45.0036 172.544 44.5983 172.384C44.1929 172.224 43.8463 171.973 43.5583 171.632C43.2809 171.28 43.1423 170.843 43.1423 170.32C43.1423 169.531 43.4303 168.912 44.0063 168.464C44.5929 168.005 45.3183 167.776 46.1823 167.776C46.8329 167.776 47.4249 167.925 47.9583 168.224C48.4916 168.512 48.9129 168.928 49.2223 169.472L47.4623 170.432C47.2063 169.888 46.7796 169.616 46.1823 169.616C45.9156 169.616 45.6916 169.675 45.5103 169.792C45.3396 169.909 45.2543 170.069 45.2543 170.272ZM57.4163 175.008C56.5949 175.819 55.5923 176.224 54.4083 176.224C53.2243 176.224 52.2216 175.819 51.4003 175.008C50.5896 174.187 50.1842 173.184 50.1842 172C50.1842 170.816 50.5896 169.819 51.4003 169.008C52.2216 168.187 53.2243 167.776 54.4083 167.776C55.5923 167.776 56.5949 168.187 57.4163 169.008C58.2376 169.819 58.6483 170.816 58.6483 172C58.6483 173.184 58.2376 174.187 57.4163 175.008ZM52.8563 173.584C53.2723 174 53.7896 174.208 54.4083 174.208C55.0269 174.208 55.5443 174 55.9603 173.584C56.3763 173.168 56.5843 172.64 56.5843 172C56.5843 171.36 56.3763 170.832 55.9603 170.416C55.5443 170 55.0269 169.792 54.4083 169.792C53.7896 169.792 53.2723 170 52.8563 170.416C52.4509 170.832 52.2483 171.36 52.2483 172C52.2483 172.64 52.4509 173.168 52.8563 173.584ZM65.3803 168H67.4443V176H65.3803V175.104C64.8789 175.851 64.0843 176.224 62.9963 176.224C62.1216 176.224 61.3963 175.931 60.8203 175.344C60.2549 174.757 59.9723 173.947 59.9723 172.912V168H62.0363V172.656C62.0363 173.189 62.1803 173.6 62.4683 173.888C62.7563 174.165 63.1403 174.304 63.6203 174.304C64.1536 174.304 64.5803 174.139 64.9003 173.808C65.2203 173.477 65.3803 172.981 65.3803 172.32V168ZM71.3986 169.376C71.5906 168.864 71.9053 168.48 72.3426 168.224C72.7906 167.968 73.2866 167.84 73.8306 167.84V170.144C73.2013 170.069 72.636 170.197 72.1346 170.528C71.644 170.859 71.3986 171.408 71.3986 172.176V176H69.3346V168H71.3986V169.376ZM78.5489 176.224C77.3435 176.224 76.3355 175.819 75.5249 175.008C74.7249 174.197 74.3249 173.195 74.3249 172C74.3249 170.805 74.7249 169.803 75.5249 168.992C76.3355 168.181 77.3435 167.776 78.5489 167.776C79.3275 167.776 80.0369 167.963 80.6769 168.336C81.3169 168.709 81.8022 169.211 82.1329 169.84L80.3569 170.88C80.1969 170.549 79.9515 170.288 79.6209 170.096C79.3009 169.904 78.9382 169.808 78.5329 169.808C77.9142 169.808 77.4022 170.016 76.9969 170.432C76.5915 170.837 76.3889 171.36 76.3889 172C76.3889 172.629 76.5915 173.152 76.9969 173.568C77.4022 173.973 77.9142 174.176 78.5329 174.176C78.9489 174.176 79.3169 174.085 79.6369 173.904C79.9675 173.712 80.2129 173.451 80.3729 173.12L82.1649 174.144C81.8129 174.773 81.3169 175.28 80.6769 175.664C80.0369 176.037 79.3275 176.224 78.5489 176.224ZM84.8755 172.848C85.1528 173.851 85.9048 174.352 87.1315 174.352C87.9208 174.352 88.5182 174.085 88.9235 173.552L90.5875 174.512C89.7982 175.653 88.6355 176.224 87.0995 176.224C85.7768 176.224 84.7155 175.824 83.9155 175.024C83.1155 174.224 82.7155 173.216 82.7155 172C82.7155 170.795 83.1102 169.792 83.8995 168.992C84.6888 168.181 85.7022 167.776 86.9395 167.776C88.1128 167.776 89.0782 168.181 89.8355 168.992C90.6035 169.803 90.9875 170.805 90.9875 172C90.9875 172.267 90.9608 172.549 90.9075 172.848H84.8755ZM84.8435 171.248H88.9235C88.8062 170.704 88.5608 170.299 88.1875 170.032C87.8248 169.765 87.4088 169.632 86.9395 169.632C86.3848 169.632 85.9262 169.776 85.5635 170.064C85.2008 170.341 84.9608 170.736 84.8435 171.248ZM94.0199 170.272C94.0199 170.485 94.1585 170.661 94.4359 170.8C94.7239 170.928 95.0705 171.045 95.4759 171.152C95.8812 171.248 96.2865 171.376 96.6919 171.536C97.0972 171.685 97.4385 171.941 97.7159 172.304C98.0039 172.667 98.1479 173.12 98.1479 173.664C98.1479 174.485 97.8385 175.12 97.2199 175.568C96.6119 176.005 95.8492 176.224 94.9319 176.224C93.2892 176.224 92.1692 175.589 91.5719 174.32L93.3639 173.312C93.5985 174.005 94.1212 174.352 94.9319 174.352C95.6679 174.352 96.0359 174.123 96.0359 173.664C96.0359 173.451 95.8919 173.28 95.6039 173.152C95.3265 173.013 94.9852 172.891 94.5799 172.784C94.1745 172.677 93.7692 172.544 93.3639 172.384C92.9585 172.224 92.6119 171.973 92.3239 171.632C92.0465 171.28 91.9079 170.843 91.9079 170.32C91.9079 169.531 92.1959 168.912 92.7719 168.464C93.3585 168.005 94.0839 167.776 94.9479 167.776C95.5985 167.776 96.1905 167.925 96.7239 168.224C97.2572 168.512 97.6785 168.928 97.9879 169.472L96.2279 170.432C95.9719 169.888 95.5452 169.616 94.9479 169.616C94.6812 169.616 94.4572 169.675 94.2759 169.792C94.1052 169.909 94.0199 170.069 94.0199 170.272Z" fill="#071827"/>
<path d="M31.6 202.192C32.112 202.437 32.5173 202.789 32.816 203.248C33.1253 203.707 33.28 204.235 33.28 204.832C33.28 205.728 32.9653 206.48 32.336 207.088C31.7067 207.696 30.9387 208 30.032 208H25.2V196.8H29.68C30.5547 196.8 31.296 197.093 31.904 197.68C32.512 198.267 32.816 198.992 32.816 199.856C32.816 200.848 32.4107 201.627 31.6 202.192ZM29.68 198.192H26.688V201.616H29.68C30.1493 201.616 30.544 201.451 30.864 201.12C31.184 200.789 31.344 200.384 31.344 199.904C31.344 199.435 31.1787 199.035 30.848 198.704C30.528 198.363 30.1387 198.192 29.68 198.192ZM30.032 206.608C30.5333 206.608 30.9547 206.432 31.296 206.08C31.6373 205.728 31.808 205.296 31.808 204.784C31.808 204.283 31.632 203.856 31.28 203.504C30.9387 203.152 30.5227 202.976 30.032 202.976H26.688V206.608H30.032ZM34.8997 208V196.32H36.2918V208H34.8997ZM45.1674 206.992C44.346 207.803 43.3487 208.208 42.1754 208.208C41.002 208.208 40.0047 207.803 39.1834 206.992C38.3727 206.181 37.9674 205.184 37.9674 204C37.9674 202.816 38.3727 201.819 39.1834 201.008C40.0047 200.197 41.002 199.792 42.1754 199.792C43.3487 199.792 44.346 200.197 45.1674 201.008C45.9887 201.819 46.3994 202.816 46.3994 204C46.3994 205.184 45.9887 206.181 45.1674 206.992ZM42.1754 206.848C42.9754 206.848 43.6474 206.576 44.1914 206.032C44.7354 205.488 45.0074 204.811 45.0074 204C45.0074 203.189 44.7354 202.512 44.1914 201.968C43.6474 201.424 42.9754 201.152 42.1754 201.152C41.386 201.152 40.7194 201.424 40.1754 201.968C39.6314 202.512 39.3594 203.189 39.3594 204C39.3594 204.811 39.6314 205.488 40.1754 206.032C40.7194 206.576 41.386 206.848 42.1754 206.848ZM54.6804 200H56.0564V207.664C56.0564 208.848 55.6564 209.765 54.8564 210.416C54.0564 211.077 53.0964 211.408 51.9764 211.408C51.0804 211.408 50.307 211.237 49.6564 210.896C49.0057 210.565 48.515 210.085 48.1844 209.456L49.4004 208.768C49.8377 209.664 50.707 210.112 52.0084 210.112C52.8404 210.112 53.491 209.893 53.9604 209.456C54.4404 209.019 54.6804 208.421 54.6804 207.664V206.528C53.9764 207.595 52.9737 208.128 51.6724 208.128C50.531 208.128 49.5657 207.723 48.7764 206.912C47.987 206.101 47.5924 205.115 47.5924 203.952C47.5924 202.789 47.987 201.808 48.7764 201.008C49.5657 200.197 50.531 199.792 51.6724 199.792C52.9844 199.792 53.987 200.32 54.6804 201.376V200ZM49.8004 205.984C50.3444 206.528 51.0217 206.8 51.8324 206.8C52.643 206.8 53.3204 206.528 53.8644 205.984C54.4084 205.44 54.6804 204.763 54.6804 203.952C54.6804 203.152 54.4084 202.48 53.8644 201.936C53.3204 201.392 52.643 201.12 51.8324 201.12C51.0217 201.12 50.3444 201.392 49.8004 201.936C49.2564 202.48 48.9844 203.152 48.9844 203.952C48.9844 204.763 49.2564 205.44 49.8004 205.984ZM31.84 232L29.328 227.712H26.688V232H25.2V220.8H29.68C30.64 220.8 31.4613 221.141 32.144 221.824C32.8267 222.496 33.168 223.312 33.168 224.272C33.168 224.997 32.9493 225.659 32.512 226.256C32.0853 226.853 31.5307 227.275 30.848 227.52L33.488 232H31.84ZM26.688 222.192V226.368H29.68C30.2347 226.368 30.704 226.165 31.088 225.76C31.4827 225.344 31.68 224.848 31.68 224.272C31.68 223.696 31.4827 223.205 31.088 222.8C30.704 222.395 30.2347 222.192 29.68 222.192H26.688ZM35.407 228.64C35.5457 229.355 35.871 229.909 36.383 230.304C36.9057 230.699 37.5457 230.896 38.303 230.896C39.359 230.896 40.127 230.507 40.607 229.728L41.791 230.4C41.0123 231.605 39.839 232.208 38.271 232.208C37.0017 232.208 35.967 231.813 35.167 231.024C34.3777 230.224 33.983 229.216 33.983 228C33.983 226.795 34.3723 225.792 35.151 224.992C35.9297 224.192 36.9377 223.792 38.175 223.792C39.3483 223.792 40.303 224.208 41.039 225.04C41.7857 225.861 42.159 226.853 42.159 228.016C42.159 228.219 42.143 228.427 42.111 228.64H35.407ZM38.175 225.104C37.4283 225.104 36.8097 225.317 36.319 225.744C35.8283 226.16 35.5243 226.72 35.407 227.424H40.751C40.6337 226.667 40.335 226.091 39.855 225.696C39.375 225.301 38.815 225.104 38.175 225.104ZM44.6466 226.16C44.6466 226.469 44.8013 226.72 45.1106 226.912C45.42 227.093 45.7933 227.243 46.2306 227.36C46.668 227.467 47.1053 227.595 47.5426 227.744C47.98 227.883 48.3533 228.128 48.6626 228.48C48.972 228.821 49.1266 229.264 49.1266 229.808C49.1266 230.533 48.844 231.115 48.2786 231.552C47.724 231.989 47.0093 232.208 46.1346 232.208C45.356 232.208 44.6893 232.037 44.1346 231.696C43.58 231.355 43.1853 230.901 42.9506 230.336L44.1506 229.648C44.2786 230.032 44.5186 230.336 44.8706 230.56C45.2226 230.784 45.644 230.896 46.1346 230.896C46.5933 230.896 46.972 230.811 47.2706 230.64C47.5693 230.459 47.7186 230.181 47.7186 229.808C47.7186 229.499 47.564 229.253 47.2546 229.072C46.9453 228.88 46.572 228.731 46.1346 228.624C45.6973 228.507 45.26 228.373 44.8226 228.224C44.3853 228.075 44.012 227.829 43.7026 227.488C43.3933 227.147 43.2386 226.709 43.2386 226.176C43.2386 225.483 43.5053 224.912 44.0386 224.464C44.5826 224.016 45.26 223.792 46.0706 223.792C46.7213 223.792 47.2973 223.941 47.7986 224.24C48.3106 224.528 48.6946 224.933 48.9506 225.456L47.7826 226.112C47.4946 225.429 46.924 225.088 46.0706 225.088C45.676 225.088 45.34 225.184 45.0626 225.376C44.7853 225.557 44.6466 225.819 44.6466 226.16ZM57.308 230.992C56.4867 231.803 55.4893 232.208 54.316 232.208C53.1427 232.208 52.1453 231.803 51.324 230.992C50.5133 230.181 50.108 229.184 50.108 228C50.108 226.816 50.5133 225.819 51.324 225.008C52.1453 224.197 53.1427 223.792 54.316 223.792C55.4893 223.792 56.4867 224.197 57.308 225.008C58.1293 225.819 58.54 226.816 58.54 228C58.54 229.184 58.1293 230.181 57.308 230.992ZM54.316 230.848C55.116 230.848 55.788 230.576 56.332 230.032C56.876 229.488 57.148 228.811 57.148 228C57.148 227.189 56.876 226.512 56.332 225.968C55.788 225.424 55.116 225.152 54.316 225.152C53.5267 225.152 52.86 225.424 52.316 225.968C51.772 226.512 51.5 227.189 51.5 228C51.5 228.811 51.772 229.488 52.316 230.032C52.86 230.576 53.5267 230.848 54.316 230.848ZM65.701 224H67.093V232H65.701V230.848C65.1357 231.755 64.2717 232.208 63.109 232.208C62.1703 232.208 61.4183 231.915 60.853 231.328C60.2877 230.731 60.005 229.925 60.005 228.912V224H61.397V228.832C61.397 229.483 61.573 229.989 61.925 230.352C62.277 230.704 62.7623 230.88 63.381 230.88C64.0743 230.88 64.6343 230.667 65.061 230.24C65.4877 229.803 65.701 229.136 65.701 228.24V224ZM70.6043 225.344C71.0629 224.352 71.8949 223.856 73.1003 223.856V225.312C72.4176 225.28 71.8309 225.461 71.3403 225.856C70.8496 226.251 70.6043 226.885 70.6043 227.76V232H69.2122V224H70.6043V225.344ZM77.7848 232.208C76.5794 232.208 75.5768 231.808 74.7768 231.008C73.9768 230.197 73.5768 229.195 73.5768 228C73.5768 226.805 73.9768 225.808 74.7768 225.008C75.5768 224.197 76.5794 223.792 77.7848 223.792C78.5741 223.792 79.2834 223.984 79.9128 224.368C80.5421 224.741 81.0114 225.248 81.3208 225.888L80.1528 226.56C79.9501 226.133 79.6354 225.792 79.2088 225.536C78.7928 225.28 78.3181 225.152 77.7848 225.152C76.9848 225.152 76.3128 225.424 75.7688 225.968C75.2354 226.512 74.9688 227.189 74.9688 228C74.9688 228.8 75.2354 229.472 75.7688 230.016C76.3128 230.56 76.9848 230.832 77.7848 230.832C78.3181 230.832 78.7981 230.709 79.2248 230.464C79.6514 230.208 79.9768 229.867 80.2008 229.44L81.3848 230.128C81.0434 230.757 80.5528 231.264 79.9128 231.648C79.2728 232.021 78.5634 232.208 77.7848 232.208ZM83.6258 228.64C83.7644 229.355 84.0898 229.909 84.6018 230.304C85.1244 230.699 85.7644 230.896 86.5218 230.896C87.5778 230.896 88.3458 230.507 88.8258 229.728L90.0098 230.4C89.2311 231.605 88.0578 232.208 86.4898 232.208C85.2204 232.208 84.1858 231.813 83.3858 231.024C82.5964 230.224 82.2018 229.216 82.2018 228C82.2018 226.795 82.5911 225.792 83.3698 224.992C84.1484 224.192 85.1564 223.792 86.3938 223.792C87.5671 223.792 88.5218 224.208 89.2578 225.04C90.0044 225.861 90.3778 226.853 90.3778 228.016C90.3778 228.219 90.3618 228.427 90.3298 228.64H83.6258ZM86.3938 225.104C85.6471 225.104 85.0284 225.317 84.5378 225.744C84.0471 226.16 83.7431 226.72 83.6258 227.424H88.9698C88.8524 226.667 88.5538 226.091 88.0738 225.696C87.5938 225.301 87.0338 225.104 86.3938 225.104ZM97.6099 230.592H102.442V232H96.1219V220.8H97.6099V230.592ZM104.494 222.544C104.228 222.544 104.004 222.453 103.822 222.272C103.641 222.091 103.55 221.872 103.55 221.616C103.55 221.36 103.641 221.141 103.822 220.96C104.004 220.768 104.228 220.672 104.494 220.672C104.75 220.672 104.969 220.768 105.15 220.96C105.332 221.141 105.422 221.36 105.422 221.616C105.422 221.872 105.332 222.091 105.15 222.272C104.969 222.453 104.75 222.544 104.494 222.544ZM103.79 232V224H105.182V232H103.79ZM111.722 223.792C112.842 223.792 113.797 224.203 114.586 225.024C115.375 225.835 115.77 226.827 115.77 228C115.77 229.173 115.375 230.171 114.586 230.992C113.797 231.803 112.842 232.208 111.722 232.208C110.399 232.208 109.391 231.68 108.698 230.624V232H107.306V220.8H108.698V225.376C109.391 224.32 110.399 223.792 111.722 223.792ZM111.546 230.864C112.346 230.864 113.018 230.592 113.562 230.048C114.106 229.493 114.378 228.811 114.378 228C114.378 227.189 114.106 226.512 113.562 225.968C113.018 225.413 112.346 225.136 111.546 225.136C110.735 225.136 110.058 225.413 109.514 225.968C108.97 226.512 108.698 227.189 108.698 228C108.698 228.811 108.97 229.493 109.514 230.048C110.058 230.592 110.735 230.864 111.546 230.864ZM118.823 225.344C119.282 224.352 120.114 223.856 121.319 223.856V225.312C120.636 225.28 120.05 225.461 119.559 225.856C119.068 226.251 118.823 226.885 118.823 227.76V232H117.431V224H118.823V225.344ZM128.868 224H130.26V232H128.868V230.624C128.174 231.68 127.166 232.208 125.844 232.208C124.724 232.208 123.769 231.803 122.98 230.992C122.19 230.171 121.796 229.173 121.796 228C121.796 226.827 122.19 225.835 122.98 225.024C123.769 224.203 124.724 223.792 125.844 223.792C127.166 223.792 128.174 224.32 128.868 225.376V224ZM126.02 230.864C126.83 230.864 127.508 230.592 128.052 230.048C128.596 229.493 128.868 228.811 128.868 228C128.868 227.189 128.596 226.512 128.052 225.968C127.508 225.413 126.83 225.136 126.02 225.136C125.22 225.136 124.548 225.413 124.004 225.968C123.46 226.512 123.188 227.189 123.188 228C123.188 228.811 123.46 229.493 124.004 230.048C124.548 230.592 125.22 230.864 126.02 230.864ZM133.761 225.344C134.219 224.352 135.051 223.856 136.257 223.856V225.312C135.574 225.28 134.987 225.461 134.497 225.856C134.006 226.251 133.761 226.885 133.761 227.76V232H132.368V224H133.761V225.344ZM143.374 224H144.862L141.598 232.496C141.257 233.403 140.777 234.091 140.158 234.56C139.55 235.04 138.846 235.253 138.046 235.2V233.904C139.028 233.979 139.748 233.435 140.206 232.272L140.35 231.968L136.862 224H138.35L141.07 230.272L143.374 224ZM29.568 244.8C31.0933 244.8 32.3573 245.344 33.36 246.432C34.3733 247.509 34.88 248.832 34.88 250.4C34.88 251.968 34.3733 253.296 33.36 254.384C32.3573 255.461 31.0933 256 29.568 256H25.2V244.8H29.568ZM29.568 254.592C30.7093 254.592 31.6427 254.192 32.368 253.392C33.0933 252.592 33.456 251.595 33.456 250.4C33.456 249.205 33.0933 248.208 32.368 247.408C31.6427 246.608 30.7093 246.208 29.568 246.208H26.688V254.592H29.568ZM37.5164 252.64C37.655 253.355 37.9804 253.909 38.4924 254.304C39.015 254.699 39.655 254.896 40.4124 254.896C41.4684 254.896 42.2364 254.507 42.7164 253.728L43.9004 254.4C43.1217 255.605 41.9484 256.208 40.3804 256.208C39.111 256.208 38.0764 255.813 37.2764 255.024C36.487 254.224 36.0924 253.216 36.0924 252C36.0924 250.795 36.4817 249.792 37.2604 248.992C38.039 248.192 39.047 247.792 40.2844 247.792C41.4577 247.792 42.4124 248.208 43.1484 249.04C43.895 249.861 44.2684 250.853 44.2684 252.016C44.2684 252.219 44.2524 252.427 44.2204 252.64H37.5164ZM40.2844 249.104C39.5377 249.104 38.919 249.317 38.4284 249.744C37.9377 250.16 37.6337 250.72 37.5164 251.424H42.8604C42.743 250.667 42.4444 250.091 41.9644 249.696C41.4844 249.301 40.9244 249.104 40.2844 249.104ZM51.156 248H52.66L49.46 256H47.828L44.628 248H46.132L48.644 254.512L51.156 248ZM54.5008 252.64C54.6394 253.355 54.9648 253.909 55.4768 254.304C55.9994 254.699 56.6394 254.896 57.3968 254.896C58.4528 254.896 59.2208 254.507 59.7008 253.728L60.8848 254.4C60.1061 255.605 58.9328 256.208 57.3648 256.208C56.0954 256.208 55.0608 255.813 54.2608 255.024C53.4714 254.224 53.0768 253.216 53.0768 252C53.0768 250.795 53.4661 249.792 54.2448 248.992C55.0234 248.192 56.0314 247.792 57.2688 247.792C58.4421 247.792 59.3968 248.208 60.1328 249.04C60.8794 249.861 61.2528 250.853 61.2528 252.016C61.2528 252.219 61.2368 252.427 61.2048 252.64H54.5008ZM57.2688 249.104C56.5221 249.104 55.9034 249.317 55.4128 249.744C54.9221 250.16 54.6181 250.72 54.5008 251.424H59.8448C59.7274 250.667 59.4288 250.091 58.9488 249.696C58.4688 249.301 57.9088 249.104 57.2688 249.104ZM62.8529 256V244.32H64.2449V256H62.8529ZM73.1205 254.992C72.2992 255.803 71.3018 256.208 70.1285 256.208C68.9552 256.208 67.9578 255.803 67.1365 254.992C66.3258 254.181 65.9205 253.184 65.9205 252C65.9205 250.816 66.3258 249.819 67.1365 249.008C67.9578 248.197 68.9552 247.792 70.1285 247.792C71.3018 247.792 72.2992 248.197 73.1205 249.008C73.9418 249.819 74.3525 250.816 74.3525 252C74.3525 253.184 73.9418 254.181 73.1205 254.992ZM70.1285 254.848C70.9285 254.848 71.6005 254.576 72.1445 254.032C72.6885 253.488 72.9605 252.811 72.9605 252C72.9605 251.189 72.6885 250.512 72.1445 249.968C71.6005 249.424 70.9285 249.152 70.1285 249.152C69.3392 249.152 68.6725 249.424 68.1285 249.968C67.5845 250.512 67.3125 251.189 67.3125 252C67.3125 252.811 67.5845 253.488 68.1285 254.032C68.6725 254.576 69.3392 254.848 70.1285 254.848ZM80.4095 247.792C81.5295 247.792 82.4842 248.203 83.2735 249.024C84.0628 249.835 84.4575 250.827 84.4575 252C84.4575 253.173 84.0628 254.171 83.2735 254.992C82.4842 255.803 81.5295 256.208 80.4095 256.208C79.0868 256.208 78.0788 255.68 77.3855 254.624V259.2H75.9935V248H77.3855V249.376C78.0788 248.32 79.0868 247.792 80.4095 247.792ZM80.2335 254.864C81.0335 254.864 81.7055 254.592 82.2495 254.048C82.7935 253.493 83.0655 252.811 83.0655 252C83.0655 251.189 82.7935 250.512 82.2495 249.968C81.7055 249.413 81.0335 249.136 80.2335 249.136C79.4228 249.136 78.7455 249.413 78.2015 249.968C77.6575 250.512 77.3855 251.189 77.3855 252C77.3855 252.811 77.6575 253.493 78.2015 254.048C78.7455 254.592 79.4228 254.864 80.2335 254.864ZM87.0945 252.64C87.2332 253.355 87.5585 253.909 88.0705 254.304C88.5932 254.699 89.2332 254.896 89.9905 254.896C91.0465 254.896 91.8145 254.507 92.2945 253.728L93.4785 254.4C92.6998 255.605 91.5265 256.208 89.9585 256.208C88.6892 256.208 87.6545 255.813 86.8545 255.024C86.0652 254.224 85.6705 253.216 85.6705 252C85.6705 250.795 86.0598 249.792 86.8385 248.992C87.6172 248.192 88.6252 247.792 89.8625 247.792C91.0358 247.792 91.9905 248.208 92.7265 249.04C93.4732 249.861 93.8465 250.853 93.8465 252.016C93.8465 252.219 93.8305 252.427 93.7985 252.64H87.0945ZM89.8625 249.104C89.1158 249.104 88.4972 249.317 88.0065 249.744C87.5158 250.16 87.2118 250.72 87.0945 251.424H92.4385C92.3212 250.667 92.0225 250.091 91.5425 249.696C91.0625 249.301 90.5025 249.104 89.8625 249.104ZM96.8386 249.344C97.2973 248.352 98.1293 247.856 99.3346 247.856V249.312C98.652 249.28 98.0653 249.461 97.5746 249.856C97.084 250.251 96.8386 250.885 96.8386 251.76V256H95.4466V248H96.8386V249.344ZM101.6 250.16C101.6 250.469 101.754 250.72 102.064 250.912C102.373 251.093 102.746 251.243 103.184 251.36C103.621 251.467 104.058 251.595 104.496 251.744C104.933 251.883 105.306 252.128 105.616 252.48C105.925 252.821 106.08 253.264 106.08 253.808C106.08 254.533 105.797 255.115 105.232 255.552C104.677 255.989 103.962 256.208 103.088 256.208C102.309 256.208 101.642 256.037 101.088 255.696C100.533 255.355 100.138 254.901 99.9038 254.336L101.104 253.648C101.232 254.032 101.472 254.336 101.824 254.56C102.176 254.784 102.597 254.896 103.088 254.896C103.546 254.896 103.925 254.811 104.224 254.64C104.522 254.459 104.672 254.181 104.672 253.808C104.672 253.499 104.517 253.253 104.208 253.072C103.898 252.88 103.525 252.731 103.088 252.624C102.65 252.507 102.213 252.373 101.776 252.224C101.338 252.075 100.965 251.829 100.656 251.488C100.346 251.147 100.192 250.709 100.192 250.176C100.192 249.483 100.458 248.912 100.992 248.464C101.536 248.016 102.213 247.792 103.024 247.792C103.674 247.792 104.25 247.941 104.752 248.24C105.264 248.528 105.648 248.933 105.904 249.456L104.736 250.112C104.448 249.429 103.877 249.088 103.024 249.088C102.629 249.088 102.293 249.184 102.016 249.376C101.738 249.557 101.6 249.819 101.6 250.16ZM32.576 280L31.664 277.488H26.624L25.712 280H24.128L28.304 268.8H29.984L34.16 280H32.576ZM27.136 276.096H31.152L29.136 270.576L27.136 276.096ZM39.7533 271.792C40.8733 271.792 41.8279 272.203 42.6173 273.024C43.4066 273.835 43.8013 274.827 43.8013 276C43.8013 277.173 43.4066 278.171 42.6173 278.992C41.8279 279.803 40.8733 280.208 39.7533 280.208C38.4306 280.208 37.4226 279.68 36.7293 278.624V283.2H35.3372V272H36.7293V273.376C37.4226 272.32 38.4306 271.792 39.7533 271.792ZM39.5773 278.864C40.3773 278.864 41.0493 278.592 41.5933 278.048C42.1373 277.493 42.4093 276.811 42.4093 276C42.4093 275.189 42.1373 274.512 41.5933 273.968C41.0493 273.413 40.3773 273.136 39.5773 273.136C38.7666 273.136 38.0893 273.413 37.5453 273.968C37.0013 274.512 36.7293 275.189 36.7293 276C36.7293 276.811 37.0013 277.493 37.5453 278.048C38.0893 278.592 38.7666 278.864 39.5773 278.864ZM49.8783 271.792C50.9983 271.792 51.9529 272.203 52.7423 273.024C53.5316 273.835 53.9263 274.827 53.9263 276C53.9263 277.173 53.5316 278.171 52.7423 278.992C51.9529 279.803 50.9983 280.208 49.8783 280.208C48.5556 280.208 47.5476 279.68 46.8543 278.624V283.2H45.4622V272H46.8543V273.376C47.5476 272.32 48.5556 271.792 49.8783 271.792ZM49.7023 278.864C50.5023 278.864 51.1743 278.592 51.7183 278.048C52.2623 277.493 52.5343 276.811 52.5343 276C52.5343 275.189 52.2623 274.512 51.7183 273.968C51.1743 273.413 50.5023 273.136 49.7023 273.136C48.8916 273.136 48.2143 273.413 47.6703 273.968C47.1263 274.512 46.8543 275.189 46.8543 276C46.8543 276.811 47.1263 277.493 47.6703 278.048C48.2143 278.592 48.8916 278.864 49.7023 278.864ZM64.9953 280.208C63.2993 280.208 61.8966 279.648 60.7873 278.528C59.6886 277.408 59.1393 276.032 59.1393 274.4C59.1393 272.768 59.6886 271.392 60.7873 270.272C61.8966 269.152 63.2993 268.592 64.9953 268.592C66.0193 268.592 66.9579 268.837 67.8113 269.328C68.6753 269.819 69.3473 270.48 69.8273 271.312L68.5312 272.064C68.2113 271.445 67.7313 270.955 67.0913 270.592C66.4619 270.219 65.7633 270.032 64.9953 270.032C63.7046 270.032 62.6486 270.448 61.8273 271.28C61.0166 272.112 60.6113 273.152 60.6113 274.4C60.6113 275.637 61.0166 276.672 61.8273 277.504C62.6486 278.336 63.7046 278.752 64.9953 278.752C65.7633 278.752 66.4619 278.571 67.0913 278.208C67.7313 277.835 68.2113 277.344 68.5312 276.736L69.8273 277.472C69.3579 278.304 68.6913 278.971 67.8273 279.472C66.9633 279.963 66.0193 280.208 64.9953 280.208ZM78.0893 278.992C77.2679 279.803 76.2706 280.208 75.0973 280.208C73.9239 280.208 72.9266 279.803 72.1053 278.992C71.2946 278.181 70.8893 277.184 70.8893 276C70.8893 274.816 71.2946 273.819 72.1053 273.008C72.9266 272.197 73.9239 271.792 75.0973 271.792C76.2706 271.792 77.2679 272.197 78.0893 273.008C78.9106 273.819 79.3212 274.816 79.3212 276C79.3212 277.184 78.9106 278.181 78.0893 278.992ZM75.0973 278.848C75.8973 278.848 76.5693 278.576 77.1133 278.032C77.6573 277.488 77.9293 276.811 77.9293 276C77.9293 275.189 77.6573 274.512 77.1133 273.968C76.5693 273.424 75.8973 273.152 75.0973 273.152C74.3079 273.152 73.6413 273.424 73.0973 273.968C72.5533 274.512 72.2812 275.189 72.2812 276C72.2812 276.811 72.5533 277.488 73.0973 278.032C73.6413 278.576 74.3079 278.848 75.0973 278.848ZM84.9463 271.792C85.8849 271.792 86.6369 272.091 87.2023 272.688C87.7676 273.275 88.0503 274.075 88.0503 275.088V280H86.6583V275.168C86.6583 274.517 86.4823 274.016 86.1303 273.664C85.7783 273.301 85.2929 273.12 84.6743 273.12C83.9809 273.12 83.4209 273.339 82.9943 273.776C82.5676 274.203 82.3543 274.864 82.3543 275.76V280H80.9622V272H82.3543V273.152C82.9196 272.245 83.7836 271.792 84.9463 271.792ZM93.9775 271.792C94.9162 271.792 95.6682 272.091 96.2335 272.688C96.7988 273.275 97.0815 274.075 97.0815 275.088V280H95.6895V275.168C95.6895 274.517 95.5135 274.016 95.1615 273.664C94.8095 273.301 94.3242 273.12 93.7055 273.12C93.0122 273.12 92.4522 273.339 92.0255 273.776C91.5988 274.203 91.3855 274.864 91.3855 275.76V280H89.9935V272H91.3855V273.152C91.9508 272.245 92.8148 271.792 93.9775 271.792ZM100.001 276.64C100.139 277.355 100.465 277.909 100.977 278.304C101.499 278.699 102.139 278.896 102.897 278.896C103.953 278.896 104.721 278.507 105.201 277.728L106.385 278.4C105.606 279.605 104.433 280.208 102.865 280.208C101.595 280.208 100.561 279.813 99.7608 279.024C98.9714 278.224 98.5768 277.216 98.5768 276C98.5768 274.795 98.9661 273.792 99.7448 272.992C100.523 272.192 101.531 271.792 102.769 271.792C103.942 271.792 104.897 272.208 105.633 273.04C106.379 273.861 106.753 274.853 106.753 276.016C106.753 276.219 106.737 276.427 106.705 276.64H100.001ZM102.769 273.104C102.022 273.104 101.403 273.317 100.913 273.744C100.422 274.16 100.118 274.72 100.001 275.424H105.345C105.227 274.667 104.929 274.091 104.449 273.696C103.969 273.301 103.409 273.104 102.769 273.104ZM112.097 280.208C110.892 280.208 109.889 279.808 109.089 279.008C108.289 278.197 107.889 277.195 107.889 276C107.889 274.805 108.289 273.808 109.089 273.008C109.889 272.197 110.892 271.792 112.097 271.792C112.887 271.792 113.596 271.984 114.225 272.368C114.855 272.741 115.324 273.248 115.633 273.888L114.465 274.56C114.263 274.133 113.948 273.792 113.521 273.536C113.105 273.28 112.631 273.152 112.097 273.152C111.297 273.152 110.625 273.424 110.081 273.968C109.548 274.512 109.281 275.189 109.281 276C109.281 276.8 109.548 277.472 110.081 278.016C110.625 278.56 111.297 278.832 112.097 278.832C112.631 278.832 113.111 278.709 113.537 278.464C113.964 278.208 114.289 277.867 114.513 277.44L115.697 278.128C115.356 278.757 114.865 279.264 114.225 279.648C113.585 280.021 112.876 280.208 112.097 280.208ZM121.424 273.344H119.296V277.68C119.296 278.075 119.37 278.357 119.52 278.528C119.68 278.688 119.92 278.773 120.24 278.784C120.56 278.784 120.954 278.773 121.424 278.752V280C120.208 280.16 119.317 280.064 118.752 279.712C118.186 279.349 117.904 278.672 117.904 277.68V273.344H116.32V272H117.904V270.176L119.296 269.76V272H121.424V273.344ZM129.417 278.992C128.596 279.803 127.599 280.208 126.425 280.208C125.252 280.208 124.255 279.803 123.433 278.992C122.623 278.181 122.217 277.184 122.217 276C122.217 274.816 122.623 273.819 123.433 273.008C124.255 272.197 125.252 271.792 126.425 271.792C127.599 271.792 128.596 272.197 129.417 273.008C130.239 273.819 130.649 274.816 130.649 276C130.649 277.184 130.239 278.181 129.417 278.992ZM126.425 278.848C127.225 278.848 127.897 278.576 128.441 278.032C128.985 277.488 129.257 276.811 129.257 276C129.257 275.189 128.985 274.512 128.441 273.968C127.897 273.424 127.225 273.152 126.425 273.152C125.636 273.152 124.969 273.424 124.425 273.968C123.881 274.512 123.609 275.189 123.609 276C123.609 276.811 123.881 277.488 124.425 278.032C124.969 278.576 125.636 278.848 126.425 278.848ZM133.682 273.344C134.141 272.352 134.973 271.856 136.178 271.856V273.312C135.496 273.28 134.909 273.461 134.418 273.856C133.928 274.251 133.682 274.885 133.682 275.76V280H132.29V272H133.682V273.344ZM138.444 274.16C138.444 274.469 138.598 274.72 138.908 274.912C139.217 275.093 139.59 275.243 140.028 275.36C140.465 275.467 140.902 275.595 141.34 275.744C141.777 275.883 142.15 276.128 142.46 276.48C142.769 276.821 142.924 277.264 142.924 277.808C142.924 278.533 142.641 279.115 142.076 279.552C141.521 279.989 140.806 280.208 139.932 280.208C139.153 280.208 138.486 280.037 137.932 279.696C137.377 279.355 136.982 278.901 136.748 278.336L137.948 277.648C138.076 278.032 138.316 278.336 138.668 278.56C139.02 278.784 139.441 278.896 139.932 278.896C140.39 278.896 140.769 278.811 141.068 278.64C141.366 278.459 141.516 278.181 141.516 277.808C141.516 277.499 141.361 277.253 141.052 277.072C140.742 276.88 140.369 276.731 139.932 276.624C139.494 276.507 139.057 276.373 138.62 276.224C138.182 276.075 137.809 275.829 137.5 275.488C137.19 275.147 137.036 274.709 137.036 274.176C137.036 273.483 137.302 272.912 137.836 272.464C138.38 272.016 139.057 271.792 139.868 271.792C140.518 271.792 141.094 271.941 141.596 272.24C142.108 272.528 142.492 272.933 142.748 273.456L141.58 274.112C141.292 273.429 140.721 273.088 139.868 273.088C139.473 273.088 139.137 273.184 138.86 273.376C138.582 273.557 138.444 273.819 138.444 274.16ZM28.816 304.208C27.7707 304.208 26.8747 303.963 26.128 303.472C25.392 302.981 24.8747 302.309 24.576 301.456L25.856 300.72C26.2933 302.075 27.2907 302.752 28.848 302.752C29.616 302.752 30.2027 302.597 30.608 302.288C31.0133 301.968 31.216 301.547 31.216 301.024C31.216 300.491 31.0133 300.091 30.608 299.824C30.2027 299.557 29.5253 299.275 28.576 298.976C28.1067 298.827 27.7493 298.709 27.504 298.624C27.2587 298.528 26.9493 298.389 26.576 298.208C26.2133 298.016 25.9413 297.824 25.76 297.632C25.5787 297.429 25.4133 297.168 25.264 296.848C25.1253 296.528 25.056 296.165 25.056 295.76C25.056 294.789 25.3973 294.021 26.08 293.456C26.7627 292.88 27.5947 292.592 28.576 292.592C29.4613 292.592 30.2293 292.816 30.88 293.264C31.5413 293.712 32.0373 294.304 32.368 295.04L31.12 295.76C30.64 294.608 29.792 294.032 28.576 294.032C27.968 294.032 27.4773 294.181 27.104 294.48C26.7307 294.779 26.544 295.184 26.544 295.696C26.544 296.187 26.72 296.56 27.072 296.816C27.424 297.072 28.032 297.339 28.896 297.616C29.2053 297.712 29.424 297.781 29.552 297.824C29.68 297.867 29.8773 297.941 30.144 298.048C30.4213 298.155 30.624 298.24 30.752 298.304C30.88 298.368 31.0507 298.459 31.264 298.576C31.488 298.693 31.6533 298.805 31.76 298.912C31.8667 299.019 31.9893 299.152 32.128 299.312C32.2773 299.461 32.384 299.616 32.448 299.776C32.512 299.936 32.5653 300.123 32.608 300.336C32.6613 300.539 32.688 300.757 32.688 300.992C32.688 301.973 32.3307 302.757 31.616 303.344C30.9013 303.92 29.968 304.208 28.816 304.208ZM39.826 296H41.218V304H39.826V302.848C39.2607 303.755 38.3967 304.208 37.234 304.208C36.2953 304.208 35.5433 303.915 34.978 303.328C34.4127 302.731 34.13 301.925 34.13 300.912V296H35.522V300.832C35.522 301.483 35.698 301.989 36.05 302.352C36.402 302.704 36.8873 302.88 37.506 302.88C38.1993 302.88 38.7593 302.667 39.186 302.24C39.6127 301.803 39.826 301.136 39.826 300.24V296ZM47.7533 295.792C48.8733 295.792 49.8279 296.203 50.6173 297.024C51.4066 297.835 51.8013 298.827 51.8013 300C51.8013 301.173 51.4066 302.171 50.6173 302.992C49.8279 303.803 48.8733 304.208 47.7533 304.208C46.4306 304.208 45.4226 303.68 44.7293 302.624V307.2H43.3372V296H44.7293V297.376C45.4226 296.32 46.4306 295.792 47.7533 295.792ZM47.5773 302.864C48.3773 302.864 49.0493 302.592 49.5933 302.048C50.1373 301.493 50.4093 300.811 50.4093 300C50.4093 299.189 50.1373 298.512 49.5933 297.968C49.0493 297.413 48.3773 297.136 47.5773 297.136C46.7666 297.136 46.0893 297.413 45.5453 297.968C45.0013 298.512 44.7293 299.189 44.7293 300C44.7293 300.811 45.0013 301.493 45.5453 302.048C46.0893 302.592 46.7666 302.864 47.5773 302.864ZM57.8783 295.792C58.9983 295.792 59.9529 296.203 60.7423 297.024C61.5316 297.835 61.9263 298.827 61.9263 300C61.9263 301.173 61.5316 302.171 60.7423 302.992C59.9529 303.803 58.9983 304.208 57.8783 304.208C56.5556 304.208 55.5476 303.68 54.8543 302.624V307.2H53.4622V296H54.8543V297.376C55.5476 296.32 56.5556 295.792 57.8783 295.792ZM57.7023 302.864C58.5023 302.864 59.1743 302.592 59.7183 302.048C60.2623 301.493 60.5343 300.811 60.5343 300C60.5343 299.189 60.2623 298.512 59.7183 297.968C59.1743 297.413 58.5023 297.136 57.7023 297.136C56.8916 297.136 56.2143 297.413 55.6703 297.968C55.1263 298.512 54.8543 299.189 54.8543 300C54.8543 300.811 55.1263 301.493 55.6703 302.048C56.2143 302.592 56.8916 302.864 57.7023 302.864ZM70.3393 302.992C69.5179 303.803 68.5206 304.208 67.3473 304.208C66.1739 304.208 65.1766 303.803 64.3553 302.992C63.5446 302.181 63.1393 301.184 63.1393 300C63.1393 298.816 63.5446 297.819 64.3553 297.008C65.1766 296.197 66.1739 295.792 67.3473 295.792C68.5206 295.792 69.5179 296.197 70.3393 297.008C71.1606 297.819 71.5712 298.816 71.5712 300C71.5712 301.184 71.1606 302.181 70.3393 302.992ZM67.3473 302.848C68.1473 302.848 68.8193 302.576 69.3633 302.032C69.9073 301.488 70.1793 300.811 70.1793 300C70.1793 299.189 69.9073 298.512 69.3633 297.968C68.8193 297.424 68.1473 297.152 67.3473 297.152C66.5579 297.152 65.8913 297.424 65.3473 297.968C64.8033 298.512 64.5312 299.189 64.5312 300C64.5312 300.811 64.8033 301.488 65.3473 302.032C65.8913 302.576 66.5579 302.848 67.3473 302.848ZM74.6043 297.344C75.0629 296.352 75.8949 295.856 77.1003 295.856V297.312C76.4176 297.28 75.8309 297.461 75.3403 297.856C74.8496 298.251 74.6043 298.885 74.6043 299.76V304H73.2122V296H74.6043V297.344ZM83.0018 297.344H80.8738V301.68C80.8738 302.075 80.9484 302.357 81.0978 302.528C81.2578 302.688 81.4978 302.773 81.8177 302.784C82.1377 302.784 82.5324 302.773 83.0018 302.752V304C81.7858 304.16 80.8951 304.064 80.3298 303.712C79.7644 303.349 79.4818 302.672 79.4818 301.68V297.344H77.8978V296H79.4818V294.176L80.8738 293.76V296H83.0018V297.344ZM32.368 316.8V318.208H29.056V328H27.584V318.208H24.288V316.8H32.368ZM33.9949 321.344C34.4535 320.352 35.2855 319.856 36.4909 319.856V321.312C35.8082 321.28 35.2215 321.461 34.7309 321.856C34.2402 322.251 33.9949 322.885 33.9949 323.76V328H32.6029V320H33.9949V321.344ZM43.3729 320H44.7649V328H43.3729V326.848C42.8075 327.755 41.9435 328.208 40.7809 328.208C39.8422 328.208 39.0902 327.915 38.5249 327.328C37.9595 326.731 37.6769 325.925 37.6769 324.912V320H39.0689V324.832C39.0689 325.483 39.2449 325.989 39.5969 326.352C39.9489 326.704 40.4342 326.88 41.0529 326.88C41.7462 326.88 42.3062 326.667 42.7329 326.24C43.1595 325.803 43.3729 325.136 43.3729 324.24V320ZM48.0685 322.16C48.0685 322.469 48.2232 322.72 48.5325 322.912C48.8418 323.093 49.2152 323.243 49.6525 323.36C50.0898 323.467 50.5272 323.595 50.9645 323.744C51.4018 323.883 51.7752 324.128 52.0845 324.48C52.3938 324.821 52.5485 325.264 52.5485 325.808C52.5485 326.533 52.2658 327.115 51.7005 327.552C51.1458 327.989 50.4312 328.208 49.5565 328.208C48.7778 328.208 48.1112 328.037 47.5565 327.696C47.0018 327.355 46.6072 326.901 46.3725 326.336L47.5725 325.648C47.7005 326.032 47.9405 326.336 48.2925 326.56C48.6445 326.784 49.0658 326.896 49.5565 326.896C50.0152 326.896 50.3938 326.811 50.6925 326.64C50.9912 326.459 51.1405 326.181 51.1405 325.808C51.1405 325.499 50.9858 325.253 50.6765 325.072C50.3672 324.88 49.9938 324.731 49.5565 324.624C49.1192 324.507 48.6818 324.373 48.2445 324.224C47.8072 324.075 47.4338 323.829 47.1245 323.488C46.8152 323.147 46.6605 322.709 46.6605 322.176C46.6605 321.483 46.9272 320.912 47.4605 320.464C48.0045 320.016 48.6818 319.792 49.4925 319.792C50.1432 319.792 50.7192 319.941 51.2205 320.24C51.7325 320.528 52.1165 320.933 52.3725 321.456L51.2045 322.112C50.9165 321.429 50.3458 321.088 49.4925 321.088C49.0978 321.088 48.7618 321.184 48.4845 321.376C48.2072 321.557 48.0685 321.819 48.0685 322.16ZM58.2361 321.344H56.1081V325.68C56.1081 326.075 56.1828 326.357 56.3321 326.528C56.4921 326.688 56.7321 326.773 57.0521 326.784C57.3721 326.784 57.7668 326.773 58.2361 326.752V328C57.0201 328.16 56.1295 328.064 55.5641 327.712C54.9988 327.349 54.7161 326.672 54.7161 325.68V321.344H53.1321V320H54.7161V318.176L56.1081 317.76V320H58.2361V321.344ZM69.339 328.208C67.643 328.208 66.2403 327.648 65.131 326.528C64.0323 325.408 63.483 324.032 63.483 322.4C63.483 320.768 64.0323 319.392 65.131 318.272C66.2403 317.152 67.643 316.592 69.339 316.592C70.363 316.592 71.3017 316.837 72.155 317.328C73.019 317.819 73.691 318.48 74.171 319.312L72.875 320.064C72.555 319.445 72.075 318.955 71.435 318.592C70.8057 318.219 70.107 318.032 69.339 318.032C68.0483 318.032 66.9923 318.448 66.171 319.28C65.3603 320.112 64.955 321.152 64.955 322.4C64.955 323.637 65.3603 324.672 66.171 325.504C66.9923 326.336 68.0483 326.752 69.339 326.752C70.107 326.752 70.8057 326.571 71.435 326.208C72.075 325.835 72.555 325.344 72.875 324.736L74.171 325.472C73.7017 326.304 73.035 326.971 72.171 327.472C71.307 327.963 70.363 328.208 69.339 328.208ZM76.657 324.64C76.7957 325.355 77.121 325.909 77.633 326.304C78.1557 326.699 78.7957 326.896 79.553 326.896C80.609 326.896 81.377 326.507 81.857 325.728L83.041 326.4C82.2623 327.605 81.089 328.208 79.521 328.208C78.2517 328.208 77.217 327.813 76.417 327.024C75.6277 326.224 75.233 325.216 75.233 324C75.233 322.795 75.6223 321.792 76.401 320.992C77.1797 320.192 78.1877 319.792 79.425 319.792C80.5983 319.792 81.553 320.208 82.289 321.04C83.0357 321.861 83.409 322.853 83.409 324.016C83.409 324.219 83.393 324.427 83.361 324.64H76.657ZM79.425 321.104C78.6783 321.104 78.0597 321.317 77.569 321.744C77.0783 322.16 76.7743 322.72 76.657 323.424H82.001C81.8837 322.667 81.585 322.091 81.105 321.696C80.625 321.301 80.065 321.104 79.425 321.104ZM88.9931 319.792C89.9318 319.792 90.6838 320.091 91.2491 320.688C91.8145 321.275 92.0971 322.075 92.0971 323.088V328H90.7051V323.168C90.7051 322.517 90.5291 322.016 90.1771 321.664C89.8251 321.301 89.3398 321.12 88.7211 321.12C88.0278 321.12 87.4678 321.339 87.0411 321.776C86.6145 322.203 86.4011 322.864 86.4011 323.76V328H85.0091V320H86.4011V321.152C86.9665 320.245 87.8305 319.792 88.9931 319.792ZM98.3924 321.344H96.2644V325.68C96.2644 326.075 96.339 326.357 96.4884 326.528C96.6484 326.688 96.8884 326.773 97.2084 326.784C97.5284 326.784 97.923 326.773 98.3924 326.752V328C97.1764 328.16 96.2857 328.064 95.7204 327.712C95.155 327.349 94.8724 326.672 94.8724 325.68V321.344H93.2884V320H94.8724V318.176L96.2644 317.76V320H98.3924V321.344ZM100.61 324.64C100.749 325.355 101.074 325.909 101.586 326.304C102.109 326.699 102.749 326.896 103.506 326.896C104.562 326.896 105.33 326.507 105.81 325.728L106.994 326.4C106.215 327.605 105.042 328.208 103.474 328.208C102.205 328.208 101.17 327.813 100.37 327.024C99.5808 326.224 99.1861 325.216 99.1861 324C99.1861 322.795 99.5755 321.792 100.354 320.992C101.133 320.192 102.141 319.792 103.378 319.792C104.551 319.792 105.506 320.208 106.242 321.04C106.989 321.861 107.362 322.853 107.362 324.016C107.362 324.219 107.346 324.427 107.314 324.64H100.61ZM103.378 321.104C102.631 321.104 102.013 321.317 101.522 321.744C101.031 322.16 100.727 322.72 100.61 323.424H105.954C105.837 322.667 105.538 322.091 105.058 321.696C104.578 321.301 104.018 321.104 103.378 321.104ZM110.354 321.344C110.813 320.352 111.645 319.856 112.85 319.856V321.312C112.168 321.28 111.581 321.461 111.09 321.856C110.6 322.251 110.354 322.885 110.354 323.76V328H108.962V320H110.354V321.344ZM31.6 346.192C32.112 346.437 32.5173 346.789 32.816 347.248C33.1253 347.707 33.28 348.235 33.28 348.832C33.28 349.728 32.9653 350.48 32.336 351.088C31.7067 351.696 30.9387 352 30.032 352H25.2V340.8H29.68C30.5547 340.8 31.296 341.093 31.904 341.68C32.512 342.267 32.816 342.992 32.816 343.856C32.816 344.848 32.4107 345.627 31.6 346.192ZM29.68 342.192H26.688V345.616H29.68C30.1493 345.616 30.544 345.451 30.864 345.12C31.184 344.789 31.344 344.384 31.344 343.904C31.344 343.435 31.1787 343.035 30.848 342.704C30.528 342.363 30.1387 342.192 29.68 342.192ZM30.032 350.608C30.5333 350.608 30.9547 350.432 31.296 350.08C31.6373 349.728 31.808 349.296 31.808 348.784C31.808 348.283 31.632 347.856 31.28 347.504C30.9387 347.152 30.5227 346.976 30.032 346.976H26.688V350.608H30.032ZM36.2918 345.344C36.7504 344.352 37.5824 343.856 38.7878 343.856V345.312C38.1051 345.28 37.5184 345.461 37.0278 345.856C36.5371 346.251 36.2918 346.885 36.2918 347.76V352H34.8997V344H36.2918V345.344ZM46.4643 350.992C45.6429 351.803 44.6456 352.208 43.4723 352.208C42.2989 352.208 41.3016 351.803 40.4803 350.992C39.6696 350.181 39.2643 349.184 39.2643 348C39.2643 346.816 39.6696 345.819 40.4803 345.008C41.3016 344.197 42.2989 343.792 43.4723 343.792C44.6456 343.792 45.6429 344.197 46.4643 345.008C47.2856 345.819 47.6962 346.816 47.6962 348C47.6962 349.184 47.2856 350.181 46.4643 350.992ZM43.4723 350.848C44.2723 350.848 44.9443 350.576 45.4883 350.032C46.0323 349.488 46.3043 348.811 46.3043 348C46.3043 347.189 46.0323 346.512 45.4883 345.968C44.9443 345.424 44.2723 345.152 43.4723 345.152C42.6829 345.152 42.0163 345.424 41.4723 345.968C40.9283 346.512 40.6562 347.189 40.6562 348C40.6562 348.811 40.9283 349.488 41.4723 350.032C42.0163 350.576 42.6829 350.848 43.4723 350.848ZM58.4488 344H59.9048L57.4248 352H56.0008L54.1288 346.08L52.2568 352H50.8328L48.3528 344H49.8088L51.5688 350.08L53.4568 344H54.8008L56.6888 350.096L58.4488 344ZM62.0373 346.16C62.0373 346.469 62.1919 346.72 62.5013 346.912C62.8106 347.093 63.1839 347.243 63.6213 347.36C64.0586 347.467 64.4959 347.595 64.9333 347.744C65.3706 347.883 65.7439 348.128 66.0533 348.48C66.3626 348.821 66.5173 349.264 66.5173 349.808C66.5173 350.533 66.2346 351.115 65.6693 351.552C65.1146 351.989 64.3999 352.208 63.5253 352.208C62.7466 352.208 62.0799 352.037 61.5253 351.696C60.9706 351.355 60.5759 350.901 60.3413 350.336L61.5413 349.648C61.6693 350.032 61.9093 350.336 62.2613 350.56C62.6133 350.784 63.0346 350.896 63.5253 350.896C63.9839 350.896 64.3626 350.811 64.6613 350.64C64.9599 350.459 65.1093 350.181 65.1093 349.808C65.1093 349.499 64.9546 349.253 64.6453 349.072C64.3359 348.88 63.9626 348.731 63.5253 348.624C63.0879 348.507 62.6506 348.373 62.2133 348.224C61.7759 348.075 61.4026 347.829 61.0933 347.488C60.7839 347.147 60.6293 346.709 60.6293 346.176C60.6293 345.483 60.8959 344.912 61.4293 344.464C61.9733 344.016 62.6506 343.792 63.4613 343.792C64.1119 343.792 64.6879 343.941 65.1893 344.24C65.7013 344.528 66.0853 344.933 66.3413 345.456L65.1733 346.112C64.8853 345.429 64.3146 345.088 63.4613 345.088C63.0666 345.088 62.7306 345.184 62.4533 345.376C62.1759 345.557 62.0373 345.819 62.0373 346.16ZM68.9226 348.64C69.0613 349.355 69.3866 349.909 69.8986 350.304C70.4213 350.699 71.0613 350.896 71.8186 350.896C72.8746 350.896 73.6426 350.507 74.1226 349.728L75.3066 350.4C74.528 351.605 73.3546 352.208 71.7866 352.208C70.5173 352.208 69.4826 351.813 68.6826 351.024C67.8933 350.224 67.4986 349.216 67.4986 348C67.4986 346.795 67.888 345.792 68.6666 344.992C69.4453 344.192 70.4533 343.792 71.6906 343.792C72.864 343.792 73.8186 344.208 74.5546 345.04C75.3013 345.861 75.6746 346.853 75.6746 348.016C75.6746 348.219 75.6586 348.427 75.6266 348.64H68.9226ZM71.6906 345.104C70.944 345.104 70.3253 345.317 69.8346 345.744C69.344 346.16 69.04 346.72 68.9226 347.424H74.2666C74.1493 346.667 73.8506 346.091 73.3706 345.696C72.8906 345.301 72.3306 345.104 71.6906 345.104ZM78.6668 345.344C79.1254 344.352 79.9574 343.856 81.1628 343.856V345.312C80.4801 345.28 79.8934 345.461 79.4028 345.856C78.9121 346.251 78.6668 346.885 78.6668 347.76V352H77.2747V344H78.6668V345.344ZM88.1568 350.592H93.3568V352H86.6688V340.8H93.2768V342.208H88.1568V345.648H92.8768V347.04H88.1568V350.592ZM101.953 352H100.321L98.0811 348.976L95.8251 352H94.1931L97.2651 347.888L94.3691 344H96.0171L98.0811 346.784L100.145 344H101.777L98.8971 347.872L101.953 352ZM107.596 345.344H105.468V349.68C105.468 350.075 105.542 350.357 105.692 350.528C105.852 350.688 106.092 350.773 106.411 350.784C106.731 350.784 107.126 350.773 107.596 350.752V352C106.38 352.16 105.489 352.064 104.924 351.712C104.358 351.349 104.076 350.672 104.076 349.68V345.344H102.492V344H104.076V342.176L105.468 341.76V344H107.596V345.344ZM109.813 348.64C109.952 349.355 110.277 349.909 110.789 350.304C111.312 350.699 111.952 350.896 112.709 350.896C113.765 350.896 114.533 350.507 115.013 349.728L116.197 350.4C115.419 351.605 114.245 352.208 112.677 352.208C111.408 352.208 110.373 351.813 109.573 351.024C108.784 350.224 108.389 349.216 108.389 348C108.389 346.795 108.779 345.792 109.557 344.992C110.336 344.192 111.344 343.792 112.581 343.792C113.755 343.792 114.709 344.208 115.445 345.04C116.192 345.861 116.565 346.853 116.565 348.016C116.565 348.219 116.549 348.427 116.517 348.64H109.813ZM112.581 345.104C111.835 345.104 111.216 345.317 110.725 345.744C110.235 346.16 109.931 346.72 109.813 347.424H115.157C115.04 346.667 114.741 346.091 114.261 345.696C113.781 345.301 113.221 345.104 112.581 345.104ZM122.149 343.792C123.088 343.792 123.84 344.091 124.405 344.688C124.971 345.275 125.253 346.075 125.253 347.088V352H123.861V347.168C123.861 346.517 123.685 346.016 123.333 345.664C122.981 345.301 122.496 345.12 121.877 345.12C121.184 345.12 120.624 345.339 120.197 345.776C119.771 346.203 119.557 346.864 119.557 347.76V352H118.165V344H119.557V345.152C120.123 344.245 120.987 343.792 122.149 343.792ZM128.397 346.16C128.397 346.469 128.551 346.72 128.861 346.912C129.17 347.093 129.543 347.243 129.981 347.36C130.418 347.467 130.855 347.595 131.293 347.744C131.73 347.883 132.103 348.128 132.413 348.48C132.722 348.821 132.877 349.264 132.877 349.808C132.877 350.533 132.594 351.115 132.029 351.552C131.474 351.989 130.759 352.208 129.885 352.208C129.106 352.208 128.439 352.037 127.885 351.696C127.33 351.355 126.935 350.901 126.701 350.336L127.901 349.648C128.029 350.032 128.269 350.336 128.621 350.56C128.973 350.784 129.394 350.896 129.885 350.896C130.343 350.896 130.722 350.811 131.021 350.64C131.319 350.459 131.469 350.181 131.469 349.808C131.469 349.499 131.314 349.253 131.005 349.072C130.695 348.88 130.322 348.731 129.885 348.624C129.447 348.507 129.01 348.373 128.573 348.224C128.135 348.075 127.762 347.829 127.453 347.488C127.143 347.147 126.989 346.709 126.989 346.176C126.989 345.483 127.255 344.912 127.789 344.464C128.333 344.016 129.01 343.792 129.821 343.792C130.471 343.792 131.047 343.941 131.549 344.24C132.061 344.528 132.445 344.933 132.701 345.456L131.533 346.112C131.245 345.429 130.674 345.088 129.821 345.088C129.426 345.088 129.09 345.184 128.813 345.376C128.535 345.557 128.397 345.819 128.397 346.16ZM135.151 342.544C134.884 342.544 134.66 342.453 134.479 342.272C134.297 342.091 134.207 341.872 134.207 341.616C134.207 341.36 134.297 341.141 134.479 340.96C134.66 340.768 134.884 340.672 135.151 340.672C135.407 340.672 135.625 340.768 135.807 340.96C135.988 341.141 136.079 341.36 136.079 341.616C136.079 341.872 135.988 342.091 135.807 342.272C135.625 342.453 135.407 342.544 135.151 342.544ZM134.447 352V344H135.839V352H134.447ZM144.714 350.992C143.893 351.803 142.896 352.208 141.722 352.208C140.549 352.208 139.552 351.803 138.73 350.992C137.92 350.181 137.514 349.184 137.514 348C137.514 346.816 137.92 345.819 138.73 345.008C139.552 344.197 140.549 343.792 141.722 343.792C142.896 343.792 143.893 344.197 144.714 345.008C145.536 345.819 145.946 346.816 145.946 348C145.946 349.184 145.536 350.181 144.714 350.992ZM141.722 350.848C142.522 350.848 143.194 350.576 143.738 350.032C144.282 349.488 144.554 348.811 144.554 348C144.554 347.189 144.282 346.512 143.738 345.968C143.194 345.424 142.522 345.152 141.722 345.152C140.933 345.152 140.266 345.424 139.722 345.968C139.178 346.512 138.906 347.189 138.906 348C138.906 348.811 139.178 349.488 139.722 350.032C140.266 350.576 140.933 350.848 141.722 350.848ZM151.571 343.792C152.51 343.792 153.262 344.091 153.827 344.688C154.393 345.275 154.675 346.075 154.675 347.088V352H153.283V347.168C153.283 346.517 153.107 346.016 152.755 345.664C152.403 345.301 151.918 345.12 151.299 345.12C150.606 345.12 150.046 345.339 149.619 345.776C149.193 346.203 148.979 346.864 148.979 347.76V352H147.587V344H148.979V345.152C149.545 344.245 150.409 343.792 151.571 343.792ZM35.68 364.8V376H34.208V367.248L30.544 373.344H30.352L26.688 367.264V376H25.2V364.8H26.88L30.448 370.72L34 364.8H35.68ZM44.683 374.992C43.8617 375.803 42.8643 376.208 41.691 376.208C40.5177 376.208 39.5203 375.803 38.699 374.992C37.8883 374.181 37.483 373.184 37.483 372C37.483 370.816 37.8883 369.819 38.699 369.008C39.5203 368.197 40.5177 367.792 41.691 367.792C42.8643 367.792 43.8617 368.197 44.683 369.008C45.5043 369.819 45.915 370.816 45.915 372C45.915 373.184 45.5043 374.181 44.683 374.992ZM41.691 374.848C42.491 374.848 43.163 374.576 43.707 374.032C44.251 373.488 44.523 372.811 44.523 372C44.523 371.189 44.251 370.512 43.707 369.968C43.163 369.424 42.491 369.152 41.691 369.152C40.9017 369.152 40.235 369.424 39.691 369.968C39.147 370.512 38.875 371.189 38.875 372C38.875 372.811 39.147 373.488 39.691 374.032C40.235 374.576 40.9017 374.848 41.691 374.848ZM51.972 367.792C53.092 367.792 54.0467 368.203 54.836 369.024C55.6253 369.835 56.02 370.827 56.02 372C56.02 373.173 55.6253 374.171 54.836 374.992C54.0467 375.803 53.092 376.208 51.972 376.208C50.6493 376.208 49.6413 375.68 48.948 374.624V376H47.556V364.8H48.948V369.376C49.6413 368.32 50.6493 367.792 51.972 367.792ZM51.796 374.864C52.596 374.864 53.268 374.592 53.812 374.048C54.356 373.493 54.628 372.811 54.628 372C54.628 371.189 54.356 370.512 53.812 369.968C53.268 369.413 52.596 369.136 51.796 369.136C50.9853 369.136 50.308 369.413 49.764 369.968C49.22 370.512 48.948 371.189 48.948 372C48.948 372.811 49.22 373.493 49.764 374.048C50.308 374.592 50.9853 374.864 51.796 374.864ZM58.385 366.544C58.1183 366.544 57.8943 366.453 57.713 366.272C57.5317 366.091 57.441 365.872 57.441 365.616C57.441 365.36 57.5317 365.141 57.713 364.96C57.8943 364.768 58.1183 364.672 58.385 364.672C58.641 364.672 58.8597 364.768 59.041 364.96C59.2223 365.141 59.313 365.36 59.313 365.616C59.313 365.872 59.2223 366.091 59.041 366.272C58.8597 366.453 58.641 366.544 58.385 366.544ZM57.681 376V368H59.073V376H57.681ZM61.1966 376V364.32H62.5886V376H61.1966ZM65.6883 372.64C65.8269 373.355 66.1523 373.909 66.6643 374.304C67.1869 374.699 67.8269 374.896 68.5843 374.896C69.6403 374.896 70.4083 374.507 70.8883 373.728L72.0723 374.4C71.2936 375.605 70.1203 376.208 68.5523 376.208C67.2829 376.208 66.2483 375.813 65.4483 375.024C64.6589 374.224 64.2643 373.216 64.2643 372C64.2643 370.795 64.6536 369.792 65.4323 368.992C66.2109 368.192 67.2189 367.792 68.4563 367.792C69.6296 367.792 70.5843 368.208 71.3203 369.04C72.0669 369.861 72.4403 370.853 72.4403 372.016C72.4403 372.219 72.4243 372.427 72.3923 372.64H65.6883ZM68.4563 369.104C67.7096 369.104 67.0909 369.317 66.6003 369.744C66.1096 370.16 65.8056 370.72 65.6883 371.424H71.0323C70.9149 370.667 70.6163 370.091 70.1363 369.696C69.6563 369.301 69.0963 369.104 68.4563 369.104ZM85.5604 376L84.6484 373.488H79.6084L78.6964 376H77.1124L81.2884 364.8H82.9684L87.1444 376H85.5604ZM80.1204 372.096H84.1364L82.1204 366.576L80.1204 372.096ZM92.7376 367.792C93.8576 367.792 94.8123 368.203 95.6016 369.024C96.391 369.835 96.7856 370.827 96.7856 372C96.7856 373.173 96.391 374.171 95.6016 374.992C94.8123 375.803 93.8576 376.208 92.7376 376.208C91.415 376.208 90.407 375.68 89.7136 374.624V379.2H88.3216V368H89.7136V369.376C90.407 368.32 91.415 367.792 92.7376 367.792ZM92.5616 374.864C93.3616 374.864 94.0336 374.592 94.5776 374.048C95.1216 373.493 95.3936 372.811 95.3936 372C95.3936 371.189 95.1216 370.512 94.5776 369.968C94.0336 369.413 93.3616 369.136 92.5616 369.136C91.751 369.136 91.0736 369.413 90.5296 369.968C89.9856 370.512 89.7136 371.189 89.7136 372C89.7136 372.811 89.9856 373.493 90.5296 374.048C91.0736 374.592 91.751 374.864 92.5616 374.864ZM102.863 367.792C103.983 367.792 104.937 368.203 105.727 369.024C106.516 369.835 106.911 370.827 106.911 372C106.911 373.173 106.516 374.171 105.727 374.992C104.937 375.803 103.983 376.208 102.863 376.208C101.54 376.208 100.532 375.68 99.8386 374.624V379.2H98.4466V368H99.8386V369.376C100.532 368.32 101.54 367.792 102.863 367.792ZM102.687 374.864C103.487 374.864 104.159 374.592 104.703 374.048C105.247 373.493 105.519 372.811 105.519 372C105.519 371.189 105.247 370.512 104.703 369.968C104.159 369.413 103.487 369.136 102.687 369.136C101.876 369.136 101.199 369.413 100.655 369.968C100.111 370.512 99.8386 371.189 99.8386 372C99.8386 372.811 100.111 373.493 100.655 374.048C101.199 374.592 101.876 374.864 102.687 374.864Z" fill="#112232"/>
</svg>
