<svg width="296" height="20" viewBox="0 0 296 20" fill="none" xmlns="http://www.w3.org/2000/svg">
<path d="M19.322 4.2V5.432H16.424V14H15.136V5.432H12.252V4.2H19.322ZM20.0671 11.06C20.1884 11.6853 20.4731 12.1707 20.9211 12.516C21.3784 12.8613 21.9384 13.034 22.6011 13.034C23.5251 13.034 24.1971 12.6933 24.6171 12.012L25.6531 12.6C24.9717 13.6547 23.9451 14.182 22.5731 14.182C21.4624 14.182 20.5571 13.8367 19.8571 13.146C19.1664 12.446 18.8211 11.564 18.8211 10.5C18.8211 9.44533 19.1617 8.568 19.8431 7.868C20.5244 7.168 21.4064 6.818 22.4891 6.818C23.5157 6.818 24.3511 7.182 24.9951 7.91C25.6484 8.62867 25.9751 9.49667 25.9751 10.514C25.9751 10.6913 25.9611 10.8733 25.9331 11.06H20.0671ZM22.4891 7.966C21.8357 7.966 21.2944 8.15267 20.8651 8.526C20.4357 8.89 20.1697 9.38 20.0671 9.996H24.7431C24.6404 9.33333 24.3791 8.82933 23.9591 8.484C23.5391 8.13867 23.0491 7.966 22.4891 7.966ZM28.5932 8.176C28.9945 7.308 29.7225 6.874 30.7772 6.874V8.148C30.1798 8.12 29.6665 8.27867 29.2372 8.624C28.8078 8.96933 28.5932 9.52467 28.5932 10.29V14H27.3752V7H28.5932V8.176ZM39.5289 6.818C40.3129 6.818 40.9476 7.07467 41.4329 7.588C41.9183 8.092 42.1609 8.778 42.1609 9.646V14H40.9429V9.688C40.9429 9.14667 40.8029 8.72667 40.5229 8.428C40.2429 8.12933 39.8696 7.98 39.4029 7.98C38.8803 7.98 38.4603 8.15733 38.1429 8.512C37.8349 8.85733 37.6809 9.38933 37.6809 10.108V14H36.4629V9.688C36.4629 9.14667 36.3276 8.72667 36.0569 8.428C35.7956 8.12933 35.4363 7.98 34.9789 7.98C34.4656 7.98 34.0363 8.15733 33.6909 8.512C33.3549 8.86667 33.1869 9.39867 33.1869 10.108V14H31.9689V7H33.1869V7.938C33.6629 7.19133 34.3583 6.818 35.2729 6.818C36.2156 6.818 36.9016 7.21467 37.3309 8.008C37.8163 7.21467 38.5489 6.818 39.5289 6.818ZM53.2578 13.118C52.5391 13.8273 51.6664 14.182 50.6398 14.182C49.6131 14.182 48.7404 13.8273 48.0218 13.118C47.3124 12.4087 46.9578 11.536 46.9578 10.5C46.9578 9.464 47.3124 8.59133 48.0218 7.882C48.7404 7.17267 49.6131 6.818 50.6398 6.818C51.6664 6.818 52.5391 7.17267 53.2578 7.882C53.9764 8.59133 54.3358 9.464 54.3358 10.5C54.3358 11.536 53.9764 12.4087 53.2578 13.118ZM50.6398 12.992C51.3398 12.992 51.9278 12.754 52.4038 12.278C52.8798 11.802 53.1178 11.2093 53.1178 10.5C53.1178 9.79067 52.8798 9.198 52.4038 8.722C51.9278 8.246 51.3398 8.008 50.6398 8.008C49.9491 8.008 49.3658 8.246 48.8898 8.722C48.4138 9.198 48.1758 9.79067 48.1758 10.5C48.1758 11.2093 48.4138 11.802 48.8898 12.278C49.3658 12.754 49.9491 12.992 50.6398 12.992ZM59.1099 5.194C57.8779 5.09133 57.2619 5.62333 57.2619 6.79V7H59.1099V8.176H57.2619V14H56.0439V8.176H54.9239V7H56.0439V6.79C56.0439 5.84733 56.3052 5.13333 56.8279 4.648C57.3599 4.16267 58.1206 3.95267 59.1099 4.018V5.194ZM66.8273 14.182C65.9126 14.182 65.1286 13.9673 64.4753 13.538C63.8313 13.1087 63.3786 12.5207 63.1173 11.774L64.2373 11.13C64.6199 12.3153 65.4926 12.908 66.8553 12.908C67.5273 12.908 68.0406 12.7727 68.3953 12.502C68.7499 12.222 68.9273 11.8533 68.9273 11.396C68.9273 10.9293 68.7499 10.5793 68.3953 10.346C68.0406 10.1127 67.4479 9.86533 66.6173 9.604C66.2066 9.47333 65.8939 9.37067 65.6793 9.296C65.4646 9.212 65.1939 9.09067 64.8673 8.932C64.5499 8.764 64.3119 8.596 64.1533 8.428C63.9946 8.25067 63.8499 8.022 63.7193 7.742C63.5979 7.462 63.5373 7.14467 63.5373 6.79C63.5373 5.94067 63.8359 5.26867 64.4333 4.774C65.0306 4.27 65.7586 4.018 66.6173 4.018C67.3919 4.018 68.0639 4.214 68.6333 4.606C69.2119 4.998 69.6459 5.516 69.9353 6.16L68.8433 6.79C68.4233 5.782 67.6813 5.278 66.6173 5.278C66.0853 5.278 65.6559 5.40867 65.3293 5.67C65.0026 5.93133 64.8393 6.286 64.8393 6.734C64.8393 7.16333 64.9933 7.49 65.3013 7.714C65.6093 7.938 66.1413 8.17133 66.8973 8.414C67.1679 8.498 67.3593 8.55867 67.4713 8.596C67.5833 8.63333 67.7559 8.69867 67.9893 8.792C68.2319 8.88533 68.4093 8.96 68.5213 9.016C68.6333 9.072 68.7826 9.15133 68.9693 9.254C69.1653 9.35667 69.3099 9.45467 69.4033 9.548C69.4966 9.64133 69.6039 9.758 69.7253 9.898C69.8559 10.0287 69.9493 10.164 70.0053 10.304C70.0613 10.444 70.1079 10.6073 70.1453 10.794C70.1919 10.9713 70.2153 11.1627 70.2153 11.368C70.2153 12.2267 69.9026 12.9127 69.2773 13.426C68.6519 13.93 67.8353 14.182 66.8273 14.182ZM72.6491 11.06C72.7704 11.6853 73.0551 12.1707 73.5031 12.516C73.9604 12.8613 74.5204 13.034 75.1831 13.034C76.1071 13.034 76.7791 12.6933 77.1991 12.012L78.2351 12.6C77.5538 13.6547 76.5271 14.182 75.1551 14.182C74.0444 14.182 73.1391 13.8367 72.4391 13.146C71.7484 12.446 71.4031 11.564 71.4031 10.5C71.4031 9.44533 71.7438 8.568 72.4251 7.868C73.1064 7.168 73.9884 6.818 75.0711 6.818C76.0978 6.818 76.9331 7.182 77.5771 7.91C78.2304 8.62867 78.5571 9.49667 78.5571 10.514C78.5571 10.6913 78.5431 10.8733 78.5151 11.06H72.6491ZM75.0711 7.966C74.4178 7.966 73.8764 8.15267 73.4471 8.526C73.0178 8.89 72.7518 9.38 72.6491 9.996H77.3251C77.2224 9.33333 76.9611 8.82933 76.5411 8.484C76.1211 8.13867 75.6311 7.966 75.0711 7.966ZM81.1752 8.176C81.5765 7.308 82.3045 6.874 83.3592 6.874V8.148C82.7619 8.12 82.2485 8.27867 81.8192 8.624C81.3899 8.96933 81.1752 9.52467 81.1752 10.29V14H79.9572V7H81.1752V8.176ZM89.451 7H90.767L87.967 14H86.539L83.739 7H85.055L87.253 12.698L89.451 7ZM92.413 5.726C92.1797 5.726 91.9837 5.64667 91.825 5.488C91.6664 5.32933 91.587 5.138 91.587 4.914C91.587 4.69 91.6664 4.49867 91.825 4.34C91.9837 4.172 92.1797 4.088 92.413 4.088C92.637 4.088 92.8284 4.172 92.987 4.34C93.1457 4.49867 93.225 4.69 93.225 4.914C93.225 5.138 93.1457 5.32933 92.987 5.488C92.8284 5.64667 92.637 5.726 92.413 5.726ZM91.797 14V7H93.015V14H91.797ZM98.1632 14.182C97.1086 14.182 96.2312 13.832 95.5312 13.132C94.8312 12.4227 94.4812 11.5453 94.4812 10.5C94.4812 9.45467 94.8312 8.582 95.5312 7.882C96.2312 7.17267 97.1086 6.818 98.1632 6.818C98.8539 6.818 99.4746 6.986 100.025 7.322C100.576 7.64867 100.987 8.092 101.257 8.652L100.235 9.24C100.058 8.86667 99.7826 8.568 99.4092 8.344C99.0452 8.12 98.6299 8.008 98.1632 8.008C97.4632 8.008 96.8752 8.246 96.3992 8.722C95.9326 9.198 95.6992 9.79067 95.6992 10.5C95.6992 11.2 95.9326 11.788 96.3992 12.264C96.8752 12.74 97.4632 12.978 98.1632 12.978C98.6299 12.978 99.0499 12.8707 99.4232 12.656C99.7966 12.432 100.081 12.1333 100.277 11.76L101.313 12.362C101.015 12.9127 100.585 13.356 100.025 13.692C99.4652 14.0187 98.8446 14.182 98.1632 14.182ZM103.274 11.06C103.395 11.6853 103.68 12.1707 104.128 12.516C104.585 12.8613 105.145 13.034 105.808 13.034C106.732 13.034 107.404 12.6933 107.824 12.012L108.86 12.6C108.179 13.6547 107.152 14.182 105.78 14.182C104.669 14.182 103.764 13.8367 103.064 13.146C102.373 12.446 102.028 11.564 102.028 10.5C102.028 9.44533 102.369 8.568 103.05 7.868C103.731 7.168 104.613 6.818 105.696 6.818C106.723 6.818 107.558 7.182 108.202 7.91C108.855 8.62867 109.182 9.49667 109.182 10.514C109.182 10.6913 109.168 10.8733 109.14 11.06H103.274ZM105.696 7.966C105.043 7.966 104.501 8.15267 104.072 8.526C103.643 8.89 103.377 9.38 103.274 9.996H107.95C107.847 9.33333 107.586 8.82933 107.166 8.484C106.746 8.13867 106.256 7.966 105.696 7.966Z" fill="#112232"/>
<path d="M118 4V16" stroke="#112232"/>
<path d="M130.214 14.182C129.299 14.182 128.515 13.9673 127.862 13.538C127.218 13.1087 126.765 12.5207 126.504 11.774L127.624 11.13C128.007 12.3153 128.879 12.908 130.242 12.908C130.914 12.908 131.427 12.7727 131.782 12.502C132.137 12.222 132.314 11.8533 132.314 11.396C132.314 10.9293 132.137 10.5793 131.782 10.346C131.427 10.1127 130.835 9.86533 130.004 9.604C129.593 9.47333 129.281 9.37067 129.066 9.296C128.851 9.212 128.581 9.09067 128.254 8.932C127.937 8.764 127.699 8.596 127.54 8.428C127.381 8.25067 127.237 8.022 127.106 7.742C126.985 7.462 126.924 7.14467 126.924 6.79C126.924 5.94067 127.223 5.26867 127.82 4.774C128.417 4.27 129.145 4.018 130.004 4.018C130.779 4.018 131.451 4.214 132.02 4.606C132.599 4.998 133.033 5.516 133.322 6.16L132.23 6.79C131.81 5.782 131.068 5.278 130.004 5.278C129.472 5.278 129.043 5.40867 128.716 5.67C128.389 5.93133 128.226 6.286 128.226 6.734C128.226 7.16333 128.38 7.49 128.688 7.714C128.996 7.938 129.528 8.17133 130.284 8.414C130.555 8.498 130.746 8.55867 130.858 8.596C130.97 8.63333 131.143 8.69867 131.376 8.792C131.619 8.88533 131.796 8.96 131.908 9.016C132.02 9.072 132.169 9.15133 132.356 9.254C132.552 9.35667 132.697 9.45467 132.79 9.548C132.883 9.64133 132.991 9.758 133.112 9.898C133.243 10.0287 133.336 10.164 133.392 10.304C133.448 10.444 133.495 10.6073 133.532 10.794C133.579 10.9713 133.602 11.1627 133.602 11.368C133.602 12.2267 133.289 12.9127 132.664 13.426C132.039 13.93 131.222 14.182 130.214 14.182ZM136.036 11.06C136.157 11.6853 136.442 12.1707 136.89 12.516C137.347 12.8613 137.907 13.034 138.57 13.034C139.494 13.034 140.166 12.6933 140.586 12.012L141.622 12.6C140.94 13.6547 139.914 14.182 138.542 14.182C137.431 14.182 136.526 13.8367 135.826 13.146C135.135 12.446 134.79 11.564 134.79 10.5C134.79 9.44533 135.13 8.568 135.812 7.868C136.493 7.168 137.375 6.818 138.458 6.818C139.484 6.818 140.32 7.182 140.964 7.91C141.617 8.62867 141.944 9.49667 141.944 10.514C141.944 10.6913 141.93 10.8733 141.902 11.06H136.036ZM138.458 7.966C137.804 7.966 137.263 8.15267 136.834 8.526C136.404 8.89 136.138 9.38 136.036 9.996H140.712C140.609 9.33333 140.348 8.82933 139.928 8.484C139.508 8.13867 139.018 7.966 138.458 7.966ZM146.62 14.182C145.566 14.182 144.688 13.832 143.988 13.132C143.288 12.4227 142.938 11.5453 142.938 10.5C142.938 9.45467 143.288 8.582 143.988 7.882C144.688 7.17267 145.566 6.818 146.62 6.818C147.311 6.818 147.932 6.986 148.482 7.322C149.033 7.64867 149.444 8.092 149.714 8.652L148.692 9.24C148.515 8.86667 148.24 8.568 147.866 8.344C147.502 8.12 147.087 8.008 146.62 8.008C145.92 8.008 145.332 8.246 144.856 8.722C144.39 9.198 144.156 9.79067 144.156 10.5C144.156 11.2 144.39 11.788 144.856 12.264C145.332 12.74 145.92 12.978 146.62 12.978C147.087 12.978 147.507 12.8707 147.88 12.656C148.254 12.432 148.538 12.1333 148.734 11.76L149.77 12.362C149.472 12.9127 149.042 13.356 148.482 13.692C147.922 14.0187 147.302 14.182 146.62 14.182ZM155.817 7H157.035V14H155.817V12.992C155.322 13.7853 154.566 14.182 153.549 14.182C152.727 14.182 152.069 13.9253 151.575 13.412C151.08 12.8893 150.833 12.1847 150.833 11.298V7H152.051V11.228C152.051 11.7973 152.205 12.2407 152.513 12.558C152.821 12.866 153.245 13.02 153.787 13.02C154.393 13.02 154.883 12.8333 155.257 12.46C155.63 12.0773 155.817 11.494 155.817 10.71V7ZM160.107 8.176C160.508 7.308 161.236 6.874 162.291 6.874V8.148C161.694 8.12 161.18 8.27867 160.751 8.624C160.322 8.96933 160.107 9.52467 160.107 10.29V14H158.889V7H160.107V8.176ZM164.099 5.726C163.865 5.726 163.669 5.64667 163.511 5.488C163.352 5.32933 163.273 5.138 163.273 4.914C163.273 4.69 163.352 4.49867 163.511 4.34C163.669 4.172 163.865 4.088 164.099 4.088C164.323 4.088 164.514 4.172 164.673 4.34C164.831 4.49867 164.911 4.69 164.911 4.914C164.911 5.138 164.831 5.32933 164.673 5.488C164.514 5.64667 164.323 5.726 164.099 5.726ZM163.483 14V7H164.701V14H163.483ZM170.367 8.176H168.505V11.97C168.505 12.3153 168.57 12.5627 168.701 12.712C168.841 12.852 169.051 12.9267 169.331 12.936C169.611 12.936 169.956 12.9267 170.367 12.908V14C169.303 14.14 168.523 14.056 168.029 13.748C167.534 13.4307 167.287 12.838 167.287 11.97V8.176H165.901V7H167.287V5.404L168.505 5.04V7H170.367V8.176ZM176.845 7H178.147L175.291 14.434C174.992 15.2273 174.572 15.8293 174.031 16.24C173.499 16.66 172.883 16.8467 172.183 16.8V15.666C173.042 15.7313 173.672 15.2553 174.073 14.238L174.199 13.972L171.147 7H172.449L174.829 12.488L176.845 7Z" fill="#112232"/>
<path d="M187 4V16" stroke="#112232"/>
<path d="M209.714 14.182C208.799 14.182 208.015 13.9673 207.362 13.538C206.718 13.1087 206.265 12.5207 206.004 11.774L207.124 11.13C207.507 12.3153 208.379 12.908 209.742 12.908C210.414 12.908 210.927 12.7727 211.282 12.502C211.637 12.222 211.814 11.8533 211.814 11.396C211.814 10.9293 211.637 10.5793 211.282 10.346C210.927 10.1127 210.335 9.86533 209.504 9.604C209.093 9.47333 208.781 9.37067 208.566 9.296C208.351 9.212 208.081 9.09067 207.754 8.932C207.437 8.764 207.199 8.596 207.04 8.428C206.881 8.25067 206.737 8.022 206.606 7.742C206.485 7.462 206.424 7.14467 206.424 6.79C206.424 5.94067 206.723 5.26867 207.32 4.774C207.917 4.27 208.645 4.018 209.504 4.018C210.279 4.018 210.951 4.214 211.52 4.606C212.099 4.998 212.533 5.516 212.822 6.16L211.73 6.79C211.31 5.782 210.568 5.278 209.504 5.278C208.972 5.278 208.543 5.40867 208.216 5.67C207.889 5.93133 207.726 6.286 207.726 6.734C207.726 7.16333 207.88 7.49 208.188 7.714C208.496 7.938 209.028 8.17133 209.784 8.414C210.055 8.498 210.246 8.55867 210.358 8.596C210.47 8.63333 210.643 8.69867 210.876 8.792C211.119 8.88533 211.296 8.96 211.408 9.016C211.52 9.072 211.669 9.15133 211.856 9.254C212.052 9.35667 212.197 9.45467 212.29 9.548C212.383 9.64133 212.491 9.758 212.612 9.898C212.743 10.0287 212.836 10.164 212.892 10.304C212.948 10.444 212.995 10.6073 213.032 10.794C213.079 10.9713 213.102 11.1627 213.102 11.368C213.102 12.2267 212.789 12.9127 212.164 13.426C211.539 13.93 210.722 14.182 209.714 14.182ZM217.972 14.182C216.917 14.182 216.04 13.832 215.34 13.132C214.64 12.4227 214.29 11.5453 214.29 10.5C214.29 9.45467 214.64 8.582 215.34 7.882C216.04 7.17267 216.917 6.818 217.972 6.818C218.662 6.818 219.283 6.986 219.834 7.322C220.384 7.64867 220.795 8.092 221.066 8.652L220.044 9.24C219.866 8.86667 219.591 8.568 219.218 8.344C218.854 8.12 218.438 8.008 217.972 8.008C217.272 8.008 216.684 8.246 216.208 8.722C215.741 9.198 215.508 9.79067 215.508 10.5C215.508 11.2 215.741 11.788 216.208 12.264C216.684 12.74 217.272 12.978 217.972 12.978C218.438 12.978 218.858 12.8707 219.232 12.656C219.605 12.432 219.89 12.1333 220.086 11.76L221.122 12.362C220.823 12.9127 220.394 13.356 219.834 13.692C219.274 14.0187 218.653 14.182 217.972 14.182ZM222.94 5.726C222.707 5.726 222.511 5.64667 222.352 5.488C222.194 5.32933 222.114 5.138 222.114 4.914C222.114 4.69 222.194 4.49867 222.352 4.34C222.511 4.172 222.707 4.088 222.94 4.088C223.164 4.088 223.356 4.172 223.514 4.34C223.673 4.49867 223.752 4.69 223.752 4.914C223.752 5.138 223.673 5.32933 223.514 5.488C223.356 5.64667 223.164 5.726 222.94 5.726ZM222.324 14V7H223.542V14H222.324ZM226.437 8.89C226.437 9.16067 226.572 9.38 226.843 9.548C227.114 9.70667 227.44 9.83733 227.823 9.94C228.206 10.0333 228.588 10.1453 228.971 10.276C229.354 10.3973 229.68 10.612 229.951 10.92C230.222 11.2187 230.357 11.606 230.357 12.082C230.357 12.7167 230.11 13.2253 229.615 13.608C229.13 13.9907 228.504 14.182 227.739 14.182C227.058 14.182 226.474 14.0327 225.989 13.734C225.504 13.4353 225.158 13.0387 224.953 12.544L226.003 11.942C226.115 12.278 226.325 12.544 226.633 12.74C226.941 12.936 227.31 13.034 227.739 13.034C228.14 13.034 228.472 12.9593 228.733 12.81C228.994 12.6513 229.125 12.4087 229.125 12.082C229.125 11.8113 228.99 11.5967 228.719 11.438C228.448 11.27 228.122 11.1393 227.739 11.046C227.356 10.9433 226.974 10.8267 226.591 10.696C226.208 10.5653 225.882 10.3507 225.611 10.052C225.34 9.75333 225.205 9.37067 225.205 8.904C225.205 8.29733 225.438 7.798 225.905 7.406C226.381 7.014 226.974 6.818 227.683 6.818C228.252 6.818 228.756 6.94867 229.195 7.21C229.643 7.462 229.979 7.81667 230.203 8.274L229.181 8.848C228.929 8.25067 228.43 7.952 227.683 7.952C227.338 7.952 227.044 8.036 226.801 8.204C226.558 8.36267 226.437 8.59133 226.437 8.89ZM232.412 8.89C232.412 9.16067 232.547 9.38 232.818 9.548C233.088 9.70667 233.415 9.83733 233.798 9.94C234.18 10.0333 234.563 10.1453 234.946 10.276C235.328 10.3973 235.655 10.612 235.926 10.92C236.196 11.2187 236.332 11.606 236.332 12.082C236.332 12.7167 236.084 13.2253 235.59 13.608C235.104 13.9907 234.479 14.182 233.714 14.182C233.032 14.182 232.449 14.0327 231.964 13.734C231.478 13.4353 231.133 13.0387 230.928 12.544L231.978 11.942C232.09 12.278 232.3 12.544 232.608 12.74C232.916 12.936 233.284 13.034 233.714 13.034C234.115 13.034 234.446 12.9593 234.708 12.81C234.969 12.6513 235.1 12.4087 235.1 12.082C235.1 11.8113 234.964 11.5967 234.694 11.438C234.423 11.27 234.096 11.1393 233.714 11.046C233.331 10.9433 232.948 10.8267 232.566 10.696C232.183 10.5653 231.856 10.3507 231.586 10.052C231.315 9.75333 231.18 9.37067 231.18 8.904C231.18 8.29733 231.413 7.798 231.88 7.406C232.356 7.014 232.948 6.818 233.658 6.818C234.227 6.818 234.731 6.94867 235.17 7.21C235.618 7.462 235.954 7.81667 236.178 8.274L235.156 8.848C234.904 8.25067 234.404 7.952 233.658 7.952C233.312 7.952 233.018 8.036 232.776 8.204C232.533 8.36267 232.412 8.59133 232.412 8.89ZM243.49 13.118C242.772 13.8273 241.899 14.182 240.872 14.182C239.846 14.182 238.973 13.8273 238.254 13.118C237.545 12.4087 237.19 11.536 237.19 10.5C237.19 9.464 237.545 8.59133 238.254 7.882C238.973 7.17267 239.846 6.818 240.872 6.818C241.899 6.818 242.772 7.17267 243.49 7.882C244.209 8.59133 244.568 9.464 244.568 10.5C244.568 11.536 244.209 12.4087 243.49 13.118ZM240.872 12.992C241.572 12.992 242.16 12.754 242.636 12.278C243.112 11.802 243.35 11.2093 243.35 10.5C243.35 9.79067 243.112 9.198 242.636 8.722C242.16 8.246 241.572 8.008 240.872 8.008C240.182 8.008 239.598 8.246 239.122 8.722C238.646 9.198 238.408 9.79067 238.408 10.5C238.408 11.2093 238.646 11.802 239.122 12.278C239.598 12.754 240.182 12.992 240.872 12.992ZM247.222 8.176C247.623 7.308 248.351 6.874 249.406 6.874V8.148C248.809 8.12 248.295 8.27867 247.866 8.624C247.437 8.96933 247.222 9.52467 247.222 10.29V14H246.004V7H247.222V8.176ZM253.678 14V12.936L257.136 9.408C258.06 8.484 258.522 7.69067 258.522 7.028C258.522 6.47733 258.354 6.048 258.018 5.74C257.682 5.432 257.271 5.278 256.786 5.278C255.862 5.278 255.19 5.71667 254.77 6.594L253.678 5.95C253.986 5.31533 254.41 4.83467 254.952 4.508C255.502 4.18133 256.109 4.018 256.772 4.018C257.593 4.018 258.307 4.28867 258.914 4.83C259.52 5.37133 259.824 6.09933 259.824 7.014C259.824 8.00333 259.24 9.08133 258.074 10.248L255.568 12.74H260.006V14H253.678ZM267.616 12.796C266.953 13.72 266.025 14.182 264.83 14.182C263.635 14.182 262.707 13.72 262.044 12.796C261.381 11.872 261.05 10.64 261.05 9.1C261.05 7.56 261.381 6.328 262.044 5.404C262.707 4.48 263.635 4.018 264.83 4.018C266.025 4.018 266.953 4.48 267.616 5.404C268.279 6.328 268.61 7.56 268.61 9.1C268.61 10.64 268.279 11.872 267.616 12.796ZM262.996 11.914C263.425 12.5767 264.037 12.908 264.83 12.908C265.623 12.908 266.235 12.5767 266.664 11.914C267.103 11.2513 267.322 10.3133 267.322 9.1C267.322 7.88667 267.103 6.94867 266.664 6.286C266.235 5.614 265.623 5.278 264.83 5.278C264.037 5.278 263.425 5.60933 262.996 6.272C262.567 6.93467 262.352 7.87733 262.352 9.1C262.352 10.3133 262.567 11.2513 262.996 11.914ZM269.565 14V12.936L273.023 9.408C273.947 8.484 274.409 7.69067 274.409 7.028C274.409 6.47733 274.241 6.048 273.905 5.74C273.569 5.432 273.158 5.278 272.673 5.278C271.749 5.278 271.077 5.71667 270.657 6.594L269.565 5.95C269.873 5.31533 270.297 4.83467 270.839 4.508C271.389 4.18133 271.996 4.018 272.659 4.018C273.48 4.018 274.194 4.28867 274.801 4.83C275.407 5.37133 275.711 6.09933 275.711 7.014C275.711 8.00333 275.127 9.08133 273.961 10.248L271.455 12.74H275.893V14H269.565ZM280.731 8.218C281.477 8.358 282.089 8.68 282.565 9.184C283.041 9.688 283.279 10.3273 283.279 11.102C283.279 12.054 282.952 12.8053 282.299 13.356C281.645 13.9067 280.852 14.182 279.919 14.182C279.172 14.182 278.509 14.014 277.931 13.678C277.352 13.3327 276.941 12.838 276.699 12.194L277.791 11.55C278.08 12.4553 278.789 12.908 279.919 12.908C280.525 12.908 281.02 12.7493 281.403 12.432C281.785 12.1147 281.977 11.6713 281.977 11.102C281.977 10.5327 281.785 10.0893 281.403 9.772C281.02 9.44533 280.525 9.282 279.919 9.282H279.583L279.065 8.484L281.333 5.418H276.979V4.2H282.859V5.348L280.731 8.218Z" fill="#112232"/>
</svg>
