<svg width="211" height="312" viewBox="0 0 211 312" fill="none" xmlns="http://www.w3.org/2000/svg">
<path d="M29.216 4.8C30.2933 4.8 31.2 5.16267 31.936 5.888C32.672 6.61333 33.04 7.504 33.04 8.56C33.04 9.616 32.672 10.5067 31.936 11.232C31.2 11.9573 30.2933 12.32 29.216 12.32H27.248V16H25.04V4.8H29.216ZM29.216 10.256C29.6853 10.256 30.0747 10.096 30.384 9.776C30.6933 9.44533 30.848 9.04 30.848 8.56C30.848 8.06933 30.6933 7.664 30.384 7.344C30.0747 7.024 29.6853 6.864 29.216 6.864H27.248V10.256H29.216ZM36.2736 9.376C36.4656 8.864 36.7803 8.48 37.2176 8.224C37.6656 7.968 38.1616 7.84 38.7056 7.84V10.144C38.0763 10.0693 37.511 10.1973 37.0096 10.528C36.519 10.8587 36.2736 11.408 36.2736 12.176V16H34.2096V8H36.2736V9.376ZM46.4319 15.008C45.6105 15.8187 44.6079 16.224 43.4239 16.224C42.2399 16.224 41.2372 15.8187 40.4159 15.008C39.6052 14.1867 39.1999 13.184 39.1999 12C39.1999 10.816 39.6052 9.81867 40.4159 9.008C41.2372 8.18667 42.2399 7.776 43.4239 7.776C44.6079 7.776 45.6105 8.18667 46.4319 9.008C47.2532 9.81867 47.6639 10.816 47.6639 12C47.6639 13.184 47.2532 14.1867 46.4319 15.008ZM41.8719 13.584C42.2879 14 42.8052 14.208 43.4239 14.208C44.0425 14.208 44.5599 14 44.9759 13.584C45.3919 13.168 45.5999 12.64 45.5999 12C45.5999 11.36 45.3919 10.832 44.9759 10.416C44.5599 10 44.0425 9.792 43.4239 9.792C42.8052 9.792 42.2879 10 41.8719 10.416C41.4665 10.832 41.2639 11.36 41.2639 12C41.2639 12.64 41.4665 13.168 41.8719 13.584ZM55.1799 4.8H57.2439V16H55.1799V15.056C54.5719 15.8347 53.7079 16.224 52.5879 16.224C51.5105 16.224 50.5879 15.8187 49.8199 15.008C49.0625 14.1867 48.6839 13.184 48.6839 12C48.6839 10.816 49.0625 9.81867 49.8199 9.008C50.5879 8.18667 51.5105 7.776 52.5879 7.776C53.7079 7.776 54.5719 8.16533 55.1799 8.944V4.8ZM51.3719 13.632C51.7985 14.048 52.3319 14.256 52.9719 14.256C53.6119 14.256 54.1399 14.048 54.5559 13.632C54.9719 13.2053 55.1799 12.6613 55.1799 12C55.1799 11.3387 54.9719 10.8 54.5559 10.384C54.1399 9.95733 53.6119 9.744 52.9719 9.744C52.3319 9.744 51.7985 9.95733 51.3719 10.384C50.9559 10.8 50.7479 11.3387 50.7479 12C50.7479 12.6613 50.9559 13.2053 51.3719 13.632ZM64.4115 8H66.4755V16H64.4115V15.104C63.9102 15.8507 63.1155 16.224 62.0275 16.224C61.1528 16.224 60.4275 15.9307 59.8515 15.344C59.2862 14.7573 59.0035 13.9467 59.0035 12.912V8H61.0675V12.656C61.0675 13.1893 61.2115 13.6 61.4995 13.888C61.7875 14.1653 62.1715 14.304 62.6515 14.304C63.1848 14.304 63.6115 14.1387 63.9315 13.808C64.2515 13.4773 64.4115 12.9813 64.4115 12.32V8ZM72.1739 16.224C70.9685 16.224 69.9605 15.8187 69.1499 15.008C68.3499 14.1973 67.9499 13.1947 67.9499 12C67.9499 10.8053 68.3499 9.80267 69.1499 8.992C69.9605 8.18133 70.9685 7.776 72.1739 7.776C72.9525 7.776 73.6619 7.96267 74.3019 8.336C74.9419 8.70933 75.4272 9.21067 75.7579 9.84L73.9819 10.88C73.8219 10.5493 73.5765 10.288 73.2459 10.096C72.9259 9.904 72.5632 9.808 72.1579 9.808C71.5392 9.808 71.0272 10.016 70.6219 10.432C70.2165 10.8373 70.0139 11.36 70.0139 12C70.0139 12.6293 70.2165 13.152 70.6219 13.568C71.0272 13.9733 71.5392 14.176 72.1579 14.176C72.5739 14.176 72.9419 14.0853 73.2619 13.904C73.5925 13.712 73.8379 13.4507 73.9979 13.12L75.7899 14.144C75.4379 14.7733 74.9419 15.28 74.3019 15.664C73.6619 16.0373 72.9525 16.224 72.1739 16.224ZM81.4575 9.984H79.6495V13.312C79.6495 13.5893 79.7188 13.792 79.8575 13.92C79.9962 14.048 80.1988 14.1227 80.4655 14.144C80.7322 14.1547 81.0628 14.1493 81.4575 14.128V16C80.0388 16.16 79.0362 16.0267 78.4495 15.6C77.8735 15.1733 77.5855 14.4107 77.5855 13.312V9.984H76.1935V8H77.5855V6.384L79.6495 5.76V8H81.4575V9.984ZM84.6449 10.272C84.6449 10.4853 84.7835 10.6613 85.0609 10.8C85.3489 10.928 85.6955 11.0453 86.1009 11.152C86.5062 11.248 86.9115 11.376 87.3169 11.536C87.7222 11.6853 88.0635 11.9413 88.3409 12.304C88.6289 12.6667 88.7729 13.12 88.7729 13.664C88.7729 14.4853 88.4635 15.12 87.8449 15.568C87.2369 16.0053 86.4742 16.224 85.5569 16.224C83.9142 16.224 82.7942 15.5893 82.1969 14.32L83.9889 13.312C84.2235 14.0053 84.7462 14.352 85.5569 14.352C86.2929 14.352 86.6609 14.1227 86.6609 13.664C86.6609 13.4507 86.5169 13.28 86.2289 13.152C85.9515 13.0133 85.6102 12.8907 85.2049 12.784C84.7995 12.6773 84.3942 12.544 83.9889 12.384C83.5835 12.224 83.2369 11.9733 82.9489 11.632C82.6715 11.28 82.5329 10.8427 82.5329 10.32C82.5329 9.53067 82.8209 8.912 83.3969 8.464C83.9835 8.00533 84.7089 7.776 85.5729 7.776C86.2235 7.776 86.8155 7.92533 87.3489 8.224C87.8822 8.512 88.3035 8.928 88.6129 9.472L86.8529 10.432C86.5969 9.888 86.1702 9.616 85.5729 9.616C85.3062 9.616 85.0822 9.67467 84.9009 9.792C84.7302 9.90933 84.6449 10.0693 84.6449 10.272Z" fill="#071827"/>
<path d="M26.688 46.592H31.52V48H25.2V36.8H26.688V46.592ZM33.5725 38.544C33.3058 38.544 33.0818 38.4533 32.9005 38.272C32.7192 38.0907 32.6285 37.872 32.6285 37.616C32.6285 37.36 32.7192 37.1413 32.9005 36.96C33.0818 36.768 33.3058 36.672 33.5725 36.672C33.8285 36.672 34.0472 36.768 34.2285 36.96C34.4098 37.1413 34.5005 37.36 34.5005 37.616C34.5005 37.872 34.4098 38.0907 34.2285 38.272C34.0472 38.4533 33.8285 38.544 33.5725 38.544ZM32.8685 48V40H34.2605V48H32.8685ZM40.3681 39.792C41.3068 39.792 42.0588 40.0907 42.6241 40.688C43.1895 41.2747 43.4721 42.0747 43.4721 43.088V48H42.0801V43.168C42.0801 42.5173 41.9041 42.016 41.5521 41.664C41.2001 41.3013 40.7148 41.12 40.0961 41.12C39.4028 41.12 38.8428 41.3387 38.4161 41.776C37.9895 42.2027 37.7761 42.864 37.7761 43.76V48H36.3841V40H37.7761V41.152C38.3415 40.2453 39.2055 39.792 40.3681 39.792ZM52.1834 48H50.4554L46.8074 44.208V48H45.4154V36.8H46.8074V43.536L50.2634 40H52.0554L48.2314 43.872L52.1834 48ZM68.1019 36.8V48H66.6299V39.248L62.9659 45.344H62.7739L59.1099 39.264V48H57.6219V36.8H59.3019L62.8699 42.72L66.4219 36.8H68.1019ZM76.9769 40H78.3689V48H76.9769V46.624C76.2835 47.68 75.2755 48.208 73.9529 48.208C72.8329 48.208 71.8782 47.8027 71.0889 46.992C70.2995 46.1707 69.9049 45.1733 69.9049 44C69.9049 42.8267 70.2995 41.8347 71.0889 41.024C71.8782 40.2027 72.8329 39.792 73.9529 39.792C75.2755 39.792 76.2835 40.32 76.9769 41.376V40ZM74.1289 46.864C74.9395 46.864 75.6169 46.592 76.1609 46.048C76.7049 45.4933 76.9769 44.8107 76.9769 44C76.9769 43.1893 76.7049 42.512 76.1609 41.968C75.6169 41.4133 74.9395 41.136 74.1289 41.136C73.3289 41.136 72.6569 41.4133 72.1129 41.968C71.5689 42.512 71.2969 43.1893 71.2969 44C71.2969 44.8107 71.5689 45.4933 72.1129 46.048C72.6569 46.592 73.3289 46.864 74.1289 46.864ZM84.4619 39.792C85.4005 39.792 86.1525 40.0907 86.7179 40.688C87.2832 41.2747 87.5659 42.0747 87.5659 43.088V48H86.1739V43.168C86.1739 42.5173 85.9979 42.016 85.6459 41.664C85.2939 41.3013 84.8085 41.12 84.1899 41.12C83.4965 41.12 82.9365 41.3387 82.5099 41.776C82.0832 42.2027 81.8699 42.864 81.8699 43.76V48H80.4779V40H81.8699V41.152C82.4352 40.2453 83.2992 39.792 84.4619 39.792ZM96.1331 40H97.5251V48H96.1331V46.624C95.4398 47.68 94.4318 48.208 93.1091 48.208C91.9891 48.208 91.0345 47.8027 90.2451 46.992C89.4558 46.1707 89.0611 45.1733 89.0611 44C89.0611 42.8267 89.4558 41.8347 90.2451 41.024C91.0345 40.2027 91.9891 39.792 93.1091 39.792C94.4318 39.792 95.4398 40.32 96.1331 41.376V40ZM93.2851 46.864C94.0958 46.864 94.7731 46.592 95.3171 46.048C95.8611 45.4933 96.1331 44.8107 96.1331 44C96.1331 43.1893 95.8611 42.512 95.3171 41.968C94.7731 41.4133 94.0958 41.136 93.2851 41.136C92.4851 41.136 91.8131 41.4133 91.2691 41.968C90.7251 42.512 90.4531 43.1893 90.4531 44C90.4531 44.8107 90.7251 45.4933 91.2691 46.048C91.8131 46.592 92.4851 46.864 93.2851 46.864ZM106.274 40H107.65V47.664C107.65 48.848 107.25 49.7653 106.45 50.416C105.65 51.0773 104.69 51.408 103.57 51.408C102.674 51.408 101.901 51.2373 101.25 50.896C100.599 50.5653 100.109 50.0853 99.7781 49.456L100.994 48.768C101.431 49.664 102.301 50.112 103.602 50.112C104.434 50.112 105.085 49.8933 105.554 49.456C106.034 49.0187 106.274 48.4213 106.274 47.664V46.528C105.57 47.5947 104.567 48.128 103.266 48.128C102.125 48.128 101.159 47.7227 100.37 46.912C99.5808 46.1013 99.1861 45.1147 99.1861 43.952C99.1861 42.7893 99.5808 41.808 100.37 41.008C101.159 40.1973 102.125 39.792 103.266 39.792C104.578 39.792 105.581 40.32 106.274 41.376V40ZM101.394 45.984C101.938 46.528 102.615 46.8 103.426 46.8C104.237 46.8 104.914 46.528 105.458 45.984C106.002 45.44 106.274 44.7627 106.274 43.952C106.274 43.152 106.002 42.48 105.458 41.936C104.914 41.392 104.237 41.12 103.426 41.12C102.615 41.12 101.938 41.392 101.394 41.936C100.85 42.48 100.578 43.152 100.578 43.952C100.578 44.7627 100.85 45.44 101.394 45.984ZM110.735 44.64C110.874 45.3547 111.199 45.9093 111.711 46.304C112.234 46.6987 112.874 46.896 113.631 46.896C114.687 46.896 115.455 46.5067 115.935 45.728L117.119 46.4C116.34 47.6053 115.167 48.208 113.599 48.208C112.33 48.208 111.295 47.8133 110.495 47.024C109.706 46.224 109.311 45.216 109.311 44C109.311 42.7947 109.7 41.792 110.479 40.992C111.258 40.192 112.266 39.792 113.503 39.792C114.676 39.792 115.631 40.208 116.367 41.04C117.114 41.8613 117.487 42.8533 117.487 44.016C117.487 44.2187 117.471 44.4267 117.439 44.64H110.735ZM113.503 41.104C112.756 41.104 112.138 41.3173 111.647 41.744C111.156 42.16 110.852 42.72 110.735 43.424H116.079C115.962 42.6667 115.663 42.0907 115.183 41.696C114.703 41.3013 114.143 41.104 113.503 41.104ZM127.727 39.792C128.623 39.792 129.349 40.0853 129.903 40.672C130.458 41.248 130.735 42.032 130.735 43.024V48H129.343V43.072C129.343 42.4533 129.183 41.9733 128.863 41.632C128.543 41.2907 128.117 41.12 127.583 41.12C126.986 41.12 126.506 41.3227 126.143 41.728C125.791 42.1227 125.615 42.7307 125.615 43.552V48H124.223V43.072C124.223 42.4533 124.069 41.9733 123.759 41.632C123.461 41.2907 123.05 41.12 122.527 41.12C121.941 41.12 121.45 41.3227 121.055 41.728C120.671 42.1333 120.479 42.7413 120.479 43.552V48H119.087V40H120.479V41.072C121.023 40.2187 121.818 39.792 122.863 39.792C123.941 39.792 124.725 40.2453 125.215 41.152C125.77 40.2453 126.607 39.792 127.727 39.792ZM133.641 44.64C133.78 45.3547 134.105 45.9093 134.617 46.304C135.14 46.6987 135.78 46.896 136.537 46.896C137.593 46.896 138.361 46.5067 138.841 45.728L140.025 46.4C139.247 47.6053 138.073 48.208 136.505 48.208C135.236 48.208 134.201 47.8133 133.401 47.024C132.612 46.224 132.217 45.216 132.217 44C132.217 42.7947 132.607 41.792 133.385 40.992C134.164 40.192 135.172 39.792 136.409 39.792C137.583 39.792 138.537 40.208 139.273 41.04C140.02 41.8613 140.393 42.8533 140.393 44.016C140.393 44.2187 140.377 44.4267 140.345 44.64H133.641ZM136.409 41.104C135.663 41.104 135.044 41.3173 134.553 41.744C134.063 42.16 133.759 42.72 133.641 43.424H138.985C138.868 42.6667 138.569 42.0907 138.089 41.696C137.609 41.3013 137.049 41.104 136.409 41.104ZM145.978 39.792C146.916 39.792 147.668 40.0907 148.234 40.688C148.799 41.2747 149.082 42.0747 149.082 43.088V48H147.69V43.168C147.69 42.5173 147.514 42.016 147.162 41.664C146.81 41.3013 146.324 41.12 145.706 41.12C145.012 41.12 144.452 41.3387 144.026 41.776C143.599 42.2027 143.386 42.864 143.386 43.76V48H141.993V40H143.386V41.152C143.951 40.2453 144.815 39.792 145.978 39.792ZM155.377 41.344H153.249V45.68C153.249 46.0747 153.323 46.3573 153.473 46.528C153.633 46.688 153.873 46.7733 154.193 46.784C154.513 46.784 154.907 46.7733 155.377 46.752V48C154.161 48.16 153.27 48.064 152.705 47.712C152.139 47.3493 151.857 46.672 151.857 45.68V41.344H150.273V40H151.857V38.176L153.249 37.76V40H155.377V41.344ZM36.208 66.4C36.208 67.936 35.68 69.264 34.624 70.384L35.856 71.616L34.832 72.544L33.568 71.264C32.5973 71.8933 31.5413 72.208 30.4 72.208C28.8 72.208 27.4347 71.6427 26.304 70.512C25.1733 69.3813 24.608 68.0107 24.608 66.4C24.608 64.7893 25.1733 63.4187 26.304 62.288C27.4347 61.1573 28.8 60.592 30.4 60.592C32 60.592 33.3653 61.1573 34.496 62.288C35.6373 63.4187 36.208 64.7893 36.208 66.4ZM30.4 70.752C31.168 70.752 31.872 70.5707 32.512 70.208L30.272 67.952L31.296 67.04L33.6 69.344C34.3467 68.5333 34.72 67.552 34.72 66.4C34.72 65.1733 34.2987 64.1387 33.456 63.296C32.624 62.4533 31.6053 62.032 30.4 62.032C29.1947 62.032 28.1707 62.4533 27.328 63.296C26.496 64.1387 26.08 65.1733 26.08 66.4C26.08 67.616 26.496 68.6453 27.328 69.488C28.1707 70.3307 29.1947 70.752 30.4 70.752ZM44.715 72L42.203 67.712H39.563V72H38.075V60.8H42.555C43.515 60.8 44.3363 61.1413 45.019 61.824C45.7017 62.496 46.043 63.312 46.043 64.272C46.043 64.9973 45.8243 65.6587 45.387 66.256C44.9603 66.8533 44.4057 67.2747 43.723 67.52L46.363 72H44.715ZM39.563 62.192V66.368H42.555C43.1097 66.368 43.579 66.1653 43.963 65.76C44.3577 65.344 44.555 64.848 44.555 64.272C44.555 63.696 44.3577 63.2053 43.963 62.8C43.579 62.3947 43.1097 62.192 42.555 62.192H39.563ZM57.1203 72.208C55.4243 72.208 54.0216 71.648 52.9123 70.528C51.8136 69.408 51.2643 68.032 51.2643 66.4C51.2643 64.768 51.8136 63.392 52.9123 62.272C54.0216 61.152 55.4243 60.592 57.1203 60.592C58.1443 60.592 59.0829 60.8373 59.9363 61.328C60.8003 61.8187 61.4723 62.48 61.9523 63.312L60.6562 64.064C60.3363 63.4453 59.8563 62.9547 59.2163 62.592C58.5869 62.2187 57.8883 62.032 57.1203 62.032C55.8296 62.032 54.7736 62.448 53.9523 63.28C53.1416 64.112 52.7363 65.152 52.7363 66.4C52.7363 67.6373 53.1416 68.672 53.9523 69.504C54.7736 70.336 55.8296 70.752 57.1203 70.752C57.8883 70.752 58.5869 70.5707 59.2163 70.208C59.8563 69.8347 60.3363 69.344 60.6562 68.736L61.9523 69.472C61.4829 70.304 60.8163 70.9707 59.9523 71.472C59.0883 71.9627 58.1443 72.208 57.1203 72.208ZM70.2143 70.992C69.3929 71.8027 68.3956 72.208 67.2223 72.208C66.0489 72.208 65.0516 71.8027 64.2303 70.992C63.4196 70.1813 63.0143 69.184 63.0143 68C63.0143 66.816 63.4196 65.8187 64.2303 65.008C65.0516 64.1973 66.0489 63.792 67.2223 63.792C68.3956 63.792 69.3929 64.1973 70.2143 65.008C71.0356 65.8187 71.4462 66.816 71.4462 68C71.4462 69.184 71.0356 70.1813 70.2143 70.992ZM67.2223 70.848C68.0223 70.848 68.6943 70.576 69.2383 70.032C69.7823 69.488 70.0543 68.8107 70.0543 68C70.0543 67.1893 69.7823 66.512 69.2383 65.968C68.6943 65.424 68.0223 65.152 67.2223 65.152C66.4329 65.152 65.7663 65.424 65.2223 65.968C64.6783 66.512 64.4062 67.1893 64.4062 68C64.4062 68.8107 64.6783 69.488 65.2223 70.032C65.7663 70.576 66.4329 70.848 67.2223 70.848ZM79.7113 60.8H81.1033V72H79.7113V70.624C79.0179 71.68 78.0099 72.208 76.6873 72.208C75.5673 72.208 74.6126 71.8027 73.8233 70.992C73.0339 70.1707 72.6393 69.1733 72.6393 68C72.6393 66.8267 73.0339 65.8347 73.8233 65.024C74.6126 64.2027 75.5673 63.792 76.6873 63.792C78.0099 63.792 79.0179 64.32 79.7113 65.376V60.8ZM76.8633 70.864C77.6739 70.864 78.3513 70.592 78.8953 70.048C79.4393 69.4933 79.7113 68.8107 79.7113 68C79.7113 67.1893 79.4393 66.512 78.8953 65.968C78.3513 65.4133 77.6739 65.136 76.8633 65.136C76.0633 65.136 75.3913 65.4133 74.8473 65.968C74.3033 66.512 74.0312 67.1893 74.0312 68C74.0312 68.8107 74.3033 69.4933 74.8473 70.048C75.3913 70.592 76.0633 70.864 76.8633 70.864ZM84.1883 68.64C84.3269 69.3547 84.6523 69.9093 85.1643 70.304C85.6869 70.6987 86.3269 70.896 87.0843 70.896C88.1403 70.896 88.9083 70.5067 89.3883 69.728L90.5723 70.4C89.7936 71.6053 88.6203 72.208 87.0523 72.208C85.7829 72.208 84.7483 71.8133 83.9483 71.024C83.1589 70.224 82.7643 69.216 82.7643 68C82.7643 66.7947 83.1536 65.792 83.9323 64.992C84.7109 64.192 85.7189 63.792 86.9563 63.792C88.1296 63.792 89.0843 64.208 89.8203 65.04C90.5669 65.8613 90.9403 66.8533 90.9403 68.016C90.9403 68.2187 90.9243 68.4267 90.8923 68.64H84.1883ZM86.9563 65.104C86.2096 65.104 85.5909 65.3173 85.1003 65.744C84.6096 66.16 84.3056 66.72 84.1883 67.424H89.5323C89.4149 66.6667 89.1163 66.0907 88.6363 65.696C88.1563 65.3013 87.5963 65.104 86.9563 65.104ZM93.4279 66.16C93.4279 66.4693 93.5825 66.72 93.8919 66.912C94.2012 67.0933 94.5745 67.2427 95.0119 67.36C95.4492 67.4667 95.8865 67.5947 96.3239 67.744C96.7612 67.8827 97.1345 68.128 97.4439 68.48C97.7532 68.8213 97.9079 69.264 97.9079 69.808C97.9079 70.5333 97.6252 71.1147 97.0599 71.552C96.5052 71.9893 95.7905 72.208 94.9159 72.208C94.1372 72.208 93.4705 72.0373 92.9159 71.696C92.3612 71.3547 91.9665 70.9013 91.7319 70.336L92.9319 69.648C93.0599 70.032 93.2999 70.336 93.6519 70.56C94.0039 70.784 94.4252 70.896 94.9159 70.896C95.3745 70.896 95.7532 70.8107 96.0519 70.64C96.3505 70.4587 96.4999 70.1813 96.4999 69.808C96.4999 69.4987 96.3452 69.2533 96.0359 69.072C95.7265 68.88 95.3532 68.7307 94.9159 68.624C94.4785 68.5067 94.0412 68.3733 93.6039 68.224C93.1665 68.0747 92.7932 67.8293 92.4839 67.488C92.1745 67.1467 92.0199 66.7093 92.0199 66.176C92.0199 65.4827 92.2865 64.912 92.8199 64.464C93.3639 64.016 94.0412 63.792 94.8519 63.792C95.5025 63.792 96.0785 63.9413 96.5799 64.24C97.0919 64.528 97.4759 64.9333 97.7319 65.456L96.5639 66.112C96.2759 65.4293 95.7052 65.088 94.8519 65.088C94.4572 65.088 94.1212 65.184 93.8439 65.376C93.5665 65.5573 93.4279 65.8187 93.4279 66.16ZM26.688 94.592H31.52V96H25.2V84.8H26.688V94.592ZM33.5725 86.544C33.3058 86.544 33.0818 86.4533 32.9005 86.272C32.7192 86.0907 32.6285 85.872 32.6285 85.616C32.6285 85.36 32.7192 85.1413 32.9005 84.96C33.0818 84.768 33.3058 84.672 33.5725 84.672C33.8285 84.672 34.0472 84.768 34.2285 84.96C34.4098 85.1413 34.5005 85.36 34.5005 85.616C34.5005 85.872 34.4098 86.0907 34.2285 86.272C34.0472 86.4533 33.8285 86.544 33.5725 86.544ZM32.8685 96V88H34.2605V96H32.8685ZM40.3681 87.792C41.3068 87.792 42.0588 88.0907 42.6241 88.688C43.1895 89.2747 43.4721 90.0747 43.4721 91.088V96H42.0801V91.168C42.0801 90.5173 41.9041 90.016 41.5521 89.664C41.2001 89.3013 40.7148 89.12 40.0961 89.12C39.4028 89.12 38.8428 89.3387 38.4161 89.776C37.9895 90.2027 37.7761 90.864 37.7761 91.76V96H36.3841V88H37.7761V89.152C38.3415 88.2453 39.2055 87.792 40.3681 87.792ZM52.1834 96H50.4554L46.8074 92.208V96H45.4154V84.8H46.8074V91.536L50.2634 88H52.0554L48.2314 91.872L52.1834 96ZM53.1219 91.76V90.416H58.9619V91.76H53.1219ZM61.9163 86.544C61.6496 86.544 61.4256 86.4533 61.2443 86.272C61.0629 86.0907 60.9723 85.872 60.9723 85.616C60.9723 85.36 61.0629 85.1413 61.2443 84.96C61.4256 84.768 61.6496 84.672 61.9163 84.672C62.1723 84.672 62.3909 84.768 62.5723 84.96C62.7536 85.1413 62.8443 85.36 62.8443 85.616C62.8443 85.872 62.7536 86.0907 62.5723 86.272C62.3909 86.4533 62.1723 86.544 61.9163 86.544ZM61.2122 96V88H62.6043V96H61.2122ZM68.7119 87.792C69.6505 87.792 70.4025 88.0907 70.9679 88.688C71.5332 89.2747 71.8159 90.0747 71.8159 91.088V96H70.4239V91.168C70.4239 90.5173 70.2479 90.016 69.8959 89.664C69.5439 89.3013 69.0585 89.12 68.4399 89.12C67.7465 89.12 67.1865 89.3387 66.7599 89.776C66.3332 90.2027 66.1199 90.864 66.1199 91.76V96H64.7279V88H66.1199V89.152C66.6852 88.2453 67.5492 87.792 68.7119 87.792ZM73.9031 91.76V90.416H79.7431V91.76H73.9031ZM86.4095 87.792C87.5295 87.792 88.4842 88.2027 89.2735 89.024C90.0628 89.8347 90.4575 90.8267 90.4575 92C90.4575 93.1733 90.0628 94.1707 89.2735 94.992C88.4842 95.8027 87.5295 96.208 86.4095 96.208C85.0868 96.208 84.0788 95.68 83.3855 94.624V96H81.9935V84.8H83.3855V89.376C84.0788 88.32 85.0868 87.792 86.4095 87.792ZM86.2335 94.864C87.0335 94.864 87.7055 94.592 88.2495 94.048C88.7935 93.4933 89.0655 92.8107 89.0655 92C89.0655 91.1893 88.7935 90.512 88.2495 89.968C87.7055 89.4133 87.0335 89.136 86.2335 89.136C85.4228 89.136 84.7455 89.4133 84.2015 89.968C83.6575 90.512 83.3855 91.1893 83.3855 92C83.3855 92.8107 83.6575 93.4933 84.2015 94.048C84.7455 94.592 85.4228 94.864 86.2335 94.864ZM92.8225 86.544C92.5558 86.544 92.3318 86.4533 92.1505 86.272C91.9692 86.0907 91.8785 85.872 91.8785 85.616C91.8785 85.36 91.9692 85.1413 92.1505 84.96C92.3318 84.768 92.5558 84.672 92.8225 84.672C93.0785 84.672 93.2972 84.768 93.4785 84.96C93.6598 85.1413 93.7505 85.36 93.7505 85.616C93.7505 85.872 93.6598 86.0907 93.4785 86.272C93.2972 86.4533 93.0785 86.544 92.8225 86.544ZM92.1185 96V88H93.5105V96H92.1185ZM102.386 94.992C101.565 95.8027 100.567 96.208 99.3941 96.208C98.2208 96.208 97.2235 95.8027 96.4021 94.992C95.5915 94.1813 95.1861 93.184 95.1861 92C95.1861 90.816 95.5915 89.8187 96.4021 89.008C97.2235 88.1973 98.2208 87.792 99.3941 87.792C100.567 87.792 101.565 88.1973 102.386 89.008C103.207 89.8187 103.618 90.816 103.618 92C103.618 93.184 103.207 94.1813 102.386 94.992ZM99.3941 94.848C100.194 94.848 100.866 94.576 101.41 94.032C101.954 93.488 102.226 92.8107 102.226 92C102.226 91.1893 101.954 90.512 101.41 89.968C100.866 89.424 100.194 89.152 99.3941 89.152C98.6048 89.152 97.9381 89.424 97.3941 89.968C96.8501 90.512 96.5781 91.1893 96.5781 92C96.5781 92.8107 96.8501 93.488 97.3941 94.032C97.9381 94.576 98.6048 94.848 99.3941 94.848Z" fill="#112232"/>
<path d="M27.248 173.888H31.52V176H25.04V164.8H27.248V173.888ZM34.2661 172.848C34.5435 173.851 35.2955 174.352 36.5221 174.352C37.3115 174.352 37.9088 174.085 38.3141 173.552L39.9781 174.512C39.1888 175.653 38.0261 176.224 36.4901 176.224C35.1675 176.224 34.1061 175.824 33.3061 175.024C32.5061 174.224 32.1061 173.216 32.1061 172C32.1061 170.795 32.5008 169.792 33.2901 168.992C34.0795 168.181 35.0928 167.776 36.3301 167.776C37.5035 167.776 38.4688 168.181 39.2261 168.992C39.9941 169.803 40.3781 170.805 40.3781 172C40.3781 172.267 40.3515 172.549 40.2981 172.848H34.2661ZM34.2341 171.248H38.3141C38.1968 170.704 37.9515 170.299 37.5781 170.032C37.2155 169.765 36.7995 169.632 36.3301 169.632C35.7755 169.632 35.3168 169.776 34.9541 170.064C34.5915 170.341 34.3515 170.736 34.2341 171.248ZM47.8845 168H49.9005V175.616C49.9005 176.853 49.4898 177.797 48.6685 178.448C47.8578 179.099 46.8765 179.424 45.7245 179.424C44.8605 179.424 44.0978 179.259 43.4365 178.928C42.7858 178.597 42.2845 178.112 41.9325 177.472L43.6925 176.464C44.0978 177.211 44.7965 177.584 45.7885 177.584C46.4392 177.584 46.9512 177.413 47.3245 177.072C47.6978 176.731 47.8845 176.245 47.8845 175.616V174.752C47.2765 175.563 46.4232 175.968 45.3245 175.968C44.1938 175.968 43.2445 175.573 42.4765 174.784C41.7192 173.984 41.3405 173.013 41.3405 171.872C41.3405 170.741 41.7245 169.776 42.4925 168.976C43.2605 168.176 44.2045 167.776 45.3245 167.776C46.4232 167.776 47.2765 168.181 47.8845 168.992V168ZM44.0285 173.456C44.4552 173.861 44.9938 174.064 45.6445 174.064C46.2952 174.064 46.8285 173.861 47.2445 173.456C47.6712 173.04 47.8845 172.512 47.8845 171.872C47.8845 171.243 47.6712 170.725 47.2445 170.32C46.8285 169.904 46.2952 169.696 45.6445 169.696C44.9938 169.696 44.4552 169.904 44.0285 170.32C43.6125 170.725 43.4045 171.243 43.4045 171.872C43.4045 172.512 43.6125 173.04 44.0285 173.456ZM57.8521 168H59.9161V176H57.8521V175.056C57.2335 175.835 56.3641 176.224 55.2441 176.224C54.1775 176.224 53.2601 175.819 52.4921 175.008C51.7348 174.187 51.3561 173.184 51.3561 172C51.3561 170.816 51.7348 169.819 52.4921 169.008C53.2601 168.187 54.1775 167.776 55.2441 167.776C56.3641 167.776 57.2335 168.165 57.8521 168.944V168ZM54.0441 173.632C54.4601 174.048 54.9881 174.256 55.6281 174.256C56.2681 174.256 56.7961 174.048 57.2121 173.632C57.6388 173.205 57.8521 172.661 57.8521 172C57.8521 171.339 57.6388 170.8 57.2121 170.384C56.7961 169.957 56.2681 169.744 55.6281 169.744C54.9881 169.744 54.4601 169.957 54.0441 170.384C53.6281 170.8 53.4201 171.339 53.4201 172C53.4201 172.661 53.6281 173.205 54.0441 173.632ZM61.7878 176V164.32H63.8518V176H61.7878Z" fill="#071827"/>
<path d="M29.264 196.8C30.2987 196.8 31.1573 197.147 31.84 197.84C32.5333 198.523 32.88 199.376 32.88 200.4C32.88 201.413 32.5333 202.267 31.84 202.96C31.1573 203.653 30.2987 204 29.264 204H26.688V208H25.2V196.8H29.264ZM29.264 202.608C29.8827 202.608 30.3947 202.4 30.8 201.984C31.2053 201.557 31.408 201.029 31.408 200.4C31.408 199.76 31.2053 199.232 30.8 198.816C30.3947 198.4 29.8827 198.192 29.264 198.192H26.688V202.608H29.264ZM35.7136 201.344C36.1723 200.352 37.0043 199.856 38.2096 199.856V201.312C37.527 201.28 36.9403 201.461 36.4496 201.856C35.959 202.251 35.7136 202.885 35.7136 203.76V208H34.3216V200H35.7136V201.344ZM40.2756 198.544C40.009 198.544 39.785 198.453 39.6036 198.272C39.4223 198.091 39.3316 197.872 39.3316 197.616C39.3316 197.36 39.4223 197.141 39.6036 196.96C39.785 196.768 40.009 196.672 40.2756 196.672C40.5316 196.672 40.7503 196.768 40.9316 196.96C41.113 197.141 41.2036 197.36 41.2036 197.616C41.2036 197.872 41.113 198.091 40.9316 198.272C40.7503 198.453 40.5316 198.544 40.2756 198.544ZM39.5716 208V200H40.9636V208H39.5716ZM48.6873 200H50.1913L46.9913 208H45.3593L42.1593 200H43.6633L46.1753 206.512L48.6873 200ZM57.68 200H59.072V208H57.68V206.624C56.9867 207.68 55.9787 208.208 54.656 208.208C53.536 208.208 52.5813 207.803 51.792 206.992C51.0027 206.171 50.608 205.173 50.608 204C50.608 202.827 51.0027 201.835 51.792 201.024C52.5813 200.203 53.536 199.792 54.656 199.792C55.9787 199.792 56.9867 200.32 57.68 201.376V200ZM54.832 206.864C55.6427 206.864 56.32 206.592 56.864 206.048C57.408 205.493 57.68 204.811 57.68 204C57.68 203.189 57.408 202.512 56.864 201.968C56.32 201.413 55.6427 201.136 54.832 201.136C54.032 201.136 53.36 201.413 52.816 201.968C52.272 202.512 52 203.189 52 204C52 204.811 52.272 205.493 52.816 206.048C53.36 206.592 54.032 206.864 54.832 206.864ZM64.941 208.208C63.7357 208.208 62.733 207.808 61.933 207.008C61.133 206.197 60.733 205.195 60.733 204C60.733 202.805 61.133 201.808 61.933 201.008C62.733 200.197 63.7357 199.792 64.941 199.792C65.7303 199.792 66.4397 199.984 67.069 200.368C67.6983 200.741 68.1677 201.248 68.477 201.888L67.309 202.56C67.1063 202.133 66.7917 201.792 66.365 201.536C65.949 201.28 65.4743 201.152 64.941 201.152C64.141 201.152 63.469 201.424 62.925 201.968C62.3917 202.512 62.125 203.189 62.125 204C62.125 204.8 62.3917 205.472 62.925 206.016C63.469 206.56 64.141 206.832 64.941 206.832C65.4743 206.832 65.9543 206.709 66.381 206.464C66.8077 206.208 67.133 205.867 67.357 205.44L68.541 206.128C68.1997 206.757 67.709 207.264 67.069 207.648C66.429 208.021 65.7197 208.208 64.941 208.208ZM75.515 200H77.003L73.739 208.496C73.3977 209.403 72.9177 210.091 72.299 210.56C71.691 211.04 70.987 211.253 70.187 211.2V209.904C71.1683 209.979 71.8883 209.435 72.347 208.272L72.491 207.968L69.003 200H70.491L73.211 206.272L75.515 200ZM86.3734 196.8C87.408 196.8 88.2667 197.147 88.9494 197.84C89.6427 198.523 89.9894 199.376 89.9894 200.4C89.9894 201.413 89.6427 202.267 88.9494 202.96C88.2667 203.653 87.408 204 86.3734 204H83.7974V208H82.3094V196.8H86.3734ZM86.3734 202.608C86.992 202.608 87.504 202.4 87.9094 201.984C88.3147 201.557 88.5174 201.029 88.5174 200.4C88.5174 199.76 88.3147 199.232 87.9094 198.816C87.504 198.4 86.992 198.192 86.3734 198.192H83.7974V202.608H86.3734ZM97.7455 206.992C96.9242 207.803 95.9268 208.208 94.7535 208.208C93.5802 208.208 92.5828 207.803 91.7615 206.992C90.9508 206.181 90.5455 205.184 90.5455 204C90.5455 202.816 90.9508 201.819 91.7615 201.008C92.5828 200.197 93.5802 199.792 94.7535 199.792C95.9268 199.792 96.9242 200.197 97.7455 201.008C98.5668 201.819 98.9775 202.816 98.9775 204C98.9775 205.184 98.5668 206.181 97.7455 206.992ZM94.7535 206.848C95.5535 206.848 96.2255 206.576 96.7695 206.032C97.3135 205.488 97.5855 204.811 97.5855 204C97.5855 203.189 97.3135 202.512 96.7695 201.968C96.2255 201.424 95.5535 201.152 94.7535 201.152C93.9642 201.152 93.2975 201.424 92.7535 201.968C92.2095 202.512 91.9375 203.189 91.9375 204C91.9375 204.811 92.2095 205.488 92.7535 206.032C93.2975 206.576 93.9642 206.848 94.7535 206.848ZM100.618 208V196.32H102.011V208H100.618ZM104.838 198.544C104.571 198.544 104.347 198.453 104.166 198.272C103.985 198.091 103.894 197.872 103.894 197.616C103.894 197.36 103.985 197.141 104.166 196.96C104.347 196.768 104.571 196.672 104.838 196.672C105.094 196.672 105.313 196.768 105.494 196.96C105.675 197.141 105.766 197.36 105.766 197.616C105.766 197.872 105.675 198.091 105.494 198.272C105.313 198.453 105.094 198.544 104.838 198.544ZM104.134 208V200H105.526V208H104.134ZM111.41 208.208C110.204 208.208 109.202 207.808 108.402 207.008C107.602 206.197 107.202 205.195 107.202 204C107.202 202.805 107.602 201.808 108.402 201.008C109.202 200.197 110.204 199.792 111.41 199.792C112.199 199.792 112.908 199.984 113.538 200.368C114.167 200.741 114.636 201.248 114.946 201.888L113.778 202.56C113.575 202.133 113.26 201.792 112.834 201.536C112.418 201.28 111.943 201.152 111.41 201.152C110.61 201.152 109.938 201.424 109.394 201.968C108.86 202.512 108.594 203.189 108.594 204C108.594 204.8 108.86 205.472 109.394 206.016C109.938 206.56 110.61 206.832 111.41 206.832C111.943 206.832 112.423 206.709 112.85 206.464C113.276 206.208 113.602 205.867 113.826 205.44L115.01 206.128C114.668 206.757 114.178 207.264 113.538 207.648C112.898 208.021 112.188 208.208 111.41 208.208ZM121.984 200H123.472L120.208 208.496C119.866 209.403 119.386 210.091 118.768 210.56C118.16 211.04 117.456 211.253 116.656 211.2V209.904C117.637 209.979 118.357 209.435 118.816 208.272L118.96 207.968L115.472 200H116.96L119.68 206.272L121.984 200ZM30.464 232.208C28.768 232.208 27.3653 231.648 26.256 230.528C25.1573 229.408 24.608 228.032 24.608 226.4C24.608 224.768 25.1573 223.392 26.256 222.272C27.3653 221.152 28.768 220.592 30.464 220.592C31.488 220.592 32.4267 220.837 33.28 221.328C34.144 221.819 34.816 222.48 35.296 223.312L34 224.064C33.68 223.445 33.2 222.955 32.56 222.592C31.9307 222.219 31.232 222.032 30.464 222.032C29.1733 222.032 28.1173 222.448 27.296 223.28C26.4853 224.112 26.08 225.152 26.08 226.4C26.08 227.637 26.4853 228.672 27.296 229.504C28.1173 230.336 29.1733 230.752 30.464 230.752C31.232 230.752 31.9307 230.571 32.56 230.208C33.2 229.835 33.68 229.344 34 228.736L35.296 229.472C34.8267 230.304 34.16 230.971 33.296 231.472C32.432 231.963 31.488 232.208 30.464 232.208ZM43.558 230.992C42.7367 231.803 41.7393 232.208 40.566 232.208C39.3927 232.208 38.3953 231.803 37.574 230.992C36.7633 230.181 36.358 229.184 36.358 228C36.358 226.816 36.7633 225.819 37.574 225.008C38.3953 224.197 39.3927 223.792 40.566 223.792C41.7393 223.792 42.7367 224.197 43.558 225.008C44.3793 225.819 44.79 226.816 44.79 228C44.79 229.184 44.3793 230.181 43.558 230.992ZM40.566 230.848C41.366 230.848 42.038 230.576 42.582 230.032C43.126 229.488 43.398 228.811 43.398 228C43.398 227.189 43.126 226.512 42.582 225.968C42.038 225.424 41.366 225.152 40.566 225.152C39.7767 225.152 39.11 225.424 38.566 225.968C38.022 226.512 37.75 227.189 37.75 228C37.75 228.811 38.022 229.488 38.566 230.032C39.11 230.576 39.7767 230.848 40.566 230.848ZM53.183 230.992C52.3617 231.803 51.3643 232.208 50.191 232.208C49.0177 232.208 48.0203 231.803 47.199 230.992C46.3883 230.181 45.983 229.184 45.983 228C45.983 226.816 46.3883 225.819 47.199 225.008C48.0203 224.197 49.0177 223.792 50.191 223.792C51.3643 223.792 52.3617 224.197 53.183 225.008C54.0043 225.819 54.415 226.816 54.415 228C54.415 229.184 54.0043 230.181 53.183 230.992ZM50.191 230.848C50.991 230.848 51.663 230.576 52.207 230.032C52.751 229.488 53.023 228.811 53.023 228C53.023 227.189 52.751 226.512 52.207 225.968C51.663 225.424 50.991 225.152 50.191 225.152C49.4017 225.152 48.735 225.424 48.191 225.968C47.647 226.512 47.375 227.189 47.375 228C47.375 228.811 47.647 229.488 48.191 230.032C48.735 230.576 49.4017 230.848 50.191 230.848ZM62.824 232H61.096L57.448 228.208V232H56.056V220.8H57.448V227.536L60.904 224H62.696L58.872 227.872L62.824 232ZM64.8225 222.544C64.5558 222.544 64.3318 222.453 64.1505 222.272C63.9692 222.091 63.8785 221.872 63.8785 221.616C63.8785 221.36 63.9692 221.141 64.1505 220.96C64.3318 220.768 64.5558 220.672 64.8225 220.672C65.0785 220.672 65.2972 220.768 65.4785 220.96C65.6598 221.141 65.7505 221.36 65.7505 221.616C65.7505 221.872 65.6598 222.091 65.4785 222.272C65.2972 222.453 65.0785 222.544 64.8225 222.544ZM64.1185 232V224H65.5105V232H64.1185ZM68.6101 228.64C68.7488 229.355 69.0741 229.909 69.5861 230.304C70.1088 230.699 70.7488 230.896 71.5061 230.896C72.5621 230.896 73.3301 230.507 73.8101 229.728L74.9941 230.4C74.2155 231.605 73.0421 232.208 71.4741 232.208C70.2048 232.208 69.1701 231.813 68.3701 231.024C67.5808 230.224 67.1861 229.216 67.1861 228C67.1861 226.795 67.5755 225.792 68.3541 224.992C69.1328 224.192 70.1408 223.792 71.3781 223.792C72.5515 223.792 73.5061 224.208 74.2421 225.04C74.9888 225.861 75.3621 226.853 75.3621 228.016C75.3621 228.219 75.3461 228.427 75.3141 228.64H68.6101ZM71.3781 225.104C70.6315 225.104 70.0128 225.317 69.5221 225.744C69.0315 226.16 68.7275 226.72 68.6101 227.424H73.9541C73.8368 226.667 73.5381 226.091 73.0581 225.696C72.5781 225.301 72.0181 225.104 71.3781 225.104ZM85.1703 220.8C86.2049 220.8 87.0636 221.147 87.7463 221.84C88.4396 222.523 88.7863 223.376 88.7863 224.4C88.7863 225.413 88.4396 226.267 87.7463 226.96C87.0636 227.653 86.2049 228 85.1703 228H82.5943V232H81.1063V220.8H85.1703ZM85.1703 226.608C85.7889 226.608 86.3009 226.4 86.7063 225.984C87.1116 225.557 87.3143 225.029 87.3143 224.4C87.3143 223.76 87.1116 223.232 86.7063 222.816C86.3009 222.4 85.7889 222.192 85.1703 222.192H82.5943V226.608H85.1703ZM96.5424 230.992C95.721 231.803 94.7237 232.208 93.5504 232.208C92.377 232.208 91.3797 231.803 90.5584 230.992C89.7477 230.181 89.3424 229.184 89.3424 228C89.3424 226.816 89.7477 225.819 90.5584 225.008C91.3797 224.197 92.377 223.792 93.5504 223.792C94.7237 223.792 95.721 224.197 96.5424 225.008C97.3637 225.819 97.7744 226.816 97.7744 228C97.7744 229.184 97.3637 230.181 96.5424 230.992ZM93.5504 230.848C94.3504 230.848 95.0224 230.576 95.5664 230.032C96.1104 229.488 96.3824 228.811 96.3824 228C96.3824 227.189 96.1104 226.512 95.5664 225.968C95.0224 225.424 94.3504 225.152 93.5504 225.152C92.761 225.152 92.0944 225.424 91.5504 225.968C91.0064 226.512 90.7344 227.189 90.7344 228C90.7344 228.811 91.0064 229.488 91.5504 230.032C92.0944 230.576 92.761 230.848 93.5504 230.848ZM99.4154 232V220.32H100.807V232H99.4154ZM103.635 222.544C103.368 222.544 103.144 222.453 102.963 222.272C102.782 222.091 102.691 221.872 102.691 221.616C102.691 221.36 102.782 221.141 102.963 220.96C103.144 220.768 103.368 220.672 103.635 220.672C103.891 220.672 104.11 220.768 104.291 220.96C104.472 221.141 104.563 221.36 104.563 221.616C104.563 221.872 104.472 222.091 104.291 222.272C104.11 222.453 103.891 222.544 103.635 222.544ZM102.931 232V224H104.323V232H102.931ZM110.207 232.208C109.001 232.208 107.999 231.808 107.199 231.008C106.399 230.197 105.999 229.195 105.999 228C105.999 226.805 106.399 225.808 107.199 225.008C107.999 224.197 109.001 223.792 110.207 223.792C110.996 223.792 111.705 223.984 112.335 224.368C112.964 224.741 113.433 225.248 113.743 225.888L112.575 226.56C112.372 226.133 112.057 225.792 111.631 225.536C111.215 225.28 110.74 225.152 110.207 225.152C109.407 225.152 108.735 225.424 108.191 225.968C107.657 226.512 107.391 227.189 107.391 228C107.391 228.8 107.657 229.472 108.191 230.016C108.735 230.56 109.407 230.832 110.207 230.832C110.74 230.832 111.22 230.709 111.647 230.464C112.073 230.208 112.399 229.867 112.623 229.44L113.807 230.128C113.465 230.757 112.975 231.264 112.335 231.648C111.695 232.021 110.985 232.208 110.207 232.208ZM120.781 224H122.269L119.005 232.496C118.663 233.403 118.183 234.091 117.565 234.56C116.957 235.04 116.253 235.253 115.453 235.2V233.904C116.434 233.979 117.154 233.435 117.613 232.272L117.757 231.968L114.269 224H115.757L118.477 230.272L120.781 224ZM32.368 244.8V246.208H29.056V256H27.584V246.208H24.288V244.8H32.368ZM33.2195 252.64C33.3582 253.355 33.6835 253.909 34.1955 254.304C34.7182 254.699 35.3582 254.896 36.1155 254.896C37.1715 254.896 37.9395 254.507 38.4195 253.728L39.6035 254.4C38.8248 255.605 37.6515 256.208 36.0835 256.208C34.8142 256.208 33.7795 255.813 32.9795 255.024C32.1902 254.224 31.7955 253.216 31.7955 252C31.7955 250.795 32.1848 249.792 32.9635 248.992C33.7422 248.192 34.7502 247.792 35.9875 247.792C37.1608 247.792 38.1155 248.208 38.8515 249.04C39.5982 249.861 39.9715 250.853 39.9715 252.016C39.9715 252.219 39.9555 252.427 39.9235 252.64H33.2195ZM35.9875 249.104C35.2408 249.104 34.6222 249.317 34.1315 249.744C33.6408 250.16 33.3368 250.72 33.2195 251.424H38.5635C38.4462 250.667 38.1475 250.091 37.6675 249.696C37.1875 249.301 36.6275 249.104 35.9875 249.104ZM42.9636 249.344C43.4223 248.352 44.2543 247.856 45.4596 247.856V249.312C44.777 249.28 44.1903 249.461 43.6996 249.856C43.209 250.251 42.9636 250.885 42.9636 251.76V256H41.5716V248H42.9636V249.344ZM55.4616 247.792C56.3576 247.792 57.083 248.085 57.6376 248.672C58.1923 249.248 58.4696 250.032 58.4696 251.024V256H57.0776V251.072C57.0776 250.453 56.9176 249.973 56.5976 249.632C56.2776 249.291 55.851 249.12 55.3176 249.12C54.7203 249.12 54.2403 249.323 53.8776 249.728C53.5256 250.123 53.3496 250.731 53.3496 251.552V256H51.9576V251.072C51.9576 250.453 51.803 249.973 51.4936 249.632C51.195 249.291 50.7843 249.12 50.2616 249.12C49.675 249.12 49.1843 249.323 48.7896 249.728C48.4056 250.133 48.2136 250.741 48.2136 251.552V256H46.8216V248H48.2136V249.072C48.7576 248.219 49.5523 247.792 50.5976 247.792C51.675 247.792 52.459 248.245 52.9496 249.152C53.5043 248.245 54.3416 247.792 55.4616 247.792ZM61.5998 250.16C61.5998 250.469 61.7544 250.72 62.0638 250.912C62.3731 251.093 62.7464 251.243 63.1838 251.36C63.6211 251.467 64.0584 251.595 64.4958 251.744C64.9331 251.883 65.3064 252.128 65.6158 252.48C65.9251 252.821 66.0798 253.264 66.0798 253.808C66.0798 254.533 65.7971 255.115 65.2318 255.552C64.6771 255.989 63.9624 256.208 63.0878 256.208C62.3091 256.208 61.6424 256.037 61.0878 255.696C60.5331 255.355 60.1384 254.901 59.9038 254.336L61.1038 253.648C61.2318 254.032 61.4718 254.336 61.8238 254.56C62.1758 254.784 62.5971 254.896 63.0878 254.896C63.5464 254.896 63.9251 254.811 64.2238 254.64C64.5224 254.459 64.6718 254.181 64.6718 253.808C64.6718 253.499 64.5171 253.253 64.2078 253.072C63.8984 252.88 63.5251 252.731 63.0878 252.624C62.6504 252.507 62.2131 252.373 61.7758 252.224C61.3384 252.075 60.9651 251.829 60.6558 251.488C60.3464 251.147 60.1918 250.709 60.1918 250.176C60.1918 249.483 60.4584 248.912 60.9918 248.464C61.5358 248.016 62.2131 247.792 63.0238 247.792C63.6744 247.792 64.2504 247.941 64.7518 248.24C65.2638 248.528 65.6478 248.933 65.9038 249.456L64.7358 250.112C64.4478 249.429 63.8771 249.088 63.0238 249.088C62.6291 249.088 62.2931 249.184 62.0158 249.376C61.7384 249.557 61.5998 249.819 61.5998 250.16ZM78.4799 254.992C77.6585 255.803 76.6612 256.208 75.4879 256.208C74.3145 256.208 73.3172 255.803 72.4959 254.992C71.6852 254.181 71.2799 253.184 71.2799 252C71.2799 250.816 71.6852 249.819 72.4959 249.008C73.3172 248.197 74.3145 247.792 75.4879 247.792C76.6612 247.792 77.6585 248.197 78.4799 249.008C79.3012 249.819 79.7119 250.816 79.7119 252C79.7119 253.184 79.3012 254.181 78.4799 254.992ZM75.4879 254.848C76.2879 254.848 76.9599 254.576 77.5039 254.032C78.0479 253.488 78.3199 252.811 78.3199 252C78.3199 251.189 78.0479 250.512 77.5039 249.968C76.9599 249.424 76.2879 249.152 75.4879 249.152C74.6985 249.152 74.0319 249.424 73.4879 249.968C72.9439 250.512 72.6719 251.189 72.6719 252C72.6719 252.811 72.9439 253.488 73.4879 254.032C74.0319 254.576 74.6985 254.848 75.4879 254.848ZM85.168 245.936C83.76 245.819 83.056 246.427 83.056 247.76V248H85.168V249.344H83.056V256H81.664V249.344H80.384V248H81.664V247.76C81.664 246.683 81.9627 245.867 82.56 245.312C83.168 244.757 84.0373 244.517 85.168 244.592V245.936ZM93.9879 256.208C92.9425 256.208 92.0465 255.963 91.2999 255.472C90.5639 254.981 90.0465 254.309 89.7479 253.456L91.0279 252.72C91.4652 254.075 92.4625 254.752 94.0199 254.752C94.7879 254.752 95.3745 254.597 95.7799 254.288C96.1852 253.968 96.3879 253.547 96.3879 253.024C96.3879 252.491 96.1852 252.091 95.7799 251.824C95.3745 251.557 94.6972 251.275 93.7479 250.976C93.2785 250.827 92.9212 250.709 92.6759 250.624C92.4305 250.528 92.1212 250.389 91.7479 250.208C91.3852 250.016 91.1132 249.824 90.9319 249.632C90.7505 249.429 90.5852 249.168 90.4359 248.848C90.2972 248.528 90.2279 248.165 90.2279 247.76C90.2279 246.789 90.5692 246.021 91.2519 245.456C91.9345 244.88 92.7665 244.592 93.7479 244.592C94.6332 244.592 95.4012 244.816 96.0519 245.264C96.7132 245.712 97.2092 246.304 97.5399 247.04L96.2919 247.76C95.8119 246.608 94.9639 246.032 93.7479 246.032C93.1399 246.032 92.6492 246.181 92.2759 246.48C91.9025 246.779 91.7159 247.184 91.7159 247.696C91.7159 248.187 91.8919 248.56 92.2439 248.816C92.5959 249.072 93.2039 249.339 94.0679 249.616C94.3772 249.712 94.5959 249.781 94.7239 249.824C94.8519 249.867 95.0492 249.941 95.3159 250.048C95.5932 250.155 95.7959 250.24 95.9239 250.304C96.0519 250.368 96.2225 250.459 96.4359 250.576C96.6599 250.693 96.8252 250.805 96.9319 250.912C97.0385 251.019 97.1612 251.152 97.2999 251.312C97.4492 251.461 97.5559 251.616 97.6199 251.776C97.6839 251.936 97.7372 252.123 97.7799 252.336C97.8332 252.539 97.8599 252.757 97.8599 252.992C97.8599 253.973 97.5025 254.757 96.7879 255.344C96.0732 255.92 95.1399 256.208 93.9879 256.208ZM100.641 252.64C100.78 253.355 101.105 253.909 101.617 254.304C102.14 254.699 102.78 254.896 103.537 254.896C104.593 254.896 105.361 254.507 105.841 253.728L107.025 254.4C106.247 255.605 105.073 256.208 103.505 256.208C102.236 256.208 101.201 255.813 100.401 255.024C99.612 254.224 99.2174 253.216 99.2174 252C99.2174 250.795 99.6067 249.792 100.385 248.992C101.164 248.192 102.172 247.792 103.409 247.792C104.583 247.792 105.537 248.208 106.273 249.04C107.02 249.861 107.393 250.853 107.393 252.016C107.393 252.219 107.377 252.427 107.345 252.64H100.641ZM103.409 249.104C102.663 249.104 102.044 249.317 101.553 249.744C101.063 250.16 100.759 250.72 100.641 251.424H105.985C105.868 250.667 105.569 250.091 105.089 249.696C104.609 249.301 104.049 249.104 103.409 249.104ZM110.386 249.344C110.844 248.352 111.676 247.856 112.882 247.856V249.312C112.199 249.28 111.612 249.461 111.122 249.856C110.631 250.251 110.386 250.885 110.386 251.76V256H108.993V248H110.386V249.344ZM119.844 248H121.348L118.148 256H116.516L113.316 248H114.82L117.332 254.512L119.844 248ZM123.229 246.544C122.962 246.544 122.738 246.453 122.557 246.272C122.375 246.091 122.285 245.872 122.285 245.616C122.285 245.36 122.375 245.141 122.557 244.96C122.738 244.768 122.962 244.672 123.229 244.672C123.485 244.672 123.703 244.768 123.885 244.96C124.066 245.141 124.157 245.36 124.157 245.616C124.157 245.872 124.066 246.091 123.885 246.272C123.703 246.453 123.485 246.544 123.229 246.544ZM122.525 256V248H123.917V256H122.525ZM129.8 256.208C128.595 256.208 127.592 255.808 126.792 255.008C125.992 254.197 125.592 253.195 125.592 252C125.592 250.805 125.992 249.808 126.792 249.008C127.592 248.197 128.595 247.792 129.8 247.792C130.59 247.792 131.299 247.984 131.928 248.368C132.558 248.741 133.027 249.248 133.336 249.888L132.168 250.56C131.966 250.133 131.651 249.792 131.224 249.536C130.808 249.28 130.334 249.152 129.8 249.152C129 249.152 128.328 249.424 127.784 249.968C127.251 250.512 126.984 251.189 126.984 252C126.984 252.8 127.251 253.472 127.784 254.016C128.328 254.56 129 254.832 129.8 254.832C130.334 254.832 130.814 254.709 131.24 254.464C131.667 254.208 131.992 253.867 132.216 253.44L133.4 254.128C133.059 254.757 132.568 255.264 131.928 255.648C131.288 256.021 130.579 256.208 129.8 256.208ZM135.641 252.64C135.78 253.355 136.105 253.909 136.617 254.304C137.14 254.699 137.78 254.896 138.537 254.896C139.593 254.896 140.361 254.507 140.841 253.728L142.025 254.4C141.247 255.605 140.073 256.208 138.505 256.208C137.236 256.208 136.201 255.813 135.401 255.024C134.612 254.224 134.217 253.216 134.217 252C134.217 250.795 134.607 249.792 135.385 248.992C136.164 248.192 137.172 247.792 138.409 247.792C139.583 247.792 140.537 248.208 141.273 249.04C142.02 249.861 142.393 250.853 142.393 252.016C142.393 252.219 142.377 252.427 142.345 252.64H135.641ZM138.409 249.104C137.663 249.104 137.044 249.317 136.553 249.744C136.063 250.16 135.759 250.72 135.641 251.424H140.985C140.868 250.667 140.569 250.091 140.089 249.696C139.609 249.301 139.049 249.104 138.409 249.104ZM32.576 280L31.664 277.488H26.624L25.712 280H24.128L28.304 268.8H29.984L34.16 280H32.576ZM27.136 276.096H31.152L29.136 270.576L27.136 276.096ZM38.9098 280.208C37.7044 280.208 36.7018 279.808 35.9018 279.008C35.1018 278.197 34.7018 277.195 34.7018 276C34.7018 274.805 35.1018 273.808 35.9018 273.008C36.7018 272.197 37.7044 271.792 38.9098 271.792C39.6991 271.792 40.4084 271.984 41.0378 272.368C41.6671 272.741 42.1364 273.248 42.4458 273.888L41.2778 274.56C41.0751 274.133 40.7604 273.792 40.3338 273.536C39.9178 273.28 39.4431 273.152 38.9098 273.152C38.1098 273.152 37.4378 273.424 36.8938 273.968C36.3604 274.512 36.0938 275.189 36.0938 276C36.0938 276.8 36.3604 277.472 36.8938 278.016C37.4378 278.56 38.1098 278.832 38.9098 278.832C39.4431 278.832 39.9231 278.709 40.3498 278.464C40.7764 278.208 41.1018 277.867 41.3258 277.44L42.5098 278.128C42.1684 278.757 41.6778 279.264 41.0378 279.648C40.3978 280.021 39.6884 280.208 38.9098 280.208ZM47.5348 280.208C46.3294 280.208 45.3268 279.808 44.5268 279.008C43.7268 278.197 43.3268 277.195 43.3268 276C43.3268 274.805 43.7268 273.808 44.5268 273.008C45.3268 272.197 46.3294 271.792 47.5348 271.792C48.3241 271.792 49.0334 271.984 49.6628 272.368C50.2921 272.741 50.7614 273.248 51.0708 273.888L49.9028 274.56C49.7001 274.133 49.3854 273.792 48.9588 273.536C48.5428 273.28 48.0681 273.152 47.5348 273.152C46.7348 273.152 46.0628 273.424 45.5188 273.968C44.9854 274.512 44.7188 275.189 44.7188 276C44.7188 276.8 44.9854 277.472 45.5188 278.016C46.0628 278.56 46.7348 278.832 47.5348 278.832C48.0681 278.832 48.5481 278.709 48.9748 278.464C49.4014 278.208 49.7268 277.867 49.9508 277.44L51.1348 278.128C50.7934 278.757 50.3028 279.264 49.6628 279.648C49.0228 280.021 48.3134 280.208 47.5348 280.208ZM53.3758 276.64C53.5144 277.355 53.8398 277.909 54.3518 278.304C54.8744 278.699 55.5144 278.896 56.2718 278.896C57.3278 278.896 58.0958 278.507 58.5758 277.728L59.7598 278.4C58.9811 279.605 57.8078 280.208 56.2398 280.208C54.9704 280.208 53.9358 279.813 53.1358 279.024C52.3464 278.224 51.9518 277.216 51.9518 276C51.9518 274.795 52.3411 273.792 53.1198 272.992C53.8984 272.192 54.9064 271.792 56.1438 271.792C57.3171 271.792 58.2718 272.208 59.0078 273.04C59.7544 273.861 60.1278 274.853 60.1278 276.016C60.1278 276.219 60.1118 276.427 60.0798 276.64H53.3758ZM56.1438 273.104C55.3971 273.104 54.7784 273.317 54.2878 273.744C53.7971 274.16 53.4931 274.72 53.3758 275.424H58.7198C58.6024 274.667 58.3038 274.091 57.8238 273.696C57.3438 273.301 56.7838 273.104 56.1438 273.104ZM66.1439 271.792C67.2639 271.792 68.2185 272.203 69.0079 273.024C69.7972 273.835 70.1919 274.827 70.1919 276C70.1919 277.173 69.7972 278.171 69.0079 278.992C68.2185 279.803 67.2639 280.208 66.1439 280.208C64.8212 280.208 63.8132 279.68 63.1199 278.624V283.2H61.7279V272H63.1199V273.376C63.8132 272.32 64.8212 271.792 66.1439 271.792ZM65.9679 278.864C66.7679 278.864 67.4399 278.592 67.9839 278.048C68.5279 277.493 68.7999 276.811 68.7999 276C68.7999 275.189 68.5279 274.512 67.9839 273.968C67.4399 273.413 66.7679 273.136 65.9679 273.136C65.1572 273.136 64.4799 273.413 63.9359 273.968C63.3919 274.512 63.1199 275.189 63.1199 276C63.1199 276.811 63.3919 277.493 63.9359 278.048C64.4799 278.592 65.1572 278.864 65.9679 278.864ZM76.033 273.344H73.905V277.68C73.905 278.075 73.9797 278.357 74.129 278.528C74.289 278.688 74.529 278.773 74.849 278.784C75.169 278.784 75.5637 278.773 76.033 278.752V280C74.817 280.16 73.9263 280.064 73.361 279.712C72.7957 279.349 72.513 278.672 72.513 277.68V273.344H70.929V272H72.513V270.176L73.905 269.76V272H76.033V273.344ZM83.8988 272H85.2908V280H83.8988V278.624C83.2054 279.68 82.1974 280.208 80.8748 280.208C79.7548 280.208 78.8001 279.803 78.0108 278.992C77.2214 278.171 76.8268 277.173 76.8268 276C76.8268 274.827 77.2214 273.835 78.0108 273.024C78.8001 272.203 79.7548 271.792 80.8748 271.792C82.1974 271.792 83.2054 272.32 83.8988 273.376V272ZM81.0508 278.864C81.8614 278.864 82.5388 278.592 83.0828 278.048C83.6268 277.493 83.8988 276.811 83.8988 276C83.8988 275.189 83.6268 274.512 83.0828 273.968C82.5388 273.413 81.8614 273.136 81.0508 273.136C80.2508 273.136 79.5788 273.413 79.0348 273.968C78.4908 274.512 78.2188 275.189 78.2188 276C78.2188 276.811 78.4908 277.493 79.0348 278.048C79.5788 278.592 80.2508 278.864 81.0508 278.864ZM91.8158 271.792C92.9358 271.792 93.8904 272.203 94.6798 273.024C95.4691 273.835 95.8638 274.827 95.8638 276C95.8638 277.173 95.4691 278.171 94.6798 278.992C93.8904 279.803 92.9358 280.208 91.8158 280.208C90.4931 280.208 89.4851 279.68 88.7918 278.624V280H87.3997V268.8H88.7918V273.376C89.4851 272.32 90.4931 271.792 91.8158 271.792ZM91.6398 278.864C92.4398 278.864 93.1118 278.592 93.6558 278.048C94.1998 277.493 94.4718 276.811 94.4718 276C94.4718 275.189 94.1998 274.512 93.6558 273.968C93.1118 273.413 92.4398 273.136 91.6398 273.136C90.8291 273.136 90.1518 273.413 89.6078 273.968C89.0638 274.512 88.7918 275.189 88.7918 276C88.7918 276.811 89.0638 277.493 89.6078 278.048C90.1518 278.592 90.8291 278.864 91.6398 278.864ZM97.5247 280V268.32H98.9168V280H97.5247ZM102.016 276.64C102.155 277.355 102.48 277.909 102.992 278.304C103.515 278.699 104.155 278.896 104.912 278.896C105.968 278.896 106.736 278.507 107.216 277.728L108.4 278.4C107.622 279.605 106.448 280.208 104.88 280.208C103.611 280.208 102.576 279.813 101.776 279.024C100.987 278.224 100.592 277.216 100.592 276C100.592 274.795 100.982 273.792 101.76 272.992C102.539 272.192 103.547 271.792 104.784 271.792C105.958 271.792 106.912 272.208 107.648 273.04C108.395 273.861 108.768 274.853 108.768 276.016C108.768 276.219 108.752 276.427 108.72 276.64H102.016ZM104.784 273.104C104.038 273.104 103.419 273.317 102.928 273.744C102.438 274.16 102.134 274.72 102.016 275.424H107.36C107.243 274.667 106.944 274.091 106.464 273.696C105.984 273.301 105.424 273.104 104.784 273.104ZM121.601 279.136C120.822 279.851 119.814 280.208 118.577 280.208C117.339 280.208 116.326 279.851 115.537 279.136C114.758 278.411 114.368 277.445 114.368 276.24V268.8H115.857V276.176C115.857 276.965 116.091 277.595 116.561 278.064C117.03 278.523 117.702 278.752 118.577 278.752C119.451 278.752 120.123 278.523 120.593 278.064C121.062 277.595 121.297 276.965 121.297 276.176V268.8H122.769V276.24C122.769 277.445 122.379 278.411 121.601 279.136ZM126.022 274.16C126.022 274.469 126.176 274.72 126.486 274.912C126.795 275.093 127.168 275.243 127.606 275.36C128.043 275.467 128.48 275.595 128.918 275.744C129.355 275.883 129.728 276.128 130.038 276.48C130.347 276.821 130.502 277.264 130.502 277.808C130.502 278.533 130.219 279.115 129.654 279.552C129.099 279.989 128.384 280.208 127.51 280.208C126.731 280.208 126.064 280.037 125.51 279.696C124.955 279.355 124.56 278.901 124.326 278.336L125.526 277.648C125.654 278.032 125.894 278.336 126.246 278.56C126.598 278.784 127.019 278.896 127.51 278.896C127.968 278.896 128.347 278.811 128.646 278.64C128.944 278.459 129.094 278.181 129.094 277.808C129.094 277.499 128.939 277.253 128.63 277.072C128.32 276.88 127.947 276.731 127.51 276.624C127.072 276.507 126.635 276.373 126.198 276.224C125.76 276.075 125.387 275.829 125.078 275.488C124.768 275.147 124.614 274.709 124.614 274.176C124.614 273.483 124.88 272.912 125.414 272.464C125.958 272.016 126.635 271.792 127.446 271.792C128.096 271.792 128.672 271.941 129.174 272.24C129.686 272.528 130.07 272.933 130.326 273.456L129.158 274.112C128.87 273.429 128.299 273.088 127.446 273.088C127.051 273.088 126.715 273.184 126.438 273.376C126.16 273.557 126.022 273.819 126.022 274.16ZM132.907 276.64C133.046 277.355 133.371 277.909 133.883 278.304C134.406 278.699 135.046 278.896 135.803 278.896C136.859 278.896 137.627 278.507 138.107 277.728L139.291 278.4C138.512 279.605 137.339 280.208 135.771 280.208C134.502 280.208 133.467 279.813 132.667 279.024C131.878 278.224 131.483 277.216 131.483 276C131.483 274.795 131.872 273.792 132.651 272.992C133.43 272.192 134.438 271.792 135.675 271.792C136.848 271.792 137.803 272.208 138.539 273.04C139.286 273.861 139.659 274.853 139.659 276.016C139.659 276.219 139.643 276.427 139.611 276.64H132.907ZM135.675 273.104C134.928 273.104 134.31 273.317 133.819 273.744C133.328 274.16 133.024 274.72 132.907 275.424H138.251C138.134 274.667 137.835 274.091 137.355 273.696C136.875 273.301 136.315 273.104 135.675 273.104ZM149.467 268.8C150.502 268.8 151.36 269.147 152.043 269.84C152.736 270.523 153.083 271.376 153.083 272.4C153.083 273.413 152.736 274.267 152.043 274.96C151.36 275.653 150.502 276 149.467 276H146.891V280H145.403V268.8H149.467ZM149.467 274.608C150.086 274.608 150.598 274.4 151.003 273.984C151.408 273.557 151.611 273.029 151.611 272.4C151.611 271.76 151.408 271.232 151.003 270.816C150.598 270.4 150.086 270.192 149.467 270.192H146.891V274.608H149.467ZM160.839 278.992C160.018 279.803 159.021 280.208 157.847 280.208C156.674 280.208 155.677 279.803 154.855 278.992C154.045 278.181 153.639 277.184 153.639 276C153.639 274.816 154.045 273.819 154.855 273.008C155.677 272.197 156.674 271.792 157.847 271.792C159.021 271.792 160.018 272.197 160.839 273.008C161.661 273.819 162.071 274.816 162.071 276C162.071 277.184 161.661 278.181 160.839 278.992ZM157.847 278.848C158.647 278.848 159.319 278.576 159.863 278.032C160.407 277.488 160.679 276.811 160.679 276C160.679 275.189 160.407 274.512 159.863 273.968C159.319 273.424 158.647 273.152 157.847 273.152C157.058 273.152 156.391 273.424 155.847 273.968C155.303 274.512 155.031 275.189 155.031 276C155.031 276.811 155.303 277.488 155.847 278.032C156.391 278.576 157.058 278.848 157.847 278.848ZM163.712 280V268.32H165.104V280H163.712ZM167.932 270.544C167.665 270.544 167.441 270.453 167.26 270.272C167.079 270.091 166.988 269.872 166.988 269.616C166.988 269.36 167.079 269.141 167.26 268.96C167.441 268.768 167.665 268.672 167.932 268.672C168.188 268.672 168.407 268.768 168.588 268.96C168.769 269.141 168.86 269.36 168.86 269.616C168.86 269.872 168.769 270.091 168.588 270.272C168.407 270.453 168.188 270.544 167.932 270.544ZM167.228 280V272H168.62V280H167.228ZM174.504 280.208C173.298 280.208 172.296 279.808 171.496 279.008C170.696 278.197 170.296 277.195 170.296 276C170.296 274.805 170.696 273.808 171.496 273.008C172.296 272.197 173.298 271.792 174.504 271.792C175.293 271.792 176.002 271.984 176.632 272.368C177.261 272.741 177.73 273.248 178.04 273.888L176.872 274.56C176.669 274.133 176.354 273.792 175.928 273.536C175.512 273.28 175.037 273.152 174.504 273.152C173.704 273.152 173.032 273.424 172.488 273.968C171.954 274.512 171.688 275.189 171.688 276C171.688 276.8 171.954 277.472 172.488 278.016C173.032 278.56 173.704 278.832 174.504 278.832C175.037 278.832 175.517 278.709 175.944 278.464C176.37 278.208 176.696 277.867 176.92 277.44L178.104 278.128C177.762 278.757 177.272 279.264 176.632 279.648C175.992 280.021 175.282 280.208 174.504 280.208ZM185.078 272H186.566L183.302 280.496C182.96 281.403 182.48 282.091 181.862 282.56C181.254 283.04 180.55 283.253 179.75 283.2V281.904C180.731 281.979 181.451 281.435 181.91 280.272L182.054 279.968L178.566 272H180.054L182.774 278.272L185.078 272ZM30.464 304.208C28.768 304.208 27.3653 303.648 26.256 302.528C25.1573 301.408 24.608 300.032 24.608 298.4C24.608 296.768 25.1573 295.392 26.256 294.272C27.3653 293.152 28.768 292.592 30.464 292.592C31.488 292.592 32.4267 292.837 33.28 293.328C34.144 293.819 34.816 294.48 35.296 295.312L34 296.064C33.68 295.445 33.2 294.955 32.56 294.592C31.9307 294.219 31.232 294.032 30.464 294.032C29.1733 294.032 28.1173 294.448 27.296 295.28C26.4853 296.112 26.08 297.152 26.08 298.4C26.08 299.637 26.4853 300.672 27.296 301.504C28.1173 302.336 29.1733 302.752 30.464 302.752C31.232 302.752 31.9307 302.571 32.56 302.208C33.2 301.835 33.68 301.344 34 300.736L35.296 301.472C34.8267 302.304 34.16 302.971 33.296 303.472C32.432 303.963 31.488 304.208 30.464 304.208ZM43.558 302.992C42.7367 303.803 41.7393 304.208 40.566 304.208C39.3927 304.208 38.3953 303.803 37.574 302.992C36.7633 302.181 36.358 301.184 36.358 300C36.358 298.816 36.7633 297.819 37.574 297.008C38.3953 296.197 39.3927 295.792 40.566 295.792C41.7393 295.792 42.7367 296.197 43.558 297.008C44.3793 297.819 44.79 298.816 44.79 300C44.79 301.184 44.3793 302.181 43.558 302.992ZM40.566 302.848C41.366 302.848 42.038 302.576 42.582 302.032C43.126 301.488 43.398 300.811 43.398 300C43.398 299.189 43.126 298.512 42.582 297.968C42.038 297.424 41.366 297.152 40.566 297.152C39.7767 297.152 39.11 297.424 38.566 297.968C38.022 298.512 37.75 299.189 37.75 300C37.75 300.811 38.022 301.488 38.566 302.032C39.11 302.576 39.7767 302.848 40.566 302.848ZM53.055 292.8H54.447V304H53.055V302.624C52.3617 303.68 51.3537 304.208 50.031 304.208C48.911 304.208 47.9563 303.803 47.167 302.992C46.3777 302.171 45.983 301.173 45.983 300C45.983 298.827 46.3777 297.835 47.167 297.024C47.9563 296.203 48.911 295.792 50.031 295.792C51.3537 295.792 52.3617 296.32 53.055 297.376V292.8ZM50.207 302.864C51.0177 302.864 51.695 302.592 52.239 302.048C52.783 301.493 53.055 300.811 53.055 300C53.055 299.189 52.783 298.512 52.239 297.968C51.695 297.413 51.0177 297.136 50.207 297.136C49.407 297.136 48.735 297.413 48.191 297.968C47.647 298.512 47.375 299.189 47.375 300C47.375 300.811 47.647 301.493 48.191 302.048C48.735 302.592 49.407 302.864 50.207 302.864ZM57.532 300.64C57.6707 301.355 57.996 301.909 58.508 302.304C59.0307 302.699 59.6707 302.896 60.428 302.896C61.484 302.896 62.252 302.507 62.732 301.728L63.916 302.4C63.1373 303.605 61.964 304.208 60.396 304.208C59.1267 304.208 58.092 303.813 57.292 303.024C56.5027 302.224 56.108 301.216 56.108 300C56.108 298.795 56.4973 297.792 57.276 296.992C58.0547 296.192 59.0627 295.792 60.3 295.792C61.4733 295.792 62.428 296.208 63.164 297.04C63.9107 297.861 64.284 298.853 64.284 300.016C64.284 300.219 64.268 300.427 64.236 300.64H57.532ZM60.3 297.104C59.5533 297.104 58.9347 297.317 58.444 297.744C57.9533 298.16 57.6493 298.72 57.532 299.424H62.876C62.7587 298.667 62.46 298.091 61.98 297.696C61.5 297.301 60.94 297.104 60.3 297.104ZM76.6361 302.992C75.8148 303.803 74.8175 304.208 73.6441 304.208C72.4708 304.208 71.4735 303.803 70.6521 302.992C69.8415 302.181 69.4361 301.184 69.4361 300C69.4361 298.816 69.8415 297.819 70.6521 297.008C71.4735 296.197 72.4708 295.792 73.6441 295.792C74.8175 295.792 75.8148 296.197 76.6361 297.008C77.4575 297.819 77.8681 298.816 77.8681 300C77.8681 301.184 77.4575 302.181 76.6361 302.992ZM73.6441 302.848C74.4441 302.848 75.1161 302.576 75.6601 302.032C76.2041 301.488 76.4761 300.811 76.4761 300C76.4761 299.189 76.2041 298.512 75.6601 297.968C75.1161 297.424 74.4441 297.152 73.6441 297.152C72.8548 297.152 72.1881 297.424 71.6441 297.968C71.1001 298.512 70.8281 299.189 70.8281 300C70.8281 300.811 71.1001 301.488 71.6441 302.032C72.1881 302.576 72.8548 302.848 73.6441 302.848ZM83.3243 293.936C81.9163 293.819 81.2123 294.427 81.2123 295.76V296H83.3243V297.344H81.2123V304H79.8203V297.344H78.5403V296H79.8203V295.76C79.8203 294.683 80.1189 293.867 80.7163 293.312C81.3243 292.757 82.1936 292.517 83.3243 292.592V293.936ZM93.7921 304.208C92.0961 304.208 90.6935 303.648 89.5841 302.528C88.4855 301.408 87.9361 300.032 87.9361 298.4C87.9361 296.768 88.4855 295.392 89.5841 294.272C90.6935 293.152 92.0961 292.592 93.7921 292.592C94.8161 292.592 95.7548 292.837 96.6081 293.328C97.4721 293.819 98.1441 294.48 98.6241 295.312L97.3281 296.064C97.0081 295.445 96.5281 294.955 95.8881 294.592C95.2588 294.219 94.5601 294.032 93.7921 294.032C92.5015 294.032 91.4455 294.448 90.6241 295.28C89.8135 296.112 89.4081 297.152 89.4081 298.4C89.4081 299.637 89.8135 300.672 90.6241 301.504C91.4455 302.336 92.5015 302.752 93.7921 302.752C94.5601 302.752 95.2588 302.571 95.8881 302.208C96.5281 301.835 97.0081 301.344 97.3281 300.736L98.6241 301.472C98.1548 302.304 97.4881 302.971 96.6241 303.472C95.7601 303.963 94.8161 304.208 93.7921 304.208ZM106.886 302.992C106.065 303.803 105.067 304.208 103.894 304.208C102.721 304.208 101.723 303.803 100.902 302.992C100.091 302.181 99.6861 301.184 99.6861 300C99.6861 298.816 100.091 297.819 100.902 297.008C101.723 296.197 102.721 295.792 103.894 295.792C105.067 295.792 106.065 296.197 106.886 297.008C107.707 297.819 108.118 298.816 108.118 300C108.118 301.184 107.707 302.181 106.886 302.992ZM103.894 302.848C104.694 302.848 105.366 302.576 105.91 302.032C106.454 301.488 106.726 300.811 106.726 300C106.726 299.189 106.454 298.512 105.91 297.968C105.366 297.424 104.694 297.152 103.894 297.152C103.105 297.152 102.438 297.424 101.894 297.968C101.35 298.512 101.078 299.189 101.078 300C101.078 300.811 101.35 301.488 101.894 302.032C102.438 302.576 103.105 302.848 103.894 302.848ZM113.743 295.792C114.682 295.792 115.434 296.091 115.999 296.688C116.564 297.275 116.847 298.075 116.847 299.088V304H115.455V299.168C115.455 298.517 115.279 298.016 114.927 297.664C114.575 297.301 114.09 297.12 113.471 297.12C112.778 297.12 112.218 297.339 111.791 297.776C111.364 298.203 111.151 298.864 111.151 299.76V304H109.759V296H111.151V297.152C111.716 296.245 112.58 295.792 113.743 295.792ZM125.414 292.8H126.806V304H125.414V302.624C124.721 303.68 123.713 304.208 122.39 304.208C121.27 304.208 120.316 303.803 119.526 302.992C118.737 302.171 118.342 301.173 118.342 300C118.342 298.827 118.737 297.835 119.526 297.024C120.316 296.203 121.27 295.792 122.39 295.792C123.713 295.792 124.721 296.32 125.414 297.376V292.8ZM122.566 302.864C123.377 302.864 124.054 302.592 124.598 302.048C125.142 301.493 125.414 300.811 125.414 300C125.414 299.189 125.142 298.512 124.598 297.968C124.054 297.413 123.377 297.136 122.566 297.136C121.766 297.136 121.094 297.413 120.55 297.968C120.006 298.512 119.734 299.189 119.734 300C119.734 300.811 120.006 301.493 120.55 302.048C121.094 302.592 121.766 302.864 122.566 302.864ZM134.435 296H135.827V304H134.435V302.848C133.87 303.755 133.006 304.208 131.843 304.208C130.905 304.208 130.153 303.915 129.587 303.328C129.022 302.731 128.739 301.925 128.739 300.912V296H130.131V300.832C130.131 301.483 130.307 301.989 130.659 302.352C131.011 302.704 131.497 302.88 132.115 302.88C132.809 302.88 133.369 302.667 133.795 302.24C134.222 301.803 134.435 301.136 134.435 300.24V296ZM141.707 304.208C140.501 304.208 139.499 303.808 138.699 303.008C137.899 302.197 137.499 301.195 137.499 300C137.499 298.805 137.899 297.808 138.699 297.008C139.499 296.197 140.501 295.792 141.707 295.792C142.496 295.792 143.205 295.984 143.835 296.368C144.464 296.741 144.933 297.248 145.243 297.888L144.075 298.56C143.872 298.133 143.557 297.792 143.131 297.536C142.715 297.28 142.24 297.152 141.707 297.152C140.907 297.152 140.235 297.424 139.691 297.968C139.157 298.512 138.891 299.189 138.891 300C138.891 300.8 139.157 301.472 139.691 302.016C140.235 302.56 140.907 302.832 141.707 302.832C142.24 302.832 142.72 302.709 143.147 302.464C143.573 302.208 143.899 301.867 144.123 301.44L145.307 302.128C144.965 302.757 144.475 303.264 143.835 303.648C143.195 304.021 142.485 304.208 141.707 304.208ZM151.033 297.344H148.905V301.68C148.905 302.075 148.98 302.357 149.129 302.528C149.289 302.688 149.529 302.773 149.849 302.784C150.169 302.784 150.564 302.773 151.033 302.752V304C149.817 304.16 148.926 304.064 148.361 303.712C147.796 303.349 147.513 302.672 147.513 301.68V297.344H145.929V296H147.513V294.176L148.905 293.76V296H151.033V297.344Z" fill="#112232"/>
</svg>
