<svg width="201" height="335" viewBox="0 0 201 335" fill="none" xmlns="http://www.w3.org/2000/svg">
<path d="M28.864 16.224C27.7547 16.224 26.8213 15.9787 26.064 15.488C25.3067 14.9867 24.7733 14.3093 24.464 13.456L26.352 12.352C26.7893 13.4933 27.648 14.064 28.928 14.064C29.5467 14.064 30 13.952 30.288 13.728C30.576 13.504 30.72 13.2213 30.72 12.88C30.72 12.4853 30.544 12.1813 30.192 11.968C29.84 11.744 29.2107 11.504 28.304 11.248C27.8027 11.0987 27.376 10.9493 27.024 10.8C26.6827 10.6507 26.336 10.4533 25.984 10.208C25.6427 9.952 25.3813 9.632 25.2 9.248C25.0187 8.864 24.928 8.416 24.928 7.904C24.928 6.89067 25.2853 6.08533 26 5.488C26.7253 4.88 27.5947 4.576 28.608 4.576C29.5147 4.576 30.3093 4.8 30.992 5.248C31.6853 5.68533 32.224 6.29867 32.608 7.088L30.752 8.16C30.304 7.2 29.5893 6.72 28.608 6.72C28.1493 6.72 27.7867 6.82667 27.52 7.04C27.264 7.24267 27.136 7.50933 27.136 7.84C27.136 8.192 27.28 8.48 27.568 8.704C27.8667 8.91733 28.432 9.152 29.264 9.408C29.6053 9.51467 29.8613 9.6 30.032 9.664C30.2133 9.71733 30.4533 9.808 30.752 9.936C31.0613 10.0533 31.296 10.1653 31.456 10.272C31.6267 10.3787 31.8187 10.5227 32.032 10.704C32.2453 10.8853 32.4053 11.072 32.512 11.264C32.6293 11.456 32.7253 11.6907 32.8 11.968C32.8853 12.2347 32.928 12.528 32.928 12.848C32.928 13.8827 32.5493 14.704 31.792 15.312C31.0453 15.92 30.0693 16.224 28.864 16.224ZM41.3069 15.008C40.4855 15.8187 39.4829 16.224 38.2989 16.224C37.1149 16.224 36.1122 15.8187 35.2909 15.008C34.4802 14.1867 34.0749 13.184 34.0749 12C34.0749 10.816 34.4802 9.81867 35.2909 9.008C36.1122 8.18667 37.1149 7.776 38.2989 7.776C39.4829 7.776 40.4855 8.18667 41.3069 9.008C42.1282 9.81867 42.5389 10.816 42.5389 12C42.5389 13.184 42.1282 14.1867 41.3069 15.008ZM36.7469 13.584C37.1629 14 37.6802 14.208 38.2989 14.208C38.9175 14.208 39.4349 14 39.8509 13.584C40.2669 13.168 40.4749 12.64 40.4749 12C40.4749 11.36 40.2669 10.832 39.8509 10.416C39.4349 10 38.9175 9.792 38.2989 9.792C37.6802 9.792 37.1629 10 36.7469 10.416C36.3415 10.832 36.1389 11.36 36.1389 12C36.1389 12.64 36.3415 13.168 36.7469 13.584ZM43.9909 16V4.32H46.0549V16H43.9909ZM53.224 8H55.288V16H53.224V15.104C52.7227 15.8507 51.928 16.224 50.84 16.224C49.9653 16.224 49.24 15.9307 48.664 15.344C48.0987 14.7573 47.816 13.9467 47.816 12.912V8H49.88V12.656C49.88 13.1893 50.024 13.6 50.312 13.888C50.6 14.1653 50.984 14.304 51.464 14.304C51.9973 14.304 52.424 14.1387 52.744 13.808C53.064 13.4773 53.224 12.9813 53.224 12.32V8ZM61.7544 9.984H59.9464V13.312C59.9464 13.5893 60.0157 13.792 60.1544 13.92C60.293 14.048 60.4957 14.1227 60.7624 14.144C61.029 14.1547 61.3597 14.1493 61.7544 14.128V16C60.3357 16.16 59.333 16.0267 58.7464 15.6C58.1704 15.1733 57.8824 14.4107 57.8824 13.312V9.984H56.4904V8H57.8824V6.384L59.9464 5.76V8H61.7544V9.984ZM64.2336 7.04C63.8923 7.04 63.5936 6.91733 63.3376 6.672C63.0923 6.416 62.9696 6.11733 62.9696 5.776C62.9696 5.43467 63.0923 5.136 63.3376 4.88C63.5936 4.624 63.8923 4.496 64.2336 4.496C64.5856 4.496 64.8843 4.624 65.1296 4.88C65.3856 5.136 65.5136 5.43467 65.5136 5.776C65.5136 6.11733 65.3856 6.416 65.1296 6.672C64.8843 6.91733 64.5856 7.04 64.2336 7.04ZM63.2096 16V8H65.2736V16H63.2096ZM73.9788 15.008C73.1574 15.8187 72.1548 16.224 70.9708 16.224C69.7868 16.224 68.7841 15.8187 67.9628 15.008C67.1521 14.1867 66.7467 13.184 66.7467 12C66.7467 10.816 67.1521 9.81867 67.9628 9.008C68.7841 8.18667 69.7868 7.776 70.9708 7.776C72.1548 7.776 73.1574 8.18667 73.9788 9.008C74.8001 9.81867 75.2108 10.816 75.2108 12C75.2108 13.184 74.8001 14.1867 73.9788 15.008ZM69.4188 13.584C69.8348 14 70.3521 14.208 70.9708 14.208C71.5894 14.208 72.1068 14 72.5228 13.584C72.9388 13.168 73.1468 12.64 73.1468 12C73.1468 11.36 72.9388 10.832 72.5228 10.416C72.1068 10 71.5894 9.792 70.9708 9.792C70.3521 9.792 69.8348 10 69.4188 10.416C69.0134 10.832 68.8108 11.36 68.8108 12C68.8108 12.64 69.0134 13.168 69.4188 13.584ZM81.1108 7.776C81.9854 7.776 82.7054 8.06933 83.2708 8.656C83.8468 9.24267 84.1348 10.0533 84.1348 11.088V16H82.0708V11.344C82.0708 10.8107 81.9268 10.4053 81.6388 10.128C81.3508 9.84 80.9668 9.696 80.4868 9.696C79.9534 9.696 79.5268 9.86133 79.2068 10.192C78.8868 10.5227 78.7268 11.0187 78.7268 11.68V16H76.6628V8H78.7268V8.896C79.2281 8.14933 80.0228 7.776 81.1108 7.776ZM87.8011 10.272C87.8011 10.4853 87.9398 10.6613 88.2171 10.8C88.5051 10.928 88.8518 11.0453 89.2571 11.152C89.6625 11.248 90.0678 11.376 90.4731 11.536C90.8785 11.6853 91.2198 11.9413 91.4971 12.304C91.7851 12.6667 91.9291 13.12 91.9291 13.664C91.9291 14.4853 91.6198 15.12 91.0011 15.568C90.3931 16.0053 89.6305 16.224 88.7131 16.224C87.0705 16.224 85.9505 15.5893 85.3531 14.32L87.1451 13.312C87.3798 14.0053 87.9025 14.352 88.7131 14.352C89.4491 14.352 89.8171 14.1227 89.8171 13.664C89.8171 13.4507 89.6731 13.28 89.3851 13.152C89.1078 13.0133 88.7665 12.8907 88.3611 12.784C87.9558 12.6773 87.5505 12.544 87.1451 12.384C86.7398 12.224 86.3931 11.9733 86.1051 11.632C85.8278 11.28 85.6891 10.8427 85.6891 10.32C85.6891 9.53067 85.9771 8.912 86.5531 8.464C87.1398 8.00533 87.8651 7.776 88.7291 7.776C89.3798 7.776 89.9718 7.92533 90.5051 8.224C91.0385 8.512 91.4598 8.928 91.7691 9.472L90.0091 10.432C89.7531 9.888 89.3265 9.616 88.7291 9.616C88.4625 9.616 88.2385 9.67467 88.0571 9.792C87.8865 9.90933 87.8011 10.0693 87.8011 10.272Z" fill="#071827"/>
<path d="M28.816 48.208C27.7707 48.208 26.8747 47.9627 26.128 47.472C25.392 46.9813 24.8747 46.3093 24.576 45.456L25.856 44.72C26.2933 46.0747 27.2907 46.752 28.848 46.752C29.616 46.752 30.2027 46.5973 30.608 46.288C31.0133 45.968 31.216 45.5467 31.216 45.024C31.216 44.4907 31.0133 44.0907 30.608 43.824C30.2027 43.5573 29.5253 43.2747 28.576 42.976C28.1067 42.8267 27.7493 42.7093 27.504 42.624C27.2587 42.528 26.9493 42.3893 26.576 42.208C26.2133 42.016 25.9413 41.824 25.76 41.632C25.5787 41.4293 25.4133 41.168 25.264 40.848C25.1253 40.528 25.056 40.1653 25.056 39.76C25.056 38.7893 25.3973 38.0213 26.08 37.456C26.7627 36.88 27.5947 36.592 28.576 36.592C29.4613 36.592 30.2293 36.816 30.88 37.264C31.5413 37.712 32.0373 38.304 32.368 39.04L31.12 39.76C30.64 38.608 29.792 38.032 28.576 38.032C27.968 38.032 27.4773 38.1813 27.104 38.48C26.7307 38.7787 26.544 39.184 26.544 39.696C26.544 40.1867 26.72 40.56 27.072 40.816C27.424 41.072 28.032 41.3387 28.896 41.616C29.2053 41.712 29.424 41.7813 29.552 41.824C29.68 41.8667 29.8773 41.9413 30.144 42.048C30.4213 42.1547 30.624 42.24 30.752 42.304C30.88 42.368 31.0507 42.4587 31.264 42.576C31.488 42.6933 31.6533 42.8053 31.76 42.912C31.8667 43.0187 31.9893 43.152 32.128 43.312C32.2773 43.4613 32.384 43.616 32.448 43.776C32.512 43.936 32.5653 44.1227 32.608 44.336C32.6613 44.5387 32.688 44.7573 32.688 44.992C32.688 45.9733 32.3307 46.7573 31.616 47.344C30.9013 47.92 29.968 48.208 28.816 48.208ZM41.2455 46.992C40.4242 47.8027 39.4268 48.208 38.2535 48.208C37.0802 48.208 36.0828 47.8027 35.2615 46.992C34.4508 46.1813 34.0455 45.184 34.0455 44C34.0455 42.816 34.4508 41.8187 35.2615 41.008C36.0828 40.1973 37.0802 39.792 38.2535 39.792C39.4268 39.792 40.4242 40.1973 41.2455 41.008C42.0668 41.8187 42.4775 42.816 42.4775 44C42.4775 45.184 42.0668 46.1813 41.2455 46.992ZM38.2535 46.848C39.0535 46.848 39.7255 46.576 40.2695 46.032C40.8135 45.488 41.0855 44.8107 41.0855 44C41.0855 43.1893 40.8135 42.512 40.2695 41.968C39.7255 41.424 39.0535 41.152 38.2535 41.152C37.4642 41.152 36.7975 41.424 36.2535 41.968C35.7095 42.512 35.4375 43.1893 35.4375 44C35.4375 44.8107 35.7095 45.488 36.2535 46.032C36.7975 46.576 37.4642 46.848 38.2535 46.848ZM47.8785 48.208C46.6732 48.208 45.6705 47.808 44.8705 47.008C44.0705 46.1973 43.6705 45.1947 43.6705 44C43.6705 42.8053 44.0705 41.808 44.8705 41.008C45.6705 40.1973 46.6732 39.792 47.8785 39.792C48.6678 39.792 49.3772 39.984 50.0065 40.368C50.6358 40.7413 51.1052 41.248 51.4145 41.888L50.2465 42.56C50.0438 42.1333 49.7292 41.792 49.3025 41.536C48.8865 41.28 48.4118 41.152 47.8785 41.152C47.0785 41.152 46.4065 41.424 45.8625 41.968C45.3292 42.512 45.0625 43.1893 45.0625 44C45.0625 44.8 45.3292 45.472 45.8625 46.016C46.4065 46.56 47.0785 46.832 47.8785 46.832C48.4118 46.832 48.8918 46.7093 49.3185 46.464C49.7452 46.208 50.0705 45.8667 50.2945 45.44L51.4785 46.128C51.1372 46.7573 50.6465 47.264 50.0065 47.648C49.3665 48.0213 48.6572 48.208 47.8785 48.208ZM53.5569 38.544C53.2902 38.544 53.0662 38.4533 52.8849 38.272C52.7035 38.0907 52.6129 37.872 52.6129 37.616C52.6129 37.36 52.7035 37.1413 52.8849 36.96C53.0662 36.768 53.2902 36.672 53.5569 36.672C53.8129 36.672 54.0315 36.768 54.2129 36.96C54.3942 37.1413 54.4849 37.36 54.4849 37.616C54.4849 37.872 54.3942 38.0907 54.2129 38.272C54.0315 38.4533 53.8129 38.544 53.5569 38.544ZM52.8529 48V40H54.2449V48H52.8529ZM62.9925 40H64.3845V48H62.9925V46.624C62.2992 47.68 61.2912 48.208 59.9685 48.208C58.8485 48.208 57.8938 47.8027 57.1045 46.992C56.3152 46.1707 55.9205 45.1733 55.9205 44C55.9205 42.8267 56.3152 41.8347 57.1045 41.024C57.8938 40.2027 58.8485 39.792 59.9685 39.792C61.2912 39.792 62.2992 40.32 62.9925 41.376V40ZM60.1445 46.864C60.9552 46.864 61.6325 46.592 62.1765 46.048C62.7205 45.4933 62.9925 44.8107 62.9925 44C62.9925 43.1893 62.7205 42.512 62.1765 41.968C61.6325 41.4133 60.9552 41.136 60.1445 41.136C59.3445 41.136 58.6725 41.4133 58.1285 41.968C57.5845 42.512 57.3125 43.1893 57.3125 44C57.3125 44.8107 57.5845 45.4933 58.1285 46.048C58.6725 46.592 59.3445 46.864 60.1445 46.864ZM66.4935 48V36.32H67.8855V48H66.4935ZM84.6331 36.8V48H83.1611V39.248L79.4971 45.344H79.3051L75.6411 39.264V48H74.1531V36.8H75.8331L79.4011 42.72L82.9531 36.8H84.6331ZM87.8601 44.64C87.9988 45.3547 88.3241 45.9093 88.8361 46.304C89.3588 46.6987 89.9988 46.896 90.7561 46.896C91.8121 46.896 92.5801 46.5067 93.0601 45.728L94.2441 46.4C93.4655 47.6053 92.2921 48.208 90.7241 48.208C89.4548 48.208 88.4201 47.8133 87.6201 47.024C86.8308 46.224 86.4361 45.216 86.4361 44C86.4361 42.7947 86.8255 41.792 87.6041 40.992C88.3828 40.192 89.3908 39.792 90.6281 39.792C91.8015 39.792 92.7561 40.208 93.4921 41.04C94.2388 41.8613 94.6121 42.8533 94.6121 44.016C94.6121 44.2187 94.5961 44.4267 94.5641 44.64H87.8601ZM90.6281 41.104C89.8815 41.104 89.2628 41.3173 88.7721 41.744C88.2815 42.16 87.9775 42.72 87.8601 43.424H93.2041C93.0868 42.6667 92.7881 42.0907 92.3081 41.696C91.8281 41.3013 91.2681 41.104 90.6281 41.104ZM102.821 36.8H104.213V48H102.821V46.624C102.127 47.68 101.119 48.208 99.7966 48.208C98.6766 48.208 97.722 47.8027 96.9326 46.992C96.1433 46.1707 95.7486 45.1733 95.7486 44C95.7486 42.8267 96.1433 41.8347 96.9326 41.024C97.722 40.2027 98.6766 39.792 99.7966 39.792C101.119 39.792 102.127 40.32 102.821 41.376V36.8ZM99.9726 46.864C100.783 46.864 101.461 46.592 102.005 46.048C102.549 45.4933 102.821 44.8107 102.821 44C102.821 43.1893 102.549 42.512 102.005 41.968C101.461 41.4133 100.783 41.136 99.9726 41.136C99.1726 41.136 98.5006 41.4133 97.9566 41.968C97.4126 42.512 97.1406 43.1893 97.1406 44C97.1406 44.8107 97.4126 45.4933 97.9566 46.048C98.5006 46.592 99.1726 46.864 99.9726 46.864ZM107.026 38.544C106.759 38.544 106.535 38.4533 106.354 38.272C106.172 38.0907 106.082 37.872 106.082 37.616C106.082 37.36 106.172 37.1413 106.354 36.96C106.535 36.768 106.759 36.672 107.026 36.672C107.282 36.672 107.5 36.768 107.682 36.96C107.863 37.1413 107.954 37.36 107.954 37.616C107.954 37.872 107.863 38.0907 107.682 38.272C107.5 38.4533 107.282 38.544 107.026 38.544ZM106.322 48V40H107.714V48H106.322ZM116.461 40H117.853V48H116.461V46.624C115.768 47.68 114.76 48.208 113.437 48.208C112.317 48.208 111.363 47.8027 110.573 46.992C109.784 46.1707 109.389 45.1733 109.389 44C109.389 42.8267 109.784 41.8347 110.573 41.024C111.363 40.2027 112.317 39.792 113.437 39.792C114.76 39.792 115.768 40.32 116.461 41.376V40ZM113.613 46.864C114.424 46.864 115.101 46.592 115.645 46.048C116.189 45.4933 116.461 44.8107 116.461 44C116.461 43.1893 116.189 42.512 115.645 41.968C115.101 41.4133 114.424 41.136 113.613 41.136C112.813 41.136 112.141 41.4133 111.597 41.968C111.053 42.512 110.781 43.1893 110.781 44C110.781 44.8107 111.053 45.4933 111.597 46.048C112.141 46.592 112.813 46.864 113.613 46.864ZM29.568 60.8C31.0933 60.8 32.3573 61.344 33.36 62.432C34.3733 63.5093 34.88 64.832 34.88 66.4C34.88 67.968 34.3733 69.296 33.36 70.384C32.3573 71.4613 31.0933 72 29.568 72H25.2V60.8H29.568ZM29.568 70.592C30.7093 70.592 31.6427 70.192 32.368 69.392C33.0933 68.592 33.456 67.5947 33.456 66.4C33.456 65.2053 33.0933 64.208 32.368 63.408C31.6427 62.608 30.7093 62.208 29.568 62.208H26.688V70.592H29.568ZM37.2444 62.544C36.9777 62.544 36.7537 62.4533 36.5724 62.272C36.391 62.0907 36.3004 61.872 36.3004 61.616C36.3004 61.36 36.391 61.1413 36.5724 60.96C36.7537 60.768 36.9777 60.672 37.2444 60.672C37.5004 60.672 37.719 60.768 37.9004 60.96C38.0817 61.1413 38.1724 61.36 38.1724 61.616C38.1724 61.872 38.0817 62.0907 37.9004 62.272C37.719 62.4533 37.5004 62.544 37.2444 62.544ZM36.5404 72V64H37.9324V72H36.5404ZM46.696 64H48.072V71.664C48.072 72.848 47.672 73.7653 46.872 74.416C46.072 75.0773 45.112 75.408 43.992 75.408C43.096 75.408 42.3227 75.2373 41.672 74.896C41.0213 74.5653 40.5307 74.0853 40.2 73.456L41.416 72.768C41.8533 73.664 42.7227 74.112 44.024 74.112C44.856 74.112 45.5067 73.8933 45.976 73.456C46.456 73.0187 46.696 72.4213 46.696 71.664V70.528C45.992 71.5947 44.9893 72.128 43.688 72.128C42.5467 72.128 41.5813 71.7227 40.792 70.912C40.0027 70.1013 39.608 69.1147 39.608 67.952C39.608 66.7893 40.0027 65.808 40.792 65.008C41.5813 64.1973 42.5467 63.792 43.688 63.792C45 63.792 46.0027 64.32 46.696 65.376V64ZM41.816 69.984C42.36 70.528 43.0373 70.8 43.848 70.8C44.6587 70.8 45.336 70.528 45.88 69.984C46.424 69.44 46.696 68.7627 46.696 67.952C46.696 67.152 46.424 66.48 45.88 65.936C45.336 65.392 44.6587 65.12 43.848 65.12C43.0373 65.12 42.36 65.392 41.816 65.936C41.272 66.48 41 67.152 41 67.952C41 68.7627 41.272 69.44 41.816 69.984ZM50.885 62.544C50.6183 62.544 50.3943 62.4533 50.213 62.272C50.0317 62.0907 49.941 61.872 49.941 61.616C49.941 61.36 50.0317 61.1413 50.213 60.96C50.3943 60.768 50.6183 60.672 50.885 60.672C51.141 60.672 51.3597 60.768 51.541 60.96C51.7223 61.1413 51.813 61.36 51.813 61.616C51.813 61.872 51.7223 62.0907 51.541 62.272C51.3597 62.4533 51.141 62.544 50.885 62.544ZM50.181 72V64H51.573V72H50.181ZM58.0486 65.344H55.9206V69.68C55.9206 70.0747 55.9953 70.3573 56.1446 70.528C56.3046 70.688 56.5446 70.7733 56.8646 70.784C57.1846 70.784 57.5793 70.7733 58.0486 70.752V72C56.8326 72.16 55.942 72.064 55.3766 71.712C54.8113 71.3493 54.5286 70.672 54.5286 69.68V65.344H52.9446V64H54.5286V62.176L55.9206 61.76V64H58.0486V65.344ZM65.9144 64H67.3064V72H65.9144V70.624C65.221 71.68 64.213 72.208 62.8904 72.208C61.7704 72.208 60.8157 71.8027 60.0264 70.992C59.237 70.1707 58.8424 69.1733 58.8424 68C58.8424 66.8267 59.237 65.8347 60.0264 65.024C60.8157 64.2027 61.7704 63.792 62.8904 63.792C64.213 63.792 65.221 64.32 65.9144 65.376V64ZM63.0664 70.864C63.877 70.864 64.5544 70.592 65.0984 70.048C65.6424 69.4933 65.9144 68.8107 65.9144 68C65.9144 67.1893 65.6424 66.512 65.0984 65.968C64.5544 65.4133 63.877 65.136 63.0664 65.136C62.2664 65.136 61.5944 65.4133 61.0504 65.968C60.5064 66.512 60.2344 67.1893 60.2344 68C60.2344 68.8107 60.5064 69.4933 61.0504 70.048C61.5944 70.592 62.2664 70.864 63.0664 70.864ZM69.4154 72V60.32H70.8074V72H69.4154ZM87.555 60.8V72H86.083V63.248L82.419 69.344H82.227L78.563 63.264V72H77.075V60.8H78.755L82.323 66.72L85.875 60.8H87.555ZM96.43 64H97.822V72H96.43V70.624C95.7367 71.68 94.7287 72.208 93.406 72.208C92.286 72.208 91.3313 71.8027 90.542 70.992C89.7527 70.1707 89.358 69.1733 89.358 68C89.358 66.8267 89.7527 65.8347 90.542 65.024C91.3313 64.2027 92.286 63.792 93.406 63.792C94.7287 63.792 95.7367 64.32 96.43 65.376V64ZM93.582 70.864C94.3927 70.864 95.07 70.592 95.614 70.048C96.158 69.4933 96.43 68.8107 96.43 68C96.43 67.1893 96.158 66.512 95.614 65.968C95.07 65.4133 94.3927 65.136 93.582 65.136C92.782 65.136 92.11 65.4133 91.566 65.968C91.022 66.512 90.75 67.1893 90.75 68C90.75 68.8107 91.022 69.4933 91.566 70.048C92.11 70.592 92.782 70.864 93.582 70.864ZM101.323 65.344C101.782 64.352 102.614 63.856 103.819 63.856V65.312C103.136 65.28 102.55 65.4613 102.059 65.856C101.568 66.2507 101.323 66.8853 101.323 67.76V72H99.931V64H101.323V65.344ZM111.949 72H110.221L106.573 68.208V72H105.181V60.8H106.573V67.536L110.029 64H111.821L107.997 67.872L111.949 72ZM113.485 68.64C113.624 69.3547 113.949 69.9093 114.461 70.304C114.984 70.6987 115.624 70.896 116.381 70.896C117.437 70.896 118.205 70.5067 118.685 69.728L119.869 70.4C119.09 71.6053 117.917 72.208 116.349 72.208C115.08 72.208 114.045 71.8133 113.245 71.024C112.456 70.224 112.061 69.216 112.061 68C112.061 66.7947 112.45 65.792 113.229 64.992C114.008 64.192 115.016 63.792 116.253 63.792C117.426 63.792 118.381 64.208 119.117 65.04C119.864 65.8613 120.237 66.8533 120.237 68.016C120.237 68.2187 120.221 68.4267 120.189 68.64H113.485ZM116.253 65.104C115.506 65.104 114.888 65.3173 114.397 65.744C113.906 66.16 113.602 66.72 113.485 67.424H118.829C118.712 66.6667 118.413 66.0907 117.933 65.696C117.453 65.3013 116.893 65.104 116.253 65.104ZM125.955 65.344H123.827V69.68C123.827 70.0747 123.902 70.3573 124.051 70.528C124.211 70.688 124.451 70.7733 124.771 70.784C125.091 70.784 125.486 70.7733 125.955 70.752V72C124.739 72.16 123.848 72.064 123.283 71.712C122.718 71.3493 122.435 70.672 122.435 69.68V65.344H120.851V64H122.435V62.176L123.827 61.76V64H125.955V65.344ZM128.307 62.544C128.04 62.544 127.816 62.4533 127.635 62.272C127.454 62.0907 127.363 61.872 127.363 61.616C127.363 61.36 127.454 61.1413 127.635 60.96C127.816 60.768 128.04 60.672 128.307 60.672C128.563 60.672 128.782 60.768 128.963 60.96C129.144 61.1413 129.235 61.36 129.235 61.616C129.235 61.872 129.144 62.0907 128.963 62.272C128.782 62.4533 128.563 62.544 128.307 62.544ZM127.603 72V64H128.995V72H127.603ZM135.103 63.792C136.041 63.792 136.793 64.0907 137.359 64.688C137.924 65.2747 138.207 66.0747 138.207 67.088V72H136.815V67.168C136.815 66.5173 136.639 66.016 136.287 65.664C135.935 65.3013 135.449 65.12 134.831 65.12C134.137 65.12 133.577 65.3387 133.151 65.776C132.724 66.2027 132.511 66.864 132.511 67.76V72H131.118V64H132.511V65.152C133.076 64.2453 133.94 63.792 135.103 63.792ZM146.79 64H148.166V71.664C148.166 72.848 147.766 73.7653 146.966 74.416C146.166 75.0773 145.206 75.408 144.086 75.408C143.19 75.408 142.416 75.2373 141.766 74.896C141.115 74.5653 140.624 74.0853 140.294 73.456L141.51 72.768C141.947 73.664 142.816 74.112 144.118 74.112C144.95 74.112 145.6 73.8933 146.07 73.456C146.55 73.0187 146.79 72.4213 146.79 71.664V70.528C146.086 71.5947 145.083 72.128 143.782 72.128C142.64 72.128 141.675 71.7227 140.886 70.912C140.096 70.1013 139.702 69.1147 139.702 67.952C139.702 66.7893 140.096 65.808 140.886 65.008C141.675 64.1973 142.64 63.792 143.782 63.792C145.094 63.792 146.096 64.32 146.79 65.376V64ZM141.91 69.984C142.454 70.528 143.131 70.8 143.942 70.8C144.752 70.8 145.43 70.528 145.974 69.984C146.518 69.44 146.79 68.7627 146.79 67.952C146.79 67.152 146.518 66.48 145.974 65.936C145.43 65.392 144.752 65.12 143.942 65.12C143.131 65.12 142.454 65.392 141.91 65.936C141.366 66.48 141.094 67.152 141.094 67.952C141.094 68.7627 141.366 69.44 141.91 69.984ZM30.464 96.208C28.768 96.208 27.3653 95.648 26.256 94.528C25.1573 93.408 24.608 92.032 24.608 90.4C24.608 88.768 25.1573 87.392 26.256 86.272C27.3653 85.152 28.768 84.592 30.464 84.592C31.488 84.592 32.4267 84.8373 33.28 85.328C34.144 85.8187 34.816 86.48 35.296 87.312L34 88.064C33.68 87.4453 33.2 86.9547 32.56 86.592C31.9307 86.2187 31.232 86.032 30.464 86.032C29.1733 86.032 28.1173 86.448 27.296 87.28C26.4853 88.112 26.08 89.152 26.08 90.4C26.08 91.6373 26.4853 92.672 27.296 93.504C28.1173 94.336 29.1733 94.752 30.464 94.752C31.232 94.752 31.9307 94.5707 32.56 94.208C33.2 93.8347 33.68 93.344 34 92.736L35.296 93.472C34.8267 94.304 34.16 94.9707 33.296 95.472C32.432 95.9627 31.488 96.208 30.464 96.208ZM42.4041 88H43.7961V96H42.4041V94.848C41.8388 95.7547 40.9748 96.208 39.8121 96.208C38.8735 96.208 38.1215 95.9147 37.5561 95.328C36.9908 94.7307 36.7081 93.9253 36.7081 92.912V88H38.1001V92.832C38.1001 93.4827 38.2761 93.9893 38.6281 94.352C38.9801 94.704 39.4655 94.88 40.0841 94.88C40.7775 94.88 41.3375 94.6667 41.7641 94.24C42.1908 93.8027 42.4041 93.136 42.4041 92.24V88ZM47.0998 90.16C47.0998 90.4693 47.2544 90.72 47.5638 90.912C47.8731 91.0933 48.2464 91.2427 48.6838 91.36C49.1211 91.4667 49.5584 91.5947 49.9958 91.744C50.4331 91.8827 50.8064 92.128 51.1158 92.48C51.4251 92.8213 51.5798 93.264 51.5798 93.808C51.5798 94.5333 51.2971 95.1147 50.7318 95.552C50.1771 95.9893 49.4624 96.208 48.5878 96.208C47.8091 96.208 47.1424 96.0373 46.5878 95.696C46.0331 95.3547 45.6384 94.9013 45.4038 94.336L46.6038 93.648C46.7318 94.032 46.9718 94.336 47.3238 94.56C47.6758 94.784 48.0971 94.896 48.5878 94.896C49.0464 94.896 49.4251 94.8107 49.7238 94.64C50.0224 94.4587 50.1718 94.1813 50.1718 93.808C50.1718 93.4987 50.0171 93.2533 49.7078 93.072C49.3984 92.88 49.0251 92.7307 48.5878 92.624C48.1504 92.5067 47.7131 92.3733 47.2758 92.224C46.8384 92.0747 46.4651 91.8293 46.1558 91.488C45.8464 91.1467 45.6918 90.7093 45.6918 90.176C45.6918 89.4827 45.9584 88.912 46.4918 88.464C47.0358 88.016 47.7131 87.792 48.5238 87.792C49.1744 87.792 49.7504 87.9413 50.2518 88.24C50.7638 88.528 51.1478 88.9333 51.4038 89.456L50.2358 90.112C49.9478 89.4293 49.3771 89.088 48.5238 89.088C48.1291 89.088 47.7931 89.184 47.5158 89.376C47.2384 89.5573 47.0998 89.8187 47.0998 90.16ZM57.2674 89.344H55.1394V93.68C55.1394 94.0747 55.214 94.3573 55.3634 94.528C55.5234 94.688 55.7634 94.7733 56.0834 94.784C56.4034 94.784 56.798 94.7733 57.2674 94.752V96C56.0514 96.16 55.1607 96.064 54.5954 95.712C54.03 95.3493 53.7474 94.672 53.7474 93.68V89.344H52.1634V88H53.7474V86.176L55.1394 85.76V88H57.2674V89.344ZM65.2611 94.992C64.4398 95.8027 63.4425 96.208 62.2691 96.208C61.0958 96.208 60.0985 95.8027 59.2771 94.992C58.4665 94.1813 58.0611 93.184 58.0611 92C58.0611 90.816 58.4665 89.8187 59.2771 89.008C60.0985 88.1973 61.0958 87.792 62.2691 87.792C63.4425 87.792 64.4398 88.1973 65.2611 89.008C66.0825 89.8187 66.4931 90.816 66.4931 92C66.4931 93.184 66.0825 94.1813 65.2611 94.992ZM62.2691 94.848C63.0691 94.848 63.7411 94.576 64.2851 94.032C64.8291 93.488 65.1011 92.8107 65.1011 92C65.1011 91.1893 64.8291 90.512 64.2851 89.968C63.7411 89.424 63.0691 89.152 62.2691 89.152C61.4798 89.152 60.8131 89.424 60.2691 89.968C59.7251 90.512 59.4531 91.1893 59.4531 92C59.4531 92.8107 59.7251 93.488 60.2691 94.032C60.8131 94.576 61.4798 94.848 62.2691 94.848ZM76.7741 87.792C77.6701 87.792 78.3955 88.0853 78.9501 88.672C79.5048 89.248 79.7821 90.032 79.7821 91.024V96H78.3901V91.072C78.3901 90.4533 78.2301 89.9733 77.9101 89.632C77.5901 89.2907 77.1635 89.12 76.6301 89.12C76.0328 89.12 75.5528 89.3227 75.1901 89.728C74.8381 90.1227 74.6621 90.7307 74.6621 91.552V96H73.2701V91.072C73.2701 90.4533 73.1155 89.9733 72.8061 89.632C72.5075 89.2907 72.0968 89.12 71.5741 89.12C70.9875 89.12 70.4968 89.3227 70.1021 89.728C69.7181 90.1333 69.5261 90.7413 69.5261 91.552V96H68.1341V88H69.5261V89.072C70.0701 88.2187 70.8648 87.792 71.9101 87.792C72.9875 87.792 73.7715 88.2453 74.2621 89.152C74.8168 88.2453 75.6541 87.792 76.7741 87.792ZM82.6883 92.64C82.8269 93.3547 83.1523 93.9093 83.6643 94.304C84.1869 94.6987 84.8269 94.896 85.5843 94.896C86.6403 94.896 87.4083 94.5067 87.8883 93.728L89.0723 94.4C88.2936 95.6053 87.1203 96.208 85.5523 96.208C84.2829 96.208 83.2483 95.8133 82.4483 95.024C81.6589 94.224 81.2643 93.216 81.2643 92C81.2643 90.7947 81.6536 89.792 82.4323 88.992C83.2109 88.192 84.2189 87.792 85.4563 87.792C86.6296 87.792 87.5843 88.208 88.3203 89.04C89.0669 89.8613 89.4403 90.8533 89.4403 92.016C89.4403 92.2187 89.4243 92.4267 89.3923 92.64H82.6883ZM85.4563 89.104C84.7096 89.104 84.0909 89.3173 83.6003 89.744C83.1096 90.16 82.8056 90.72 82.6883 91.424H88.0323C87.9149 90.6667 87.6163 90.0907 87.1363 89.696C86.6563 89.3013 86.0963 89.104 85.4563 89.104ZM92.4324 89.344C92.891 88.352 93.723 87.856 94.9284 87.856V89.312C94.2457 89.28 93.659 89.4613 93.1684 89.856C92.6777 90.2507 92.4324 90.8853 92.4324 91.76V96H91.0404V88H92.4324V89.344ZM104.05 96.208C103.005 96.208 102.109 95.9627 101.362 95.472C100.626 94.9813 100.109 94.3093 99.8104 93.456L101.09 92.72C101.528 94.0747 102.525 94.752 104.082 94.752C104.85 94.752 105.437 94.5973 105.842 94.288C106.248 93.968 106.45 93.5467 106.45 93.024C106.45 92.4907 106.248 92.0907 105.842 91.824C105.437 91.5573 104.76 91.2747 103.81 90.976C103.341 90.8267 102.984 90.7093 102.738 90.624C102.493 90.528 102.184 90.3893 101.81 90.208C101.448 90.016 101.176 89.824 100.994 89.632C100.813 89.4293 100.648 89.168 100.498 88.848C100.36 88.528 100.29 88.1653 100.29 87.76C100.29 86.7893 100.632 86.0213 101.314 85.456C101.997 84.88 102.829 84.592 103.81 84.592C104.696 84.592 105.464 84.816 106.114 85.264C106.776 85.712 107.272 86.304 107.602 87.04L106.354 87.76C105.874 86.608 105.026 86.032 103.81 86.032C103.202 86.032 102.712 86.1813 102.338 86.48C101.965 86.7787 101.778 87.184 101.778 87.696C101.778 88.1867 101.954 88.56 102.306 88.816C102.658 89.072 103.266 89.3387 104.13 89.616C104.44 89.712 104.658 89.7813 104.786 89.824C104.914 89.8667 105.112 89.9413 105.378 90.048C105.656 90.1547 105.858 90.24 105.986 90.304C106.114 90.368 106.285 90.4587 106.498 90.576C106.722 90.6933 106.888 90.8053 106.994 90.912C107.101 91.0187 107.224 91.152 107.362 91.312C107.512 91.4613 107.618 91.616 107.682 91.776C107.746 91.936 107.8 92.1227 107.842 92.336C107.896 92.5387 107.922 92.7573 107.922 92.992C107.922 93.9733 107.565 94.7573 106.85 95.344C106.136 95.92 105.202 96.208 104.05 96.208ZM110.704 92.64C110.843 93.3547 111.168 93.9093 111.68 94.304C112.203 94.6987 112.843 94.896 113.6 94.896C114.656 94.896 115.424 94.5067 115.904 93.728L117.088 94.4C116.309 95.6053 115.136 96.208 113.568 96.208C112.299 96.208 111.264 95.8133 110.464 95.024C109.675 94.224 109.28 93.216 109.28 92C109.28 90.7947 109.669 89.792 110.448 88.992C111.227 88.192 112.235 87.792 113.472 87.792C114.645 87.792 115.6 88.208 116.336 89.04C117.083 89.8613 117.456 90.8533 117.456 92.016C117.456 92.2187 117.44 92.4267 117.408 92.64H110.704ZM113.472 89.104C112.725 89.104 112.107 89.3173 111.616 89.744C111.125 90.16 110.821 90.72 110.704 91.424H116.048C115.931 90.6667 115.632 90.0907 115.152 89.696C114.672 89.3013 114.112 89.104 113.472 89.104ZM120.448 89.344C120.907 88.352 121.739 87.856 122.944 87.856V89.312C122.261 89.28 121.675 89.4613 121.184 89.856C120.693 90.2507 120.448 90.8853 120.448 91.76V96H119.056V88H120.448V89.344ZM129.906 88H131.41L128.21 96H126.578L123.378 88H124.882L127.394 94.512L129.906 88ZM133.291 86.544C133.025 86.544 132.801 86.4533 132.619 86.272C132.438 86.0907 132.347 85.872 132.347 85.616C132.347 85.36 132.438 85.1413 132.619 84.96C132.801 84.768 133.025 84.672 133.291 84.672C133.547 84.672 133.766 84.768 133.947 84.96C134.129 85.1413 134.219 85.36 134.219 85.616C134.219 85.872 134.129 86.0907 133.947 86.272C133.766 86.4533 133.547 86.544 133.291 86.544ZM132.587 96V88H133.979V96H132.587ZM139.863 96.208C138.658 96.208 137.655 95.808 136.855 95.008C136.055 94.1973 135.655 93.1947 135.655 92C135.655 90.8053 136.055 89.808 136.855 89.008C137.655 88.1973 138.658 87.792 139.863 87.792C140.652 87.792 141.362 87.984 141.991 88.368C142.62 88.7413 143.09 89.248 143.399 89.888L142.231 90.56C142.028 90.1333 141.714 89.792 141.287 89.536C140.871 89.28 140.396 89.152 139.863 89.152C139.063 89.152 138.391 89.424 137.847 89.968C137.314 90.512 137.047 91.1893 137.047 92C137.047 92.8 137.314 93.472 137.847 94.016C138.391 94.56 139.063 94.832 139.863 94.832C140.396 94.832 140.876 94.7093 141.303 94.464C141.73 94.208 142.055 93.8667 142.279 93.44L143.463 94.128C143.122 94.7573 142.631 95.264 141.991 95.648C141.351 96.0213 140.642 96.208 139.863 96.208ZM145.704 92.64C145.843 93.3547 146.168 93.9093 146.68 94.304C147.203 94.6987 147.843 94.896 148.6 94.896C149.656 94.896 150.424 94.5067 150.904 93.728L152.088 94.4C151.309 95.6053 150.136 96.208 148.568 96.208C147.299 96.208 146.264 95.8133 145.464 95.024C144.675 94.224 144.28 93.216 144.28 92C144.28 90.7947 144.669 89.792 145.448 88.992C146.227 88.192 147.235 87.792 148.472 87.792C149.645 87.792 150.6 88.208 151.336 89.04C152.083 89.8613 152.456 90.8533 152.456 92.016C152.456 92.2187 152.44 92.4267 152.408 92.64H145.704ZM148.472 89.104C147.725 89.104 147.107 89.3173 146.616 89.744C146.125 90.16 145.821 90.72 145.704 91.424H151.048C150.931 90.6667 150.632 90.0907 150.152 89.696C149.672 89.3013 149.112 89.104 148.472 89.104ZM31.648 110.208H26.688V113.84H31.44V115.248H26.688V120H25.2V108.8H31.648V110.208ZM40.058 118.992C39.2367 119.803 38.2393 120.208 37.066 120.208C35.8927 120.208 34.8953 119.803 34.074 118.992C33.2633 118.181 32.858 117.184 32.858 116C32.858 114.816 33.2633 113.819 34.074 113.008C34.8953 112.197 35.8927 111.792 37.066 111.792C38.2393 111.792 39.2367 112.197 40.058 113.008C40.8793 113.819 41.29 114.816 41.29 116C41.29 117.184 40.8793 118.181 40.058 118.992ZM37.066 118.848C37.866 118.848 38.538 118.576 39.082 118.032C39.626 117.488 39.898 116.811 39.898 116C39.898 115.189 39.626 114.512 39.082 113.968C38.538 113.424 37.866 113.152 37.066 113.152C36.2767 113.152 35.61 113.424 35.066 113.968C34.522 114.512 34.25 115.189 34.25 116C34.25 116.811 34.522 117.488 35.066 118.032C35.61 118.576 36.2767 118.848 37.066 118.848ZM44.323 113.344C44.7817 112.352 45.6137 111.856 46.819 111.856V113.312C46.1363 113.28 45.5497 113.461 45.059 113.856C44.5683 114.251 44.323 114.885 44.323 115.76V120H42.931V112H44.323V113.344ZM56.693 108.8C58.2183 108.8 59.4823 109.344 60.485 110.432C61.4983 111.509 62.005 112.832 62.005 114.4C62.005 115.968 61.4983 117.296 60.485 118.384C59.4823 119.461 58.2183 120 56.693 120H52.325V108.8H56.693ZM56.693 118.592C57.8343 118.592 58.7677 118.192 59.493 117.392C60.2183 116.592 60.581 115.595 60.581 114.4C60.581 113.205 60.2183 112.208 59.493 111.408C58.7677 110.608 57.8343 110.208 56.693 110.208H53.813V118.592H56.693ZM64.6414 116.64C64.78 117.355 65.1054 117.909 65.6174 118.304C66.14 118.699 66.78 118.896 67.5374 118.896C68.5934 118.896 69.3614 118.507 69.8414 117.728L71.0254 118.4C70.2467 119.605 69.0734 120.208 67.5054 120.208C66.236 120.208 65.2014 119.813 64.4014 119.024C63.612 118.224 63.2174 117.216 63.2174 116C63.2174 114.795 63.6067 113.792 64.3854 112.992C65.164 112.192 66.172 111.792 67.4094 111.792C68.5827 111.792 69.5374 112.208 70.2734 113.04C71.02 113.861 71.3934 114.853 71.3934 116.016C71.3934 116.219 71.3774 116.427 71.3454 116.64H64.6414ZM67.4094 113.104C66.6627 113.104 66.044 113.317 65.5534 113.744C65.0627 114.16 64.7587 114.72 64.6414 115.424H69.9854C69.868 114.667 69.5694 114.091 69.0894 113.696C68.6094 113.301 68.0494 113.104 67.4094 113.104ZM78.281 112H79.785L76.585 120H74.953L71.753 112H73.257L75.769 118.512L78.281 112ZM81.6258 116.64C81.7644 117.355 82.0898 117.909 82.6018 118.304C83.1244 118.699 83.7644 118.896 84.5218 118.896C85.5778 118.896 86.3458 118.507 86.8258 117.728L88.0098 118.4C87.2311 119.605 86.0578 120.208 84.4898 120.208C83.2204 120.208 82.1858 119.813 81.3858 119.024C80.5964 118.224 80.2018 117.216 80.2018 116C80.2018 114.795 80.5911 113.792 81.3698 112.992C82.1484 112.192 83.1564 111.792 84.3938 111.792C85.5671 111.792 86.5218 112.208 87.2578 113.04C88.0044 113.861 88.3778 114.853 88.3778 116.016C88.3778 116.219 88.3618 116.427 88.3298 116.64H81.6258ZM84.3938 113.104C83.6471 113.104 83.0284 113.317 82.5378 113.744C82.0471 114.16 81.7431 114.72 81.6258 115.424H86.9698C86.8524 114.667 86.5538 114.091 86.0738 113.696C85.5938 113.301 85.0338 113.104 84.3938 113.104ZM89.9779 120V108.32H91.3699V120H89.9779ZM100.246 118.992C99.4242 119.803 98.4268 120.208 97.2535 120.208C96.0802 120.208 95.0828 119.803 94.2615 118.992C93.4508 118.181 93.0455 117.184 93.0455 116C93.0455 114.816 93.4508 113.819 94.2615 113.008C95.0828 112.197 96.0802 111.792 97.2535 111.792C98.4268 111.792 99.4242 112.197 100.246 113.008C101.067 113.819 101.477 114.816 101.477 116C101.477 117.184 101.067 118.181 100.246 118.992ZM97.2535 118.848C98.0535 118.848 98.7255 118.576 99.2695 118.032C99.8135 117.488 100.086 116.811 100.086 116C100.086 115.189 99.8135 114.512 99.2695 113.968C98.7255 113.424 98.0535 113.152 97.2535 113.152C96.4642 113.152 95.7975 113.424 95.2535 113.968C94.7095 114.512 94.4375 115.189 94.4375 116C94.4375 116.811 94.7095 117.488 95.2535 118.032C95.7975 118.576 96.4642 118.848 97.2535 118.848ZM107.535 111.792C108.655 111.792 109.609 112.203 110.399 113.024C111.188 113.835 111.583 114.827 111.583 116C111.583 117.173 111.188 118.171 110.399 118.992C109.609 119.803 108.655 120.208 107.535 120.208C106.212 120.208 105.204 119.68 104.511 118.624V123.2H103.118V112H104.511V113.376C105.204 112.32 106.212 111.792 107.535 111.792ZM107.359 118.864C108.159 118.864 108.831 118.592 109.375 118.048C109.919 117.493 110.191 116.811 110.191 116C110.191 115.189 109.919 114.512 109.375 113.968C108.831 113.413 108.159 113.136 107.359 113.136C106.548 113.136 105.871 113.413 105.327 113.968C104.783 114.512 104.511 115.189 104.511 116C104.511 116.811 104.783 117.493 105.327 118.048C105.871 118.592 106.548 118.864 107.359 118.864ZM114.22 116.64C114.358 117.355 114.684 117.909 115.196 118.304C115.718 118.699 116.358 118.896 117.116 118.896C118.172 118.896 118.94 118.507 119.42 117.728L120.604 118.4C119.825 119.605 118.652 120.208 117.084 120.208C115.814 120.208 114.78 119.813 113.98 119.024C113.19 118.224 112.796 117.216 112.796 116C112.796 114.795 113.185 113.792 113.964 112.992C114.742 112.192 115.75 111.792 116.988 111.792C118.161 111.792 119.116 112.208 119.852 113.04C120.598 113.861 120.972 114.853 120.972 116.016C120.972 116.219 120.956 116.427 120.924 116.64H114.22ZM116.988 113.104C116.241 113.104 115.622 113.317 115.132 113.744C114.641 114.16 114.337 114.72 114.22 115.424H119.564C119.446 114.667 119.148 114.091 118.668 113.696C118.188 113.301 117.628 113.104 116.988 113.104ZM123.964 113.344C124.422 112.352 125.254 111.856 126.46 111.856V113.312C125.777 113.28 125.19 113.461 124.7 113.856C124.209 114.251 123.964 114.885 123.964 115.76V120H122.572V112H123.964V113.344ZM128.725 114.16C128.725 114.469 128.879 114.72 129.189 114.912C129.498 115.093 129.871 115.243 130.309 115.36C130.746 115.467 131.183 115.595 131.621 115.744C132.058 115.883 132.431 116.128 132.741 116.48C133.05 116.821 133.205 117.264 133.205 117.808C133.205 118.533 132.922 119.115 132.357 119.552C131.802 119.989 131.087 120.208 130.213 120.208C129.434 120.208 128.767 120.037 128.213 119.696C127.658 119.355 127.263 118.901 127.029 118.336L128.229 117.648C128.357 118.032 128.597 118.336 128.949 118.56C129.301 118.784 129.722 118.896 130.213 118.896C130.671 118.896 131.05 118.811 131.349 118.64C131.647 118.459 131.797 118.181 131.797 117.808C131.797 117.499 131.642 117.253 131.333 117.072C131.023 116.88 130.65 116.731 130.213 116.624C129.775 116.507 129.338 116.373 128.901 116.224C128.463 116.075 128.09 115.829 127.781 115.488C127.471 115.147 127.317 114.709 127.317 114.176C127.317 113.483 127.583 112.912 128.117 112.464C128.661 112.016 129.338 111.792 130.149 111.792C130.799 111.792 131.375 111.941 131.877 112.24C132.389 112.528 132.773 112.933 133.029 113.456L131.861 114.112C131.573 113.429 131.002 113.088 130.149 113.088C129.754 113.088 129.418 113.184 129.141 113.376C128.863 113.557 128.725 113.819 128.725 114.16Z" fill="#112232"/>
<path d="M31.728 165.912H27.248V168.568H31.6V170.68H27.248V175H25.04V163.8H31.728V165.912ZM34.9849 171.848C35.2622 172.851 36.0142 173.352 37.2409 173.352C38.0302 173.352 38.6275 173.085 39.0329 172.552L40.6969 173.512C39.9075 174.653 38.7449 175.224 37.2089 175.224C35.8862 175.224 34.8249 174.824 34.0249 174.024C33.2249 173.224 32.8249 172.216 32.8249 171C32.8249 169.795 33.2195 168.792 34.0089 167.992C34.7982 167.181 35.8115 166.776 37.0489 166.776C38.2222 166.776 39.1875 167.181 39.9449 167.992C40.7129 168.803 41.0969 169.805 41.0969 171C41.0969 171.267 41.0702 171.549 41.0169 171.848H34.9849ZM34.9529 170.248H39.0329C38.9155 169.704 38.6702 169.299 38.2969 169.032C37.9342 168.765 37.5182 168.632 37.0489 168.632C36.4942 168.632 36.0355 168.776 35.6729 169.064C35.3102 169.341 35.0702 169.736 34.9529 170.248ZM48.5553 167H50.6193V175H48.5553V174.056C47.9366 174.835 47.0673 175.224 45.9473 175.224C44.8806 175.224 43.9633 174.819 43.1953 174.008C42.4379 173.187 42.0592 172.184 42.0592 171C42.0592 169.816 42.4379 168.819 43.1953 168.008C43.9633 167.187 44.8806 166.776 45.9473 166.776C47.0673 166.776 47.9366 167.165 48.5553 167.944V167ZM44.7473 172.632C45.1633 173.048 45.6913 173.256 46.3313 173.256C46.9713 173.256 47.4993 173.048 47.9153 172.632C48.3419 172.205 48.5553 171.661 48.5553 171C48.5553 170.339 48.3419 169.8 47.9153 169.384C47.4993 168.957 46.9713 168.744 46.3313 168.744C45.6913 168.744 45.1633 168.957 44.7473 169.384C44.3313 169.8 44.1233 170.339 44.1233 171C44.1233 171.661 44.3313 172.205 44.7473 172.632ZM57.0669 168.984H55.2589V172.312C55.2589 172.589 55.3282 172.792 55.4669 172.92C55.6055 173.048 55.8082 173.123 56.0749 173.144C56.3415 173.155 56.6722 173.149 57.0669 173.128V175C55.6482 175.16 54.6455 175.027 54.0589 174.6C53.4829 174.173 53.1949 173.411 53.1949 172.312V168.984H51.8029V167H53.1949V165.384L55.2589 164.76V167H57.0669V168.984ZM63.9271 167H65.9911V175H63.9271V174.104C63.4258 174.851 62.6311 175.224 61.5431 175.224C60.6685 175.224 59.9431 174.931 59.3671 174.344C58.8018 173.757 58.5191 172.947 58.5191 171.912V167H60.5831V171.656C60.5831 172.189 60.7271 172.6 61.0151 172.888C61.3031 173.165 61.6871 173.304 62.1671 173.304C62.7005 173.304 63.1271 173.139 63.4471 172.808C63.7671 172.477 63.9271 171.981 63.9271 171.32V167ZM69.9455 168.376C70.1375 167.864 70.4522 167.48 70.8895 167.224C71.3375 166.968 71.8335 166.84 72.3775 166.84V169.144C71.7482 169.069 71.1828 169.197 70.6815 169.528C70.1908 169.859 69.9455 170.408 69.9455 171.176V175H67.8815V167H69.9455V168.376ZM75.0318 171.848C75.3091 172.851 76.0611 173.352 77.2878 173.352C78.0771 173.352 78.6744 173.085 79.0798 172.552L80.7438 173.512C79.9544 174.653 78.7918 175.224 77.2558 175.224C75.9331 175.224 74.8718 174.824 74.0718 174.024C73.2718 173.224 72.8717 172.216 72.8717 171C72.8717 169.795 73.2664 168.792 74.0558 167.992C74.8451 167.181 75.8584 166.776 77.0958 166.776C78.2691 166.776 79.2344 167.181 79.9918 167.992C80.7598 168.803 81.1438 169.805 81.1438 171C81.1438 171.267 81.1171 171.549 81.0638 171.848H75.0318ZM74.9998 170.248H79.0798C78.9624 169.704 78.7171 169.299 78.3438 169.032C77.9811 168.765 77.5651 168.632 77.0958 168.632C76.5411 168.632 76.0824 168.776 75.7198 169.064C75.3571 169.341 75.1171 169.736 74.9998 170.248ZM84.1761 169.272C84.1761 169.485 84.3148 169.661 84.5921 169.8C84.8801 169.928 85.2268 170.045 85.6321 170.152C86.0375 170.248 86.4428 170.376 86.8481 170.536C87.2535 170.685 87.5948 170.941 87.8721 171.304C88.1601 171.667 88.3041 172.12 88.3041 172.664C88.3041 173.485 87.9948 174.12 87.3761 174.568C86.7681 175.005 86.0055 175.224 85.0881 175.224C83.4455 175.224 82.3255 174.589 81.7281 173.32L83.5201 172.312C83.7548 173.005 84.2775 173.352 85.0881 173.352C85.8241 173.352 86.1921 173.123 86.1921 172.664C86.1921 172.451 86.0481 172.28 85.7601 172.152C85.4828 172.013 85.1415 171.891 84.7361 171.784C84.3308 171.677 83.9255 171.544 83.5201 171.384C83.1148 171.224 82.7681 170.973 82.4801 170.632C82.2028 170.28 82.0641 169.843 82.0641 169.32C82.0641 168.531 82.3521 167.912 82.9281 167.464C83.5148 167.005 84.2401 166.776 85.1041 166.776C85.7548 166.776 86.3468 166.925 86.8801 167.224C87.4135 167.512 87.8348 167.928 88.1441 168.472L86.3841 169.432C86.1281 168.888 85.7015 168.616 85.1041 168.616C84.8375 168.616 84.6135 168.675 84.4321 168.792C84.2615 168.909 84.1761 169.069 84.1761 169.272Z" fill="#071827"/>
<path d="M31.6 201.192C32.112 201.437 32.5173 201.789 32.816 202.248C33.1253 202.707 33.28 203.235 33.28 203.832C33.28 204.728 32.9653 205.48 32.336 206.088C31.7067 206.696 30.9387 207 30.032 207H25.2V195.8H29.68C30.5547 195.8 31.296 196.093 31.904 196.68C32.512 197.267 32.816 197.992 32.816 198.856C32.816 199.848 32.4107 200.627 31.6 201.192ZM29.68 197.192H26.688V200.616H29.68C30.1493 200.616 30.544 200.451 30.864 200.12C31.184 199.789 31.344 199.384 31.344 198.904C31.344 198.435 31.1787 198.035 30.848 197.704C30.528 197.363 30.1387 197.192 29.68 197.192ZM30.032 205.608C30.5333 205.608 30.9547 205.432 31.296 205.08C31.6373 204.728 31.808 204.296 31.808 203.784C31.808 203.283 31.632 202.856 31.28 202.504C30.9387 202.152 30.5227 201.976 30.032 201.976H26.688V205.608H30.032ZM36.2918 200.344C36.7504 199.352 37.5824 198.856 38.7878 198.856V200.312C38.1051 200.28 37.5184 200.461 37.0278 200.856C36.5371 201.251 36.2918 201.885 36.2918 202.76V207H34.8997V199H36.2918V200.344ZM46.3363 199H47.7283V207H46.3363V205.624C45.6429 206.68 44.6349 207.208 43.3123 207.208C42.1923 207.208 41.2376 206.803 40.4483 205.992C39.6589 205.171 39.2643 204.173 39.2643 203C39.2643 201.827 39.6589 200.835 40.4483 200.024C41.2376 199.203 42.1923 198.792 43.3123 198.792C44.6349 198.792 45.6429 199.32 46.3363 200.376V199ZM43.4883 205.864C44.2989 205.864 44.9763 205.592 45.5203 205.048C46.0643 204.493 46.3363 203.811 46.3363 203C46.3363 202.189 46.0643 201.512 45.5203 200.968C44.9763 200.413 44.2989 200.136 43.4883 200.136C42.6883 200.136 42.0163 200.413 41.4723 200.968C40.9283 201.512 40.6562 202.189 40.6562 203C40.6562 203.811 40.9283 204.493 41.4723 205.048C42.0163 205.592 42.6883 205.864 43.4883 205.864ZM53.8213 198.792C54.7599 198.792 55.5119 199.091 56.0773 199.688C56.6426 200.275 56.9253 201.075 56.9253 202.088V207H55.5333V202.168C55.5333 201.517 55.3573 201.016 55.0053 200.664C54.6533 200.301 54.1679 200.12 53.5493 200.12C52.8559 200.12 52.2959 200.339 51.8693 200.776C51.4426 201.203 51.2293 201.864 51.2293 202.76V207H49.8372V199H51.2293V200.152C51.7946 199.245 52.6586 198.792 53.8213 198.792ZM65.4925 195.8H66.8845V207H65.4925V205.624C64.7992 206.68 63.7912 207.208 62.4685 207.208C61.3485 207.208 60.3938 206.803 59.6045 205.992C58.8152 205.171 58.4205 204.173 58.4205 203C58.4205 201.827 58.8152 200.835 59.6045 200.024C60.3938 199.203 61.3485 198.792 62.4685 198.792C63.7912 198.792 64.7992 199.32 65.4925 200.376V195.8ZM62.6445 205.864C63.4552 205.864 64.1325 205.592 64.6765 205.048C65.2205 204.493 65.4925 203.811 65.4925 203C65.4925 202.189 65.2205 201.512 64.6765 200.968C64.1325 200.413 63.4552 200.136 62.6445 200.136C61.8445 200.136 61.1725 200.413 60.6285 200.968C60.0845 201.512 59.8125 202.189 59.8125 203C59.8125 203.811 60.0845 204.493 60.6285 205.048C61.1725 205.592 61.8445 205.864 62.6445 205.864ZM69.9695 203.64C70.1082 204.355 70.4335 204.909 70.9455 205.304C71.4682 205.699 72.1082 205.896 72.8655 205.896C73.9215 205.896 74.6895 205.507 75.1695 204.728L76.3535 205.4C75.5748 206.605 74.4015 207.208 72.8335 207.208C71.5642 207.208 70.5295 206.813 69.7295 206.024C68.9402 205.224 68.5455 204.216 68.5455 203C68.5455 201.795 68.9348 200.792 69.7135 199.992C70.4922 199.192 71.5002 198.792 72.7375 198.792C73.9108 198.792 74.8655 199.208 75.6015 200.04C76.3482 200.861 76.7215 201.853 76.7215 203.016C76.7215 203.219 76.7055 203.427 76.6735 203.64H69.9695ZM72.7375 200.104C71.9908 200.104 71.3722 200.317 70.8815 200.744C70.3908 201.16 70.0868 201.72 69.9695 202.424H75.3135C75.1962 201.667 74.8975 201.091 74.4175 200.696C73.9375 200.301 73.3775 200.104 72.7375 200.104ZM84.93 195.8H86.322V207H84.93V205.624C84.2367 206.68 83.2287 207.208 81.906 207.208C80.786 207.208 79.8313 206.803 79.042 205.992C78.2527 205.171 77.858 204.173 77.858 203C77.858 201.827 78.2527 200.835 79.042 200.024C79.8313 199.203 80.786 198.792 81.906 198.792C83.2287 198.792 84.2367 199.32 84.93 200.376V195.8ZM82.082 205.864C82.8927 205.864 83.57 205.592 84.114 205.048C84.658 204.493 84.93 203.811 84.93 203C84.93 202.189 84.658 201.512 84.114 200.968C83.57 200.413 82.8927 200.136 82.082 200.136C81.282 200.136 80.61 200.413 80.066 200.968C79.522 201.512 79.25 202.189 79.25 203C79.25 203.811 79.522 204.493 80.066 205.048C80.61 205.592 81.282 205.864 82.082 205.864ZM94.063 205.592H98.895V207H92.575V195.8H94.063V205.592ZM100.948 197.544C100.681 197.544 100.457 197.453 100.276 197.272C100.094 197.091 100.004 196.872 100.004 196.616C100.004 196.36 100.094 196.141 100.276 195.96C100.457 195.768 100.681 195.672 100.948 195.672C101.204 195.672 101.422 195.768 101.604 195.96C101.785 196.141 101.876 196.36 101.876 196.616C101.876 196.872 101.785 197.091 101.604 197.272C101.422 197.453 101.204 197.544 100.948 197.544ZM100.243 207V199H101.636V207H100.243ZM107.743 198.792C108.682 198.792 109.434 199.091 109.999 199.688C110.564 200.275 110.847 201.075 110.847 202.088V207H109.455V202.168C109.455 201.517 109.279 201.016 108.927 200.664C108.575 200.301 108.09 200.12 107.471 200.12C106.778 200.12 106.218 200.339 105.791 200.776C105.364 201.203 105.151 201.864 105.151 202.76V207H103.759V199H105.151V200.152C105.716 199.245 106.58 198.792 107.743 198.792ZM119.558 207H117.83L114.182 203.208V207H112.79V195.8H114.182V202.536L117.638 199H119.43L115.606 202.872L119.558 207ZM121.444 201.16C121.444 201.469 121.598 201.72 121.908 201.912C122.217 202.093 122.59 202.243 123.028 202.36C123.465 202.467 123.902 202.595 124.34 202.744C124.777 202.883 125.15 203.128 125.46 203.48C125.769 203.821 125.924 204.264 125.924 204.808C125.924 205.533 125.641 206.115 125.076 206.552C124.521 206.989 123.806 207.208 122.932 207.208C122.153 207.208 121.486 207.037 120.932 206.696C120.377 206.355 119.982 205.901 119.748 205.336L120.948 204.648C121.076 205.032 121.316 205.336 121.668 205.56C122.02 205.784 122.441 205.896 122.932 205.896C123.39 205.896 123.769 205.811 124.068 205.64C124.366 205.459 124.516 205.181 124.516 204.808C124.516 204.499 124.361 204.253 124.052 204.072C123.742 203.88 123.369 203.731 122.932 203.624C122.494 203.507 122.057 203.373 121.62 203.224C121.182 203.075 120.809 202.829 120.5 202.488C120.19 202.147 120.036 201.709 120.036 201.176C120.036 200.483 120.302 199.912 120.836 199.464C121.38 199.016 122.057 198.792 122.868 198.792C123.518 198.792 124.094 198.941 124.596 199.24C125.108 199.528 125.492 199.933 125.748 200.456L124.58 201.112C124.292 200.429 123.721 200.088 122.868 200.088C122.473 200.088 122.137 200.184 121.86 200.376C121.582 200.557 121.444 200.819 121.444 201.16ZM35.68 219.8V231H34.208V222.248L30.544 228.344H30.352L26.688 222.264V231H25.2V219.8H26.88L30.448 225.72L34 219.8H35.68ZM44.683 229.992C43.8617 230.803 42.8643 231.208 41.691 231.208C40.5177 231.208 39.5203 230.803 38.699 229.992C37.8883 229.181 37.483 228.184 37.483 227C37.483 225.816 37.8883 224.819 38.699 224.008C39.5203 223.197 40.5177 222.792 41.691 222.792C42.8643 222.792 43.8617 223.197 44.683 224.008C45.5043 224.819 45.915 225.816 45.915 227C45.915 228.184 45.5043 229.181 44.683 229.992ZM41.691 229.848C42.491 229.848 43.163 229.576 43.707 229.032C44.251 228.488 44.523 227.811 44.523 227C44.523 226.189 44.251 225.512 43.707 224.968C43.163 224.424 42.491 224.152 41.691 224.152C40.9017 224.152 40.235 224.424 39.691 224.968C39.147 225.512 38.875 226.189 38.875 227C38.875 227.811 39.147 228.488 39.691 229.032C40.235 229.576 40.9017 229.848 41.691 229.848ZM51.972 222.792C53.092 222.792 54.0467 223.203 54.836 224.024C55.6253 224.835 56.02 225.827 56.02 227C56.02 228.173 55.6253 229.171 54.836 229.992C54.0467 230.803 53.092 231.208 51.972 231.208C50.6493 231.208 49.6413 230.68 48.948 229.624V231H47.556V219.8H48.948V224.376C49.6413 223.32 50.6493 222.792 51.972 222.792ZM51.796 229.864C52.596 229.864 53.268 229.592 53.812 229.048C54.356 228.493 54.628 227.811 54.628 227C54.628 226.189 54.356 225.512 53.812 224.968C53.268 224.413 52.596 224.136 51.796 224.136C50.9853 224.136 50.308 224.413 49.764 224.968C49.22 225.512 48.948 226.189 48.948 227C48.948 227.811 49.22 228.493 49.764 229.048C50.308 229.592 50.9853 229.864 51.796 229.864ZM58.385 221.544C58.1183 221.544 57.8943 221.453 57.713 221.272C57.5317 221.091 57.441 220.872 57.441 220.616C57.441 220.36 57.5317 220.141 57.713 219.96C57.8943 219.768 58.1183 219.672 58.385 219.672C58.641 219.672 58.8597 219.768 59.041 219.96C59.2223 220.141 59.313 220.36 59.313 220.616C59.313 220.872 59.2223 221.091 59.041 221.272C58.8597 221.453 58.641 221.544 58.385 221.544ZM57.681 231V223H59.073V231H57.681ZM61.1966 231V219.32H62.5886V231H61.1966ZM65.6883 227.64C65.8269 228.355 66.1523 228.909 66.6643 229.304C67.1869 229.699 67.8269 229.896 68.5843 229.896C69.6403 229.896 70.4083 229.507 70.8883 228.728L72.0723 229.4C71.2936 230.605 70.1203 231.208 68.5523 231.208C67.2829 231.208 66.2483 230.813 65.4483 230.024C64.6589 229.224 64.2643 228.216 64.2643 227C64.2643 225.795 64.6536 224.792 65.4323 223.992C66.2109 223.192 67.2189 222.792 68.4563 222.792C69.6296 222.792 70.5843 223.208 71.3203 224.04C72.0669 224.861 72.4403 225.853 72.4403 227.016C72.4403 227.219 72.4243 227.427 72.3923 227.64H65.6883ZM68.4563 224.104C67.7096 224.104 67.0909 224.317 66.6003 224.744C66.1096 225.16 65.8056 225.72 65.6883 226.424H71.0323C70.9149 225.667 70.6163 225.091 70.1363 224.696C69.6563 224.301 69.0963 224.104 68.4563 224.104ZM79.6724 229.592H84.5044V231H78.1844V219.8H79.6724V229.592ZM86.5569 221.544C86.2902 221.544 86.0662 221.453 85.8849 221.272C85.7035 221.091 85.6129 220.872 85.6129 220.616C85.6129 220.36 85.7035 220.141 85.8849 219.96C86.0662 219.768 86.2902 219.672 86.5569 219.672C86.8129 219.672 87.0315 219.768 87.2129 219.96C87.3942 220.141 87.4849 220.36 87.4849 220.616C87.4849 220.872 87.3942 221.091 87.2129 221.272C87.0315 221.453 86.8129 221.544 86.5569 221.544ZM85.8529 231V223H87.2449V231H85.8529ZM93.3525 222.792C94.2912 222.792 95.0432 223.091 95.6085 223.688C96.1738 224.275 96.4565 225.075 96.4565 226.088V231H95.0645V226.168C95.0645 225.517 94.8885 225.016 94.5365 224.664C94.1845 224.301 93.6992 224.12 93.0805 224.12C92.3872 224.12 91.8272 224.339 91.4005 224.776C90.9738 225.203 90.7605 225.864 90.7605 226.76V231H89.3685V223H90.7605V224.152C91.3258 223.245 92.1898 222.792 93.3525 222.792ZM105.168 231H103.44L99.7918 227.208V231H98.3997V219.8H99.7918V226.536L103.248 223H105.04L101.216 226.872L105.168 231ZM107.053 225.16C107.053 225.469 107.208 225.72 107.517 225.912C107.826 226.093 108.2 226.243 108.637 226.36C109.074 226.467 109.512 226.595 109.949 226.744C110.386 226.883 110.76 227.128 111.069 227.48C111.378 227.821 111.533 228.264 111.533 228.808C111.533 229.533 111.25 230.115 110.685 230.552C110.13 230.989 109.416 231.208 108.541 231.208C107.762 231.208 107.096 231.037 106.541 230.696C105.986 230.355 105.592 229.901 105.357 229.336L106.557 228.648C106.685 229.032 106.925 229.336 107.277 229.56C107.629 229.784 108.05 229.896 108.541 229.896C109 229.896 109.378 229.811 109.677 229.64C109.976 229.459 110.125 229.181 110.125 228.808C110.125 228.499 109.97 228.253 109.661 228.072C109.352 227.88 108.978 227.731 108.541 227.624C108.104 227.507 107.666 227.373 107.229 227.224C106.792 227.075 106.418 226.829 106.109 226.488C105.8 226.147 105.645 225.709 105.645 225.176C105.645 224.483 105.912 223.912 106.445 223.464C106.989 223.016 107.666 222.792 108.477 222.792C109.128 222.792 109.704 222.941 110.205 223.24C110.717 223.528 111.101 223.933 111.357 224.456L110.189 225.112C109.901 224.429 109.33 224.088 108.477 224.088C108.082 224.088 107.746 224.184 107.469 224.376C107.192 224.557 107.053 224.819 107.053 225.16ZM30.464 255.208C28.768 255.208 27.3653 254.648 26.256 253.528C25.1573 252.408 24.608 251.032 24.608 249.4C24.608 247.768 25.1573 246.392 26.256 245.272C27.3653 244.152 28.768 243.592 30.464 243.592C31.488 243.592 32.4267 243.837 33.28 244.328C34.144 244.819 34.816 245.48 35.296 246.312L34 247.064C33.68 246.445 33.2 245.955 32.56 245.592C31.9307 245.219 31.232 245.032 30.464 245.032C29.1733 245.032 28.1173 245.448 27.296 246.28C26.4853 247.112 26.08 248.152 26.08 249.4C26.08 250.637 26.4853 251.672 27.296 252.504C28.1173 253.336 29.1733 253.752 30.464 253.752C31.232 253.752 31.9307 253.571 32.56 253.208C33.2 252.835 33.68 252.344 34 251.736L35.296 252.472C34.8267 253.304 34.16 253.971 33.296 254.472C32.432 254.963 31.488 255.208 30.464 255.208ZM43.43 247H44.822V255H43.43V253.624C42.7367 254.68 41.7287 255.208 40.406 255.208C39.286 255.208 38.3313 254.803 37.542 253.992C36.7527 253.171 36.358 252.173 36.358 251C36.358 249.827 36.7527 248.835 37.542 248.024C38.3313 247.203 39.286 246.792 40.406 246.792C41.7287 246.792 42.7367 247.32 43.43 248.376V247ZM40.582 253.864C41.3927 253.864 42.07 253.592 42.614 253.048C43.158 252.493 43.43 251.811 43.43 251C43.43 250.189 43.158 249.512 42.614 248.968C42.07 248.413 41.3927 248.136 40.582 248.136C39.782 248.136 39.11 248.413 38.566 248.968C38.022 249.512 37.75 250.189 37.75 251C37.75 251.811 38.022 252.493 38.566 253.048C39.11 253.592 39.782 253.864 40.582 253.864ZM55.571 246.792C56.467 246.792 57.1923 247.085 57.747 247.672C58.3017 248.248 58.579 249.032 58.579 250.024V255H57.187V250.072C57.187 249.453 57.027 248.973 56.707 248.632C56.387 248.291 55.9603 248.12 55.427 248.12C54.8297 248.12 54.3497 248.323 53.987 248.728C53.635 249.123 53.459 249.731 53.459 250.552V255H52.067V250.072C52.067 249.453 51.9123 248.973 51.603 248.632C51.3043 248.291 50.8937 248.12 50.371 248.12C49.7843 248.12 49.2937 248.323 48.899 248.728C48.515 249.133 48.323 249.741 48.323 250.552V255H46.931V247H48.323V248.072C48.867 247.219 49.6617 246.792 50.707 246.792C51.7843 246.792 52.5683 247.245 53.059 248.152C53.6137 247.245 54.451 246.792 55.571 246.792ZM64.9251 246.792C66.0451 246.792 66.9998 247.203 67.7891 248.024C68.5785 248.835 68.9731 249.827 68.9731 251C68.9731 252.173 68.5785 253.171 67.7891 253.992C66.9998 254.803 66.0451 255.208 64.9251 255.208C63.6025 255.208 62.5945 254.68 61.9011 253.624V258.2H60.5091V247H61.9011V248.376C62.5945 247.32 63.6025 246.792 64.9251 246.792ZM64.7491 253.864C65.5491 253.864 66.2211 253.592 66.7651 253.048C67.3091 252.493 67.5811 251.811 67.5811 251C67.5811 250.189 67.3091 249.512 66.7651 248.968C66.2211 248.413 65.5491 248.136 64.7491 248.136C63.9385 248.136 63.2611 248.413 62.7171 248.968C62.1731 249.512 61.9011 250.189 61.9011 251C61.9011 251.811 62.1731 252.493 62.7171 253.048C63.2611 253.592 63.9385 253.864 64.7491 253.864ZM77.2581 247H78.6501V255H77.2581V253.624C76.5648 254.68 75.5568 255.208 74.2341 255.208C73.1141 255.208 72.1595 254.803 71.3701 253.992C70.5808 253.171 70.1861 252.173 70.1861 251C70.1861 249.827 70.5808 248.835 71.3701 248.024C72.1595 247.203 73.1141 246.792 74.2341 246.792C75.5568 246.792 76.5648 247.32 77.2581 248.376V247ZM74.4101 253.864C75.2208 253.864 75.8981 253.592 76.4421 253.048C76.9861 252.493 77.2581 251.811 77.2581 251C77.2581 250.189 76.9861 249.512 76.4421 248.968C75.8981 248.413 75.2208 248.136 74.4101 248.136C73.6101 248.136 72.9381 248.413 72.3941 248.968C71.8501 249.512 71.5781 250.189 71.5781 251C71.5781 251.811 71.8501 252.493 72.3941 253.048C72.9381 253.592 73.6101 253.864 74.4101 253.864ZM81.4631 245.544C81.1965 245.544 80.9725 245.453 80.7911 245.272C80.6098 245.091 80.5191 244.872 80.5191 244.616C80.5191 244.36 80.6098 244.141 80.7911 243.96C80.9725 243.768 81.1965 243.672 81.4631 243.672C81.7191 243.672 81.9378 243.768 82.1191 243.96C82.3005 244.141 82.3911 244.36 82.3911 244.616C82.3911 244.872 82.3005 245.091 82.1191 245.272C81.9378 245.453 81.7191 245.544 81.4631 245.544ZM80.7591 255V247H82.1511V255H80.7591ZM90.9148 247H92.2908V254.664C92.2908 255.848 91.8908 256.765 91.0908 257.416C90.2908 258.077 89.3308 258.408 88.2108 258.408C87.3148 258.408 86.5414 258.237 85.8908 257.896C85.2401 257.565 84.7494 257.085 84.4188 256.456L85.6348 255.768C86.0721 256.664 86.9414 257.112 88.2428 257.112C89.0748 257.112 89.7254 256.893 90.1948 256.456C90.6748 256.019 90.9148 255.421 90.9148 254.664V253.528C90.2108 254.595 89.2081 255.128 87.9068 255.128C86.7654 255.128 85.8001 254.723 85.0108 253.912C84.2214 253.101 83.8268 252.115 83.8268 250.952C83.8268 249.789 84.2214 248.808 85.0108 248.008C85.8001 247.197 86.7654 246.792 87.9068 246.792C89.2188 246.792 90.2214 247.32 90.9148 248.376V247ZM86.0348 252.984C86.5788 253.528 87.2561 253.8 88.0668 253.8C88.8774 253.8 89.5548 253.528 90.0988 252.984C90.6428 252.44 90.9148 251.763 90.9148 250.952C90.9148 250.152 90.6428 249.48 90.0988 248.936C89.5548 248.392 88.8774 248.12 88.0668 248.12C87.2561 248.12 86.5788 248.392 86.0348 248.936C85.4908 249.48 85.2188 250.152 85.2188 250.952C85.2188 251.763 85.4908 252.44 86.0348 252.984ZM98.3838 246.792C99.3224 246.792 100.074 247.091 100.64 247.688C101.205 248.275 101.488 249.075 101.488 250.088V255H100.096V250.168C100.096 249.517 99.9198 249.016 99.5678 248.664C99.2158 248.301 98.7304 248.12 98.1118 248.12C97.4184 248.12 96.8584 248.339 96.4318 248.776C96.0051 249.203 95.7918 249.864 95.7918 250.76V255H94.3997V247H95.7918V248.152C96.3571 247.245 97.2211 246.792 98.3838 246.792ZM35.68 267.8V279H34.208V270.248L30.544 276.344H30.352L26.688 270.264V279H25.2V267.8H26.88L30.448 273.72L34 267.8H35.68ZM44.555 271H45.947V279H44.555V277.624C43.8617 278.68 42.8537 279.208 41.531 279.208C40.411 279.208 39.4563 278.803 38.667 277.992C37.8777 277.171 37.483 276.173 37.483 275C37.483 273.827 37.8777 272.835 38.667 272.024C39.4563 271.203 40.411 270.792 41.531 270.792C42.8537 270.792 43.8617 271.32 44.555 272.376V271ZM41.707 277.864C42.5177 277.864 43.195 277.592 43.739 277.048C44.283 276.493 44.555 275.811 44.555 275C44.555 274.189 44.283 273.512 43.739 272.968C43.195 272.413 42.5177 272.136 41.707 272.136C40.907 272.136 40.235 272.413 39.691 272.968C39.147 273.512 38.875 274.189 38.875 275C38.875 275.811 39.147 276.493 39.691 277.048C40.235 277.592 40.907 277.864 41.707 277.864ZM52.04 270.792C52.9787 270.792 53.7307 271.091 54.296 271.688C54.8613 272.275 55.144 273.075 55.144 274.088V279H53.752V274.168C53.752 273.517 53.576 273.016 53.224 272.664C52.872 272.301 52.3867 272.12 51.768 272.12C51.0747 272.12 50.5147 272.339 50.088 272.776C49.6613 273.203 49.448 273.864 49.448 274.76V279H48.056V271H49.448V272.152C50.0133 271.245 50.8773 270.792 52.04 270.792ZM63.7113 271H65.1033V279H63.7113V277.624C63.0179 278.68 62.0099 279.208 60.6873 279.208C59.5673 279.208 58.6126 278.803 57.8233 277.992C57.0339 277.171 56.6393 276.173 56.6393 275C56.6393 273.827 57.0339 272.835 57.8233 272.024C58.6126 271.203 59.5673 270.792 60.6873 270.792C62.0099 270.792 63.0179 271.32 63.7113 272.376V271ZM60.8633 277.864C61.6739 277.864 62.3513 277.592 62.8953 277.048C63.4393 276.493 63.7113 275.811 63.7113 275C63.7113 274.189 63.4393 273.512 62.8953 272.968C62.3513 272.413 61.6739 272.136 60.8633 272.136C60.0633 272.136 59.3913 272.413 58.8473 272.968C58.3033 273.512 58.0312 274.189 58.0312 275C58.0312 275.811 58.3033 276.493 58.8473 277.048C59.3913 277.592 60.0633 277.864 60.8633 277.864ZM73.8523 271H75.2283V278.664C75.2283 279.848 74.8283 280.765 74.0283 281.416C73.2283 282.077 72.2683 282.408 71.1483 282.408C70.2523 282.408 69.4789 282.237 68.8283 281.896C68.1776 281.565 67.6869 281.085 67.3563 280.456L68.5723 279.768C69.0096 280.664 69.8789 281.112 71.1803 281.112C72.0123 281.112 72.6629 280.893 73.1323 280.456C73.6123 280.019 73.8523 279.421 73.8523 278.664V277.528C73.1483 278.595 72.1456 279.128 70.8443 279.128C69.7029 279.128 68.7376 278.723 67.9483 277.912C67.1589 277.101 66.7643 276.115 66.7643 274.952C66.7643 273.789 67.1589 272.808 67.9483 272.008C68.7376 271.197 69.7029 270.792 70.8443 270.792C72.1563 270.792 73.1589 271.32 73.8523 272.376V271ZM68.9723 276.984C69.5163 277.528 70.1936 277.8 71.0043 277.8C71.8149 277.8 72.4923 277.528 73.0363 276.984C73.5803 276.44 73.8523 275.763 73.8523 274.952C73.8523 274.152 73.5803 273.48 73.0363 272.936C72.4923 272.392 71.8149 272.12 71.0043 272.12C70.1936 272.12 69.5163 272.392 68.9723 272.936C68.4283 273.48 68.1562 274.152 68.1562 274.952C68.1562 275.763 68.4283 276.44 68.9723 276.984ZM78.3133 275.64C78.4519 276.355 78.7773 276.909 79.2893 277.304C79.8119 277.699 80.4519 277.896 81.2093 277.896C82.2653 277.896 83.0333 277.507 83.5133 276.728L84.6973 277.4C83.9186 278.605 82.7453 279.208 81.1773 279.208C79.9079 279.208 78.8733 278.813 78.0733 278.024C77.2839 277.224 76.8893 276.216 76.8893 275C76.8893 273.795 77.2786 272.792 78.0573 271.992C78.8359 271.192 79.8439 270.792 81.0813 270.792C82.2546 270.792 83.2093 271.208 83.9453 272.04C84.6919 272.861 85.0653 273.853 85.0653 275.016C85.0653 275.219 85.0493 275.427 85.0173 275.64H78.3133ZM81.0813 272.104C80.3346 272.104 79.7159 272.317 79.2253 272.744C78.7346 273.16 78.4306 273.72 78.3133 274.424H83.6573C83.5399 273.667 83.2413 273.091 82.7613 272.696C82.2813 272.301 81.7213 272.104 81.0813 272.104ZM95.3054 270.792C96.2014 270.792 96.9267 271.085 97.4814 271.672C98.036 272.248 98.3134 273.032 98.3134 274.024V279H96.9214V274.072C96.9214 273.453 96.7614 272.973 96.4414 272.632C96.1214 272.291 95.6947 272.12 95.1614 272.12C94.564 272.12 94.084 272.323 93.7214 272.728C93.3694 273.123 93.1934 273.731 93.1934 274.552V279H91.8014V274.072C91.8014 273.453 91.6467 272.973 91.3374 272.632C91.0387 272.291 90.628 272.12 90.1054 272.12C89.5187 272.12 89.028 272.323 88.6334 272.728C88.2494 273.133 88.0574 273.741 88.0574 274.552V279H86.6654V271H88.0574V272.072C88.6014 271.219 89.396 270.792 90.4414 270.792C91.5187 270.792 92.3027 271.245 92.7934 272.152C93.348 271.245 94.1854 270.792 95.3054 270.792ZM101.22 275.64C101.358 276.355 101.684 276.909 102.196 277.304C102.718 277.699 103.358 277.896 104.116 277.896C105.172 277.896 105.94 277.507 106.42 276.728L107.604 277.4C106.825 278.605 105.652 279.208 104.084 279.208C102.814 279.208 101.78 278.813 100.98 278.024C100.19 277.224 99.7955 276.216 99.7955 275C99.7955 273.795 100.185 272.792 100.964 271.992C101.742 271.192 102.75 270.792 103.988 270.792C105.161 270.792 106.116 271.208 106.852 272.04C107.598 272.861 107.972 273.853 107.972 275.016C107.972 275.219 107.956 275.427 107.924 275.64H101.22ZM103.988 272.104C103.241 272.104 102.622 272.317 102.132 272.744C101.641 273.16 101.337 273.72 101.22 274.424H106.564C106.446 273.667 106.148 273.091 105.668 272.696C105.188 272.301 104.628 272.104 103.988 272.104ZM113.556 270.792C114.494 270.792 115.246 271.091 115.812 271.688C116.377 272.275 116.66 273.075 116.66 274.088V279H115.268V274.168C115.268 273.517 115.092 273.016 114.74 272.664C114.388 272.301 113.902 272.12 113.284 272.12C112.59 272.12 112.03 272.339 111.604 272.776C111.177 273.203 110.964 273.864 110.964 274.76V279H109.572V271H110.964V272.152C111.529 271.245 112.393 270.792 113.556 270.792ZM122.955 272.344H120.827V276.68C120.827 277.075 120.902 277.357 121.051 277.528C121.211 277.688 121.451 277.773 121.771 277.784C122.091 277.784 122.486 277.773 122.955 277.752V279C121.739 279.16 120.848 279.064 120.283 278.712C119.718 278.349 119.435 277.672 119.435 276.68V272.344H117.851V271H119.435V269.176L120.827 268.76V271H122.955V272.344ZM137.818 278.536L136.57 279.256L135.434 278.04C134.602 278.819 133.535 279.208 132.234 279.208C131.114 279.208 130.207 278.92 129.514 278.344C128.82 277.757 128.474 276.968 128.474 275.976C128.474 275.293 128.644 274.669 128.986 274.104C129.338 273.528 129.85 273.075 130.522 272.744C130.042 272.136 129.802 271.459 129.802 270.712C129.802 269.784 130.122 269.032 130.762 268.456C131.412 267.88 132.191 267.592 133.098 267.592C133.844 267.592 134.522 267.795 135.13 268.2C135.738 268.605 136.175 269.165 136.442 269.88L135.194 270.6C135.034 270.109 134.767 269.725 134.394 269.448C134.031 269.171 133.61 269.032 133.13 269.032C132.618 269.032 132.18 269.187 131.818 269.496C131.466 269.805 131.29 270.205 131.29 270.696C131.29 271.048 131.37 271.368 131.53 271.656C131.7 271.933 131.951 272.248 132.282 272.6L135.338 275.864C135.604 275.309 135.796 274.632 135.914 273.832L137.194 274.568C137.044 275.453 136.756 276.248 136.33 276.952L137.818 278.536ZM132.266 277.8C133.151 277.8 133.887 277.539 134.474 277.016L131.45 273.768C130.938 273.981 130.559 274.28 130.314 274.664C130.079 275.048 129.962 275.453 129.962 275.88C129.962 276.477 130.164 276.947 130.57 277.288C130.975 277.629 131.54 277.8 132.266 277.8ZM32.576 303L31.664 300.488H26.624L25.712 303H24.128L28.304 291.8H29.984L34.16 303H32.576ZM27.136 299.096H31.152L29.136 293.576L27.136 299.096ZM39.3213 294.792C40.2599 294.792 41.0119 295.091 41.5773 295.688C42.1426 296.275 42.4253 297.075 42.4253 298.088V303H41.0333V298.168C41.0333 297.517 40.8573 297.016 40.5053 296.664C40.1533 296.301 39.6679 296.12 39.0493 296.12C38.3559 296.12 37.7959 296.339 37.3693 296.776C36.9426 297.203 36.7293 297.864 36.7293 298.76V303H35.3372V295H36.7293V296.152C37.2946 295.245 38.1586 294.792 39.3213 294.792ZM50.9925 295H52.3845V303H50.9925V301.624C50.2992 302.68 49.2912 303.208 47.9685 303.208C46.8485 303.208 45.8938 302.803 45.1045 301.992C44.3152 301.171 43.9205 300.173 43.9205 299C43.9205 297.827 44.3152 296.835 45.1045 296.024C45.8938 295.203 46.8485 294.792 47.9685 294.792C49.2912 294.792 50.2992 295.32 50.9925 296.376V295ZM48.1445 301.864C48.9552 301.864 49.6325 301.592 50.1765 301.048C50.7205 300.493 50.9925 299.811 50.9925 299C50.9925 298.189 50.7205 297.512 50.1765 296.968C49.6325 296.413 48.9552 296.136 48.1445 296.136C47.3445 296.136 46.6725 296.413 46.1285 296.968C45.5845 297.512 45.3125 298.189 45.3125 299C45.3125 299.811 45.5845 300.493 46.1285 301.048C46.6725 301.592 47.3445 301.864 48.1445 301.864ZM54.4935 303V291.32H55.8855V303H54.4935ZM63.5931 295H65.0811L61.8171 303.496C61.4758 304.403 60.9958 305.091 60.3771 305.56C59.7691 306.04 59.0651 306.253 58.2651 306.2V304.904C59.2465 304.979 59.9665 304.435 60.4251 303.272L60.5691 302.968L57.0811 295H58.5691L61.2891 301.272L63.5931 295ZM70.5955 296.344H68.4675V300.68C68.4675 301.075 68.5422 301.357 68.6915 301.528C68.8515 301.688 69.0915 301.773 69.4115 301.784C69.7315 301.784 70.1262 301.773 70.5955 301.752V303C69.3795 303.16 68.4888 303.064 67.9235 302.712C67.3582 302.349 67.0755 301.672 67.0755 300.68V296.344H65.4915V295H67.0755V293.176L68.4675 292.76V295H70.5955V296.344ZM72.9475 293.544C72.6808 293.544 72.4568 293.453 72.2755 293.272C72.0942 293.091 72.0035 292.872 72.0035 292.616C72.0035 292.36 72.0942 292.141 72.2755 291.96C72.4568 291.768 72.6808 291.672 72.9475 291.672C73.2035 291.672 73.4222 291.768 73.6035 291.96C73.7848 292.141 73.8755 292.36 73.8755 292.616C73.8755 292.872 73.7848 293.091 73.6035 293.272C73.4222 293.453 73.2035 293.544 72.9475 293.544ZM72.2435 303V295H73.6355V303H72.2435ZM79.5191 303.208C78.3138 303.208 77.3111 302.808 76.5111 302.008C75.7111 301.197 75.3111 300.195 75.3111 299C75.3111 297.805 75.7111 296.808 76.5111 296.008C77.3111 295.197 78.3138 294.792 79.5191 294.792C80.3085 294.792 81.0178 294.984 81.6471 295.368C82.2765 295.741 82.7458 296.248 83.0551 296.888L81.8871 297.56C81.6845 297.133 81.3698 296.792 80.9431 296.536C80.5271 296.28 80.0525 296.152 79.5191 296.152C78.7191 296.152 78.0471 296.424 77.5031 296.968C76.9698 297.512 76.7031 298.189 76.7031 299C76.7031 299.8 76.9698 300.472 77.5031 301.016C78.0471 301.56 78.7191 301.832 79.5191 301.832C80.0525 301.832 80.5325 301.709 80.9591 301.464C81.3858 301.208 81.7111 300.867 81.9351 300.44L83.1191 301.128C82.7778 301.757 82.2871 302.264 81.6471 302.648C81.0071 303.021 80.2978 303.208 79.5191 303.208ZM85.631 297.16C85.631 297.469 85.7857 297.72 86.095 297.912C86.4043 298.093 86.7777 298.243 87.215 298.36C87.6523 298.467 88.0897 298.595 88.527 298.744C88.9643 298.883 89.3377 299.128 89.647 299.48C89.9563 299.821 90.111 300.264 90.111 300.808C90.111 301.533 89.8283 302.115 89.263 302.552C88.7083 302.989 87.9937 303.208 87.119 303.208C86.3403 303.208 85.6737 303.037 85.119 302.696C84.5643 302.355 84.1697 301.901 83.935 301.336L85.135 300.648C85.263 301.032 85.503 301.336 85.855 301.56C86.207 301.784 86.6283 301.896 87.119 301.896C87.5777 301.896 87.9563 301.811 88.255 301.64C88.5537 301.459 88.703 301.181 88.703 300.808C88.703 300.499 88.5483 300.253 88.239 300.072C87.9297 299.88 87.5563 299.731 87.119 299.624C86.6817 299.507 86.2443 299.373 85.807 299.224C85.3697 299.075 84.9963 298.829 84.687 298.488C84.3777 298.147 84.223 297.709 84.223 297.176C84.223 296.483 84.4897 295.912 85.023 295.464C85.567 295.016 86.2443 294.792 87.055 294.792C87.7057 294.792 88.2817 294.941 88.783 295.24C89.295 295.528 89.679 295.933 89.935 296.456L88.767 297.112C88.479 296.429 87.9083 296.088 87.055 296.088C86.6603 296.088 86.3243 296.184 86.047 296.376C85.7697 296.557 85.631 296.819 85.631 297.16ZM36.208 321.4C36.208 322.936 35.68 324.264 34.624 325.384L35.856 326.616L34.832 327.544L33.568 326.264C32.5973 326.893 31.5413 327.208 30.4 327.208C28.8 327.208 27.4347 326.643 26.304 325.512C25.1733 324.381 24.608 323.011 24.608 321.4C24.608 319.789 25.1733 318.419 26.304 317.288C27.4347 316.157 28.8 315.592 30.4 315.592C32 315.592 33.3653 316.157 34.496 317.288C35.6373 318.419 36.208 319.789 36.208 321.4ZM30.4 325.752C31.168 325.752 31.872 325.571 32.512 325.208L30.272 322.952L31.296 322.04L33.6 324.344C34.3467 323.533 34.72 322.552 34.72 321.4C34.72 320.173 34.2987 319.139 33.456 318.296C32.624 317.453 31.6053 317.032 30.4 317.032C29.1947 317.032 28.1707 317.453 27.328 318.296C26.496 319.139 26.08 320.173 26.08 321.4C26.08 322.616 26.496 323.645 27.328 324.488C28.1707 325.331 29.1947 325.752 30.4 325.752ZM44.715 327L42.203 322.712H39.563V327H38.075V315.8H42.555C43.515 315.8 44.3363 316.141 45.019 316.824C45.7017 317.496 46.043 318.312 46.043 319.272C46.043 319.997 45.8243 320.659 45.387 321.256C44.9603 321.853 44.4057 322.275 43.723 322.52L46.363 327H44.715ZM39.563 317.192V321.368H42.555C43.1097 321.368 43.579 321.165 43.963 320.76C44.3577 320.344 44.555 319.848 44.555 319.272C44.555 318.696 44.3577 318.205 43.963 317.8C43.579 317.395 43.1097 317.192 42.555 317.192H39.563ZM57.1203 327.208C55.4243 327.208 54.0216 326.648 52.9123 325.528C51.8136 324.408 51.2643 323.032 51.2643 321.4C51.2643 319.768 51.8136 318.392 52.9123 317.272C54.0216 316.152 55.4243 315.592 57.1203 315.592C58.1443 315.592 59.0829 315.837 59.9363 316.328C60.8003 316.819 61.4723 317.48 61.9523 318.312L60.6562 319.064C60.3363 318.445 59.8563 317.955 59.2163 317.592C58.5869 317.219 57.8883 317.032 57.1203 317.032C55.8296 317.032 54.7736 317.448 53.9523 318.28C53.1416 319.112 52.7363 320.152 52.7363 321.4C52.7363 322.637 53.1416 323.672 53.9523 324.504C54.7736 325.336 55.8296 325.752 57.1203 325.752C57.8883 325.752 58.5869 325.571 59.2163 325.208C59.8563 324.835 60.3363 324.344 60.6562 323.736L61.9523 324.472C61.4829 325.304 60.8163 325.971 59.9523 326.472C59.0883 326.963 58.1443 327.208 57.1203 327.208ZM70.2143 325.992C69.3929 326.803 68.3956 327.208 67.2223 327.208C66.0489 327.208 65.0516 326.803 64.2303 325.992C63.4196 325.181 63.0143 324.184 63.0143 323C63.0143 321.816 63.4196 320.819 64.2303 320.008C65.0516 319.197 66.0489 318.792 67.2223 318.792C68.3956 318.792 69.3929 319.197 70.2143 320.008C71.0356 320.819 71.4462 321.816 71.4462 323C71.4462 324.184 71.0356 325.181 70.2143 325.992ZM67.2223 325.848C68.0223 325.848 68.6943 325.576 69.2383 325.032C69.7823 324.488 70.0543 323.811 70.0543 323C70.0543 322.189 69.7823 321.512 69.2383 320.968C68.6943 320.424 68.0223 320.152 67.2223 320.152C66.4329 320.152 65.7663 320.424 65.2223 320.968C64.6783 321.512 64.4062 322.189 64.4062 323C64.4062 323.811 64.6783 324.488 65.2223 325.032C65.7663 325.576 66.4329 325.848 67.2223 325.848ZM79.7113 315.8H81.1033V327H79.7113V325.624C79.0179 326.68 78.0099 327.208 76.6873 327.208C75.5673 327.208 74.6126 326.803 73.8233 325.992C73.0339 325.171 72.6393 324.173 72.6393 323C72.6393 321.827 73.0339 320.835 73.8233 320.024C74.6126 319.203 75.5673 318.792 76.6873 318.792C78.0099 318.792 79.0179 319.32 79.7113 320.376V315.8ZM76.8633 325.864C77.6739 325.864 78.3513 325.592 78.8953 325.048C79.4393 324.493 79.7113 323.811 79.7113 323C79.7113 322.189 79.4393 321.512 78.8953 320.968C78.3513 320.413 77.6739 320.136 76.8633 320.136C76.0633 320.136 75.3913 320.413 74.8473 320.968C74.3033 321.512 74.0312 322.189 74.0312 323C74.0312 323.811 74.3033 324.493 74.8473 325.048C75.3913 325.592 76.0633 325.864 76.8633 325.864ZM84.1883 323.64C84.3269 324.355 84.6523 324.909 85.1643 325.304C85.6869 325.699 86.3269 325.896 87.0843 325.896C88.1403 325.896 88.9083 325.507 89.3883 324.728L90.5723 325.4C89.7936 326.605 88.6203 327.208 87.0523 327.208C85.7829 327.208 84.7483 326.813 83.9483 326.024C83.1589 325.224 82.7643 324.216 82.7643 323C82.7643 321.795 83.1536 320.792 83.9323 319.992C84.7109 319.192 85.7189 318.792 86.9563 318.792C88.1296 318.792 89.0843 319.208 89.8203 320.04C90.5669 320.861 90.9403 321.853 90.9403 323.016C90.9403 323.219 90.9243 323.427 90.8923 323.64H84.1883ZM86.9563 320.104C86.2096 320.104 85.5909 320.317 85.1003 320.744C84.6096 321.16 84.3056 321.72 84.1883 322.424H89.5323C89.4149 321.667 89.1163 321.091 88.6363 320.696C88.1563 320.301 87.5963 320.104 86.9563 320.104ZM103.18 319H104.556V326.664C104.556 327.848 104.156 328.765 103.356 329.416C102.556 330.077 101.596 330.408 100.476 330.408C99.5804 330.408 98.807 330.237 98.1564 329.896C97.5057 329.565 97.015 329.085 96.6844 328.456L97.9004 327.768C98.3377 328.664 99.207 329.112 100.508 329.112C101.34 329.112 101.991 328.893 102.46 328.456C102.94 328.019 103.18 327.421 103.18 326.664V325.528C102.476 326.595 101.474 327.128 100.172 327.128C99.031 327.128 98.0657 326.723 97.2764 325.912C96.487 325.101 96.0924 324.115 96.0924 322.952C96.0924 321.789 96.487 320.808 97.2764 320.008C98.0657 319.197 99.031 318.792 100.172 318.792C101.484 318.792 102.487 319.32 103.18 320.376V319ZM98.3004 324.984C98.8444 325.528 99.5217 325.8 100.332 325.8C101.143 325.8 101.82 325.528 102.364 324.984C102.908 324.44 103.18 323.763 103.18 322.952C103.18 322.152 102.908 321.48 102.364 320.936C101.82 320.392 101.143 320.12 100.332 320.12C99.5217 320.12 98.8444 320.392 98.3004 320.936C97.7564 321.48 97.4844 322.152 97.4844 322.952C97.4844 323.763 97.7564 324.44 98.3004 324.984ZM107.641 323.64C107.78 324.355 108.105 324.909 108.617 325.304C109.14 325.699 109.78 325.896 110.537 325.896C111.593 325.896 112.361 325.507 112.841 324.728L114.025 325.4C113.247 326.605 112.073 327.208 110.505 327.208C109.236 327.208 108.201 326.813 107.401 326.024C106.612 325.224 106.217 324.216 106.217 323C106.217 321.795 106.607 320.792 107.385 319.992C108.164 319.192 109.172 318.792 110.409 318.792C111.583 318.792 112.537 319.208 113.273 320.04C114.02 320.861 114.393 321.853 114.393 323.016C114.393 323.219 114.377 323.427 114.345 323.64H107.641ZM110.409 320.104C109.663 320.104 109.044 320.317 108.553 320.744C108.063 321.16 107.759 321.72 107.641 322.424H112.985C112.868 321.667 112.569 321.091 112.089 320.696C111.609 320.301 111.049 320.104 110.409 320.104ZM119.978 318.792C120.916 318.792 121.668 319.091 122.234 319.688C122.799 320.275 123.082 321.075 123.082 322.088V327H121.69V322.168C121.69 321.517 121.514 321.016 121.162 320.664C120.81 320.301 120.324 320.12 119.706 320.12C119.012 320.12 118.452 320.339 118.026 320.776C117.599 321.203 117.386 321.864 117.386 322.76V327H115.993V319H117.386V320.152C117.951 319.245 118.815 318.792 119.978 318.792ZM126.001 323.64C126.139 324.355 126.465 324.909 126.977 325.304C127.499 325.699 128.139 325.896 128.897 325.896C129.953 325.896 130.721 325.507 131.201 324.728L132.385 325.4C131.606 326.605 130.433 327.208 128.865 327.208C127.595 327.208 126.561 326.813 125.761 326.024C124.971 325.224 124.577 324.216 124.577 323C124.577 321.795 124.966 320.792 125.745 319.992C126.523 319.192 127.531 318.792 128.769 318.792C129.942 318.792 130.897 319.208 131.633 320.04C132.379 320.861 132.753 321.853 132.753 323.016C132.753 323.219 132.737 323.427 132.705 323.64H126.001ZM128.769 320.104C128.022 320.104 127.403 320.317 126.913 320.744C126.422 321.16 126.118 321.72 126.001 322.424H131.345C131.227 321.667 130.929 321.091 130.449 320.696C129.969 320.301 129.409 320.104 128.769 320.104ZM135.745 320.344C136.204 319.352 137.036 318.856 138.241 318.856V320.312C137.558 320.28 136.972 320.461 136.481 320.856C135.99 321.251 135.745 321.885 135.745 322.76V327H134.353V319H135.745V320.344ZM145.789 319H147.181V327H145.789V325.624C145.096 326.68 144.088 327.208 142.765 327.208C141.645 327.208 140.691 326.803 139.901 325.992C139.112 325.171 138.717 324.173 138.717 323C138.717 321.827 139.112 320.835 139.901 320.024C140.691 319.203 141.645 318.792 142.765 318.792C144.088 318.792 145.096 319.32 145.789 320.376V319ZM142.941 325.864C143.752 325.864 144.429 325.592 144.973 325.048C145.517 324.493 145.789 323.811 145.789 323C145.789 322.189 145.517 321.512 144.973 320.968C144.429 320.413 143.752 320.136 142.941 320.136C142.141 320.136 141.469 320.413 140.925 320.968C140.381 321.512 140.109 322.189 140.109 323C140.109 323.811 140.381 324.493 140.925 325.048C141.469 325.592 142.141 325.864 142.941 325.864ZM153.642 320.344H151.514V324.68C151.514 325.075 151.589 325.357 151.738 325.528C151.898 325.688 152.138 325.773 152.458 325.784C152.778 325.784 153.173 325.773 153.642 325.752V327C152.426 327.16 151.536 327.064 150.97 326.712C150.405 326.349 150.122 325.672 150.122 324.68V320.344H148.538V319H150.122V317.176L151.514 316.76V319H153.642V320.344ZM155.994 317.544C155.728 317.544 155.504 317.453 155.322 317.272C155.141 317.091 155.05 316.872 155.05 316.616C155.05 316.36 155.141 316.141 155.322 315.96C155.504 315.768 155.728 315.672 155.994 315.672C156.25 315.672 156.469 315.768 156.65 315.96C156.832 316.141 156.922 316.36 156.922 316.616C156.922 316.872 156.832 317.091 156.65 317.272C156.469 317.453 156.25 317.544 155.994 317.544ZM155.29 327V319H156.682V327H155.29ZM165.558 325.992C164.737 326.803 163.739 327.208 162.566 327.208C161.393 327.208 160.395 326.803 159.574 325.992C158.763 325.181 158.358 324.184 158.358 323C158.358 321.816 158.763 320.819 159.574 320.008C160.395 319.197 161.393 318.792 162.566 318.792C163.739 318.792 164.737 319.197 165.558 320.008C166.379 320.819 166.79 321.816 166.79 323C166.79 324.184 166.379 325.181 165.558 325.992ZM162.566 325.848C163.366 325.848 164.038 325.576 164.582 325.032C165.126 324.488 165.398 323.811 165.398 323C165.398 322.189 165.126 321.512 164.582 320.968C164.038 320.424 163.366 320.152 162.566 320.152C161.777 320.152 161.11 320.424 160.566 320.968C160.022 321.512 159.75 322.189 159.75 323C159.75 323.811 160.022 324.488 160.566 325.032C161.11 325.576 161.777 325.848 162.566 325.848ZM172.415 318.792C173.354 318.792 174.106 319.091 174.671 319.688C175.236 320.275 175.519 321.075 175.519 322.088V327H174.127V322.168C174.127 321.517 173.951 321.016 173.599 320.664C173.247 320.301 172.762 320.12 172.143 320.12C171.45 320.12 170.89 320.339 170.463 320.776C170.036 321.203 169.823 321.864 169.823 322.76V327H168.431V319H169.823V320.152C170.388 319.245 171.252 318.792 172.415 318.792Z" fill="#112232"/>
</svg>
