<svg width="177" height="128" viewBox="0 0 177 128" fill="none" xmlns="http://www.w3.org/2000/svg">
<path d="M28.864 16.224C27.7547 16.224 26.8213 15.9787 26.064 15.488C25.3067 14.9867 24.7733 14.3093 24.464 13.456L26.352 12.352C26.7893 13.4933 27.648 14.064 28.928 14.064C29.5467 14.064 30 13.952 30.288 13.728C30.576 13.504 30.72 13.2213 30.72 12.88C30.72 12.4853 30.544 12.1813 30.192 11.968C29.84 11.744 29.2107 11.504 28.304 11.248C27.8027 11.0987 27.376 10.9493 27.024 10.8C26.6827 10.6507 26.336 10.4533 25.984 10.208C25.6427 9.952 25.3813 9.632 25.2 9.248C25.0187 8.864 24.928 8.416 24.928 7.904C24.928 6.89067 25.2853 6.08533 26 5.488C26.7253 4.88 27.5947 4.576 28.608 4.576C29.5147 4.576 30.3093 4.8 30.992 5.248C31.6853 5.68533 32.224 6.29867 32.608 7.088L30.752 8.16C30.304 7.2 29.5893 6.72 28.608 6.72C28.1493 6.72 27.7867 6.82667 27.52 7.04C27.264 7.24267 27.136 7.50933 27.136 7.84C27.136 8.192 27.28 8.48 27.568 8.704C27.8667 8.91733 28.432 9.152 29.264 9.408C29.6053 9.51467 29.8613 9.6 30.032 9.664C30.2133 9.71733 30.4533 9.808 30.752 9.936C31.0613 10.0533 31.296 10.1653 31.456 10.272C31.6267 10.3787 31.8187 10.5227 32.032 10.704C32.2453 10.8853 32.4053 11.072 32.512 11.264C32.6293 11.456 32.7253 11.6907 32.8 11.968C32.8853 12.2347 32.928 12.528 32.928 12.848C32.928 13.8827 32.5493 14.704 31.792 15.312C31.0453 15.92 30.0693 16.224 28.864 16.224ZM41.3069 15.008C40.4855 15.8187 39.4829 16.224 38.2989 16.224C37.1149 16.224 36.1122 15.8187 35.2909 15.008C34.4802 14.1867 34.0749 13.184 34.0749 12C34.0749 10.816 34.4802 9.81867 35.2909 9.008C36.1122 8.18667 37.1149 7.776 38.2989 7.776C39.4829 7.776 40.4855 8.18667 41.3069 9.008C42.1282 9.81867 42.5389 10.816 42.5389 12C42.5389 13.184 42.1282 14.1867 41.3069 15.008ZM36.7469 13.584C37.1629 14 37.6802 14.208 38.2989 14.208C38.9175 14.208 39.4349 14 39.8509 13.584C40.2669 13.168 40.4749 12.64 40.4749 12C40.4749 11.36 40.2669 10.832 39.8509 10.416C39.4349 10 38.9175 9.792 38.2989 9.792C37.6802 9.792 37.1629 10 36.7469 10.416C36.3415 10.832 36.1389 11.36 36.1389 12C36.1389 12.64 36.3415 13.168 36.7469 13.584ZM43.9909 16V4.32H46.0549V16H43.9909ZM53.224 8H55.288V16H53.224V15.104C52.7227 15.8507 51.928 16.224 50.84 16.224C49.9653 16.224 49.24 15.9307 48.664 15.344C48.0987 14.7573 47.816 13.9467 47.816 12.912V8H49.88V12.656C49.88 13.1893 50.024 13.6 50.312 13.888C50.6 14.1653 50.984 14.304 51.464 14.304C51.9973 14.304 52.424 14.1387 52.744 13.808C53.064 13.4773 53.224 12.9813 53.224 12.32V8ZM61.7544 9.984H59.9464V13.312C59.9464 13.5893 60.0157 13.792 60.1544 13.92C60.293 14.048 60.4957 14.1227 60.7624 14.144C61.029 14.1547 61.3597 14.1493 61.7544 14.128V16C60.3357 16.16 59.333 16.0267 58.7464 15.6C58.1704 15.1733 57.8824 14.4107 57.8824 13.312V9.984H56.4904V8H57.8824V6.384L59.9464 5.76V8H61.7544V9.984ZM64.2336 7.04C63.8923 7.04 63.5936 6.91733 63.3376 6.672C63.0923 6.416 62.9696 6.11733 62.9696 5.776C62.9696 5.43467 63.0923 5.136 63.3376 4.88C63.5936 4.624 63.8923 4.496 64.2336 4.496C64.5856 4.496 64.8843 4.624 65.1296 4.88C65.3856 5.136 65.5136 5.43467 65.5136 5.776C65.5136 6.11733 65.3856 6.416 65.1296 6.672C64.8843 6.91733 64.5856 7.04 64.2336 7.04ZM63.2096 16V8H65.2736V16H63.2096ZM73.9788 15.008C73.1574 15.8187 72.1548 16.224 70.9708 16.224C69.7868 16.224 68.7841 15.8187 67.9628 15.008C67.1521 14.1867 66.7467 13.184 66.7467 12C66.7467 10.816 67.1521 9.81867 67.9628 9.008C68.7841 8.18667 69.7868 7.776 70.9708 7.776C72.1548 7.776 73.1574 8.18667 73.9788 9.008C74.8001 9.81867 75.2108 10.816 75.2108 12C75.2108 13.184 74.8001 14.1867 73.9788 15.008ZM69.4188 13.584C69.8348 14 70.3521 14.208 70.9708 14.208C71.5894 14.208 72.1068 14 72.5228 13.584C72.9388 13.168 73.1468 12.64 73.1468 12C73.1468 11.36 72.9388 10.832 72.5228 10.416C72.1068 10 71.5894 9.792 70.9708 9.792C70.3521 9.792 69.8348 10 69.4188 10.416C69.0134 10.832 68.8108 11.36 68.8108 12C68.8108 12.64 69.0134 13.168 69.4188 13.584ZM81.1108 7.776C81.9854 7.776 82.7054 8.06933 83.2708 8.656C83.8468 9.24267 84.1348 10.0533 84.1348 11.088V16H82.0708V11.344C82.0708 10.8107 81.9268 10.4053 81.6388 10.128C81.3508 9.84 80.9668 9.696 80.4868 9.696C79.9534 9.696 79.5268 9.86133 79.2068 10.192C78.8868 10.5227 78.7268 11.0187 78.7268 11.68V16H76.6628V8H78.7268V8.896C79.2281 8.14933 80.0228 7.776 81.1108 7.776ZM87.8011 10.272C87.8011 10.4853 87.9398 10.6613 88.2171 10.8C88.5051 10.928 88.8518 11.0453 89.2571 11.152C89.6625 11.248 90.0678 11.376 90.4731 11.536C90.8785 11.6853 91.2198 11.9413 91.4971 12.304C91.7851 12.6667 91.9291 13.12 91.9291 13.664C91.9291 14.4853 91.6198 15.12 91.0011 15.568C90.3931 16.0053 89.6305 16.224 88.7131 16.224C87.0705 16.224 85.9505 15.5893 85.3531 14.32L87.1451 13.312C87.3798 14.0053 87.9025 14.352 88.7131 14.352C89.4491 14.352 89.8171 14.1227 89.8171 13.664C89.8171 13.4507 89.6731 13.28 89.3851 13.152C89.1078 13.0133 88.7665 12.8907 88.3611 12.784C87.9558 12.6773 87.5505 12.544 87.1451 12.384C86.7398 12.224 86.3931 11.9733 86.1051 11.632C85.8278 11.28 85.6891 10.8427 85.6891 10.32C85.6891 9.53067 85.9771 8.912 86.5531 8.464C87.1398 8.00533 87.8651 7.776 88.7291 7.776C89.3798 7.776 89.9718 7.92533 90.5051 8.224C91.0385 8.512 91.4598 8.928 91.7691 9.472L90.0091 10.432C89.7531 9.888 89.3265 9.616 88.7291 9.616C88.4625 9.616 88.2385 9.67467 88.0571 9.792C87.8865 9.90933 87.8011 10.0693 87.8011 10.272Z" fill="#071827"/>
<path d="M28.816 48.208C27.7707 48.208 26.8747 47.9627 26.128 47.472C25.392 46.9813 24.8747 46.3093 24.576 45.456L25.856 44.72C26.2933 46.0747 27.2907 46.752 28.848 46.752C29.616 46.752 30.2027 46.5973 30.608 46.288C31.0133 45.968 31.216 45.5467 31.216 45.024C31.216 44.4907 31.0133 44.0907 30.608 43.824C30.2027 43.5573 29.5253 43.2747 28.576 42.976C28.1067 42.8267 27.7493 42.7093 27.504 42.624C27.2587 42.528 26.9493 42.3893 26.576 42.208C26.2133 42.016 25.9413 41.824 25.76 41.632C25.5787 41.4293 25.4133 41.168 25.264 40.848C25.1253 40.528 25.056 40.1653 25.056 39.76C25.056 38.7893 25.3973 38.0213 26.08 37.456C26.7627 36.88 27.5947 36.592 28.576 36.592C29.4613 36.592 30.2293 36.816 30.88 37.264C31.5413 37.712 32.0373 38.304 32.368 39.04L31.12 39.76C30.64 38.608 29.792 38.032 28.576 38.032C27.968 38.032 27.4773 38.1813 27.104 38.48C26.7307 38.7787 26.544 39.184 26.544 39.696C26.544 40.1867 26.72 40.56 27.072 40.816C27.424 41.072 28.032 41.3387 28.896 41.616C29.2053 41.712 29.424 41.7813 29.552 41.824C29.68 41.8667 29.8773 41.9413 30.144 42.048C30.4213 42.1547 30.624 42.24 30.752 42.304C30.88 42.368 31.0507 42.4587 31.264 42.576C31.488 42.6933 31.6533 42.8053 31.76 42.912C31.8667 43.0187 31.9893 43.152 32.128 43.312C32.2773 43.4613 32.384 43.616 32.448 43.776C32.512 43.936 32.5653 44.1227 32.608 44.336C32.6613 44.5387 32.688 44.7573 32.688 44.992C32.688 45.9733 32.3307 46.7573 31.616 47.344C30.9013 47.92 29.968 48.208 28.816 48.208ZM41.2455 46.992C40.4242 47.8027 39.4268 48.208 38.2535 48.208C37.0802 48.208 36.0828 47.8027 35.2615 46.992C34.4508 46.1813 34.0455 45.184 34.0455 44C34.0455 42.816 34.4508 41.8187 35.2615 41.008C36.0828 40.1973 37.0802 39.792 38.2535 39.792C39.4268 39.792 40.4242 40.1973 41.2455 41.008C42.0668 41.8187 42.4775 42.816 42.4775 44C42.4775 45.184 42.0668 46.1813 41.2455 46.992ZM38.2535 46.848C39.0535 46.848 39.7255 46.576 40.2695 46.032C40.8135 45.488 41.0855 44.8107 41.0855 44C41.0855 43.1893 40.8135 42.512 40.2695 41.968C39.7255 41.424 39.0535 41.152 38.2535 41.152C37.4642 41.152 36.7975 41.424 36.2535 41.968C35.7095 42.512 35.4375 43.1893 35.4375 44C35.4375 44.8107 35.7095 45.488 36.2535 46.032C36.7975 46.576 37.4642 46.848 38.2535 46.848ZM47.8785 48.208C46.6732 48.208 45.6705 47.808 44.8705 47.008C44.0705 46.1973 43.6705 45.1947 43.6705 44C43.6705 42.8053 44.0705 41.808 44.8705 41.008C45.6705 40.1973 46.6732 39.792 47.8785 39.792C48.6678 39.792 49.3772 39.984 50.0065 40.368C50.6358 40.7413 51.1052 41.248 51.4145 41.888L50.2465 42.56C50.0438 42.1333 49.7292 41.792 49.3025 41.536C48.8865 41.28 48.4118 41.152 47.8785 41.152C47.0785 41.152 46.4065 41.424 45.8625 41.968C45.3292 42.512 45.0625 43.1893 45.0625 44C45.0625 44.8 45.3292 45.472 45.8625 46.016C46.4065 46.56 47.0785 46.832 47.8785 46.832C48.4118 46.832 48.8918 46.7093 49.3185 46.464C49.7452 46.208 50.0705 45.8667 50.2945 45.44L51.4785 46.128C51.1372 46.7573 50.6465 47.264 50.0065 47.648C49.3665 48.0213 48.6572 48.208 47.8785 48.208ZM53.5569 38.544C53.2902 38.544 53.0662 38.4533 52.8849 38.272C52.7035 38.0907 52.6129 37.872 52.6129 37.616C52.6129 37.36 52.7035 37.1413 52.8849 36.96C53.0662 36.768 53.2902 36.672 53.5569 36.672C53.8129 36.672 54.0315 36.768 54.2129 36.96C54.3942 37.1413 54.4849 37.36 54.4849 37.616C54.4849 37.872 54.3942 38.0907 54.2129 38.272C54.0315 38.4533 53.8129 38.544 53.5569 38.544ZM52.8529 48V40H54.2449V48H52.8529ZM62.9925 40H64.3845V48H62.9925V46.624C62.2992 47.68 61.2912 48.208 59.9685 48.208C58.8485 48.208 57.8938 47.8027 57.1045 46.992C56.3152 46.1707 55.9205 45.1733 55.9205 44C55.9205 42.8267 56.3152 41.8347 57.1045 41.024C57.8938 40.2027 58.8485 39.792 59.9685 39.792C61.2912 39.792 62.2992 40.32 62.9925 41.376V40ZM60.1445 46.864C60.9552 46.864 61.6325 46.592 62.1765 46.048C62.7205 45.4933 62.9925 44.8107 62.9925 44C62.9925 43.1893 62.7205 42.512 62.1765 41.968C61.6325 41.4133 60.9552 41.136 60.1445 41.136C59.3445 41.136 58.6725 41.4133 58.1285 41.968C57.5845 42.512 57.3125 43.1893 57.3125 44C57.3125 44.8107 57.5845 45.4933 58.1285 46.048C58.6725 46.592 59.3445 46.864 60.1445 46.864ZM66.4935 48V36.32H67.8855V48H66.4935ZM84.6331 36.8V48H83.1611V39.248L79.4971 45.344H79.3051L75.6411 39.264V48H74.1531V36.8H75.8331L79.4011 42.72L82.9531 36.8H84.6331ZM87.8601 44.64C87.9988 45.3547 88.3241 45.9093 88.8361 46.304C89.3588 46.6987 89.9988 46.896 90.7561 46.896C91.8121 46.896 92.5801 46.5067 93.0601 45.728L94.2441 46.4C93.4655 47.6053 92.2921 48.208 90.7241 48.208C89.4548 48.208 88.4201 47.8133 87.6201 47.024C86.8308 46.224 86.4361 45.216 86.4361 44C86.4361 42.7947 86.8255 41.792 87.6041 40.992C88.3828 40.192 89.3908 39.792 90.6281 39.792C91.8015 39.792 92.7561 40.208 93.4921 41.04C94.2388 41.8613 94.6121 42.8533 94.6121 44.016C94.6121 44.2187 94.5961 44.4267 94.5641 44.64H87.8601ZM90.6281 41.104C89.8815 41.104 89.2628 41.3173 88.7721 41.744C88.2815 42.16 87.9775 42.72 87.8601 43.424H93.2041C93.0868 42.6667 92.7881 42.0907 92.3081 41.696C91.8281 41.3013 91.2681 41.104 90.6281 41.104ZM102.821 36.8H104.213V48H102.821V46.624C102.127 47.68 101.119 48.208 99.7966 48.208C98.6766 48.208 97.722 47.8027 96.9326 46.992C96.1433 46.1707 95.7486 45.1733 95.7486 44C95.7486 42.8267 96.1433 41.8347 96.9326 41.024C97.722 40.2027 98.6766 39.792 99.7966 39.792C101.119 39.792 102.127 40.32 102.821 41.376V36.8ZM99.9726 46.864C100.783 46.864 101.461 46.592 102.005 46.048C102.549 45.4933 102.821 44.8107 102.821 44C102.821 43.1893 102.549 42.512 102.005 41.968C101.461 41.4133 100.783 41.136 99.9726 41.136C99.1726 41.136 98.5006 41.4133 97.9566 41.968C97.4126 42.512 97.1406 43.1893 97.1406 44C97.1406 44.8107 97.4126 45.4933 97.9566 46.048C98.5006 46.592 99.1726 46.864 99.9726 46.864ZM107.026 38.544C106.759 38.544 106.535 38.4533 106.354 38.272C106.172 38.0907 106.082 37.872 106.082 37.616C106.082 37.36 106.172 37.1413 106.354 36.96C106.535 36.768 106.759 36.672 107.026 36.672C107.282 36.672 107.5 36.768 107.682 36.96C107.863 37.1413 107.954 37.36 107.954 37.616C107.954 37.872 107.863 38.0907 107.682 38.272C107.5 38.4533 107.282 38.544 107.026 38.544ZM106.322 48V40H107.714V48H106.322ZM116.461 40H117.853V48H116.461V46.624C115.768 47.68 114.76 48.208 113.437 48.208C112.317 48.208 111.363 47.8027 110.573 46.992C109.784 46.1707 109.389 45.1733 109.389 44C109.389 42.8267 109.784 41.8347 110.573 41.024C111.363 40.2027 112.317 39.792 113.437 39.792C114.76 39.792 115.768 40.32 116.461 41.376V40ZM113.613 46.864C114.424 46.864 115.101 46.592 115.645 46.048C116.189 45.4933 116.461 44.8107 116.461 44C116.461 43.1893 116.189 42.512 115.645 41.968C115.101 41.4133 114.424 41.136 113.613 41.136C112.813 41.136 112.141 41.4133 111.597 41.968C111.053 42.512 110.781 43.1893 110.781 44C110.781 44.8107 111.053 45.4933 111.597 46.048C112.141 46.592 112.813 46.864 113.613 46.864ZM29.568 60.8C31.0933 60.8 32.3573 61.344 33.36 62.432C34.3733 63.5093 34.88 64.832 34.88 66.4C34.88 67.968 34.3733 69.296 33.36 70.384C32.3573 71.4613 31.0933 72 29.568 72H25.2V60.8H29.568ZM29.568 70.592C30.7093 70.592 31.6427 70.192 32.368 69.392C33.0933 68.592 33.456 67.5947 33.456 66.4C33.456 65.2053 33.0933 64.208 32.368 63.408C31.6427 62.608 30.7093 62.208 29.568 62.208H26.688V70.592H29.568ZM37.2444 62.544C36.9777 62.544 36.7537 62.4533 36.5724 62.272C36.391 62.0907 36.3004 61.872 36.3004 61.616C36.3004 61.36 36.391 61.1413 36.5724 60.96C36.7537 60.768 36.9777 60.672 37.2444 60.672C37.5004 60.672 37.719 60.768 37.9004 60.96C38.0817 61.1413 38.1724 61.36 38.1724 61.616C38.1724 61.872 38.0817 62.0907 37.9004 62.272C37.719 62.4533 37.5004 62.544 37.2444 62.544ZM36.5404 72V64H37.9324V72H36.5404ZM46.696 64H48.072V71.664C48.072 72.848 47.672 73.7653 46.872 74.416C46.072 75.0773 45.112 75.408 43.992 75.408C43.096 75.408 42.3227 75.2373 41.672 74.896C41.0213 74.5653 40.5307 74.0853 40.2 73.456L41.416 72.768C41.8533 73.664 42.7227 74.112 44.024 74.112C44.856 74.112 45.5067 73.8933 45.976 73.456C46.456 73.0187 46.696 72.4213 46.696 71.664V70.528C45.992 71.5947 44.9893 72.128 43.688 72.128C42.5467 72.128 41.5813 71.7227 40.792 70.912C40.0027 70.1013 39.608 69.1147 39.608 67.952C39.608 66.7893 40.0027 65.808 40.792 65.008C41.5813 64.1973 42.5467 63.792 43.688 63.792C45 63.792 46.0027 64.32 46.696 65.376V64ZM41.816 69.984C42.36 70.528 43.0373 70.8 43.848 70.8C44.6587 70.8 45.336 70.528 45.88 69.984C46.424 69.44 46.696 68.7627 46.696 67.952C46.696 67.152 46.424 66.48 45.88 65.936C45.336 65.392 44.6587 65.12 43.848 65.12C43.0373 65.12 42.36 65.392 41.816 65.936C41.272 66.48 41 67.152 41 67.952C41 68.7627 41.272 69.44 41.816 69.984ZM50.885 62.544C50.6183 62.544 50.3943 62.4533 50.213 62.272C50.0317 62.0907 49.941 61.872 49.941 61.616C49.941 61.36 50.0317 61.1413 50.213 60.96C50.3943 60.768 50.6183 60.672 50.885 60.672C51.141 60.672 51.3597 60.768 51.541 60.96C51.7223 61.1413 51.813 61.36 51.813 61.616C51.813 61.872 51.7223 62.0907 51.541 62.272C51.3597 62.4533 51.141 62.544 50.885 62.544ZM50.181 72V64H51.573V72H50.181ZM58.0486 65.344H55.9206V69.68C55.9206 70.0747 55.9953 70.3573 56.1446 70.528C56.3046 70.688 56.5446 70.7733 56.8646 70.784C57.1846 70.784 57.5793 70.7733 58.0486 70.752V72C56.8326 72.16 55.942 72.064 55.3766 71.712C54.8113 71.3493 54.5286 70.672 54.5286 69.68V65.344H52.9446V64H54.5286V62.176L55.9206 61.76V64H58.0486V65.344ZM65.9144 64H67.3064V72H65.9144V70.624C65.221 71.68 64.213 72.208 62.8904 72.208C61.7704 72.208 60.8157 71.8027 60.0264 70.992C59.237 70.1707 58.8424 69.1733 58.8424 68C58.8424 66.8267 59.237 65.8347 60.0264 65.024C60.8157 64.2027 61.7704 63.792 62.8904 63.792C64.213 63.792 65.221 64.32 65.9144 65.376V64ZM63.0664 70.864C63.877 70.864 64.5544 70.592 65.0984 70.048C65.6424 69.4933 65.9144 68.8107 65.9144 68C65.9144 67.1893 65.6424 66.512 65.0984 65.968C64.5544 65.4133 63.877 65.136 63.0664 65.136C62.2664 65.136 61.5944 65.4133 61.0504 65.968C60.5064 66.512 60.2344 67.1893 60.2344 68C60.2344 68.8107 60.5064 69.4933 61.0504 70.048C61.5944 70.592 62.2664 70.864 63.0664 70.864ZM69.4154 72V60.32H70.8074V72H69.4154ZM87.555 60.8V72H86.083V63.248L82.419 69.344H82.227L78.563 63.264V72H77.075V60.8H78.755L82.323 66.72L85.875 60.8H87.555ZM96.43 64H97.822V72H96.43V70.624C95.7367 71.68 94.7287 72.208 93.406 72.208C92.286 72.208 91.3313 71.8027 90.542 70.992C89.7527 70.1707 89.358 69.1733 89.358 68C89.358 66.8267 89.7527 65.8347 90.542 65.024C91.3313 64.2027 92.286 63.792 93.406 63.792C94.7287 63.792 95.7367 64.32 96.43 65.376V64ZM93.582 70.864C94.3927 70.864 95.07 70.592 95.614 70.048C96.158 69.4933 96.43 68.8107 96.43 68C96.43 67.1893 96.158 66.512 95.614 65.968C95.07 65.4133 94.3927 65.136 93.582 65.136C92.782 65.136 92.11 65.4133 91.566 65.968C91.022 66.512 90.75 67.1893 90.75 68C90.75 68.8107 91.022 69.4933 91.566 70.048C92.11 70.592 92.782 70.864 93.582 70.864ZM101.323 65.344C101.782 64.352 102.614 63.856 103.819 63.856V65.312C103.136 65.28 102.55 65.4613 102.059 65.856C101.568 66.2507 101.323 66.8853 101.323 67.76V72H99.931V64H101.323V65.344ZM111.949 72H110.221L106.573 68.208V72H105.181V60.8H106.573V67.536L110.029 64H111.821L107.997 67.872L111.949 72ZM113.485 68.64C113.624 69.3547 113.949 69.9093 114.461 70.304C114.984 70.6987 115.624 70.896 116.381 70.896C117.437 70.896 118.205 70.5067 118.685 69.728L119.869 70.4C119.09 71.6053 117.917 72.208 116.349 72.208C115.08 72.208 114.045 71.8133 113.245 71.024C112.456 70.224 112.061 69.216 112.061 68C112.061 66.7947 112.45 65.792 113.229 64.992C114.008 64.192 115.016 63.792 116.253 63.792C117.426 63.792 118.381 64.208 119.117 65.04C119.864 65.8613 120.237 66.8533 120.237 68.016C120.237 68.2187 120.221 68.4267 120.189 68.64H113.485ZM116.253 65.104C115.506 65.104 114.888 65.3173 114.397 65.744C113.906 66.16 113.602 66.72 113.485 67.424H118.829C118.712 66.6667 118.413 66.0907 117.933 65.696C117.453 65.3013 116.893 65.104 116.253 65.104ZM125.955 65.344H123.827V69.68C123.827 70.0747 123.902 70.3573 124.051 70.528C124.211 70.688 124.451 70.7733 124.771 70.784C125.091 70.784 125.486 70.7733 125.955 70.752V72C124.739 72.16 123.848 72.064 123.283 71.712C122.718 71.3493 122.435 70.672 122.435 69.68V65.344H120.851V64H122.435V62.176L123.827 61.76V64H125.955V65.344ZM128.307 62.544C128.04 62.544 127.816 62.4533 127.635 62.272C127.454 62.0907 127.363 61.872 127.363 61.616C127.363 61.36 127.454 61.1413 127.635 60.96C127.816 60.768 128.04 60.672 128.307 60.672C128.563 60.672 128.782 60.768 128.963 60.96C129.144 61.1413 129.235 61.36 129.235 61.616C129.235 61.872 129.144 62.0907 128.963 62.272C128.782 62.4533 128.563 62.544 128.307 62.544ZM127.603 72V64H128.995V72H127.603ZM135.103 63.792C136.041 63.792 136.793 64.0907 137.359 64.688C137.924 65.2747 138.207 66.0747 138.207 67.088V72H136.815V67.168C136.815 66.5173 136.639 66.016 136.287 65.664C135.935 65.3013 135.449 65.12 134.831 65.12C134.137 65.12 133.577 65.3387 133.151 65.776C132.724 66.2027 132.511 66.864 132.511 67.76V72H131.118V64H132.511V65.152C133.076 64.2453 133.94 63.792 135.103 63.792ZM146.79 64H148.166V71.664C148.166 72.848 147.766 73.7653 146.966 74.416C146.166 75.0773 145.206 75.408 144.086 75.408C143.19 75.408 142.416 75.2373 141.766 74.896C141.115 74.5653 140.624 74.0853 140.294 73.456L141.51 72.768C141.947 73.664 142.816 74.112 144.118 74.112C144.95 74.112 145.6 73.8933 146.07 73.456C146.55 73.0187 146.79 72.4213 146.79 71.664V70.528C146.086 71.5947 145.083 72.128 143.782 72.128C142.64 72.128 141.675 71.7227 140.886 70.912C140.096 70.1013 139.702 69.1147 139.702 67.952C139.702 66.7893 140.096 65.808 140.886 65.008C141.675 64.1973 142.64 63.792 143.782 63.792C145.094 63.792 146.096 64.32 146.79 65.376V64ZM141.91 69.984C142.454 70.528 143.131 70.8 143.942 70.8C144.752 70.8 145.43 70.528 145.974 69.984C146.518 69.44 146.79 68.7627 146.79 67.952C146.79 67.152 146.518 66.48 145.974 65.936C145.43 65.392 144.752 65.12 143.942 65.12C143.131 65.12 142.454 65.392 141.91 65.936C141.366 66.48 141.094 67.152 141.094 67.952C141.094 68.7627 141.366 69.44 141.91 69.984ZM30.464 96.208C28.768 96.208 27.3653 95.648 26.256 94.528C25.1573 93.408 24.608 92.032 24.608 90.4C24.608 88.768 25.1573 87.392 26.256 86.272C27.3653 85.152 28.768 84.592 30.464 84.592C31.488 84.592 32.4267 84.8373 33.28 85.328C34.144 85.8187 34.816 86.48 35.296 87.312L34 88.064C33.68 87.4453 33.2 86.9547 32.56 86.592C31.9307 86.2187 31.232 86.032 30.464 86.032C29.1733 86.032 28.1173 86.448 27.296 87.28C26.4853 88.112 26.08 89.152 26.08 90.4C26.08 91.6373 26.4853 92.672 27.296 93.504C28.1173 94.336 29.1733 94.752 30.464 94.752C31.232 94.752 31.9307 94.5707 32.56 94.208C33.2 93.8347 33.68 93.344 34 92.736L35.296 93.472C34.8267 94.304 34.16 94.9707 33.296 95.472C32.432 95.9627 31.488 96.208 30.464 96.208ZM42.4041 88H43.7961V96H42.4041V94.848C41.8388 95.7547 40.9748 96.208 39.8121 96.208C38.8735 96.208 38.1215 95.9147 37.5561 95.328C36.9908 94.7307 36.7081 93.9253 36.7081 92.912V88H38.1001V92.832C38.1001 93.4827 38.2761 93.9893 38.6281 94.352C38.9801 94.704 39.4655 94.88 40.0841 94.88C40.7775 94.88 41.3375 94.6667 41.7641 94.24C42.1908 93.8027 42.4041 93.136 42.4041 92.24V88ZM47.0998 90.16C47.0998 90.4693 47.2544 90.72 47.5638 90.912C47.8731 91.0933 48.2464 91.2427 48.6838 91.36C49.1211 91.4667 49.5584 91.5947 49.9958 91.744C50.4331 91.8827 50.8064 92.128 51.1158 92.48C51.4251 92.8213 51.5798 93.264 51.5798 93.808C51.5798 94.5333 51.2971 95.1147 50.7318 95.552C50.1771 95.9893 49.4624 96.208 48.5878 96.208C47.8091 96.208 47.1424 96.0373 46.5878 95.696C46.0331 95.3547 45.6384 94.9013 45.4038 94.336L46.6038 93.648C46.7318 94.032 46.9718 94.336 47.3238 94.56C47.6758 94.784 48.0971 94.896 48.5878 94.896C49.0464 94.896 49.4251 94.8107 49.7238 94.64C50.0224 94.4587 50.1718 94.1813 50.1718 93.808C50.1718 93.4987 50.0171 93.2533 49.7078 93.072C49.3984 92.88 49.0251 92.7307 48.5878 92.624C48.1504 92.5067 47.7131 92.3733 47.2758 92.224C46.8384 92.0747 46.4651 91.8293 46.1558 91.488C45.8464 91.1467 45.6918 90.7093 45.6918 90.176C45.6918 89.4827 45.9584 88.912 46.4918 88.464C47.0358 88.016 47.7131 87.792 48.5238 87.792C49.1744 87.792 49.7504 87.9413 50.2518 88.24C50.7638 88.528 51.1478 88.9333 51.4038 89.456L50.2358 90.112C49.9478 89.4293 49.3771 89.088 48.5238 89.088C48.1291 89.088 47.7931 89.184 47.5158 89.376C47.2384 89.5573 47.0998 89.8187 47.0998 90.16ZM57.2674 89.344H55.1394V93.68C55.1394 94.0747 55.214 94.3573 55.3634 94.528C55.5234 94.688 55.7634 94.7733 56.0834 94.784C56.4034 94.784 56.798 94.7733 57.2674 94.752V96C56.0514 96.16 55.1607 96.064 54.5954 95.712C54.03 95.3493 53.7474 94.672 53.7474 93.68V89.344H52.1634V88H53.7474V86.176L55.1394 85.76V88H57.2674V89.344ZM65.2611 94.992C64.4398 95.8027 63.4425 96.208 62.2691 96.208C61.0958 96.208 60.0985 95.8027 59.2771 94.992C58.4665 94.1813 58.0611 93.184 58.0611 92C58.0611 90.816 58.4665 89.8187 59.2771 89.008C60.0985 88.1973 61.0958 87.792 62.2691 87.792C63.4425 87.792 64.4398 88.1973 65.2611 89.008C66.0825 89.8187 66.4931 90.816 66.4931 92C66.4931 93.184 66.0825 94.1813 65.2611 94.992ZM62.2691 94.848C63.0691 94.848 63.7411 94.576 64.2851 94.032C64.8291 93.488 65.1011 92.8107 65.1011 92C65.1011 91.1893 64.8291 90.512 64.2851 89.968C63.7411 89.424 63.0691 89.152 62.2691 89.152C61.4798 89.152 60.8131 89.424 60.2691 89.968C59.7251 90.512 59.4531 91.1893 59.4531 92C59.4531 92.8107 59.7251 93.488 60.2691 94.032C60.8131 94.576 61.4798 94.848 62.2691 94.848ZM76.7741 87.792C77.6701 87.792 78.3955 88.0853 78.9501 88.672C79.5048 89.248 79.7821 90.032 79.7821 91.024V96H78.3901V91.072C78.3901 90.4533 78.2301 89.9733 77.9101 89.632C77.5901 89.2907 77.1635 89.12 76.6301 89.12C76.0328 89.12 75.5528 89.3227 75.1901 89.728C74.8381 90.1227 74.6621 90.7307 74.6621 91.552V96H73.2701V91.072C73.2701 90.4533 73.1155 89.9733 72.8061 89.632C72.5075 89.2907 72.0968 89.12 71.5741 89.12C70.9875 89.12 70.4968 89.3227 70.1021 89.728C69.7181 90.1333 69.5261 90.7413 69.5261 91.552V96H68.1341V88H69.5261V89.072C70.0701 88.2187 70.8648 87.792 71.9101 87.792C72.9875 87.792 73.7715 88.2453 74.2621 89.152C74.8168 88.2453 75.6541 87.792 76.7741 87.792ZM82.6883 92.64C82.8269 93.3547 83.1523 93.9093 83.6643 94.304C84.1869 94.6987 84.8269 94.896 85.5843 94.896C86.6403 94.896 87.4083 94.5067 87.8883 93.728L89.0723 94.4C88.2936 95.6053 87.1203 96.208 85.5523 96.208C84.2829 96.208 83.2483 95.8133 82.4483 95.024C81.6589 94.224 81.2643 93.216 81.2643 92C81.2643 90.7947 81.6536 89.792 82.4323 88.992C83.2109 88.192 84.2189 87.792 85.4563 87.792C86.6296 87.792 87.5843 88.208 88.3203 89.04C89.0669 89.8613 89.4403 90.8533 89.4403 92.016C89.4403 92.2187 89.4243 92.4267 89.3923 92.64H82.6883ZM85.4563 89.104C84.7096 89.104 84.0909 89.3173 83.6003 89.744C83.1096 90.16 82.8056 90.72 82.6883 91.424H88.0323C87.9149 90.6667 87.6163 90.0907 87.1363 89.696C86.6563 89.3013 86.0963 89.104 85.4563 89.104ZM92.4324 89.344C92.891 88.352 93.723 87.856 94.9284 87.856V89.312C94.2457 89.28 93.659 89.4613 93.1684 89.856C92.6777 90.2507 92.4324 90.8853 92.4324 91.76V96H91.0404V88H92.4324V89.344ZM104.05 96.208C103.005 96.208 102.109 95.9627 101.362 95.472C100.626 94.9813 100.109 94.3093 99.8104 93.456L101.09 92.72C101.528 94.0747 102.525 94.752 104.082 94.752C104.85 94.752 105.437 94.5973 105.842 94.288C106.248 93.968 106.45 93.5467 106.45 93.024C106.45 92.4907 106.248 92.0907 105.842 91.824C105.437 91.5573 104.76 91.2747 103.81 90.976C103.341 90.8267 102.984 90.7093 102.738 90.624C102.493 90.528 102.184 90.3893 101.81 90.208C101.448 90.016 101.176 89.824 100.994 89.632C100.813 89.4293 100.648 89.168 100.498 88.848C100.36 88.528 100.29 88.1653 100.29 87.76C100.29 86.7893 100.632 86.0213 101.314 85.456C101.997 84.88 102.829 84.592 103.81 84.592C104.696 84.592 105.464 84.816 106.114 85.264C106.776 85.712 107.272 86.304 107.602 87.04L106.354 87.76C105.874 86.608 105.026 86.032 103.81 86.032C103.202 86.032 102.712 86.1813 102.338 86.48C101.965 86.7787 101.778 87.184 101.778 87.696C101.778 88.1867 101.954 88.56 102.306 88.816C102.658 89.072 103.266 89.3387 104.13 89.616C104.44 89.712 104.658 89.7813 104.786 89.824C104.914 89.8667 105.112 89.9413 105.378 90.048C105.656 90.1547 105.858 90.24 105.986 90.304C106.114 90.368 106.285 90.4587 106.498 90.576C106.722 90.6933 106.888 90.8053 106.994 90.912C107.101 91.0187 107.224 91.152 107.362 91.312C107.512 91.4613 107.618 91.616 107.682 91.776C107.746 91.936 107.8 92.1227 107.842 92.336C107.896 92.5387 107.922 92.7573 107.922 92.992C107.922 93.9733 107.565 94.7573 106.85 95.344C106.136 95.92 105.202 96.208 104.05 96.208ZM110.704 92.64C110.843 93.3547 111.168 93.9093 111.68 94.304C112.203 94.6987 112.843 94.896 113.6 94.896C114.656 94.896 115.424 94.5067 115.904 93.728L117.088 94.4C116.309 95.6053 115.136 96.208 113.568 96.208C112.299 96.208 111.264 95.8133 110.464 95.024C109.675 94.224 109.28 93.216 109.28 92C109.28 90.7947 109.669 89.792 110.448 88.992C111.227 88.192 112.235 87.792 113.472 87.792C114.645 87.792 115.6 88.208 116.336 89.04C117.083 89.8613 117.456 90.8533 117.456 92.016C117.456 92.2187 117.44 92.4267 117.408 92.64H110.704ZM113.472 89.104C112.725 89.104 112.107 89.3173 111.616 89.744C111.125 90.16 110.821 90.72 110.704 91.424H116.048C115.931 90.6667 115.632 90.0907 115.152 89.696C114.672 89.3013 114.112 89.104 113.472 89.104ZM120.448 89.344C120.907 88.352 121.739 87.856 122.944 87.856V89.312C122.261 89.28 121.675 89.4613 121.184 89.856C120.693 90.2507 120.448 90.8853 120.448 91.76V96H119.056V88H120.448V89.344ZM129.906 88H131.41L128.21 96H126.578L123.378 88H124.882L127.394 94.512L129.906 88ZM133.291 86.544C133.025 86.544 132.801 86.4533 132.619 86.272C132.438 86.0907 132.347 85.872 132.347 85.616C132.347 85.36 132.438 85.1413 132.619 84.96C132.801 84.768 133.025 84.672 133.291 84.672C133.547 84.672 133.766 84.768 133.947 84.96C134.129 85.1413 134.219 85.36 134.219 85.616C134.219 85.872 134.129 86.0907 133.947 86.272C133.766 86.4533 133.547 86.544 133.291 86.544ZM132.587 96V88H133.979V96H132.587ZM139.863 96.208C138.658 96.208 137.655 95.808 136.855 95.008C136.055 94.1973 135.655 93.1947 135.655 92C135.655 90.8053 136.055 89.808 136.855 89.008C137.655 88.1973 138.658 87.792 139.863 87.792C140.652 87.792 141.362 87.984 141.991 88.368C142.62 88.7413 143.09 89.248 143.399 89.888L142.231 90.56C142.028 90.1333 141.714 89.792 141.287 89.536C140.871 89.28 140.396 89.152 139.863 89.152C139.063 89.152 138.391 89.424 137.847 89.968C137.314 90.512 137.047 91.1893 137.047 92C137.047 92.8 137.314 93.472 137.847 94.016C138.391 94.56 139.063 94.832 139.863 94.832C140.396 94.832 140.876 94.7093 141.303 94.464C141.73 94.208 142.055 93.8667 142.279 93.44L143.463 94.128C143.122 94.7573 142.631 95.264 141.991 95.648C141.351 96.0213 140.642 96.208 139.863 96.208ZM145.704 92.64C145.843 93.3547 146.168 93.9093 146.68 94.304C147.203 94.6987 147.843 94.896 148.6 94.896C149.656 94.896 150.424 94.5067 150.904 93.728L152.088 94.4C151.309 95.6053 150.136 96.208 148.568 96.208C147.299 96.208 146.264 95.8133 145.464 95.024C144.675 94.224 144.28 93.216 144.28 92C144.28 90.7947 144.669 89.792 145.448 88.992C146.227 88.192 147.235 87.792 148.472 87.792C149.645 87.792 150.6 88.208 151.336 89.04C152.083 89.8613 152.456 90.8533 152.456 92.016C152.456 92.2187 152.44 92.4267 152.408 92.64H145.704ZM148.472 89.104C147.725 89.104 147.107 89.3173 146.616 89.744C146.125 90.16 145.821 90.72 145.704 91.424H151.048C150.931 90.6667 150.632 90.0907 150.152 89.696C149.672 89.3013 149.112 89.104 148.472 89.104ZM31.648 110.208H26.688V113.84H31.44V115.248H26.688V120H25.2V108.8H31.648V110.208ZM40.058 118.992C39.2367 119.803 38.2393 120.208 37.066 120.208C35.8927 120.208 34.8953 119.803 34.074 118.992C33.2633 118.181 32.858 117.184 32.858 116C32.858 114.816 33.2633 113.819 34.074 113.008C34.8953 112.197 35.8927 111.792 37.066 111.792C38.2393 111.792 39.2367 112.197 40.058 113.008C40.8793 113.819 41.29 114.816 41.29 116C41.29 117.184 40.8793 118.181 40.058 118.992ZM37.066 118.848C37.866 118.848 38.538 118.576 39.082 118.032C39.626 117.488 39.898 116.811 39.898 116C39.898 115.189 39.626 114.512 39.082 113.968C38.538 113.424 37.866 113.152 37.066 113.152C36.2767 113.152 35.61 113.424 35.066 113.968C34.522 114.512 34.25 115.189 34.25 116C34.25 116.811 34.522 117.488 35.066 118.032C35.61 118.576 36.2767 118.848 37.066 118.848ZM44.323 113.344C44.7817 112.352 45.6137 111.856 46.819 111.856V113.312C46.1363 113.28 45.5497 113.461 45.059 113.856C44.5683 114.251 44.323 114.885 44.323 115.76V120H42.931V112H44.323V113.344ZM56.693 108.8C58.2183 108.8 59.4823 109.344 60.485 110.432C61.4983 111.509 62.005 112.832 62.005 114.4C62.005 115.968 61.4983 117.296 60.485 118.384C59.4823 119.461 58.2183 120 56.693 120H52.325V108.8H56.693ZM56.693 118.592C57.8343 118.592 58.7677 118.192 59.493 117.392C60.2183 116.592 60.581 115.595 60.581 114.4C60.581 113.205 60.2183 112.208 59.493 111.408C58.7677 110.608 57.8343 110.208 56.693 110.208H53.813V118.592H56.693ZM64.6414 116.64C64.78 117.355 65.1054 117.909 65.6174 118.304C66.14 118.699 66.78 118.896 67.5374 118.896C68.5934 118.896 69.3614 118.507 69.8414 117.728L71.0254 118.4C70.2467 119.605 69.0734 120.208 67.5054 120.208C66.236 120.208 65.2014 119.813 64.4014 119.024C63.612 118.224 63.2174 117.216 63.2174 116C63.2174 114.795 63.6067 113.792 64.3854 112.992C65.164 112.192 66.172 111.792 67.4094 111.792C68.5827 111.792 69.5374 112.208 70.2734 113.04C71.02 113.861 71.3934 114.853 71.3934 116.016C71.3934 116.219 71.3774 116.427 71.3454 116.64H64.6414ZM67.4094 113.104C66.6627 113.104 66.044 113.317 65.5534 113.744C65.0627 114.16 64.7587 114.72 64.6414 115.424H69.9854C69.868 114.667 69.5694 114.091 69.0894 113.696C68.6094 113.301 68.0494 113.104 67.4094 113.104ZM78.281 112H79.785L76.585 120H74.953L71.753 112H73.257L75.769 118.512L78.281 112ZM81.6258 116.64C81.7644 117.355 82.0898 117.909 82.6018 118.304C83.1244 118.699 83.7644 118.896 84.5218 118.896C85.5778 118.896 86.3458 118.507 86.8258 117.728L88.0098 118.4C87.2311 119.605 86.0578 120.208 84.4898 120.208C83.2204 120.208 82.1858 119.813 81.3858 119.024C80.5964 118.224 80.2018 117.216 80.2018 116C80.2018 114.795 80.5911 113.792 81.3698 112.992C82.1484 112.192 83.1564 111.792 84.3938 111.792C85.5671 111.792 86.5218 112.208 87.2578 113.04C88.0044 113.861 88.3778 114.853 88.3778 116.016C88.3778 116.219 88.3618 116.427 88.3298 116.64H81.6258ZM84.3938 113.104C83.6471 113.104 83.0284 113.317 82.5378 113.744C82.0471 114.16 81.7431 114.72 81.6258 115.424H86.9698C86.8524 114.667 86.5538 114.091 86.0738 113.696C85.5938 113.301 85.0338 113.104 84.3938 113.104ZM89.9779 120V108.32H91.3699V120H89.9779ZM100.246 118.992C99.4242 119.803 98.4268 120.208 97.2535 120.208C96.0802 120.208 95.0828 119.803 94.2615 118.992C93.4508 118.181 93.0455 117.184 93.0455 116C93.0455 114.816 93.4508 113.819 94.2615 113.008C95.0828 112.197 96.0802 111.792 97.2535 111.792C98.4268 111.792 99.4242 112.197 100.246 113.008C101.067 113.819 101.477 114.816 101.477 116C101.477 117.184 101.067 118.181 100.246 118.992ZM97.2535 118.848C98.0535 118.848 98.7255 118.576 99.2695 118.032C99.8135 117.488 100.086 116.811 100.086 116C100.086 115.189 99.8135 114.512 99.2695 113.968C98.7255 113.424 98.0535 113.152 97.2535 113.152C96.4642 113.152 95.7975 113.424 95.2535 113.968C94.7095 114.512 94.4375 115.189 94.4375 116C94.4375 116.811 94.7095 117.488 95.2535 118.032C95.7975 118.576 96.4642 118.848 97.2535 118.848ZM107.535 111.792C108.655 111.792 109.609 112.203 110.399 113.024C111.188 113.835 111.583 114.827 111.583 116C111.583 117.173 111.188 118.171 110.399 118.992C109.609 119.803 108.655 120.208 107.535 120.208C106.212 120.208 105.204 119.68 104.511 118.624V123.2H103.118V112H104.511V113.376C105.204 112.32 106.212 111.792 107.535 111.792ZM107.359 118.864C108.159 118.864 108.831 118.592 109.375 118.048C109.919 117.493 110.191 116.811 110.191 116C110.191 115.189 109.919 114.512 109.375 113.968C108.831 113.413 108.159 113.136 107.359 113.136C106.548 113.136 105.871 113.413 105.327 113.968C104.783 114.512 104.511 115.189 104.511 116C104.511 116.811 104.783 117.493 105.327 118.048C105.871 118.592 106.548 118.864 107.359 118.864ZM114.22 116.64C114.358 117.355 114.684 117.909 115.196 118.304C115.718 118.699 116.358 118.896 117.116 118.896C118.172 118.896 118.94 118.507 119.42 117.728L120.604 118.4C119.825 119.605 118.652 120.208 117.084 120.208C115.814 120.208 114.78 119.813 113.98 119.024C113.19 118.224 112.796 117.216 112.796 116C112.796 114.795 113.185 113.792 113.964 112.992C114.742 112.192 115.75 111.792 116.988 111.792C118.161 111.792 119.116 112.208 119.852 113.04C120.598 113.861 120.972 114.853 120.972 116.016C120.972 116.219 120.956 116.427 120.924 116.64H114.22ZM116.988 113.104C116.241 113.104 115.622 113.317 115.132 113.744C114.641 114.16 114.337 114.72 114.22 115.424H119.564C119.446 114.667 119.148 114.091 118.668 113.696C118.188 113.301 117.628 113.104 116.988 113.104ZM123.964 113.344C124.422 112.352 125.254 111.856 126.46 111.856V113.312C125.777 113.28 125.19 113.461 124.7 113.856C124.209 114.251 123.964 114.885 123.964 115.76V120H122.572V112H123.964V113.344ZM128.725 114.16C128.725 114.469 128.879 114.72 129.189 114.912C129.498 115.093 129.871 115.243 130.309 115.36C130.746 115.467 131.183 115.595 131.621 115.744C132.058 115.883 132.431 116.128 132.741 116.48C133.05 116.821 133.205 117.264 133.205 117.808C133.205 118.533 132.922 119.115 132.357 119.552C131.802 119.989 131.087 120.208 130.213 120.208C129.434 120.208 128.767 120.037 128.213 119.696C127.658 119.355 127.263 118.901 127.029 118.336L128.229 117.648C128.357 118.032 128.597 118.336 128.949 118.56C129.301 118.784 129.722 118.896 130.213 118.896C130.671 118.896 131.05 118.811 131.349 118.64C131.647 118.459 131.797 118.181 131.797 117.808C131.797 117.499 131.642 117.253 131.333 117.072C131.023 116.88 130.65 116.731 130.213 116.624C129.775 116.507 129.338 116.373 128.901 116.224C128.463 116.075 128.09 115.829 127.781 115.488C127.471 115.147 127.317 114.709 127.317 114.176C127.317 113.483 127.583 112.912 128.117 112.464C128.661 112.016 129.338 111.792 130.149 111.792C130.799 111.792 131.375 111.941 131.877 112.24C132.389 112.528 132.773 112.933 133.029 113.456L131.861 114.112C131.573 113.429 131.002 113.088 130.149 113.088C129.754 113.088 129.418 113.184 129.141 113.376C128.863 113.557 128.725 113.819 128.725 114.16Z" fill="#112232"/>
</svg>
